<svg xmlns="http://www.w3.org/2000/svg" viewBox="0 0 809.5 478.65506">
  <g id="Слой_2" data-name="Слой 2">
    <g id="Layer_1" data-name="Layer 1">
      <g>
        <g>
          <rect x="782.09191" y="299.41587" width="2.31618" height="52.5"/>
          <rect x="782.09191" y="299.41587" width="2.31618" height="52.5" transform="translate(457.58413 1108.91587) rotate(-90)"/>
        </g>
        <path d="M206.83651,259.28043c4.02346,8.11511-3.61429,23.79978-4.43262,38.66612-.75014,14.93453,5.251,29.05073,1.22749,35.87015-4.02345,6.88762-18.13965,6.47845-28.50518,2.72777s-17.04855-10.84288-26.25477-17.6623c-9.27441-6.81942-21.1402-13.50245-25.77741-24.7545s-2.04583-27.20949,7.22859-35.2564c9.20622-8.04692,25.16366-8.2515,40.91653-8.11512C187.06019,250.82435,202.74486,251.23352,206.83651,259.28043Z" style="fill: #fd6a00"/>
        <path d="M599.72733,22.64568c12.7,13.9,22.4,29.6,18.5,41.5-3.8,11.8-21.2,19.8-33.9,28.1-12.7,8.2-20.7,16.7-29.5,17.6-8.9.8-18.6-6-32.8-14.3-14.2-8.2-32.9-17.9-31.6-26.4,1.2-8.4,22.4-15.6,36.6-29.5s21.4-34.6,32.8-38.8C571.32733-3.35432,587.02733,8.74568,599.72733,22.64568Z" style="fill: #fd6a00"/>
        <g>
          <rect y="9.41587" width="3" height="68"/>
          <rect x="32.5" y="-23.08413" width="3" height="68" transform="translate(23.08413 44.91587) rotate(-90)"/>
        </g>
        <path d="M665.52337,439.80527c1.4046-8.87293-1.6444-16.23848.54814-23.50126,2.15828-7.22853,9.59235-14.32,16.5468-13.87465,6.98872.4111,13.56633,8.359,20.86337,15.58757,7.33129,7.26278,15.45053,13.80613,17.369,22.30221,1.987,8.49608-2.19253,18.97915-9.52383,26.44748a39.8538,39.8538,0,0,1-28.19466,11.88767c-10.38029-.10278-20.65781-4.76192-22.85035-12.23025C658.12356,458.92145,664.05026,448.67819,665.52337,439.80527Z" style="fill: #fd6a00"/>
      </g>
    </g>
  </g>
</svg>
