<svg xmlns="http://www.w3.org/2000/svg" viewBox="0 0 963 1166.89"><defs><style>.cls-1{fill:#f36c21;}.cls-2{fill:#d96b27;}.cls-3{fill:#f68920;}.cls-4{fill:#ead3ca;}.cls-5{fill:#ccb9b3;}.cls-6{fill:#221f1f;}.cls-7{fill:#fff;}.cls-11,.cls-12,.cls-8{fill:none;stroke-miterlimit:10;}.cls-8{stroke:#ead3ca;stroke-width:1.01px;}.cls-9{fill:#9b8a86;}.cls-10{fill:#4579bc;}.cls-11{stroke:#000;}.cls-11,.cls-12{stroke-linecap:round;stroke-width:1.51px;}.cls-12{stroke:#fff;}</style></defs><g id="Layer_2" data-name="Layer 2"><g id="Layer_1-2" data-name="Layer 1"><path class="cls-1" d="M0,889.47c29.26,15.35,62.94,27.67,101.83,35.34,126.49,25,247.21,13.05,334.1-59.07,56-46.5,98-118.07,118.39-220.94,20.62-104.1,8.87-219.88-29.15-313.26C481.53,224.31,418.05,189.25,299.55,149.9,185.32,112,78.9,108.29.72,74.53"/><polygon class="cls-2" points="818.33 578.63 757.51 565.75 702.16 528.94 722.77 493.87 816.21 515.15 824.24 562.34 818.33 578.63"/><polygon class="cls-2" points="835.28 560.34 829.59 584.77 791.1 589.79 782.85 567.7 835.28 560.34"/><polygon class="cls-2" points="849.01 530.21 845.1 560.34 806.72 567.03 803.15 542.04 849.01 530.21"/><polygon class="cls-2" points="848 502.76 858.6 529.54 815.2 552.97 804.49 528.2 848 502.76"/><polygon class="cls-3" points="848.67 534.9 816.71 550.63 804.55 532.22 802.09 533.78 815.03 555.98 825.58 549.4 848.23 538.69 848.67 534.9"/><polygon class="cls-3" points="834.39 562.34 798.63 567.36 795.79 548.62 807.84 543.01 806.58 542.51 792.77 546.78 795.79 563.18 796.46 571.05 833.95 565.24 834.39 562.34"/><polygon class="cls-3" points="797.96 567.53 783.51 571.05 786.08 576.57 787.2 579.3 788.34 573.47 797.13 571.05 797.96 567.53"/><path class="cls-3" d="M727.65,633.21l44.54,109.41c32.43,65.65,38.13,99.23,35,145.57-1.44,21.58-3.7,44-26.06,80.52-21.12,34.5-79.78,79.24-79.78,79.24l-1.55,68.36-61.4,30.12,19.7-147.13L697.53,968l48.91-28.71c10.35-25-15.28-101.54-26.52-126.15L660.45,694.61,648.87,617Z"/><path class="cls-2" d="M779.81,970.83c-21.73,28.06-77.23,95.77-77.23,95.77L712.2,1126l-73.76,20.47,19.7-147.13s8.47.52,39.39-45.19c35.52-52.52,34.21-100.43,15.06-141.72l-34.37-80.32-7.34-81.49S801.05,943.42,779.81,970.83Z"/><path class="cls-3" d="M618,209.71l64.87,45.43,7.73,7.34c22.6,24.21,24.71,57.93,29.34,100.41l4.25,118.55,4.64,159.88L553.48,610.61s-8.1-90.17-9.26-118.36S495.69,356,495.69,356s-14.39.41-11.3-36.67c2-24.1.74-82.88,43.22-98.33C547.27,213.89,594.47,201,618,209.71Z"/><polygon class="cls-4" points="938.93 458.07 722.32 581.59 754.98 505.13 953.34 382.57 938.93 458.07"/><polyline class="cls-2" points="499.81 335.08 545.63 509.37 550.01 568.72 725.85 524.82 722.76 457.37 713.26 458.45 587.85 460.97 592.1 343.58 580.13 318.09"/><polygon class="cls-5" points="858.43 489.16 853.58 490.73 852.77 455.95 858.56 451.32 858.43 489.16"/><path class="cls-5" d="M879.83,458l1.85,19.58,16.06-9,.34-14.89Zm2.68,1.34,13.89-3.69-.67,11.56-11.54,6.52Z"/><polygon class="cls-6" points="776.52 370.38 853.5 491.12 841.42 484.42 762.45 378.1 776.52 370.38"/><path class="cls-3" d="M600.73,111.62s-14.65,80.82-36.05,105.29c-13.36,15.28,138.15,84.16,121.68,55-20.47-36.3-9.17-72.25-9.17-72.25Z"/><polygon class="cls-2" points="589.4 143.28 583.51 181.11 576.82 197.59 642.72 226.43 673.62 233.63 676.42 208.16 589.4 143.28"/><polyline class="cls-3" points="485 316.55 477.06 491.6 493.27 541.41 747.87 514.3 810.27 508.97 816.68 497.81 812.61 489.66 815.51 489.89 819.86 484.75 830.24 487.66 833.81 467.8 820.53 456.75 783.6 459.32 805.02 448.94 828.79 453.63 837.41 457.64 844.94 440.74 830.46 430.53 797.99 424.17 761.84 437.56 725.31 466.82 574.72 472.17 581.29 298.78"/><polygon class="cls-2" points="830.24 487.66 818.86 484.31 794.98 487.21 780.7 490.56 785.94 491.87 811.8 488.77 816.15 496.72 828.45 491.23 830.24 487.66"/><polygon class="cls-2" points="828.79 453.63 837.41 457.64 839 454.3 829.24 450.5 805.47 447.27 771.55 458.65 785.16 459.54 805.92 449.05 828.79 453.63"/><polygon class="cls-4" points="724.53 72.99 734.71 61.8 739.3 38.78 735.92 30.04 730.04 41.47 723.17 49.3 717.9 51.62 724.53 72.99"/><polygon class="cls-2" points="729.76 77.33 718.95 116.07 713.47 134.44 702.86 104.91 729.76 77.33"/><path class="cls-3" d="M569.61,152.28l76.2,62.82,54.58,5.66,9.72-63,8.14-23.41-6.89-22.08,19.41-24L730,69.38s-2.09-17.65-25.49-28.83c-40.42-19.31-98.34-6.7-98.34-6.7l-8.24,44.54Z"/><polygon points="717.93 135.16 681.95 129.04 692.73 148.29 712.04 152.25 717.93 135.16"/><polygon class="cls-4" points="728.04 99.39 711.53 89.72 716.78 74.99 735 88.03 728.04 99.39"/><polygon class="cls-2" points="693.41 82.06 682.95 109.66 682.3 125.5 669.63 105.55 659.81 98.18 651.41 76.46 663.36 78.24 693.41 82.06"/><polygon class="cls-4" points="653.64 41.33 643.59 20.55 640.37 6.11 629.59 0 626.22 27.86 628.46 51.19 645.35 54.7 653.64 41.33"/><polygon class="cls-6" points="708.69 165.73 675.85 158.5 656.27 144.44 656.24 146.68 660.92 150.39 675.29 160.83 707.66 168.44 708.69 165.73"/><polygon class="cls-7" points="662.93 149.13 659.71 158.88 661.43 165.53 665.02 166.57 667.74 158.69 671.23 155.13 662.93 149.13"/><path d="M640.5,84.76l1.31,22.54,47.51,12.16,3.95-22.93Zm3.08,2.47L690.26,98.5,687,116.6,643.63,106Z"/><polygon points="707.57 106.36 691.24 103.37 690.93 105.36 707.53 108.88 707.57 106.36"/><polygon class="cls-5" points="722.24 581.46 724.69 587.18 952.97 473.04 949.96 463 944.8 458.27 938.93 458.07 722.24 581.46"/><polyline class="cls-5" points="913.4 464.83 919.83 417.48 916.15 419.48 910.05 465.84 912.39 466.17"/><polygon class="cls-5" points="874.26 488.65 872.41 466.12 873.75 454.07 873.98 445.48 868.84 447.94 870.74 459.93 870.24 471.14 871.42 490.66 874.26 488.65"/><polygon class="cls-5" points="895.06 449.94 891.38 450.95 895.4 432.7 898.75 431.37 895.06 449.94"/><polygon class="cls-5" points="885.02 451.62 882.35 452.29 882.01 440.24 884.52 438.56 885.02 451.62"/><path class="cls-3" d="M553.36,607.2c7.46,70,70,168.5,52.26,304.82-12.73,97.71-53.29,243.29-53.29,243.29l237.88,11.58-38.62-49.43-98.09-18.53s39.39-152.15,53.29-235.57-57.92-269.54-57.92-269.54S549.88,574.63,553.36,607.2Z"/><polygon class="cls-2" points="692.63 197.8 684.91 198.38 667.15 192.39 679.5 205.33 692.63 197.8"/><polyline class="cls-8" points="698.91 147.02 698.62 142.79 692.22 144.06"/><line class="cls-8" x1="710.11" y1="148.98" x2="712.62" y2="144.54"/><polygon class="cls-9" points="953.34 382.57 938.93 458.07 944.47 458.59 949.96 463 952.97 473.04 963 385.74 960.17 382.9 953.34 382.57"/><polygon class="cls-7" points="685.22 105.88 673.59 99.69 653.12 100.52 655 107.85 682.5 115.85 685.22 105.88"/><polygon class="cls-10" points="680.53 114.64 682.65 110.87 679.17 106.19 671.92 107.09 670.41 112.23 680.53 114.64"/><polyline class="cls-11" points="682.04 116 655 107.85 653.12 100.52 674.42 99.84 685.22 105.88 691.86 87.15"/><polygon points="673.66 112.68 674.49 109.81 678.19 109.13 680.38 111.92 678.87 115.02 673.66 112.68"/><path d="M706.89,101.63l-1.48,20.77,19.3,5.14,4.54-19.42Zm1.91,2.53,18.13,5-3.4,16.12L707.34,121Z"/><polygon class="cls-7" points="714 109.17 718.83 108.88 721.53 112.84 718.06 120.37 713.25 118.6 711.36 112.26 714 109.17"/><polyline class="cls-11" points="720.47 97.97 713.71 109.56 718.83 108.88 720.86 111.78"/><polygon class="cls-10" points="712.67 116.75 713.87 113.87 717.16 112.94 719.22 115.53 717.9 119.52 713.34 118.94 712.67 116.75"/><line class="cls-11" x1="718.06" y1="120.37" x2="713.83" y2="119.52"/><polygon points="714.2 117.54 714.97 115.42 716.77 115.03 718.19 116.89 717.16 119.53 714.44 119.13 714.2 117.54"/><polyline class="cls-12" points="670.62 91.23 693.27 96.53 690.9 110.44"/><line class="cls-12" x1="707.28" y1="101.08" x2="727.55" y2="106.71"/><polygon class="cls-4" points="698.57 69.4 693.06 86.44 651.7 77.41 648.05 61.48 698.57 69.4"/></g></g></svg>