<?xml version="1.0" encoding="utf-8"?>
<!-- Generator: Adobe Illustrator 24.1.1, SVG Export Plug-In . SVG Version: 6.00 Build 0)  -->
<svg version="1.1" id="Слой_1" xmlns="http://www.w3.org/2000/svg" xmlns:xlink="http://www.w3.org/1999/xlink" x="0px" y="0px"
	 viewBox="0 0 717.6 298.8" style="enable-background:new 0 0 717.6 298.8;" xml:space="preserve">
<style type="text/css">
	.st0{enable-background:new    ;}
</style>
<g id="Слой_2_1_">
	<g id="Layer_1">
		<g>
			<g class="st0">
				<path d="M19.7,108.3c-6.7-1.9-12-4.5-16.1-7.5L10.7,85c3.9,2.8,8.5,5.1,13.8,6.8c5.3,1.7,10.7,2.6,16,2.6
					c5.9,0,10.3-0.9,13.2-2.6c2.8-1.8,4.3-4.1,4.3-7c0-2.1-0.8-3.9-2.5-5.4C53.7,78,51.6,76.8,49,76c-2.6-0.9-6.2-1.8-10.6-2.8
					c-6.9-1.6-12.5-3.3-16.9-4.9c-4.4-1.6-8.1-4.3-11.3-7.9C7,56.8,5.4,51.9,5.4,45.9c0-5.2,1.4-10,4.3-14.3
					c2.8-4.3,7.1-7.6,12.8-10.1c5.7-2.5,12.7-3.7,21-3.7c5.8,0,11.4,0.7,16.9,2.1c5.5,1.4,10.3,3.4,14.4,5.9l-6.4,15.9
					c-8.3-4.7-16.7-7.1-25-7.1c-5.8,0-10.2,0.9-13,2.8c-2.8,1.9-4.2,4.4-4.2,7.5s1.6,5.4,4.8,6.9c3.2,1.5,8.1,3,14.8,4.5
					c6.9,1.6,12.5,3.3,16.9,4.9c4.4,1.6,8.1,4.2,11.3,7.7c3.1,3.5,4.7,8.3,4.7,14.3c0,5.2-1.4,9.9-4.3,14.1
					c-2.9,4.3-7.2,7.6-13,10.1c-5.8,2.5-12.8,3.7-21,3.7C33.2,111.2,26.3,110.2,19.7,108.3z"/>
				<path d="M103,100.5c-7.2-7.1-10.8-17.3-10.8-30.6V19.3h20.9v49.8c0,16.2,6.7,24.3,20.1,24.3c6.5,0,11.5-2,15-5.9
					c3.4-3.9,5.2-10,5.2-18.4V19.3H174v50.6c0,13.2-3.6,23.4-10.8,30.6c-7.2,7.1-17.2,10.7-30.1,10.7
					C120.2,111.2,110.2,107.6,103,100.5z"/>
				<path d="M276.8,109.6l-0.1-54.2l-26.6,44.6h-9.4l-26.4-43.5v53h-19.6V19.3h17.3l33.8,56.1L279,19.3h17.2l0.3,90.3H276.8z"/>
				<path d="M400,109.6l-0.1-54.2l-26.6,44.6h-9.4l-26.4-43.5v53h-19.6V19.3h17.3l33.8,56.1l33.3-56.1h17.2l0.3,90.3H400z"/>
				<path d="M511,92.9v16.8H441V19.3h68.2v16.8h-47.5v19.6h41.9V72h-41.9v20.9H511z"/>
				<path d="M585.1,109.6l-17.4-25.2h-1h-18.2v25.2h-20.9V19.3h39.1c8,0,14.9,1.3,20.8,4c5.9,2.7,10.4,6.5,13.6,11.4
					c3.2,4.9,4.8,10.7,4.8,17.4s-1.6,12.5-4.8,17.4c-3.2,4.9-7.8,8.6-13.7,11.2l20.3,29H585.1z M579.8,40.4c-3.3-2.7-8-4.1-14.3-4.1
					h-17v31.5h17c6.3,0,11-1.4,14.3-4.1c3.3-2.8,4.9-6.6,4.9-11.6C584.7,47,583.1,43.1,579.8,40.4z"/>
			</g>
			<g class="st0">
				<path d="M93.5,174.1v90.3H72.6v-37h-41v37H10.7v-90.3h20.9v35.6h41v-35.6H93.5z"/>
			</g>
			<g class="st0">
				<path d="M174.4,245.1h-41.9l-8,19.3h-21.4l40.2-90.3H164l40.4,90.3h-21.9L174.4,245.1z M167.8,229.2l-14.3-34.6l-14.3,34.6
					H167.8z"/>
			</g>
			<g class="st0">
				<path d="M230.7,260c-7.4-4-13.3-9.5-17.5-16.6s-6.4-15.1-6.4-24.1c0-8.9,2.1-17,6.4-24.1s10.1-12.6,17.5-16.6
					c7.4-4,15.8-6,25.1-6c7.8,0,14.9,1.4,21.2,4.1c6.3,2.8,11.6,6.7,15.9,11.9L279.5,201c-6.1-7.1-13.7-10.6-22.7-10.6
					c-5.6,0-10.6,1.2-15,3.7c-4.4,2.4-7.8,5.9-10.3,10.3c-2.5,4.4-3.7,9.4-3.7,15c0,5.6,1.2,10.6,3.7,15c2.5,4.4,5.9,7.8,10.3,10.3
					c4.4,2.5,9.4,3.7,15,3.7c9,0,16.6-3.6,22.7-10.7l13.4,12.4c-4.3,5.2-9.6,9.2-16,12c-6.4,2.8-13.5,4.1-21.3,4.1
					C246.5,266,238.2,264,230.7,260z"/>
				<path d="M339.9,229l-12.1,12.6v22.8H307v-90.3h20.8v42.2l40-42.2H391l-37.4,40.2l39.6,50.1h-24.4L339.9,229z"/>
			</g>
			<g class="st0">
				<path d="M500.8,247.4v17h-68.2v-13.5l34.8-32.9c3.7-3.5,6.2-6.6,7.5-9.1c1.3-2.5,1.9-5.1,1.9-7.5c0-3.6-1.2-6.4-3.7-8.3
					c-2.5-1.9-6-2.9-10.8-2.9c-4,0-7.5,0.8-10.7,2.3c-3.2,1.5-5.8,3.8-8,6.8l-15.2-9.8c3.5-5.2,8.4-9.4,14.6-12.3s13.3-4.4,21.3-4.4
					c6.7,0,12.6,1.1,17.6,3.3s8.9,5.3,11.7,9.3c2.8,4,4.2,8.7,4.2,14.1c0,4.9-1,9.5-3.1,13.8c-2.1,4.3-6.1,9.2-12,14.7l-20.8,19.6
					H500.8z"/>
			</g>
			<g class="st0">
				<path d="M527.9,260.4c-5.8-3.7-10.4-9-13.7-16.1c-3.3-7-5-15.4-5-25.1c0-9.7,1.7-18.1,5-25.1c3.3-7,7.9-12.4,13.7-16.1
					c5.8-3.7,12.5-5.5,20-5.5c7.5,0,14.1,1.8,20,5.5c5.8,3.7,10.4,9.1,13.7,16.1c3.3,7,5,15.4,5,25.1c0,9.7-1.7,18.1-5,25.1
					c-3.3,7-7.9,12.4-13.7,16.1c-5.8,3.7-12.5,5.5-20,5.5C540.4,266,533.7,264.1,527.9,260.4z M560.8,241.2c3.1-4.7,4.7-12,4.7-21.9
					c0-9.9-1.6-17.2-4.7-21.9c-3.1-4.7-7.5-7.1-13-7.1c-5.4,0-9.7,2.4-12.8,7.1c-3.1,4.7-4.7,12-4.7,21.9c0,9.9,1.6,17.2,4.7,21.9
					c3.1,4.7,7.4,7.1,12.8,7.1C553.4,248.3,557.7,246,560.8,241.2z"/>
			</g>
			<g class="st0">
				<path d="M663.4,247.4v17h-68.2v-13.5L630,218c3.7-3.5,6.2-6.6,7.5-9.1c1.3-2.5,1.9-5.1,1.9-7.5c0-3.6-1.2-6.4-3.7-8.3
					s-6-2.9-10.8-2.9c-4,0-7.5,0.8-10.7,2.3c-3.2,1.5-5.8,3.8-8,6.8l-15.2-9.8c3.5-5.2,8.4-9.4,14.6-12.3s13.3-4.4,21.3-4.4
					c6.7,0,12.6,1.1,17.6,3.3c5,2.2,8.9,5.3,11.7,9.3c2.8,4,4.2,8.7,4.2,14.1c0,4.9-1,9.5-3.1,13.8c-2.1,4.3-6.1,9.2-12,14.7
					l-20.8,19.6H663.4z"/>
				<path d="M706.9,174.1v90.3H686v-73.5H668v-16.8H706.9z"/>
			</g>
			<circle cx="547.7" cy="219.9" r="8.5"/>
		</g>
	</g>
</g>
</svg>
