<?xml version="1.0" encoding="utf-8"?>
<!-- Generator: Adobe Illustrator 24.1.1, SVG Export Plug-In . SVG Version: 6.00 Build 0)  -->
<svg version="1.1" id="Слой_1" xmlns="http://www.w3.org/2000/svg" xmlns:xlink="http://www.w3.org/1999/xlink" x="0px" y="0px"
	 viewBox="0 0 1010.8 166.4" style="enable-background:new 0 0 1010.8 166.4;" xml:space="preserve">
<style type="text/css">
	.st0{fill:#FD6A00;}
	.st1{enable-background:new    ;}
</style>
<g id="Слой_2_1_">
	<g id="Layer_1">
		<path class="st0" d="M956.5,68.8c11-3.7,17.6-11.6,27.3-13.4s22.1,2.5,25.8,10.7s-1.5,20.5-5.4,33.2s-6.6,26-15.2,33.2
			c-8.6,7.2-23.1,8.8-36,4.8c-13.1-4-24.1-13.1-30.4-25.3c-6.1-12-6.8-26.5,0.4-33.5S945.5,72.4,956.5,68.8z"/>
		<g class="st1">
			<path d="M131.9,69.8v70h-16.1V83H84.1v56.8H68.1v-70H131.9z"/>
		</g>
		<g class="st1">
			<path d="M163,136.3c-5.8-3.1-10.4-7.5-13.7-13s-5-11.7-5-18.5c0-6.9,1.7-13,5-18.5c3.3-5.5,7.9-9.8,13.7-12.9
				c5.8-3.1,12.4-4.7,19.6-4.7c7.3,0,13.8,1.6,19.6,4.7c5.8,3.1,10.4,7.5,13.7,12.9c3.3,5.5,5,11.7,5,18.5c0,6.9-1.7,13-5,18.5
				c-3.3,5.5-7.9,9.8-13.7,13c-5.8,3.1-12.3,4.7-19.6,4.7C175.4,141,168.8,139.4,163,136.3z M193.8,124.4c3.3-1.9,6-4.5,7.9-8
				c1.9-3.4,2.9-7.3,2.9-11.6c0-4.3-1-8.2-2.9-11.6c-1.9-3.4-4.5-6.1-7.9-8c-3.3-1.9-7.1-2.9-11.2-2.9c-4.1,0-7.9,1-11.2,2.9
				c-3.3,1.9-5.9,4.5-7.9,8c-1.9,3.4-2.8,7.3-2.8,11.6c0,4.3,0.9,8.2,2.8,11.6c1.9,3.4,4.5,6.1,7.9,8c3.3,1.9,7.1,2.9,11.2,2.9
				C186.8,127.2,190.5,126.3,193.8,124.4z"/>
		</g>
		<g class="st1">
			<path d="M303.6,126.6v27.7h-15v-14.5h-49.4v14.5h-15l0.1-27.7h2.8c4.2-0.1,7.2-3.2,8.9-9.2c1.7-6,2.8-14.6,3.2-25.7l0.8-21.9
				h53.8v56.8H303.6z M251.5,114.2c-1.1,5.6-2.7,9.8-4.9,12.5h31.3V83h-24l-0.3,10.2C253.2,101.5,252.5,108.5,251.5,114.2z"/>
		</g>
		<g class="st1">
			<path d="M362.6,124.8h-32.5l-6.2,15h-16.6l31.2-70h16l31.3,70h-17L362.6,124.8z M357.5,112.5l-11.1-26.8l-11.1,26.8H357.5z"/>
		</g>
		<g class="st1">
			<path d="M445.1,83h-22.4v56.8h-16V83h-22.3V69.8h60.7V83z"/>
			<path d="M508.8,98.5c4.6,3.8,6.9,9.4,6.9,16.9c0,7.9-2.5,14-7.6,18.2c-5,4.2-12.1,6.3-21.2,6.3h-31.6v-70h16.1v23h17.8
				C497.7,92.8,504.2,94.7,508.8,98.5z M495.8,124.7c2.4-2.1,3.5-5.1,3.5-9c0-7.3-4.5-10.9-13.4-10.9h-14.6v23h14.6
				C490.1,127.8,493.4,126.8,495.8,124.7z"/>
			<path d="M605,109.9c2.3,3,3.5,6.4,3.5,10.4c0,4.3-1.4,8-4.2,11.1c-2.8,3.1-6.6,5.5-11.3,7.2c-4.8,1.7-10,2.5-15.7,2.5
				c-4.8,0-9.6-0.6-14.3-1.8c-4.8-1.2-9.3-3-13.5-5.5l5-11.6c3.1,1.9,6.5,3.3,10.1,4.3c3.7,1,7.3,1.5,10.9,1.5c4.8,0,8.8-0.9,12-2.6
				c3.2-1.7,4.8-4.2,4.8-7.3c0-2.6-1.1-4.6-3.3-5.9c-2.2-1.3-5.1-2-8.9-2h-17.1V97.8h15.9c3.3,0,5.8-0.7,7.7-2
				c1.8-1.3,2.8-3.2,2.8-5.5c0-2.7-1.3-4.9-4-6.4c-2.6-1.5-6-2.3-10.1-2.3c-3.1,0-6.2,0.4-9.5,1.3c-3.3,0.8-6.4,2.1-9.3,3.7
				L551.3,74c7.4-3.8,15.4-5.7,24-5.7c5.5,0,10.5,0.8,15.1,2.4c4.6,1.6,8.3,3.9,11,7c2.7,3.1,4.1,6.6,4.1,10.7
				c0,3.3-0.9,6.3-2.7,8.9s-4.3,4.6-7.4,6C599.5,104.7,602.7,106.9,605,109.9z"/>
		</g>
		<g class="st1">
			<path d="M668.7,124.8h-32.5l-6.2,15h-16.6l31.2-70h16l31.3,70h-17L668.7,124.8z M663.5,112.5l-11.1-26.8l-11.1,26.8H663.5z"/>
		</g>
		<g class="st1">
			<path d="M753.5,69.8v70h-16v-18.6h-14.8l-12.4,18.6h-17.1l14.6-21.1c-4.7-1.9-8.4-4.9-10.9-8.8c-2.5-3.9-3.8-8.6-3.8-14.1
				c0-5.4,1.2-10,3.7-13.9c2.5-3.9,6-6.9,10.5-9c4.5-2.1,9.9-3.2,16-3.2H753.5z M713.1,86.2c-2.4,2.1-3.6,5.3-3.6,9.5
				c0,4.1,1.2,7.2,3.5,9.4c2.3,2.2,5.8,3.3,10.3,3.3h14.2V83h-13.8C719,83,715.5,84.1,713.1,86.2z"/>
			<path d="M829.2,109.5c2.3,2.9,3.4,6.4,3.4,10.6c0,6.2-2.4,11-7,14.5c-4.7,3.5-11.4,5.2-20.2,5.2h-34.5v-70h32.6
				c8.1,0,14.5,1.6,19,4.7c4.5,3.1,6.8,7.6,6.8,13.4c0,3.5-0.9,6.5-2.6,9.2c-1.7,2.6-4.2,4.7-7.3,6.3
				C823.7,104.6,827,106.6,829.2,109.5z M787,98.8h15.1c3.5,0,6.2-0.7,8-2.2c1.8-1.4,2.7-3.5,2.7-6.3c0-2.7-0.9-4.8-2.8-6.3
				c-1.8-1.5-4.5-2.2-8-2.2H787V98.8z M816.2,118.8c0-5.8-3.8-8.7-11.4-8.7H787v17.7h17.8C812.4,127.8,816.2,124.8,816.2,118.8z"/>
		</g>
		<g class="st1">
			<path d="M872.5,111.6h-11.2v28.2h-16.1v-70h16.1v28.3H873l18.4-28.3h17.1l-22.9,33.8l23.6,36.2h-18.4L872.5,111.6z"/>
		</g>
		<g class="st1">
			<path d="M981.1,69.8l-29.8,55.4c-2.9,5.3-6.3,9.4-10.3,12.1c-4,2.7-8.4,4.1-13.2,4.1c-3.7,0-7.5-0.8-11.4-2.4l3.9-12.3
				c2.8,0.9,5.1,1.3,7,1.3c2,0,3.8-0.5,5.4-1.5c1.6-1,3.1-2.5,4.4-4.5l0.6-0.8l-27.6-51.4h17.3l18.6,37.6l19.2-37.6H981.1z"/>
		</g>
		<rect x="32" width="3" height="67"/>
		<rect y="32" width="67" height="3"/>
	</g>
</g>
</svg>
