<svg xmlns="http://www.w3.org/2000/svg" viewBox="0 0 1579.22 254.18"><defs><style>.cls-1{fill:#010101;}.cls-2{fill:#f36c24;}.cls-3{fill:#fff;}</style></defs><g id="Layer_2" data-name="Layer 2"><g id="Layer_1-2" data-name="Layer 1"><path class="cls-1" d="M128.66,111.33h36.82V182a105,105,0,0,1-32.84,16.42,127.38,127.38,0,0,1-37.58,5.73,101.82,101.82,0,0,1-48.77-11.57,86.23,86.23,0,0,1-34-32.1A88.45,88.45,0,0,1,0,114.07a88.39,88.39,0,0,1,12.32-46.4A85.82,85.82,0,0,1,46.54,35.56,103.82,103.82,0,0,1,95.81,24a107.62,107.62,0,0,1,41.55,7.71A82.47,82.47,0,0,1,168.72,54.1L142.84,78a59.86,59.86,0,0,0-45-19.65,61.51,61.51,0,0,0-29.62,7A50.06,50.06,0,0,0,48,85a57.92,57.92,0,0,0-7.21,29.11A57.41,57.41,0,0,0,48,142.93a51,51,0,0,0,20,19.79,59.34,59.34,0,0,0,29.23,7.09,65.34,65.34,0,0,0,31.36-7.47Z"/><path class="cls-1" d="M202.81,27h40.31V168.32h87.33v32.84H202.81Z"/><path class="cls-1" d="M901.13,27l-57,174.18h-43.3L762.54,83.22,723,201.16H679.93L622.7,27h41.81L703.82,149.4,744.88,27H782.2L822,150.4,862.57,27Z"/><path class="cls-1" d="M1074.82,126.39a43.55,43.55,0,0,1,8.46,27.25,40.24,40.24,0,0,1-17.79,35.2,90.91,90.91,0,0,1-51.88,12.32H923.54V27h85.1a83.34,83.34,0,0,1,48.89,12.19,38.6,38.6,0,0,1,17,33.1,41.86,41.86,0,0,1-23.13,38.32A45.89,45.89,0,0,1,1074.82,126.39Zm-111.23-69V98.4h40.07a40.46,40.46,0,0,0,22.64-5.23A17.43,17.43,0,0,0,1034,77.75a17.14,17.14,0,0,0-7.71-15.31,41.29,41.29,0,0,0-22.64-5.1Zm71.05,108.24a17.9,17.9,0,0,0,8.08-16.18q0-21.63-32.1-21.64h-47v43h47a44.69,44.69,0,0,0,24-5.22Z"/><path class="cls-1" d="M1188.47,139.45v61.71h-40.31V139L1080.73,27h42.8l46.52,77.39L1216.58,27h39.57Z"/><path class="cls-1" d="M1326.65,59.83h-55.74V27h151.78V59.83H1367V201.16h-40.31Z"/><path class="cls-1" d="M1579.22,168.81v32.35H1444.35V27H1576V59.33h-91.57V97.15h80.86v31.36h-80.86v40.3Z"/><path class="cls-2" d="M573.18,86.66a98.29,98.29,0,1,1-196.58,0C376.6,32.38,419.75,4.3,474,4.3S573.18,32.38,573.18,86.66Z"/><path class="cls-2" d="M379.25,65.67l-25.38,86.05c23,82.21,73,102.46,120.27,102.46S581.1,225,594.89,153.76L570.73,66.18Z"/><path class="cls-2" d="M401.86,35.32s-15.19-4.7-21.53-8.54c-4.19-2.54-11.4-11.86-16.5-19.2C361.37,4,358,2.43,355.58,3.27c-2.23.78-3.15,2-3.51,6.46-1,12.5,4.73,37.35,16.57,48.29,16.08,14.86,28.1,14.56,37.15,7.61S414.22,40.9,401.86,35.32Z"/><path class="cls-2" d="M553.53,34.22s15-5.36,21.13-9.47C578.75,22,585.54,12.39,590.3,4.83c2.3-3.66,5.61-5.4,8.06-4.66,2.25.68,3.23,1.85,3.79,6.29,1.56,12.44-3.08,37.52-14.43,49C572.32,71,560.3,71.23,551,64.68S541.43,40.34,553.53,34.22Z"/><path class="cls-3" d="M546,169.06a141.42,141.42,0,0,1-122.87,28.56,385.75,385.75,0,0,0,62.6-9.26A385.27,385.27,0,0,0,546,169.06Z"/><path class="cls-3" d="M525.26,177.46l.57,14.84c.16,4.11-3.44,5.9-6.82,3.4l-11.5-8.47Z"/><path class="cls-3" d="M499.89,144.73c5.77,0,8.44,5,4.09,7.58l-16.56,10.47c-4.13,3.23-16.26,3.79-22.37-.19l-18.53-10.3c-4.31-2.63-1.62-7.56,4.13-7.56"/></g></g></svg>