<?xml version="1.0" encoding="utf-8"?>
<!-- Generator: Adobe Illustrator 24.1.1, SVG Export Plug-In . SVG Version: 6.00 Build 0)  -->
<svg version="1.1" id="Слой_1" xmlns="http://www.w3.org/2000/svg" xmlns:xlink="http://www.w3.org/1999/xlink" x="0px" y="0px"
	 viewBox="0 0 1920 1325.2" style="enable-background:new 0 0 1920 1325.2;" xml:space="preserve">
<style type="text/css">
	.st0{fill:#FD6A00;}
</style>
<g>
	<rect x="1603.3" y="1097.7" transform="matrix(0.7071 -0.7071 0.7071 0.7071 -299.2692 1475.4741)" width="56.3" height="2.5"/>
	<rect x="1630.2" y="1070.8" transform="matrix(0.7071 -0.7071 0.7071 0.7071 -299.2843 1475.4733)" width="2.5" height="56.3"/>
	<rect x="1603.2" y="1166.2" transform="matrix(0.7071 -0.7071 0.7071 0.7071 -347.6974 1495.5234)" width="56.3" height="2.5"/>
	<rect x="1630.2" y="1139.3" transform="matrix(0.7071 -0.7071 0.7071 0.7071 -347.7011 1495.5304)" width="2.5" height="56.3"/>
	<rect x="1603.3" y="1234.7" transform="matrix(0.7071 -0.7071 0.7071 0.7071 -396.1156 1515.5825)" width="56.3" height="2.5"/>
	<rect x="1630.2" y="1207.8" transform="matrix(0.7071 -0.7071 0.7071 0.7071 -396.1219 1515.5833)" width="2.5" height="56.3"/>
	<rect x="1603.3" y="1303.2" transform="matrix(0.7071 -0.7071 0.7071 0.7071 -444.5269 1535.6387)" width="56.3" height="2.5"/>
	<rect x="1630.2" y="1276.3" transform="matrix(0.7071 -0.7071 0.7071 0.7071 -444.5357 1535.6333)" width="2.5" height="56.3"/>
	<path class="st0" d="M0,0v1283.5c233.1,43,871.3-36.9,1077-88.3c88-22,373-62,442.3-74c188.3-32.6,311.4-36.3,400.7-37.8V0H0z"/>
</g>
</svg>
