<svg xmlns="http://www.w3.org/2000/svg" viewBox="0 0 557.04 956.52"><defs><style>.cls-1{fill:#f58821;}.cls-2{fill:#d66b27;}.cls-3{fill:#d76a27;}.cls-4{fill:#f38621;}.cls-5{fill:#e9d2c9;}.cls-6,.cls-8,.cls-9{fill:none;stroke-linecap:round;stroke-miterlimit:10;}.cls-6{stroke:#010101;stroke-width:1.55px;}.cls-7{fill:#010101;}.cls-8{stroke:#fff;stroke-width:1.45px;}.cls-9{stroke:#e9d2c9;stroke-width:1.38px;}.cls-10{fill:#fff;}.cls-11{fill:#b65728;}.cls-12{fill:#6a6968;}.cls-13{fill:#a19f9f;}.cls-14{fill:#302c2d;}</style></defs><g id="Layer_2" data-name="Layer 2"><g id="Layer_1-2" data-name="Layer 1"><path class="cls-1" d="M222.55,289.41c-11.35,17.79-.4,103.4.72,130.33,2.47,59.27-18.8,103.12-18.8,103.12-3,50.16,20.05,48.72,70.29,49.16l69,.62c45.47.4,79.67-.22,84.1-45.48L444.5,364.62c2.06-21.07-56.13-79.12-118.72-91C265.36,262.22,246.19,252.35,222.55,289.41Z"/><polygon class="cls-2" points="58.45 39.12 71.88 21.75 85.04 23.36 77.52 53.17 74.03 64.18 64.09 73.85 63.83 112.52 27.84 70.9 38.58 44.04 58.45 39.12"/><path class="cls-1" d="M320,726.29c-5.38-54.79,6.44-159.52,6.44-159.52l105-59.08S401.64,661.84,402.18,715s8.06,121.92,8.06,121.92l5.37,79.49s-123.53,35.27-140.36,40.1c-3.34-15,11.89-51.56,11.89-51.56s50.49-22.91,71.54-34.19C357.6,859.49,325.38,781.07,320,726.29Z"/><path class="cls-1" d="M284.2,566.59s-84.15,51.92-84.5,104.91,65.88,155.4,65.88,155.4l-139,96.74.9-63.79s47.62-33.66,65.09-46.91C151,758.71,125.67,706,128.8,652.17c5.06-86.87,82.79-142.87,82.79-142.87"/><path class="cls-1" d="M0,18.53,2.59,85.58C13.94,125.3,52.71,248.76,52.71,248.76l38.67,22.56s97.47,45.46,144.91,46.78l94.53-7.66,78.34,61.36,9.49-5.24,64.81,76.63-5.37,15L407,481l-30.13,4.2-79.07-7.06s13.43,30.09,40.19,38.67c68.86,22.08,196.48-23.15,196.48-23.15L557,442.11S517.76,310.5,472.72,260.57c-22.48-24.9-48.44-27.62-66.8-33.93-24.5-8.46-47.58-12.08-64.59-14.3l-4.29-.5c-21.14-2.24-44,1.74-68.06,6.48-39,7.69-159.34-23.27-159.34-23.27L48.25,68.75,34.82,61.5l1.34-3.23,14,4.57,28.2-33.57L74.57,0Z"/><polygon class="cls-3" points="416.86 372.83 440.85 393.96 437.35 428.29 430.63 416.25 427.14 396.65 416.86 372.83"/><path class="cls-1" d="M300.13,199.93s-24,17.19-49,25.07,113.86,35.81,113.86,35.81L410.06,230s-40.83-30.66-38.68-41.41-48,24.23-48,24.23Z"/><path class="cls-2" d="M377.65,203.64l-5.51,13.71S355,226.7,338.91,230.69s-37.21,7.09-37.21,7.09L271.22,217l-3.78-34.7L361,158.53Z"/><path class="cls-4" d="M340.88,44.6h0A220.09,220.09,0,0,0,224.42,79.33l-.34.22,6.57,38.14,8.88,65.82L300.16,229l11.94-1.42a133.93,133.93,0,0,0,43.24-12.8L367.2,209l21.85-70.21-35-61.6Z"/><polygon class="cls-5" points="235.16 102.42 211.04 81.72 206.34 62.33 214.16 62.76 222.65 74.7 239.63 78.89 244.43 86.71 235.16 102.42"/><polygon class="cls-5" points="346.61 69.84 354.25 45.95 348.05 17.57 338.08 23.61 341.31 42 328.95 53.66 333.04 66.44 346.61 69.84"/><polygon class="cls-2" points="291.14 129.67 277.3 101.25 257.06 118.25 268.77 131.66 275.47 127.17 291.14 129.67"/><polygon class="cls-2" points="306.03 90.3 315.41 121.68 329.6 112.15 335.95 111.72 337.17 93.23 306.03 90.3"/><polygon class="cls-5" points="303.52 85.42 306.56 95.14 344.49 97.39 345.63 79.55 303.52 85.42"/><polygon class="cls-5" points="255.4 119.79 283.76 108 285.46 94.55 242.69 109.34 255.4 119.79"/><polyline class="cls-6" points="310.25 104.48 315.41 121.68 329.25 111.78 343.96 111.87"/><path class="cls-7" d="M292.77,116.25,243.05,129.2l6.1,21.23,50.22-14.57Zm-40,30.59-5.33-16.16,43.52-12,5.73,16.4Z"/><path class="cls-7" d="M307,110.63l6.53,20.19L361,121.14,354.18,96Zm7.77,18.43-5.57-17.52L351.61,99.6l4.91,19.8Z"/><polygon class="cls-7" points="294.12 121.16 309.4 116.1 310.12 119.32 294.07 123.87 294.12 121.16"/><polyline class="cls-6" points="284.49 114.16 291.14 129.67 275.82 127.54 263.03 135.99"/><polyline class="cls-8" points="310.78 123.48 306.57 110.52 330.67 103.53"/><polyline class="cls-8" points="258.27 125.3 243.05 129.2 248.85 149.78"/><polygon class="cls-2" points="316.55 209.77 345 197.49 330.36 211.38 316.55 209.77"/><polygon class="cls-2" points="281.23 174.5 286.06 175.22 314.32 169.88 336.31 161.13 344.96 160.33 348.36 157.77 347.88 163.83 340.47 187.3 312.22 197.77 299.69 193.05 295.83 185.87 291.44 181.26 286.01 178.37 281.23 174.5"/><polygon class="cls-7" points="303.81 159.38 322.45 153.73 327.02 136.87 288.05 149.25 303.81 159.38"/><path class="cls-9" d="M318.52,151.88l-1.6-4.69s3.93-1.49,4.2-1.57"/><polyline class="cls-9" points="304.62 156.77 304.05 151.59 299.05 152.88"/><polyline class="cls-9" points="307.08 142.91 287.57 148.75 295.09 153.96"/><polygon class="cls-10" points="290.54 174.34 294.65 179.62 297.2 181.39 300.07 181.75 299.13 178.1 316.1 175.4 335.02 167.87 338.83 171.25 340.1 168.42 340.91 164.39 340.07 160.81 336.31 161.13 314.32 169.88 290.54 174.34"/><polygon class="cls-11" points="309.72 193.45 312.39 181.16 320.73 180.31 328.92 176.81 336.1 186.37 319.53 192.44 309.72 193.45"/><polygon class="cls-10" points="304.28 187.7 303.45 188.2 303.35 193.26 303.19 194.44 312.51 197.86 340.5 187.5 342.49 179.5 339.87 179.24 335.77 185.13 311.94 192.58 307.95 191.85 304.28 187.7"/><polygon class="cls-3" points="429.48 519.45 355.9 510.32 325.91 497.61 317.49 480.25 251.7 465.48 258.59 482.21 310.15 498.33 349.45 520.8 427.06 530.73 429.48 519.45"/><polygon class="cls-12" points="243.39 470.04 407.75 498.24 465.03 454.76 465.17 452.55 389.21 439.92 243.24 463.38 243.39 470.04"/><polygon class="cls-13" points="420.37 479.79 443.4 462.18 365.6 449.21 348.57 464.69 420.37 479.79"/><polygon class="cls-14" points="237.37 340 232.27 341.57 243.24 463.38 403.83 490.8 408.76 487.14 398.74 358.41 396.78 354.88 237.37 340"/><polygon class="cls-2" points="34.82 61.5 32.76 52.19 41.13 43.51 43.41 49.68 36.57 53.17 37.1 58.68 34.82 61.5"/><polygon class="cls-2" points="56.71 57.87 56.66 27.39 30.79 26.59 28.51 25.11 60.16 24.84 58.32 56.4 56.71 57.87"/><polygon class="cls-2" points="68.75 45.92 69.55 19.51 41.89 13.34 47.09 10.29 71.52 18.26 70.54 43.41 68.75 45.92"/><polygon class="cls-3" points="141.56 913.13 140.51 882.67 146.96 866.29 150.45 868.98 146.42 885.63 149.91 907.38 141.56 913.13"/><polygon class="cls-3" points="159.04 900.93 157.97 881.87 162.53 864.95 166.83 863.88 162.8 881.06 165.88 896.38 159.04 900.93"/><polygon class="cls-3" points="287.33 953.17 291.88 934.23 298.69 920.99 302.45 921.08 296.4 934.5 297.62 949.95 287.33 953.17"/><polygon class="cls-3" points="307.23 947.39 307.82 931.55 313.99 918.52 316.55 918.79 311.85 932.22 311.79 946.05 307.23 947.39"/><polyline class="cls-1" points="325.91 497.61 310.51 476.49 307.11 451.15 308.19 446.05 318.39 451.69 322.51 466.46 327.16 475.95 333.88 481.32 327.79 460.28 325.32 440.19 329.13 433.97 338.98 440.5 343.1 459.48 348.11 476.75 354.29 481.86 349.81 461.09 347.98 442.92 350.93 438.08 362.07 446.01 363.82 461.31 368.79 479.44 389.29 492.78"/><polygon class="cls-1" points="366.57 488.42 383.85 482.8 392.57 468.45 403.25 461.15 405.21 473.63 402.34 482.46 393.52 500.74 378.89 499.92 366.57 488.42"/></g></g></svg>