<?xml version="1.0" encoding="utf-8"?>
<!-- Generator: Adobe Illustrator 24.1.1, SVG Export Plug-In . SVG Version: 6.00 Build 0)  -->
<svg version="1.1" id="Слой_1" xmlns="http://www.w3.org/2000/svg" xmlns:xlink="http://www.w3.org/1999/xlink" x="0px" y="0px"
	 viewBox="0 0 375 714.4" style="enable-background:new 0 0 375 714.4;" xml:space="preserve">
<style type="text/css">
	.st0{fill:#FD6E08;}
	.st1{fill:#FFFFFF;}
	.st2{fill:none;stroke:#FFFFFF;stroke-width:12.5693;stroke-miterlimit:10;}
	.st3{fill:none;stroke:#000000;stroke-width:6.2846;stroke-miterlimit:10;stroke-dasharray:31.4232,28.2809;}
	.st4{enable-background:new    ;}
</style>
<g>
	<path class="st0" d="M6.9,53.5c-2.3-0.3-4.6-0.6-6.9-0.8v639.8c128.1-1.9,258.3,1,375,11.3V155.6C244.7,106.4,154.7,72.4,6.9,53.5z
		"/>
	<path class="st1" d="M213.8,596.3c-4-1.7-8.1-3.5-12-5.3l2.7-5.7c3.8,1.8,7.8,3.5,11.7,5.2L213.8,596.3z M176.6,577.6
		c-9.1-5.5-18-11.5-26.2-17.9l3.8-5c8.1,6.3,16.7,12.1,25.6,17.5L176.6,577.6z M128.7,541c-7.6-7.3-14.8-15.2-21.4-23.5l4.9-3.9
		c6.5,8.1,13.5,15.8,20.9,22.9L128.7,541z M74.4,461.5c-3.3-8.3-6.2-17-8.9-25.9l5.2-1.5c2.6,8.7,5.5,17.3,8.7,25.5L74.4,461.5z
		 M46,375.5c-2.2-10.1-4.1-20.5-5.6-31.1l6.2-0.9c1.5,10.5,3.4,20.8,5.5,30.7L46,375.5z M41.3,281.6l-6.3,0c0-10.3,0.3-21,0.8-31.6
		l6.3,0.3C41.6,260.8,41.3,271.3,41.3,281.6z M47.4,198.5l-6.3-0.6c1.1-10.4,2.4-20.9,3.9-31.3l6.2,0.9
		C49.8,177.7,48.5,188.2,47.4,198.5z M53.3,145.7l-6.2-1.1c1.9-10.5,4.1-20.9,6.4-30.9l6.1,1.4C57.3,125,55.2,135.3,53.3,145.7z
		 M66.5,87.7L60.5,86c3.1-11.3,6.5-21.7,9.6-30.2l5.9,2.2C72.9,66.4,69.6,76.6,66.5,87.7z"/>
	<g>
		<path class="st2" d="M202,535.6c0.6,1,62.5,115.1,62.5,115.1"/>
		<path class="st2" d="M285.7,558.9c-1,0.6-104.9,68.5-104.9,68.5"/>
	</g>
	<path class="st3" d="M92.6,3.5c0,0-10.6,17.9-16.4,48"/>
</g>
<g class="st4">
	<path class="st1" d="M87.4,130.6h7.5v15.9l11.2-15.9h7.2v27h-7.5v-15.8l-11.1,15.8h-7.2V130.6z"/>
	<path class="st1" d="M140.8,136.7h-8.3v21H125v-21h-8.3v-6.1h24.1V136.7z"/>
	<path class="st1" d="M149.6,156.4c-2.3-1.2-4.1-2.9-5.4-5c-1.3-2.1-2-4.5-2-7.2c0-2.7,0.7-5.1,2-7.2c1.3-2.1,3.1-3.8,5.4-5
		c2.3-1.2,4.8-1.8,7.7-1.8c2.9,0,5.4,0.6,7.7,1.8c2.3,1.2,4.1,2.9,5.4,5c1.3,2.1,2,4.5,2,7.2c0,2.7-0.7,5.1-2,7.2
		c-1.3,2.1-3.1,3.8-5.4,5c-2.3,1.2-4.8,1.8-7.7,1.8C154.4,158.2,151.8,157.6,149.6,156.4z M161,150.9c1.1-0.6,2-1.6,2.6-2.7
		c0.6-1.2,1-2.5,1-4c0-1.5-0.3-2.9-1-4c-0.6-1.2-1.5-2.1-2.6-2.7c-1.1-0.6-2.3-1-3.7-1s-2.6,0.3-3.7,1c-1.1,0.6-2,1.6-2.6,2.7
		c-0.6,1.2-1,2.5-1,4c0,1.5,0.3,2.9,1,4c0.6,1.2,1.5,2.1,2.6,2.7c1.1,0.6,2.3,1,3.7,1S159.9,151.6,161,150.9z"/>
	<path class="st1" d="M196.2,136.7h-12.2v21h-7.5v-27h19.8L196.2,136.7z"/>
	<path class="st1" d="M199.6,130.6h7.5v15.9l11.2-15.9h7.2v27H218v-15.8l-11.1,15.8h-7.2V130.6z"/>
</g>
<g class="st4">
	<path class="st1" d="M89.4,296.3v13.1H87v-11h-6.8v11h-2.4v-13.1H89.4z"/>
	<path class="st1" d="M100.9,300c0.8,0.4,1.4,1,1.8,1.8c0.4,0.8,0.7,1.7,0.7,2.7s-0.2,1.9-0.7,2.7c-0.4,0.8-1,1.4-1.8,1.8
		c-0.8,0.4-1.6,0.6-2.6,0.6c-1.3,0-2.4-0.4-3.2-1.3v4.8h-2.3v-13.6H95v1.3c0.4-0.5,0.9-0.8,1.4-1.1c0.6-0.2,1.2-0.4,1.9-0.4
		C99.3,299.3,100.2,299.6,100.9,300z M100.2,306.7c0.6-0.6,0.8-1.3,0.8-2.3s-0.3-1.7-0.8-2.3s-1.3-0.9-2.1-0.9
		c-0.6,0-1.1,0.1-1.5,0.4c-0.4,0.3-0.8,0.6-1.1,1.1s-0.4,1-0.4,1.6s0.1,1.2,0.4,1.6c0.3,0.5,0.6,0.8,1.1,1.1c0.4,0.3,1,0.4,1.5,0.4
		C98.9,307.6,99.6,307.3,100.2,306.7z"/>
	<path class="st1" d="M112.7,300.4c0.8,0.7,1.2,1.8,1.2,3.2v5.9h-2.2v-1.2c-0.3,0.4-0.7,0.8-1.2,1s-1.2,0.3-1.9,0.3
		c-0.7,0-1.4-0.1-2-0.4c-0.6-0.3-1-0.6-1.3-1.1c-0.3-0.5-0.5-1-0.5-1.5c0-0.9,0.3-1.6,1-2.2c0.7-0.5,1.7-0.8,3.1-0.8h2.6v-0.1
		c0-0.7-0.2-1.2-0.6-1.6s-1-0.6-1.9-0.6c-0.6,0-1.1,0.1-1.7,0.3c-0.5,0.2-1,0.4-1.4,0.7l-0.9-1.7c0.5-0.4,1.2-0.7,1.9-0.9
		s1.5-0.3,2.3-0.3C110.8,299.3,111.9,299.7,112.7,300.4z M110.5,307.5c0.5-0.3,0.8-0.7,1-1.1v-1.2h-2.4c-1.3,0-2,0.4-2,1.3
		c0,0.4,0.2,0.8,0.5,1c0.3,0.3,0.8,0.4,1.4,0.4C109.6,307.9,110.1,307.7,110.5,307.5z"/>
	<path class="st1" d="M120.9,305.4h-1.8v4h-2.3v-10h2.3v4h1.9l3-4h2.5l-3.6,4.8l3.9,5.2h-2.7L120.9,305.4z"/>
	<path class="st1" d="M136.1,301.4h-3.5v8h-2.3v-8h-3.5v-2h9.3V301.4z"/>
	<path class="st1" d="M137.8,299.5h2.3v6.6l5.5-6.6h2.1v10h-2.3v-6.6l-5.5,6.6h-2.1V299.5z"/>
	<path class="st1" d="M159.4,299.5v10H157v-3.9c-1,0.5-2,0.7-3,0.7c-1.3,0-2.3-0.3-3-0.9c-0.7-0.6-1-1.5-1-2.7v-3.2h2.3v3
		c0,0.6,0.2,1.1,0.6,1.4s0.9,0.5,1.6,0.5c0.9,0,1.7-0.2,2.5-0.6v-4.4H159.4z"/>
	<path class="st1" d="M171.8,305.2H164c0.1,0.7,0.5,1.3,1.1,1.7c0.6,0.4,1.3,0.6,2.2,0.6c1.1,0,2-0.4,2.7-1.1l1.3,1.4
		c-0.4,0.5-1,0.9-1.7,1.2c-0.7,0.3-1.5,0.4-2.3,0.4c-1.1,0-2.1-0.2-2.9-0.7s-1.5-1-1.9-1.8c-0.5-0.8-0.7-1.7-0.7-2.6
		c0-1,0.2-1.8,0.7-2.6c0.4-0.8,1.1-1.4,1.8-1.8s1.7-0.7,2.7-0.7c1,0,1.8,0.2,2.6,0.6c0.8,0.4,1.4,1,1.8,1.8c0.4,0.8,0.6,1.7,0.6,2.7
		C171.8,304.7,171.8,304.9,171.8,305.2z M164.9,301.9c-0.5,0.4-0.8,1-0.9,1.8h5.7c-0.1-0.7-0.4-1.3-0.9-1.8
		c-0.5-0.4-1.1-0.7-1.9-0.7C166.1,301.2,165.4,301.4,164.9,301.9z"/>
	<path class="st1" d="M176.2,308.9c-0.8-0.4-1.5-1-1.9-1.8c-0.5-0.8-0.7-1.7-0.7-2.6s0.2-1.9,0.7-2.6s1.1-1.4,1.9-1.8
		c0.8-0.4,1.7-0.7,2.8-0.7c1,0,1.8,0.2,2.6,0.6c0.7,0.4,1.3,1,1.7,1.7l-1.8,1c-0.3-0.5-0.6-0.8-1.1-1c-0.4-0.2-0.9-0.3-1.4-0.3
		c-0.9,0-1.6,0.3-2.2,0.9s-0.9,1.3-0.9,2.3s0.3,1.7,0.9,2.3c0.6,0.6,1.3,0.9,2.2,0.9c0.5,0,1-0.1,1.4-0.3c0.4-0.2,0.8-0.6,1.1-1
		l1.8,1c-0.4,0.7-1,1.3-1.7,1.7c-0.7,0.4-1.6,0.6-2.6,0.6C177.9,309.6,177,309.3,176.2,308.9z"/>
	<path class="st1" d="M189.4,305.4h-1.8v4h-2.3v-10h2.3v4h1.9l3-4h2.5l-3.6,4.8l3.9,5.2h-2.7L189.4,305.4z"/>
	<path class="st1" d="M196.8,299.5h2.3v6.6l5.5-6.6h2.1v10h-2.3v-6.6l-5.5,6.6h-2.1V299.5z"/>
	<path class="st1" d="M219.3,305.2h-7.8c0.1,0.7,0.5,1.3,1.1,1.7c0.6,0.4,1.3,0.6,2.2,0.6c1.1,0,2-0.4,2.7-1.1l1.3,1.4
		c-0.4,0.5-1,0.9-1.7,1.2s-1.5,0.4-2.3,0.4c-1.1,0-2.1-0.2-2.9-0.7s-1.5-1-1.9-1.8c-0.5-0.8-0.7-1.7-0.7-2.6c0-1,0.2-1.8,0.7-2.6
		c0.4-0.8,1.1-1.4,1.8-1.8s1.7-0.7,2.7-0.7c1,0,1.8,0.2,2.6,0.6c0.8,0.4,1.4,1,1.8,1.8c0.4,0.8,0.6,1.7,0.6,2.7
		C219.3,304.7,219.3,304.9,219.3,305.2z M212.4,301.9c-0.5,0.4-0.8,1-0.9,1.8h5.7c-0.1-0.7-0.4-1.3-0.9-1.8
		c-0.5-0.4-1.1-0.7-1.9-0.7C213.5,301.2,212.9,301.4,212.4,301.9z"/>
	<path class="st1" d="M234.4,305.1c0.3,0.4,0.5,0.9,0.5,1.4c0,0.6-0.2,1.1-0.6,1.6c-0.4,0.5-1,0.8-1.7,1.1s-1.5,0.4-2.5,0.4
		c-0.8,0-1.5-0.1-2.3-0.3s-1.4-0.4-2-0.8l0.7-1.7c0.5,0.3,1,0.5,1.6,0.6c0.6,0.1,1.2,0.2,1.8,0.2c0.8,0,1.4-0.1,1.8-0.4
		s0.7-0.6,0.7-1c0-0.4-0.2-0.7-0.5-0.9s-0.8-0.3-1.4-0.3h-1.9v-1.6h1.8c0.6,0,1-0.1,1.4-0.3s0.5-0.5,0.5-0.8s-0.2-0.6-0.6-0.9
		c-0.4-0.2-0.9-0.3-1.6-0.3c-1,0-2,0.2-3.2,0.7l-0.6-1.7c1.3-0.6,2.6-0.9,4-0.9c0.8,0,1.6,0.1,2.3,0.3s1.2,0.6,1.6,1
		c0.4,0.4,0.6,0.9,0.6,1.4c0,0.5-0.1,0.9-0.4,1.3c-0.3,0.4-0.7,0.7-1.2,0.9C233.6,304.4,234.1,304.7,234.4,305.1z"/>
	<path class="st1" d="M237.4,299.5h2.3v4.1h5v-4.1h2.3v10h-2.3v-3.9h-5v3.9h-2.3V299.5z"/>
	<path class="st1" d="M257.3,300.4c0.8,0.7,1.2,1.8,1.2,3.2v5.9h-2.2v-1.2c-0.3,0.4-0.7,0.8-1.2,1c-0.5,0.2-1.2,0.3-1.9,0.3
		c-0.7,0-1.4-0.1-2-0.4c-0.6-0.3-1-0.6-1.3-1.1c-0.3-0.5-0.5-1-0.5-1.5c0-0.9,0.3-1.6,1-2.2s1.7-0.8,3.2-0.8h2.6v-0.1
		c0-0.7-0.2-1.2-0.6-1.6c-0.4-0.4-1-0.6-1.9-0.6c-0.6,0-1.1,0.1-1.7,0.3c-0.5,0.2-1,0.4-1.4,0.7l-0.9-1.7c0.5-0.4,1.2-0.7,1.9-0.9
		s1.5-0.3,2.3-0.3C255.4,299.3,256.5,299.7,257.3,300.4z M255.2,307.5c0.5-0.3,0.8-0.7,1-1.1v-1.2h-2.4c-1.3,0-2,0.4-2,1.3
		c0,0.4,0.2,0.8,0.5,1c0.3,0.3,0.8,0.4,1.4,0.4C254.2,307.9,254.7,307.7,255.2,307.5z"/>
	<path class="st1" d="M261.4,299.5h2.3v4.1h5v-4.1h2.3v10h-2.3v-3.9h-5v3.9h-2.3V299.5z"/>
	<path class="st1" d="M274.2,299.5h2.3v6.6l5.5-6.6h2.1v10h-2.3v-6.6l-5.5,6.6h-2.2V299.5z"/>
	<path class="st1" d="M295.8,299.5v10h-2.1v-3H291l-2,3h-2.5l2.4-3.3c-0.7-0.3-1.3-0.6-1.7-1.2c-0.4-0.5-0.6-1.2-0.6-1.9
		c0-1.1,0.4-2,1.2-2.7c0.8-0.6,1.9-0.9,3.3-0.9H295.8z M289,303.1c0,1.1,0.7,1.7,2.2,1.7h2.5v-3.4h-2.4
		C289.8,301.4,289,302,289,303.1z"/>
	<path class="st1" d="M79.2,331.3c-0.8-0.4-1.4-1-1.9-1.8c-0.5-0.8-0.7-1.7-0.7-2.6s0.2-1.9,0.7-2.6s1.1-1.4,1.9-1.8
		s1.7-0.7,2.7-0.7c1,0,1.9,0.2,2.7,0.7s1.4,1,1.9,1.8s0.7,1.7,0.7,2.6s-0.2,1.9-0.7,2.6c-0.5,0.8-1.1,1.4-1.9,1.8S83,332,82,332
		C81,332,80,331.8,79.2,331.3z M84.1,329.1c0.6-0.6,0.8-1.3,0.8-2.3s-0.3-1.7-0.8-2.3c-0.6-0.6-1.3-0.9-2.1-0.9s-1.6,0.3-2.1,0.9
		c-0.6,0.6-0.8,1.3-0.8,2.3s0.3,1.7,0.8,2.3c0.6,0.6,1.3,0.9,2.1,0.9S83.5,329.7,84.1,329.1z"/>
	<path class="st1" d="M97.1,323.9h-3.5v8h-2.3v-8h-3.5v-2h9.3V323.9z"/>
	<path class="st1" d="M109.9,322.4c0.8,0.4,1.5,1.1,2,1.8c0.5,0.8,0.7,1.7,0.7,2.6s-0.2,1.9-0.7,2.7c-0.5,0.8-1.1,1.4-2,1.8
		c-0.8,0.4-1.8,0.7-2.8,0.7c-0.9,0-1.7-0.1-2.5-0.4c-0.7-0.3-1.4-0.7-1.9-1.3l1.3-1.3c0.8,0.8,1.8,1.2,2.9,1.2
		c0.8,0,1.6-0.2,2.2-0.7c0.6-0.5,1-1.1,1.2-1.8h-4.6V326h4.6c-0.2-0.7-0.6-1.3-1.2-1.7s-1.3-0.6-2.1-0.6c-1.1,0-2.1,0.4-2.9,1.2
		l-1.3-1.3c0.5-0.6,1.1-1,1.9-1.3c0.7-0.3,1.6-0.4,2.5-0.4C108.1,321.7,109.1,322,109.9,322.4z"/>
	<path class="st1" d="M119,327.9h-1.8v4h-2.3v-10h2.3v4h1.9l3-4h2.5l-3.6,4.8l3.9,5.2H122L119,327.9z"/>
	<path class="st1" d="M127.8,331.3c-0.8-0.4-1.5-1-1.9-1.8c-0.5-0.8-0.7-1.7-0.7-2.6s0.2-1.9,0.7-2.6s1.1-1.4,1.9-1.8
		c0.8-0.4,1.7-0.7,2.8-0.7c1,0,1.8,0.2,2.6,0.6c0.7,0.4,1.3,1,1.7,1.7l-1.8,1c-0.3-0.5-0.6-0.8-1.1-1c-0.4-0.2-0.9-0.3-1.4-0.3
		c-0.9,0-1.6,0.3-2.2,0.9s-0.9,1.3-0.9,2.3s0.3,1.7,0.9,2.3c0.6,0.6,1.3,0.9,2.2,0.9c0.5,0,1-0.1,1.4-0.3c0.4-0.2,0.8-0.6,1.1-1
		l1.8,1c-0.4,0.7-1,1.3-1.7,1.7c-0.7,0.4-1.6,0.6-2.6,0.6C129.6,332,128.6,331.8,127.8,331.3z"/>
	<path class="st1" d="M146.5,321.9v10h-2.3v-8h-4.9v8h-2.3v-10H146.5z"/>
	<path class="st1" d="M159,327.6h-7.8c0.1,0.7,0.5,1.3,1.1,1.7c0.6,0.4,1.3,0.6,2.2,0.6c1.1,0,2-0.4,2.7-1.1l1.3,1.4
		c-0.4,0.5-1,0.9-1.7,1.2c-0.7,0.3-1.5,0.4-2.3,0.4c-1.1,0-2.1-0.2-2.9-0.7s-1.5-1-1.9-1.8c-0.5-0.8-0.7-1.7-0.7-2.6
		c0-1,0.2-1.8,0.7-2.6c0.4-0.8,1.1-1.4,1.8-1.8s1.7-0.7,2.7-0.7c1,0,1.8,0.2,2.6,0.6c0.8,0.4,1.4,1,1.8,1.8c0.4,0.8,0.6,1.7,0.6,2.7
		C159,327.1,159,327.3,159,327.6z M152.1,324.3c-0.5,0.4-0.8,1-0.9,1.8h5.7c-0.1-0.7-0.4-1.3-0.9-1.8c-0.5-0.4-1.1-0.7-1.9-0.7
		C153.2,323.6,152.6,323.9,152.1,324.3z"/>
	<path class="st1" d="M169.7,322.4c0.8,0.4,1.4,1,1.8,1.8c0.4,0.8,0.7,1.7,0.7,2.7s-0.2,1.9-0.7,2.7c-0.4,0.8-1,1.4-1.8,1.8
		c-0.8,0.4-1.6,0.6-2.6,0.6c-1.3,0-2.4-0.4-3.2-1.3v4.8h-2.3v-13.6h2.2v1.3c0.4-0.5,0.9-0.8,1.4-1.1c0.6-0.2,1.2-0.4,1.9-0.4
		C168.1,321.8,168.9,322,169.7,322.4z M169,329.1c0.6-0.6,0.8-1.3,0.8-2.3s-0.3-1.7-0.8-2.3s-1.3-0.9-2.1-0.9
		c-0.6,0-1.1,0.1-1.5,0.4c-0.4,0.3-0.8,0.6-1.1,1.1s-0.4,1-0.4,1.6s0.1,1.2,0.4,1.6c0.3,0.5,0.6,0.8,1.1,1.1c0.4,0.3,1,0.4,1.5,0.4
		C167.7,330,168.4,329.7,169,329.1z"/>
	<path class="st1" d="M182,323.9h-3.5v8h-2.3v-8h-3.5v-2h9.3V323.9z"/>
	<path class="st1" d="M185,331.3c-0.8-0.4-1.4-1-1.9-1.8c-0.5-0.8-0.7-1.7-0.7-2.6s0.2-1.9,0.7-2.6s1.1-1.4,1.9-1.8s1.7-0.7,2.7-0.7
		c1,0,1.9,0.2,2.7,0.7c0.8,0.4,1.4,1,1.9,1.8s0.7,1.7,0.7,2.6s-0.2,1.9-0.7,2.6c-0.5,0.8-1.1,1.4-1.9,1.8c-0.8,0.4-1.7,0.7-2.7,0.7
		C186.7,332,185.8,331.8,185,331.3z M189.9,329.1c0.6-0.6,0.8-1.3,0.8-2.3s-0.3-1.7-0.8-2.3s-1.3-0.9-2.1-0.9
		c-0.9,0-1.6,0.3-2.1,0.9c-0.6,0.6-0.8,1.3-0.8,2.3s0.3,1.7,0.8,2.3c0.6,0.6,1.3,0.9,2.1,0.9C188.6,330,189.3,329.7,189.9,329.1z"/>
	<path class="st1" d="M204.5,329.1c0,0.9-0.3,1.6-1,2.1c-0.7,0.5-1.7,0.7-3,0.7h-5.1v-10h4.9c1.2,0,2.2,0.2,2.9,0.7
		c0.7,0.4,1,1.1,1,1.9c0,0.5-0.1,1-0.4,1.3c-0.3,0.4-0.6,0.7-1.1,0.9C203.8,327,204.5,327.8,204.5,329.1z M197.6,326.1h2.4
		c1.2,0,1.8-0.4,1.8-1.3c0-0.8-0.6-1.2-1.8-1.2h-2.4V326.1z M202.2,328.9c0-0.4-0.1-0.8-0.4-1c-0.3-0.2-0.8-0.3-1.4-0.3h-2.7v2.6
		h2.7C201.5,330.2,202.2,329.8,202.2,328.9z"/>
</g>
<g class="st4">
	<path class="st1" d="M95.7,399.7c-1.1-0.6-1.9-1.4-2.5-2.4c-0.6-1-0.9-2.2-0.9-3.5c0-1.3,0.3-2.4,0.9-3.5c0.6-1,1.4-1.8,2.5-2.4
		c1.1-0.6,2.3-0.9,3.6-0.9c1.1,0,2,0.2,2.9,0.6s1.6,0.9,2.2,1.6l-1.6,1.5c-0.9-1-2.1-1.5-3.5-1.5c-0.9,0-1.7,0.2-2.4,0.6
		c-0.7,0.4-1.3,0.9-1.7,1.6c-0.4,0.7-0.6,1.5-0.6,2.4s0.2,1.7,0.6,2.4c0.4,0.7,1,1.2,1.7,1.6c0.7,0.4,1.5,0.6,2.4,0.6
		c1.4,0,2.5-0.5,3.5-1.6l1.6,1.5c-0.6,0.7-1.4,1.3-2.3,1.6c-0.9,0.4-1.9,0.6-2.9,0.6C98,400.6,96.8,400.3,95.7,399.7z"/>
	<path class="st1" d="M115.5,396.1h-7.8c0.1,0.7,0.5,1.3,1.1,1.7c0.6,0.4,1.3,0.6,2.2,0.6c1.1,0,2-0.4,2.7-1.1l1.3,1.4
		c-0.4,0.5-1,0.9-1.7,1.2c-0.7,0.3-1.5,0.4-2.3,0.4c-1.1,0-2.1-0.2-2.9-0.7s-1.5-1-1.9-1.8c-0.5-0.8-0.7-1.7-0.7-2.6
		c0-1,0.2-1.8,0.7-2.6c0.4-0.8,1.1-1.4,1.8-1.8s1.7-0.7,2.7-0.7c1,0,1.8,0.2,2.6,0.6c0.8,0.4,1.4,1,1.8,1.8c0.4,0.8,0.6,1.7,0.6,2.7
		C115.5,395.6,115.5,395.8,115.5,396.1z M108.5,392.8c-0.5,0.4-0.8,1-0.9,1.8h5.7c-0.1-0.7-0.4-1.3-0.9-1.8
		c-0.5-0.4-1.1-0.7-1.9-0.7C109.7,392.2,109.1,392.4,108.5,392.8z"/>
	<path class="st1" d="M126.2,390.9c0.8,0.4,1.4,1,1.8,1.8c0.4,0.8,0.7,1.7,0.7,2.7s-0.2,1.9-0.7,2.7s-1,1.4-1.8,1.8
		s-1.6,0.6-2.6,0.6c-1.3,0-2.4-0.4-3.2-1.3v4.8H118v-13.6h2.2v1.3c0.4-0.5,0.9-0.8,1.4-1.1c0.6-0.2,1.2-0.4,1.9-0.4
		C124.6,390.3,125.4,390.5,126.2,390.9z M125.4,397.7c0.6-0.6,0.8-1.3,0.8-2.3s-0.3-1.7-0.8-2.3s-1.3-0.9-2.1-0.9
		c-0.6,0-1.1,0.1-1.5,0.4c-0.4,0.3-0.8,0.6-1.1,1.1s-0.4,1-0.4,1.6s0.1,1.2,0.4,1.6c0.3,0.5,0.6,0.8,1.1,1.1c0.4,0.3,1,0.4,1.5,0.4
		C124.2,398.5,124.9,398.2,125.4,397.7z"/>
	<path class="st1" d="M138.9,394.5c0.7,0.6,1,1.4,1,2.4c0,1.1-0.4,1.9-1.1,2.5c-0.7,0.6-1.8,0.9-3.2,0.9l-4.7,0v-10h2.3v3.3l2.7,0
		C137.2,393.7,138.2,394,138.9,394.5z M137,398.3c0.4-0.3,0.5-0.7,0.5-1.3c0-0.6-0.2-1-0.5-1.2s-0.9-0.4-1.6-0.4l-2.1,0v3.4l2.1,0
		C136.1,398.7,136.6,398.6,137,398.3z"/>
	<path class="st1" d="M151.3,396.1h-7.8c0.1,0.7,0.5,1.3,1.1,1.7c0.6,0.4,1.3,0.6,2.2,0.6c1.1,0,2-0.4,2.7-1.1l1.3,1.4
		c-0.4,0.5-1,0.9-1.7,1.2s-1.5,0.4-2.3,0.4c-1.1,0-2.1-0.2-2.9-0.7s-1.5-1-1.9-1.8c-0.5-0.8-0.7-1.7-0.7-2.6c0-1,0.2-1.8,0.7-2.6
		c0.4-0.8,1.1-1.4,1.8-1.8s1.7-0.7,2.7-0.7c1,0,1.8,0.2,2.6,0.6c0.8,0.4,1.4,1,1.8,1.8c0.4,0.8,0.6,1.7,0.6,2.7
		C151.3,395.6,151.3,395.8,151.3,396.1z M143.6,388.5c-0.2-0.2-0.3-0.5-0.3-0.8c0-0.3,0.1-0.6,0.3-0.8s0.5-0.3,0.8-0.3
		s0.6,0.1,0.8,0.3s0.3,0.5,0.3,0.8c0,0.3-0.1,0.6-0.3,0.8s-0.5,0.3-0.8,0.3S143.8,388.7,143.6,388.5z M144.4,392.8
		c-0.5,0.4-0.8,1-0.9,1.8h5.7c-0.1-0.7-0.4-1.3-0.9-1.8c-0.5-0.4-1.1-0.7-1.9-0.7C145.5,392.2,144.9,392.4,144.4,392.8z
		 M147.2,388.5c-0.2-0.2-0.3-0.5-0.3-0.8c0-0.3,0.1-0.6,0.3-0.8s0.5-0.3,0.8-0.3s0.6,0.1,0.8,0.3s0.3,0.5,0.3,0.8
		c0,0.3-0.1,0.6-0.3,0.8s-0.5,0.3-0.8,0.3S147.4,388.7,147.2,388.5z"/>
	<path class="st1" d="M161.1,396c0.3,0.4,0.5,0.9,0.5,1.4c0,0.6-0.2,1.1-0.6,1.6c-0.4,0.5-1,0.8-1.7,1.1s-1.5,0.4-2.5,0.4
		c-0.8,0-1.5-0.1-2.3-0.3s-1.4-0.4-2-0.8l0.7-1.7c0.5,0.3,1,0.5,1.6,0.6c0.6,0.1,1.2,0.2,1.8,0.2c0.8,0,1.4-0.1,1.8-0.4
		s0.7-0.6,0.7-1c0-0.4-0.2-0.7-0.5-0.9s-0.8-0.3-1.4-0.3h-1.9v-1.6h1.8c0.6,0,1-0.1,1.4-0.3s0.5-0.5,0.5-0.8s-0.2-0.6-0.6-0.9
		c-0.4-0.2-0.9-0.3-1.6-0.3c-1,0-2,0.2-3.2,0.7l-0.6-1.7c1.3-0.6,2.6-0.9,4-0.9c0.8,0,1.6,0.1,2.3,0.3s1.2,0.6,1.6,1
		c0.4,0.4,0.6,0.9,0.6,1.4c0,0.5-0.1,0.9-0.4,1.3c-0.3,0.4-0.7,0.7-1.2,0.9C160.3,395.4,160.8,395.6,161.1,396z"/>
	<path class="st1" d="M164.1,390.4h2.3v4.1h5v-4.1h2.3v10h-2.3v-3.9h-5v3.9h-2.3V390.4z"/>
	<path class="st1" d="M184.7,394.5c0.7,0.6,1,1.4,1,2.4c0,1.1-0.4,1.9-1.1,2.5c-0.7,0.6-1.8,0.9-3.1,0.9l-4.5,0v-10h2.3v3.3l2.5,0
		C183,393.7,184,394,184.7,394.5z M182.8,398.3c0.4-0.3,0.5-0.7,0.5-1.3c0-0.6-0.2-1-0.5-1.2c-0.3-0.3-0.9-0.4-1.6-0.4l-2,0v3.4l2,0
		C181.9,398.7,182.4,398.6,182.8,398.3z M187,390.4h2.3v10H187V390.4z"/>
	<path class="st1" d="M192.5,390.4h2.3v6.6l5.5-6.6h2.1v10h-2.3v-6.6l-5.5,6.6h-2.2V390.4z M195,388.5c-0.5-0.5-0.8-1.2-0.8-2h1.6
		c0,0.4,0.2,0.8,0.4,1.1c0.3,0.3,0.6,0.4,1.1,0.4c0.5,0,0.9-0.1,1.1-0.4s0.4-0.6,0.4-1.1h1.6c0,0.9-0.3,1.6-0.8,2
		c-0.5,0.5-1.3,0.7-2.3,0.7C196.3,389.2,195.5,389,195,388.5z"/>
	<path class="st1" d="M220.3,390.4v10H218v-8h-4.9v8h-2.3v-10H220.3z"/>
	<path class="st1" d="M231.6,390.9c0.8,0.4,1.4,1,1.8,1.8c0.4,0.8,0.7,1.7,0.7,2.7s-0.2,1.9-0.7,2.7c-0.4,0.8-1,1.4-1.8,1.8
		c-0.8,0.4-1.6,0.6-2.6,0.6c-1.3,0-2.4-0.4-3.2-1.3v4.8h-2.3v-13.6h2.2v1.3c0.4-0.5,0.9-0.8,1.4-1.1c0.6-0.2,1.2-0.4,1.9-0.4
		C230,390.3,230.8,390.5,231.6,390.9z M230.9,397.7c0.6-0.6,0.8-1.3,0.8-2.3s-0.3-1.7-0.8-2.3s-1.3-0.9-2.1-0.9
		c-0.6,0-1.1,0.1-1.5,0.4c-0.4,0.3-0.8,0.6-1.1,1.1s-0.4,1-0.4,1.6s0.1,1.2,0.4,1.6c0.3,0.5,0.6,0.8,1.1,1.1c0.4,0.3,1,0.4,1.5,0.4
		C229.6,398.5,230.3,398.2,230.9,397.7z"/>
	<path class="st1" d="M238.1,399.9c-0.8-0.4-1.4-1-1.9-1.8c-0.5-0.8-0.7-1.7-0.7-2.6s0.2-1.9,0.7-2.6s1.1-1.4,1.9-1.8
		c0.8-0.4,1.7-0.7,2.7-0.7c1,0,1.9,0.2,2.7,0.7c0.8,0.4,1.4,1,1.9,1.8s0.7,1.7,0.7,2.6s-0.2,1.9-0.7,2.6c-0.5,0.8-1.1,1.4-1.9,1.8
		c-0.8,0.4-1.7,0.7-2.7,0.7C239.8,400.5,238.9,400.3,238.1,399.9z M243,397.7c0.6-0.6,0.8-1.3,0.8-2.3s-0.3-1.7-0.8-2.3
		s-1.3-0.9-2.1-0.9c-0.9,0-1.6,0.3-2.1,0.9s-0.8,1.3-0.8,2.3s0.3,1.7,0.8,2.3s1.3,0.9,2.1,0.9C241.7,398.5,242.4,398.2,243,397.7z"
		/>
	<path class="st1" d="M257.8,396.1h-7.8c0.1,0.7,0.5,1.3,1.1,1.7c0.6,0.4,1.3,0.6,2.2,0.6c1.1,0,2-0.4,2.7-1.1l1.3,1.4
		c-0.4,0.5-1,0.9-1.7,1.2s-1.5,0.4-2.3,0.4c-1.1,0-2.1-0.2-2.9-0.7s-1.5-1-1.9-1.8c-0.5-0.8-0.7-1.7-0.7-2.6c0-1,0.2-1.8,0.7-2.6
		c0.4-0.8,1.1-1.4,1.8-1.8s1.7-0.7,2.7-0.7c1,0,1.8,0.2,2.6,0.6c0.8,0.4,1.4,1,1.8,1.8c0.4,0.8,0.6,1.7,0.6,2.7
		C257.8,395.6,257.8,395.8,257.8,396.1z M250.9,392.8c-0.5,0.4-0.8,1-0.9,1.8h5.7c-0.1-0.7-0.4-1.3-0.9-1.8
		c-0.5-0.4-1.1-0.7-1.9-0.7C252,392.2,251.4,392.4,250.9,392.8z"/>
	<path class="st1" d="M264.5,396.4h-1.8v4h-2.3v-10h2.3v4h1.9l3-4h2.5l-3.6,4.8l3.9,5.2h-2.7L264.5,396.4z"/>
	<path class="st1" d="M279.7,392.4h-3.5v8h-2.3v-8h-3.5v-2h9.3V392.4z"/>
	<path class="st1" d="M102.1,420c0,0.9-0.3,1.6-1,2.1c-0.7,0.5-1.7,0.7-3,0.7H93v-10h4.9c1.2,0,2.2,0.2,2.9,0.7c0.7,0.4,1,1.1,1,1.9
		c0,0.5-0.1,1-0.4,1.3c-0.3,0.4-0.6,0.7-1.1,0.9C101.5,418,102.1,418.8,102.1,420z M95.3,417h2.4c1.2,0,1.8-0.4,1.8-1.3
		c0-0.8-0.6-1.2-1.8-1.2h-2.4V417z M99.9,419.9c0-0.4-0.1-0.8-0.4-1c-0.3-0.2-0.8-0.3-1.4-0.3h-2.7v2.6h2.7
		C99.2,421.1,99.9,420.7,99.9,419.9z"/>
	<path class="st1" d="M119.3,412.8v10H117v-8h-4.9v8h-2.3v-10H119.3z"/>
	<path class="st1" d="M124.2,422.3c-0.8-0.4-1.4-1-1.9-1.8c-0.5-0.8-0.7-1.7-0.7-2.6s0.2-1.9,0.7-2.6s1.1-1.4,1.9-1.8
		c0.8-0.4,1.7-0.7,2.7-0.7c1,0,1.9,0.2,2.7,0.7c0.8,0.4,1.4,1,1.9,1.8s0.7,1.7,0.7,2.6s-0.2,1.9-0.7,2.6c-0.5,0.8-1.1,1.4-1.9,1.8
		c-0.8,0.4-1.7,0.7-2.7,0.7C125.9,422.9,125,422.7,124.2,422.3z M129.1,420.1c0.6-0.6,0.8-1.3,0.8-2.3s-0.3-1.7-0.8-2.3
		s-1.3-0.9-2.1-0.9c-0.9,0-1.6,0.3-2.1,0.9s-0.8,1.3-0.8,2.3s0.3,1.7,0.8,2.3s1.3,0.9,2.1,0.9C127.8,420.9,128.5,420.7,129.1,420.1z
		"/>
	<path class="st1" d="M142.7,413.4c0.8,0.4,1.4,1,1.8,1.8c0.4,0.8,0.7,1.7,0.7,2.7s-0.2,1.9-0.7,2.7c-0.4,0.8-1,1.4-1.8,1.8
		c-0.8,0.4-1.6,0.6-2.6,0.6c-1.3,0-2.4-0.4-3.2-1.3v4.8h-2.3v-13.6h2.2v1.3c0.4-0.5,0.9-0.8,1.4-1.1c0.6-0.2,1.2-0.4,1.9-0.4
		C141.1,412.7,141.9,412.9,142.7,413.4z M142,420.1c0.6-0.6,0.8-1.3,0.8-2.3s-0.3-1.7-0.8-2.3s-1.3-0.9-2.1-0.9
		c-0.6,0-1.1,0.1-1.5,0.4c-0.4,0.3-0.8,0.6-1.1,1.1s-0.4,1-0.4,1.6s0.1,1.2,0.4,1.6c0.3,0.5,0.6,0.8,1.1,1.1c0.4,0.3,1,0.4,1.5,0.4
		C140.7,420.9,141.4,420.7,142,420.1z"/>
	<path class="st1" d="M155,414.8h-3.5v8h-2.3v-8h-3.5v-2h9.3V414.8z"/>
	<path class="st1" d="M168,421.5c-1,0.9-2.5,1.4-4.4,1.5v3.5h-2.2V423c-1.9-0.1-3.4-0.6-4.4-1.5c-1-0.9-1.5-2.1-1.5-3.7
		c0-1.5,0.5-2.8,1.5-3.6c1-0.9,2.5-1.4,4.4-1.5v-3.8h2.2v3.8c1.9,0.1,3.4,0.6,4.4,1.5c1,0.9,1.5,2.1,1.5,3.6
		C169.5,419.4,169,420.6,168,421.5z M158.6,420c0.6,0.5,1.5,0.9,2.7,1v-6.3c-1.2,0.1-2.1,0.4-2.7,0.9s-0.9,1.3-0.9,2.2
		C157.7,418.8,158,419.5,158.6,420z M167.2,417.8c0-0.9-0.3-1.7-0.9-2.2c-0.6-0.5-1.5-0.8-2.8-0.9v6.3
		C166,420.8,167.2,419.7,167.2,417.8z"/>
	<path class="st1" d="M173.5,422.3c-0.8-0.4-1.4-1-1.9-1.8c-0.5-0.8-0.7-1.7-0.7-2.6s0.2-1.9,0.7-2.6s1.1-1.4,1.9-1.8
		c0.8-0.4,1.7-0.7,2.7-0.7c1,0,1.9,0.2,2.7,0.7c0.8,0.4,1.4,1,1.9,1.8s0.7,1.7,0.7,2.6s-0.2,1.9-0.7,2.6c-0.5,0.8-1.1,1.4-1.9,1.8
		c-0.8,0.4-1.7,0.7-2.7,0.7C175.2,422.9,174.3,422.7,173.5,422.3z M178.3,420.1c0.6-0.6,0.8-1.3,0.8-2.3s-0.3-1.7-0.8-2.3
		c-0.6-0.6-1.3-0.9-2.1-0.9c-0.9,0-1.6,0.3-2.1,0.9c-0.6,0.6-0.8,1.3-0.8,2.3s0.3,1.7,0.8,2.3c0.6,0.6,1.3,0.9,2.1,0.9
		C177.1,420.9,177.8,420.7,178.3,420.1z"/>
	<path class="st1" d="M192.8,412.8v10h-2.3v-8h-3.7l-0.1,2c-0.1,1.3-0.2,2.4-0.4,3.3s-0.5,1.6-0.9,2.1c-0.4,0.5-1,0.8-1.8,0.8
		c-0.3,0-0.8-0.1-1.3-0.2l0.1-2c0.2,0,0.3,0.1,0.4,0.1c0.5,0,0.8-0.2,1.1-0.6c0.2-0.4,0.4-0.8,0.5-1.4c0.1-0.5,0.1-1.3,0.2-2.3
		l0.2-3.9H192.8z"/>
	<path class="st1" d="M195.9,412.8h2.3v6.6l5.5-6.6h2.1v10h-2.3v-6.6l-5.5,6.6h-2.1V412.8z"/>
	<path class="st1" d="M210.8,422.3c-0.8-0.4-1.4-1-1.9-1.8c-0.5-0.8-0.7-1.7-0.7-2.6s0.2-1.9,0.7-2.6s1.1-1.4,1.9-1.8
		c0.8-0.4,1.7-0.7,2.7-0.7c1,0,1.9,0.2,2.7,0.7c0.8,0.4,1.4,1,1.9,1.8s0.7,1.7,0.7,2.6s-0.2,1.9-0.7,2.6c-0.5,0.8-1.1,1.4-1.9,1.8
		c-0.8,0.4-1.7,0.7-2.7,0.7C212.5,422.9,211.6,422.7,210.8,422.3z M215.6,420.1c0.6-0.6,0.8-1.3,0.8-2.3s-0.3-1.7-0.8-2.3
		c-0.6-0.6-1.3-0.9-2.1-0.9c-0.9,0-1.6,0.3-2.1,0.9c-0.6,0.6-0.8,1.3-0.8,2.3s0.3,1.7,0.8,2.3c0.6,0.6,1.3,0.9,2.1,0.9
		C214.3,420.9,215.1,420.7,215.6,420.1z"/>
</g>
<g class="st4">
	<path class="st1" d="M133.8,478h-2.4v5.5H129v-13.1h2.4v5.5h2.5l3.8-5.5h2.6l-4.5,6.3l4.6,6.7h-2.7L133.8,478z"/>
	<path class="st1" d="M150.2,474c0.8,0.4,1.4,1,1.8,1.8c0.4,0.8,0.7,1.7,0.7,2.7s-0.2,1.9-0.7,2.7c-0.4,0.8-1,1.4-1.8,1.8
		c-0.8,0.4-1.6,0.6-2.6,0.6c-1.3,0-2.4-0.4-3.2-1.3v4.8H142v-13.6h2.2v1.3c0.4-0.5,0.9-0.8,1.4-1.1c0.6-0.2,1.2-0.4,1.9-0.4
		C148.6,473.4,149.4,473.6,150.2,474z M149.4,480.8c0.6-0.6,0.8-1.3,0.8-2.3s-0.3-1.7-0.8-2.3s-1.3-0.9-2.1-0.9
		c-0.6,0-1.1,0.1-1.5,0.4c-0.4,0.3-0.8,0.6-1.1,1.1s-0.4,1-0.4,1.6s0.1,1.2,0.4,1.6c0.3,0.5,0.6,0.8,1.1,1.1c0.4,0.3,1,0.4,1.5,0.4
		C148.2,481.6,148.9,481.3,149.4,480.8z"/>
	<path class="st1" d="M164.1,473.5l-4.7,10.8c-0.4,1.1-1,1.8-1.6,2.3s-1.4,0.7-2.3,0.7c-0.5,0-1-0.1-1.5-0.2
		c-0.5-0.2-0.9-0.4-1.2-0.7l0.9-1.7c0.2,0.2,0.5,0.4,0.8,0.5c0.3,0.1,0.6,0.2,0.9,0.2c0.4,0,0.8-0.1,1-0.3s0.5-0.6,0.7-1.1l0.2-0.4
		l-4.4-10h2.4l3.1,7.4l3.2-7.4H164.1z"/>
	<path class="st1" d="M173.7,475.5h-3.5v8h-2.3v-8h-3.5v-2h9.3V475.5z"/>
	<path class="st1" d="M176.7,483c-0.8-0.4-1.4-1-1.9-1.8c-0.5-0.8-0.7-1.7-0.7-2.6s0.2-1.9,0.7-2.6s1.1-1.4,1.9-1.8s1.7-0.7,2.7-0.7
		c1,0,1.9,0.2,2.7,0.7s1.4,1,1.9,1.8s0.7,1.7,0.7,2.6s-0.2,1.9-0.7,2.6c-0.5,0.8-1.1,1.4-1.9,1.8s-1.7,0.7-2.7,0.7
		C178.4,483.6,177.5,483.4,176.7,483z M181.6,480.8c0.6-0.6,0.8-1.3,0.8-2.3s-0.3-1.7-0.8-2.3c-0.6-0.6-1.3-0.9-2.1-0.9
		s-1.6,0.3-2.1,0.9c-0.6,0.6-0.8,1.3-0.8,2.3s0.3,1.7,0.8,2.3c0.6,0.6,1.3,0.9,2.1,0.9S181,481.3,181.6,480.8z"/>
	<path class="st1" d="M187.1,473.5h2.3v6.6l5.5-6.6h2.1v10h-2.3v-6.6l-5.5,6.6h-2.1V473.5z M189.6,471.6c-0.5-0.5-0.8-1.2-0.8-2h1.6
		c0,0.4,0.2,0.8,0.4,1.1c0.3,0.3,0.6,0.4,1.1,0.4c0.5,0,0.9-0.1,1.1-0.4s0.4-0.6,0.4-1.1h1.6c0,0.9-0.3,1.6-0.8,2
		c-0.5,0.5-1.3,0.7-2.3,0.7S190.1,472.1,189.6,471.6z"/>
	<path class="st1" d="M215.2,483.5v-6.6l-3.4,5.6h-1l-3.3-5.6v6.6h-2.1v-10h2.4l3.6,6.2l3.7-6.2h2.2l0,10H215.2z"/>
	<path class="st1" d="M229.7,479.3h-7.8c0.1,0.7,0.5,1.3,1.1,1.7c0.6,0.4,1.3,0.6,2.2,0.6c1.1,0,2-0.4,2.7-1.1l1.3,1.4
		c-0.4,0.5-1,0.9-1.7,1.2c-0.7,0.3-1.5,0.4-2.3,0.4c-1.1,0-2.1-0.2-2.9-0.7s-1.5-1-1.9-1.8c-0.5-0.8-0.7-1.7-0.7-2.6
		c0-1,0.2-1.8,0.7-2.6c0.4-0.8,1.1-1.4,1.8-1.8s1.7-0.7,2.7-0.7c1,0,1.8,0.2,2.6,0.6c0.8,0.4,1.4,1,1.8,1.8c0.4,0.8,0.6,1.7,0.6,2.7
		C229.8,478.7,229.7,479,229.7,479.3z M222.8,475.9c-0.5,0.4-0.8,1-0.9,1.8h5.7c-0.1-0.7-0.4-1.3-0.9-1.8c-0.5-0.4-1.1-0.7-1.9-0.7
		C224,475.3,223.3,475.5,222.8,475.9z"/>
	<path class="st1" d="M240.5,474c0.8,0.4,1.4,1,1.8,1.8c0.4,0.8,0.7,1.7,0.7,2.7s-0.2,1.9-0.7,2.7s-1,1.4-1.8,1.8s-1.6,0.6-2.6,0.6
		c-1.3,0-2.4-0.4-3.2-1.3v4.8h-2.3v-13.6h2.2v1.3c0.4-0.5,0.9-0.8,1.4-1.1c0.6-0.2,1.2-0.4,1.9-0.4
		C238.8,473.4,239.7,473.6,240.5,474z M239.7,480.8c0.6-0.6,0.8-1.3,0.8-2.3s-0.3-1.7-0.8-2.3s-1.3-0.9-2.1-0.9
		c-0.6,0-1.1,0.1-1.5,0.4c-0.4,0.3-0.8,0.6-1.1,1.1s-0.4,1-0.4,1.6s0.1,1.2,0.4,1.6c0.3,0.5,0.6,0.8,1.1,1.1c0.4,0.3,1,0.4,1.5,0.4
		C238.5,481.6,239.2,481.3,239.7,480.8z"/>
	<path class="st1" d="M253.7,473.5v10h-2.3v-3.9c-1,0.5-2,0.7-3,0.7c-1.3,0-2.3-0.3-3-0.9c-0.7-0.6-1-1.5-1-2.7v-3.2h2.3v3
		c0,0.6,0.2,1.1,0.6,1.4s0.9,0.5,1.6,0.5c0.9,0,1.7-0.2,2.5-0.6v-4.4H253.7z"/>
</g>
<g class="st4">
	<path class="st1" d="M91.8,214.6c0.4,0.5,0.7,1.2,0.7,2c0,1.1-0.4,2-1.3,2.7c-0.8,0.6-2.1,1-3.7,1h-6.2v-13.1h5.9
		c1.5,0,2.6,0.3,3.4,0.9c0.8,0.6,1.2,1.4,1.2,2.5c0,0.7-0.2,1.3-0.5,1.8c-0.3,0.5-0.8,0.9-1.4,1.1C90.7,213.7,91.4,214.1,91.8,214.6
		z M83.7,212.8H87c0.8,0,1.4-0.2,1.8-0.5s0.6-0.8,0.6-1.4c0-0.6-0.2-1.1-0.6-1.4s-1-0.5-1.8-0.5h-3.3V212.8z M90,216.5
		c0-1.3-0.9-1.9-2.6-1.9h-3.7v3.9h3.7C89.2,218.4,90,217.8,90,216.5z"/>
	<path class="st1" d="M96.7,219.8c-0.8-0.4-1.4-1-1.9-1.8c-0.5-0.8-0.7-1.7-0.7-2.6s0.2-1.9,0.7-2.6c0.5-0.8,1.1-1.4,1.9-1.8
		c0.8-0.4,1.7-0.7,2.7-0.7c1,0,1.9,0.2,2.7,0.7c0.8,0.4,1.4,1,1.9,1.8c0.5,0.8,0.7,1.7,0.7,2.6s-0.2,1.9-0.7,2.6
		c-0.5,0.8-1.1,1.4-1.9,1.8c-0.8,0.4-1.7,0.7-2.7,0.7C98.4,220.4,97.5,220.2,96.7,219.8z M101.6,217.6c0.6-0.6,0.8-1.3,0.8-2.3
		c0-0.9-0.3-1.7-0.8-2.3c-0.6-0.6-1.3-0.9-2.1-0.9s-1.6,0.3-2.1,0.9c-0.6,0.6-0.8,1.3-0.8,2.3c0,0.9,0.3,1.7,0.8,2.3
		c0.6,0.6,1.3,0.9,2.1,0.9S101,218.1,101.6,217.6z"/>
	<path class="st1" d="M114.3,215.9c0.3,0.4,0.5,0.9,0.5,1.4c0,0.6-0.2,1.1-0.6,1.6s-1,0.8-1.7,1.1c-0.7,0.3-1.5,0.4-2.5,0.4
		c-0.8,0-1.5-0.1-2.3-0.3c-0.7-0.2-1.4-0.4-2-0.8l0.7-1.7c0.5,0.3,1,0.5,1.6,0.6c0.6,0.1,1.2,0.2,1.8,0.2c0.8,0,1.4-0.1,1.8-0.4
		c0.4-0.2,0.7-0.6,0.7-1c0-0.4-0.2-0.7-0.5-0.9c-0.3-0.2-0.8-0.3-1.4-0.3h-1.9v-1.6h1.8c0.6,0,1-0.1,1.4-0.3
		c0.3-0.2,0.5-0.5,0.5-0.8c0-0.4-0.2-0.6-0.6-0.9s-0.9-0.3-1.6-0.3c-1,0-2.1,0.2-3.2,0.7l-0.6-1.7c1.3-0.6,2.6-0.9,4-0.9
		c0.8,0,1.6,0.1,2.3,0.3c0.7,0.2,1.2,0.6,1.6,1c0.4,0.4,0.6,0.9,0.6,1.4c0,0.5-0.1,0.9-0.4,1.3c-0.3,0.4-0.7,0.7-1.2,0.9
		C113.5,215.3,114,215.6,114.3,215.9z"/>
	<path class="st1" d="M127.1,220.3v-6.6l-3.4,5.6h-1l-3.3-5.6v6.6h-2.1v-10h2.4l3.6,6.2l3.7-6.2h2.2l0,10H127.1z"/>
	<path class="st1" d="M134,219.8c-0.8-0.4-1.4-1-1.9-1.8c-0.5-0.8-0.7-1.7-0.7-2.6s0.2-1.9,0.7-2.6c0.5-0.8,1.1-1.4,1.9-1.8
		c0.8-0.4,1.7-0.7,2.7-0.7c1,0,1.9,0.2,2.7,0.7c0.8,0.4,1.4,1,1.9,1.8c0.5,0.8,0.7,1.7,0.7,2.6s-0.2,1.9-0.7,2.6
		c-0.5,0.8-1.1,1.4-1.9,1.8c-0.8,0.4-1.7,0.7-2.7,0.7C135.8,220.4,134.9,220.2,134,219.8z M138.9,217.6c0.6-0.6,0.8-1.3,0.8-2.3
		c0-0.9-0.3-1.7-0.8-2.3c-0.6-0.6-1.3-0.9-2.1-0.9s-1.6,0.3-2.1,0.9c-0.6,0.6-0.8,1.3-0.8,2.3c0,0.9,0.3,1.7,0.8,2.3
		c0.6,0.6,1.3,0.9,2.1,0.9S138.3,218.1,138.9,217.6z"/>
	<path class="st1" d="M153.5,216.3h-1.7v4h-2.3v-4h-1.7l-2.4,4h-2.8l3.3-5.2l-3-4.8h2.5l2.4,4h1.7v-4h2.3v4h1.7l2.4-4h2.5l-3,4.8
		l3.3,5.2H156L153.5,216.3z"/>
	<path class="st1" d="M160.5,210.3h2.3v4.1h5v-4.1h2.3v10h-2.3v-3.9h-5v3.9h-2.3V210.3z"/>
	<path class="st1" d="M175.1,219.8c-0.8-0.4-1.4-1-1.9-1.8c-0.5-0.8-0.7-1.7-0.7-2.6s0.2-1.9,0.7-2.6c0.5-0.8,1.1-1.4,1.9-1.8
		c0.8-0.4,1.7-0.7,2.7-0.7c1,0,1.9,0.2,2.7,0.7c0.8,0.4,1.4,1,1.9,1.8c0.5,0.8,0.7,1.7,0.7,2.6s-0.2,1.9-0.7,2.6
		c-0.5,0.8-1.1,1.4-1.9,1.8c-0.8,0.4-1.7,0.7-2.7,0.7C176.8,220.4,175.9,220.2,175.1,219.8z M179.9,217.6c0.6-0.6,0.8-1.3,0.8-2.3
		c0-0.9-0.3-1.7-0.8-2.3c-0.6-0.6-1.3-0.9-2.1-0.9s-1.6,0.3-2.1,0.9c-0.6,0.6-0.8,1.3-0.8,2.3c0,0.9,0.3,1.7,0.8,2.3
		c0.6,0.6,1.3,0.9,2.1,0.9S179.4,218.1,179.9,217.6z"/>
	<path class="st1" d="M187.2,219.8c-0.8-0.4-1.5-1-1.9-1.8c-0.5-0.8-0.7-1.7-0.7-2.6s0.2-1.9,0.7-2.6c0.5-0.8,1.1-1.4,1.9-1.8
		c0.8-0.4,1.7-0.7,2.8-0.7c1,0,1.8,0.2,2.6,0.6s1.3,1,1.7,1.7l-1.8,1c-0.3-0.5-0.6-0.8-1.1-1c-0.4-0.2-0.9-0.3-1.4-0.3
		c-0.9,0-1.6,0.3-2.2,0.9c-0.6,0.6-0.9,1.3-0.9,2.3s0.3,1.7,0.9,2.3c0.6,0.6,1.3,0.9,2.2,0.9c0.5,0,1-0.1,1.4-0.3
		c0.4-0.2,0.8-0.6,1.1-1l1.8,1c-0.4,0.7-1,1.3-1.7,1.7s-1.6,0.6-2.6,0.6C188.9,220.4,188,220.2,187.2,219.8z"/>
	<path class="st1" d="M204.1,212.3h-3.5v8h-2.3v-8h-3.5v-2h9.3V212.3z"/>
	<path class="st1" d="M213.7,214.5c0.7,0.6,1,1.4,1,2.4c0,1.1-0.4,1.9-1.1,2.5c-0.7,0.6-1.8,0.9-3.2,0.9l-4.7,0v-10h2.3v3.3l2.7,0
		C212.1,213.6,213,213.9,213.7,214.5z M211.8,218.2c0.4-0.3,0.5-0.7,0.5-1.3c0-0.6-0.2-1-0.5-1.2s-0.9-0.4-1.6-0.4l-2.1,0v3.4l2.1,0
		C210.9,218.6,211.5,218.5,211.8,218.2z"/>
	<path class="st1" d="M90.6,232.7v10h-2.3v-8h-4.9v8H81v-10H90.6z"/>
	<path class="st1" d="M95.5,242.2c-0.8-0.4-1.4-1-1.9-1.8c-0.5-0.8-0.7-1.7-0.7-2.6s0.2-1.9,0.7-2.6c0.5-0.8,1.1-1.4,1.9-1.8
		c0.8-0.4,1.7-0.7,2.7-0.7c1,0,1.9,0.2,2.7,0.7c0.8,0.4,1.4,1,1.9,1.8c0.5,0.8,0.7,1.7,0.7,2.6s-0.2,1.9-0.7,2.6
		c-0.5,0.8-1.1,1.4-1.9,1.8c-0.8,0.4-1.7,0.7-2.7,0.7C97.2,242.9,96.3,242.6,95.5,242.2z M100.3,240c0.6-0.6,0.8-1.3,0.8-2.3
		c0-0.9-0.3-1.7-0.8-2.3c-0.6-0.6-1.3-0.9-2.1-0.9s-1.6,0.3-2.1,0.9c-0.6,0.6-0.8,1.3-0.8,2.3c0,0.9,0.3,1.7,0.8,2.3
		c0.6,0.6,1.3,0.9,2.1,0.9S99.8,240.6,100.3,240z"/>
	<path class="st1" d="M114.8,232.7v10h-2.3v-8h-3.7l-0.1,2c-0.1,1.3-0.2,2.4-0.4,3.3s-0.5,1.6-0.9,2.1c-0.4,0.5-1,0.8-1.8,0.8
		c-0.3,0-0.8-0.1-1.3-0.2l0.1-2c0.2,0,0.3,0.1,0.4,0.1c0.5,0,0.8-0.2,1.1-0.6c0.2-0.4,0.4-0.8,0.5-1.4c0.1-0.5,0.1-1.3,0.2-2.3
		l0.2-3.9H114.8z"/>
	<path class="st1" d="M127.3,232.7l-4.7,10.8c-0.4,1.1-1,1.8-1.6,2.3s-1.4,0.7-2.3,0.7c-0.5,0-1-0.1-1.5-0.2
		c-0.5-0.2-0.9-0.4-1.2-0.7l0.9-1.7c0.2,0.2,0.5,0.4,0.8,0.5c0.3,0.1,0.6,0.2,0.9,0.2c0.4,0,0.8-0.1,1-0.3s0.5-0.6,0.7-1.1l0.2-0.4
		l-4.4-10h2.4l3.1,7.4l3.2-7.4H127.3z"/>
	<path class="st1" d="M137.4,232.7v10h-2.3v-3.9c-1,0.5-2,0.7-3,0.7c-1.3,0-2.3-0.3-3-0.9c-0.7-0.6-1-1.5-1-2.7v-3.2h2.3v3
		c0,0.6,0.2,1.1,0.6,1.4s0.9,0.5,1.6,0.5c0.9,0,1.7-0.2,2.5-0.6v-4.4H137.4z"/>
	<path class="st1" d="M140.6,232.7h2.3v6.6l5.5-6.6h2.1v10h-2.3v-6.6l-5.5,6.6h-2.1V232.7z"/>
	<path class="st1" d="M161.6,234.7h-3.5v8h-2.3v-8h-3.5v-2h9.3V234.7z"/>
	<path class="st1" d="M171.2,236.9c0.7,0.6,1,1.4,1,2.4c0,1.1-0.4,1.9-1.1,2.5c-0.7,0.6-1.8,0.9-3.2,0.9l-4.7,0v-10h2.3v3.3l2.7,0
		C169.6,236,170.6,236.3,171.2,236.9z M169.3,240.6c0.4-0.3,0.5-0.7,0.5-1.3c0-0.6-0.2-1-0.5-1.2c-0.3-0.3-0.9-0.4-1.6-0.4l-2.1,0
		v3.4l2.1,0C168.5,241,169,240.9,169.3,240.6z"/>
	<path class="st1" d="M187.6,233.3c0.8,0.4,1.4,1,1.8,1.8c0.4,0.8,0.7,1.7,0.7,2.7c0,1-0.2,1.9-0.7,2.7c-0.4,0.8-1,1.4-1.8,1.8
		c-0.8,0.4-1.6,0.6-2.6,0.6c-1.3,0-2.4-0.4-3.2-1.3v4.8h-2.3v-13.6h2.2v1.3c0.4-0.5,0.9-0.8,1.4-1.1c0.6-0.2,1.2-0.4,1.9-0.4
		C186,232.6,186.8,232.8,187.6,233.3z M186.9,240c0.6-0.6,0.8-1.3,0.8-2.3c0-0.9-0.3-1.7-0.8-2.3s-1.3-0.9-2.1-0.9
		c-0.6,0-1.1,0.1-1.5,0.4c-0.4,0.3-0.8,0.6-1.1,1.1c-0.3,0.5-0.4,1-0.4,1.6s0.1,1.2,0.4,1.6s0.6,0.8,1.1,1.1c0.4,0.3,1,0.4,1.5,0.4
		C185.6,240.9,186.3,240.6,186.9,240z"/>
	<path class="st1" d="M199.3,233.7c0.8,0.7,1.2,1.8,1.2,3.2v5.9h-2.2v-1.2c-0.3,0.4-0.7,0.8-1.2,1c-0.5,0.2-1.2,0.3-1.9,0.3
		s-1.4-0.1-2-0.4s-1-0.6-1.3-1.1c-0.3-0.5-0.5-1-0.5-1.5c0-0.9,0.3-1.6,1-2.2c0.7-0.5,1.7-0.8,3.1-0.8h2.6v-0.1
		c0-0.7-0.2-1.2-0.6-1.6c-0.4-0.4-1-0.6-1.9-0.6c-0.6,0-1.1,0.1-1.7,0.3c-0.5,0.2-1,0.4-1.4,0.7l-0.9-1.7c0.5-0.4,1.2-0.7,1.9-0.9
		c0.7-0.2,1.5-0.3,2.3-0.3C197.4,232.6,198.6,233,199.3,233.7z M197.2,240.8c0.5-0.3,0.8-0.7,1-1.1v-1.2h-2.4c-1.3,0-2,0.4-2,1.3
		c0,0.4,0.2,0.8,0.5,1c0.3,0.2,0.8,0.4,1.4,0.4C196.2,241.2,196.8,241,197.2,240.8z"/>
	<path class="st1" d="M211.3,233.8c0.7,0.4,1.3,1,1.7,1.7c0.4,0.7,0.6,1.6,0.6,2.5c0,1-0.2,1.8-0.7,2.6c-0.4,0.7-1.1,1.3-1.9,1.7
		c-0.8,0.4-1.7,0.6-2.8,0.6c-1.7,0-3.1-0.6-4-1.7s-1.4-2.8-1.4-5c0-2,0.4-3.6,1.3-4.8c0.9-1.2,2.2-1.9,3.9-2.3l4.6-1l0.3,2.1
		l-4.2,0.9c-1.2,0.2-2.1,0.7-2.7,1.3c-0.6,0.6-0.9,1.4-1,2.5c0.4-0.5,1-1,1.6-1.2c0.6-0.3,1.3-0.4,2.1-0.4
		C209.8,233.2,210.6,233.4,211.3,233.8z M210.4,240.2c0.5-0.6,0.8-1.3,0.8-2.1s-0.3-1.6-0.8-2.1c-0.5-0.5-1.2-0.8-2.1-0.8
		c-0.9,0-1.6,0.3-2.1,0.8s-0.8,1.2-0.8,2.1c0,0.9,0.3,1.6,0.8,2.1c0.5,0.5,1.2,0.8,2.1,0.8C209.2,241,209.9,240.7,210.4,240.2z"/>
	<path class="st1" d="M217.6,242.2c-0.8-0.4-1.4-1-1.9-1.8c-0.5-0.8-0.7-1.7-0.7-2.6s0.2-1.9,0.7-2.6c0.5-0.8,1.1-1.4,1.9-1.8
		c0.8-0.4,1.7-0.7,2.7-0.7c1,0,1.9,0.2,2.7,0.7c0.8,0.4,1.4,1,1.9,1.8c0.5,0.8,0.7,1.7,0.7,2.6s-0.2,1.9-0.7,2.6
		c-0.5,0.8-1.1,1.4-1.9,1.8c-0.8,0.4-1.7,0.7-2.7,0.7C219.3,242.9,218.4,242.6,217.6,242.2z M222.5,240c0.6-0.6,0.8-1.3,0.8-2.3
		c0-0.9-0.3-1.7-0.8-2.3c-0.6-0.6-1.3-0.9-2.1-0.9c-0.9,0-1.6,0.3-2.1,0.9c-0.6,0.6-0.8,1.3-0.8,2.3c0,0.9,0.3,1.7,0.8,2.3
		c0.6,0.6,1.3,0.9,2.1,0.9C221.2,240.9,221.9,240.6,222.5,240z"/>
	<path class="st1" d="M235.5,234.7H232v8h-2.3v-8h-3.5v-2h9.3V234.7z"/>
	<path class="st1" d="M246.7,232.7l-4.7,10.8c-0.4,1.1-1,1.8-1.6,2.3s-1.4,0.7-2.3,0.7c-0.5,0-1-0.1-1.5-0.2
		c-0.5-0.2-0.9-0.4-1.2-0.7l0.9-1.7c0.2,0.2,0.5,0.4,0.8,0.5c0.3,0.1,0.6,0.2,0.9,0.2c0.4,0,0.8-0.1,1-0.3c0.3-0.2,0.5-0.6,0.7-1.1
		l0.2-0.4l-4.4-10h2.4l3.1,7.4l3.2-7.4H246.7z"/>
</g>
<circle class="st1" cx="89.6" cy="480.5" r="17.2"/>
<circle class="st1" cx="57.5" cy="404.9" r="17.2"/>
<circle class="st1" cx="38.8" cy="309.4" r="17.2"/>
<circle class="st1" cx="42.1" cy="225.8" r="17.2"/>
</svg>
