<?xml version="1.0" encoding="utf-8"?>
<!-- Generator: Adobe Illustrator 24.1.1, SVG Export Plug-In . SVG Version: 6.00 Build 0)  -->
<svg version="1.1" id="Слой_1" xmlns="http://www.w3.org/2000/svg" xmlns:xlink="http://www.w3.org/1999/xlink" x="0px" y="0px"
	 viewBox="0 0 1520.3 1472.1" style="enable-background:new 0 0 1520.3 1472.1;" xml:space="preserve">
<style type="text/css">
	.st0{fill:#FD6A00;}
	.st1{enable-background:new    ;}
	.st2{fill:none;stroke:#000000;stroke-width:12;stroke-miterlimit:10;stroke-dasharray:56,27;}
	.st3{fill:#FFFFFF;}
	.st4{fill:#FFFFFF;stroke:#FFFFFF;stroke-width:1.3896;stroke-miterlimit:10;}
	.st5{fill:#FFFFFF;stroke:#FFFFFF;stroke-width:1.5;stroke-miterlimit:10;}
</style>
<g>
	<path class="st0" d="M1511.2,823.5c8,72-30,101-105,108c-51.8,4.8-67,53-162,67c-151.4,22.3-226,2-233-142.5
		c-3.8-79.2,58-156.8,212-167.5C1367.2,678.5,1498.6,710.5,1511.2,823.5"/>
	<polygon points="476.6,24.1 476.6,315.3 409.2,315.3 409.2,78.2 350.9,78.2 350.9,24.1 	"/>
	<path class="st0" d="M585.2,348.5c0,133.1-156.9,226-290,226s-209-46.9-209-180s106.9-161,240-161
		C459.3,233.5,585.2,215.4,585.2,348.5"/>
	<path d="M220.2,1003.5c14.2,15.5,21.2,34.6,21.3,57.5c0.1,17.3-4.7,34.2-13.9,48.8c-9.3,14.9-23.4,26.8-42.3,35.8
		s-42.1,13.4-69.6,13.4c-21.3,0-42.5-2.8-63.1-8.5c-20.7-5.6-38.2-13.7-52.7-24.1l27.3-53.8c12.1,9,25.7,15.8,40.1,20.2
		c15.1,4.8,30.8,7.2,46.6,7.2c17.6,0,31.5-3.4,41.6-10.2c10.1-6.8,15.2-16.4,15.2-28.8c0-24.9-18.9-37.3-56.8-37.3h-32v-46.4
		l62.5-70.7H15.1v-56.4h212.5v45.5l-68.5,78.1C185.7,978.2,206,988.1,220.2,1003.5"/>
	<path class="st0" d="M515.2,1116.5c67.7,32.3,255.4,40.8,252.3,175.1c-1.3,59.9-48.3,169.9-369.3,162.7
		c-75.4,3.7-172.4,50.5-247.1-29.8s-100.7-158.7-75.8-258.8c24.8-100.2,100.2-138,199.9-131.2
		C392.2,1042.5,447.2,1083.9,515.2,1116.5"/>
	<g class="st1">
		<path d="M1235.8,59.3v70h-16.1V72.5h-31.6v56.8H1172v-70C1172,59.3,1235.8,59.3,1235.8,59.3z"/>
	</g>
	<g class="st1">
		<path d="M1316.4,59.3l-29.8,55.4c-2.9,5.3-6.3,9.4-10.4,12.1c-4,2.7-8.4,4.1-13.1,4.1c-3.7,0-7.5-0.8-11.4-2.4l3.9-12.3
			c2.8,0.9,5.1,1.3,7,1.3c2,0,3.8-0.5,5.4-1.5s3.1-2.5,4.4-4.5l0.6-0.8l-27.6-51.4h17.3l18.6,37.6l19.2-37.6
			C1300.5,59.3,1316.4,59.3,1316.4,59.3z"/>
	</g>
	<g class="st1">
		<path d="M1377.8,72.5h-22.4v56.8h-16V72.5h-22.3V59.3h60.7L1377.8,72.5L1377.8,72.5z"/>
		<path d="M1441.6,88c4.6,3.8,6.9,9.4,6.9,16.9c0,7.9-2.5,14-7.6,18.2c-5,4.2-12.1,6.3-21.3,6.3H1388v-70h16.1v23h17.8
			C1430.5,82.3,1437,84.2,1441.6,88z M1428.6,114.2c2.4-2.1,3.5-5.1,3.5-9c0-7.3-4.5-10.9-13.4-10.9h-14.6v23h14.6
			C1422.9,117.3,1426.2,116.3,1428.6,114.2z"/>
	</g>
	<g class="st1">
		<path d="M876.2,179.3l-29.8,55.4c-2.9,5.3-6.3,9.4-10.4,12.1c-4,2.7-8.4,4.1-13.1,4.1c-3.7,0-7.5-0.8-11.4-2.4l3.9-12.3
			c2.8,0.9,5.1,1.3,7,1.3c2,0,3.8-0.5,5.4-1.5c1.6-1,3.1-2.5,4.4-4.5l0.6-0.8l-27.6-51.4h17.3l18.6,37.6l19.2-37.6L876.2,179.3
			L876.2,179.3z"/>
		<path d="M942.9,179.3v70h-16v-25.2c-6.1,2.2-11.7,3.3-16.9,3.3c-9.4,0-16.6-2.3-21.6-6.8s-7.5-11-7.5-19.4v-21.9h16v20.1
			c0,4.8,1.3,8.4,3.8,10.9c2.6,2.4,6.3,3.6,11.2,3.6c5.3,0,10.3-1,15-3.1v-31.5L942.9,179.3L942.9,179.3z"/>
	</g>
	<g class="st1">
		<path d="M1007.7,234.3h-32.5l-6.2,15h-16.6l31.2-70h16l31.3,70h-17L1007.7,234.3z M1002.6,222l-11.1-26.8L980.4,222H1002.6z"/>
	</g>
	<g class="st1">
		<path d="M1053.1,245.9c-5.8-3.1-10.3-7.4-13.6-12.9c-3.3-5.5-5-11.7-5-18.7c0-6.9,1.6-13.2,5-18.7c3.3-5.5,7.8-9.8,13.6-12.9
			c5.8-3.1,12.3-4.7,19.5-4.7c6.1,0,11.5,1.1,16.5,3.2c4.9,2.1,9,5.2,12.3,9.2l-10.5,9.7c-4.7-5.5-10.6-8.2-17.6-8.2
			c-4.3,0-8.2,1-11.6,2.9s-6.1,4.5-8,8c-1.9,3.4-2.9,7.3-2.9,11.6s1,8.2,2.9,11.6c1.9,3.4,4.5,6.1,8,8c3.4,1.9,7.3,2.9,11.6,2.9
			c7,0,12.9-2.8,17.6-8.3l10.4,9.6c-3.3,4.1-7.5,7.2-12.4,9.3s-10.4,3.2-16.5,3.2C1065.3,250.5,1058.9,249,1053.1,245.9z"/>
	</g>
	<g class="st1">
		<path d="M1164.7,192.5h-22.4v56.8h-16v-56.8H1104v-13.2h60.7L1164.7,192.5L1164.7,192.5z"/>
		<path d="M1239.1,179.3v70h-16.2v-28.7h-31.8v28.7h-16.2v-70h16.2v27.6h31.8v-27.6H1239.1z"/>
		<path d="M1256.6,179.3h16.1v45.6l33.4-45.6h15.2v70h-16v-45.5l-33.4,45.5h-15.3L1256.6,179.3L1256.6,179.3z"/>
	</g>
	<g class="st1">
		<path d="M1365.8,221.1h-11.2v28.2h-16.1v-70h16.1v28.3h11.6l18.4-28.3h17.1l-22.9,33.8l23.6,36.2H1384L1365.8,221.1z"/>
	</g>
	<g class="st1">
		<path d="M1456.1,234.3h-32.5l-6.2,15h-16.6l31.2-70h16l31.3,70h-17L1456.1,234.3z M1451,222l-11.1-26.8l-11.1,26.8H1451z"/>
	</g>
	<path d="M1520.2,696.6v53.5h-214.4v-42.6l109.4-103.3c11.6-11.1,19.4-20.6,23.5-28.6c3.9-7.3,6-15.4,6.1-23.7
		c0-11.3-3.9-20.1-11.6-26.1c-7.7-6.1-19-9.1-33.8-9.1c-12.4,0-23.6,2.4-33.6,7.1c-10.1,4.8-18.7,12.1-25.1,21.3l-47.8-30.8
		c11.1-16.5,26.3-29.4,45.8-38.7c19.5-9.3,41.7-14,66.9-14c21.1,0,39.5,3.4,55.3,10.3s28.1,16.6,36.9,29.2
		c8.8,12.6,13.2,27.4,13.2,44.4c0.1,15-3.2,29.8-9.7,43.4c-6.5,13.5-19,28.9-37.7,46.2l-65.2,61.6L1520.2,696.6z"/>
	<path class="st2" d="M618,406c155.4-4,392.2,51.5,473.2,224.5"/>
	<path class="st2" d="M833.3,1252.9c106.4-36.5,182.3-85.2,243.9-179.3"/>
	<g>
		<rect x="1144.7" y="-0.9" width="2.9" height="65.8"/>
		<rect x="1113.2" y="30.6" width="65.8" height="2.9"/>
	</g>
</g>
<g>
	<g>
		<path class="st3" d="M210.9,365.5c1.3,1.1,1.9,2.6,1.9,4.5s-0.6,3.4-1.9,4.5c-1.3,1.1-3.1,1.6-5.4,1.6h-5.2v6H199v-18.2h6.5
			C207.8,363.8,209.6,364.4,210.9,365.5z M210,373.6c1-0.8,1.5-2.1,1.5-3.6c0-1.6-0.5-2.8-1.5-3.7c-1-0.9-2.5-1.3-4.4-1.3h-5.2v9.9
			h5.2C207.4,374.9,208.9,374.5,210,373.6z"/>
		<path class="st3" d="M228.1,375.6h-11.7c0,1.1,0.3,2,0.8,2.8s1.2,1.5,2,1.9c0.9,0.5,1.8,0.7,2.9,0.7c0.9,0,1.7-0.2,2.5-0.5
			s1.4-0.8,1.9-1.4l0.8,0.9c-0.6,0.7-1.3,1.3-2.2,1.6c-0.9,0.4-1.9,0.6-2.9,0.6c-1.4,0-2.6-0.3-3.6-0.9c-1.1-0.6-1.9-1.4-2.5-2.4
			s-0.9-2.2-0.9-3.6c0-1.3,0.3-2.5,0.8-3.5c0.6-1,1.3-1.9,2.3-2.5s2.1-0.9,3.3-0.9s2.3,0.3,3.3,0.9s1.8,1.4,2.3,2.4
			c0.6,1,0.8,2.2,0.8,3.5L228.1,375.6z M219.1,370.1c-0.8,0.4-1.4,1-1.8,1.8c-0.5,0.8-0.7,1.6-0.8,2.6h10.4c-0.1-1-0.3-1.8-0.8-2.6
			c-0.5-0.8-1.1-1.4-1.8-1.8s-1.6-0.7-2.6-0.7C220.7,369.5,219.8,369.7,219.1,370.1z"/>
		<path class="st3" d="M241.6,369.6h-8V382h-1.3v-13.6h9.3V369.6z"/>
		<path class="st3" d="M244.4,368.5h1.3V380l9.7-11.6h1.1V382h-1.3v-11.6l-9.7,11.6h-1.1V368.5z"/>
		<path class="st3" d="M264.1,381.3c-1-0.6-1.9-1.4-2.4-2.5c-0.6-1-0.9-2.2-0.9-3.5s0.3-2.5,0.9-3.6c0.6-1,1.4-1.9,2.4-2.4
			c1-0.6,2.2-0.9,3.5-0.9c1.1,0,2.1,0.2,3,0.6s1.6,1,2.2,1.9l-1,0.7c-0.5-0.7-1.1-1.2-1.8-1.5s-1.5-0.5-2.4-0.5
			c-1.1,0-2,0.2-2.8,0.7s-1.5,1.1-2,2s-0.7,1.9-0.7,3s0.2,2.1,0.7,3s1.1,1.5,2,2s1.8,0.7,2.8,0.7c0.9,0,1.7-0.2,2.4-0.5
			c0.7-0.3,1.3-0.8,1.8-1.5l1,0.7c-0.6,0.8-1.3,1.4-2.2,1.9c-0.9,0.4-1.9,0.6-3,0.6C266.3,382.1,265.1,381.9,264.1,381.3z"/>
		<path class="st3" d="M285.4,369.6h-5.3V382h-1.3v-12.4h-5.3v-1.2h11.9L285.4,369.6L285.4,369.6z"/>
		<path class="st3" d="M298.5,369.3c1,0.6,1.8,1.4,2.4,2.4s0.9,2.2,0.9,3.6c0,1.3-0.3,2.5-0.9,3.6c-0.6,1-1.4,1.9-2.4,2.4
			c-1,0.6-2.2,0.9-3.4,0.9c-1.2,0-2.3-0.3-3.3-0.8c-1-0.6-1.7-1.3-2.3-2.4v8.1h-1.3v-18.6h1.2v3.2c0.5-1,1.3-1.9,2.3-2.4
			c1-0.6,2.1-0.9,3.3-0.9C296.3,368.4,297.4,368.7,298.5,369.3z M297.8,380.2c0.8-0.5,1.5-1.2,2-2s0.7-1.9,0.7-3s-0.2-2.1-0.7-3
			s-1.1-1.5-2-2s-1.8-0.7-2.8-0.7s-2,0.2-2.8,0.7s-1.5,1.2-1.9,2c-0.5,0.9-0.7,1.9-0.7,3s0.2,2.1,0.7,3s1.1,1.5,1.9,2
			s1.8,0.7,2.8,0.7S296.9,380.7,297.8,380.2z"/>
		<path class="st3" d="M314.3,369.7c0.9,0.9,1.4,2.1,1.4,3.8v8.6h-1.2v-2.4c-0.4,0.8-1.1,1.4-1.9,1.9c-0.8,0.4-1.8,0.7-3,0.7
			c-1.5,0-2.7-0.4-3.6-1.1s-1.3-1.6-1.3-2.8c0-1.1,0.4-2,1.2-2.7c0.8-0.7,2.1-1.1,3.9-1.1h4.7v-1.1c0-1.3-0.3-2.2-1-2.9
			c-0.7-0.7-1.7-1-3-1c-0.9,0-1.8,0.2-2.6,0.5c-0.8,0.3-1.5,0.7-2.1,1.2l-0.6-0.9c0.7-0.6,1.5-1.1,2.4-1.4c1-0.3,2-0.5,3-0.5
			C312.1,368.4,313.4,368.8,314.3,369.7z M312.6,380.3c0.8-0.5,1.4-1.3,1.8-2.3v-2.5h-4.6c-1.3,0-2.3,0.2-2.9,0.7s-0.9,1.2-0.9,2
			c0,0.9,0.3,1.6,1,2.1s1.6,0.8,2.8,0.8C310.8,381.1,311.8,380.8,312.6,380.3z"/>
		<path class="st3" d="M334.8,380.9v4.7h-1.2V382H321v-13.6h1.3v12.4h9v-12.4h1.3v12.4h2.2V380.9z"/>
		<path class="st3" d="M338.6,368.5h1.3V380l9.7-11.6h1.1V382h-1.3v-11.6l-9.7,11.6h-1.1V368.5z"/>
		<path class="st3" d="M366.3,368.5V382h-1.2v-4.7h-4.5c-0.3,0-0.5,0-0.7,0l-3.4,4.7h-1.4l3.5-4.9c-1.1-0.2-2-0.7-2.5-1.4
			c-0.6-0.7-0.9-1.6-0.9-2.8c0-1.5,0.5-2.6,1.5-3.4s2.4-1.1,4.1-1.1L366.3,368.5L366.3,368.5z M360.7,376.4h4.4v-6.8h-4.2
			c-2.9,0-4.4,1.1-4.4,3.4S357.9,376.4,360.7,376.4z"/>
		<path class="st3" d="M386.9,376.1c0.5,0.6,0.8,1.3,0.8,2.1c0,0.8-0.3,1.5-0.8,2.1s-1.2,1.1-2.1,1.4s-1.9,0.5-2.9,0.5
			s-1.9-0.2-2.8-0.5s-1.7-0.7-2.4-1.3l0.5-1c0.6,0.5,1.3,0.9,2.2,1.2c0.8,0.3,1.7,0.4,2.6,0.4c1.3,0,2.4-0.3,3.3-0.8
			s1.3-1.3,1.3-2.2c0-0.8-0.4-1.4-1.1-1.9s-1.7-0.7-3-0.7h-2.2v-1h2.1c1.1,0,2-0.2,2.7-0.6s1.1-1,1.1-1.7c0-0.8-0.4-1.5-1.2-2
			c-0.8-0.5-1.8-0.7-3-0.7c-1.5,0-3,0.4-4.3,1.2l-0.4-1c1.5-0.8,3.1-1.3,4.9-1.3c1.5,0,2.8,0.3,3.8,1c1,0.6,1.5,1.5,1.5,2.6
			c0,0.7-0.3,1.3-0.8,1.9c-0.5,0.5-1.2,0.9-2,1.2C385.6,375.2,386.4,375.5,386.9,376.1z"/>
		<path class="st3" d="M400.7,369.7c0.9,0.9,1.4,2.1,1.4,3.8v8.6h-1.2v-2.4c-0.4,0.8-1.1,1.4-1.9,1.9c-0.8,0.4-1.8,0.7-3,0.7
			c-1.5,0-2.7-0.4-3.6-1.1s-1.3-1.6-1.3-2.8c0-1.1,0.4-2,1.2-2.7c0.8-0.7,2.1-1.1,3.9-1.1h4.7v-1.1c0-1.3-0.3-2.2-1-2.9
			c-0.7-0.7-1.7-1-3-1c-0.9,0-1.8,0.2-2.6,0.5c-0.8,0.3-1.5,0.7-2.1,1.2l-0.6-0.9c0.7-0.6,1.5-1.1,2.4-1.4c1-0.3,2-0.5,3-0.5
			C398.5,368.4,399.8,368.8,400.7,369.7z M398.9,380.3c0.8-0.5,1.4-1.3,1.8-2.3v-2.5h-4.6c-1.3,0-2.3,0.2-2.9,0.7s-0.9,1.2-0.9,2
			c0,0.9,0.3,1.6,1,2.1s1.6,0.8,2.8,0.8C397.2,381.1,398.1,380.8,398.9,380.3z"/>
		<path class="st3" d="M417.3,368.5V382h-1.2v-4.7h-4.5c-0.3,0-0.5,0-0.7,0l-3.4,4.7h-1.4l3.5-4.9c-1.1-0.2-2-0.7-2.5-1.4
			c-0.6-0.7-0.9-1.6-0.9-2.8c0-1.5,0.5-2.6,1.5-3.4s2.4-1.1,4.1-1.1L417.3,368.5L417.3,368.5z M411.7,376.4h4.4v-6.8h-4.2
			c-2.9,0-4.4,1.1-4.4,3.4S408.9,376.4,411.7,376.4z"/>
		<path class="st3" d="M433.9,378.4c0,1.2-0.4,2.1-1.3,2.7s-2.1,0.9-3.9,0.9h-5.9v-13.6h5.7c1.5,0,2.7,0.3,3.5,0.9
			c0.9,0.6,1.3,1.5,1.3,2.6c0,0.8-0.2,1.5-0.7,2c-0.4,0.5-1.1,0.9-1.9,1.1C432.9,375.4,433.9,376.5,433.9,378.4z M424.2,374.7h4.4
			c1.2,0,2.1-0.2,2.7-0.7s0.9-1.1,0.9-1.9s-0.3-1.5-0.9-1.9s-1.5-0.6-2.7-0.6h-4.4V374.7z M432.6,378.4c0-0.9-0.3-1.6-0.9-2
			s-1.5-0.6-2.8-0.6h-4.8v5.3h4.6C431.3,381,432.6,380.1,432.6,378.4z"/>
		<path class="st3" d="M440.5,381.3c-1-0.6-1.8-1.4-2.4-2.5c-0.6-1-0.9-2.2-0.9-3.5s0.3-2.5,0.9-3.5s1.4-1.9,2.4-2.5
			s2.2-0.9,3.5-0.9s2.4,0.3,3.5,0.9c1,0.6,1.8,1.4,2.4,2.5c0.6,1,0.9,2.2,0.9,3.5s-0.3,2.5-0.9,3.5s-1.4,1.9-2.4,2.5
			s-2.2,0.9-3.5,0.9S441.5,381.9,440.5,381.3z M446.8,380.2c0.8-0.5,1.5-1.2,1.9-2c0.5-0.9,0.7-1.9,0.7-3s-0.2-2.1-0.7-3
			s-1.1-1.5-1.9-2s-1.8-0.7-2.8-0.7s-2,0.2-2.8,0.7s-1.5,1.2-1.9,2c-0.5,0.9-0.7,1.9-0.7,3s0.2,2.1,0.7,3s1.1,1.5,1.9,2
			s1.8,0.7,2.8,0.7S445.9,380.7,446.8,380.2z"/>
		<path class="st3" d="M459.6,375.8h-3.3v6.3H455v-13.6h1.3v6.2h3.3l5.1-6.2h1.4l-5.5,6.6l5.9,7H465L459.6,375.8z"/>
		<path class="st3" d="M201.4,412.1v4.5h-1.2v-3.4h-12.8v3.4h-1.2v-4.5h0.8c0.9-0.1,1.5-0.8,1.9-2.1c0.3-1.4,0.6-3.3,0.7-5.8
			l0.2-4.5h9.5v12.4H201.4z M190.1,409.4c-0.3,1.4-0.7,2.3-1.4,2.7h9.2v-11.3h-7.1l-0.2,3.4C190.6,406.3,190.4,408,190.1,409.4z"/>
		<path class="st3" d="M207.2,412.5c-1-0.6-1.8-1.4-2.4-2.5c-0.6-1-0.9-2.2-0.9-3.5s0.3-2.5,0.9-3.5c0.6-1,1.4-1.9,2.4-2.5
			s2.2-0.9,3.5-0.9s2.4,0.3,3.5,0.9c1,0.6,1.8,1.4,2.4,2.5c0.6,1,0.9,2.2,0.9,3.5s-0.3,2.5-0.9,3.5c-0.6,1-1.4,1.9-2.4,2.5
			s-2.2,0.9-3.5,0.9S208.2,413.1,207.2,412.5z M213.4,411.4c0.8-0.5,1.5-1.2,1.9-2c0.5-0.9,0.7-1.9,0.7-3s-0.2-2.1-0.7-3
			s-1.1-1.5-1.9-2c-0.8-0.5-1.8-0.7-2.8-0.7s-2,0.2-2.8,0.7s-1.5,1.2-1.9,2c-0.5,0.9-0.7,1.9-0.7,3s0.2,2.1,0.7,3s1.1,1.5,1.9,2
			s1.8,0.7,2.8,0.7S212.6,411.9,213.4,411.4z"/>
		<path class="st4" d="M235.7,404.1c1,0.9,1.5,2.2,1.5,3.9c0,1-0.2,2-0.6,2.8s-1,1.4-1.8,1.9c-0.9,0.5-1.8,0.7-3,0.7
			c-1.1,0-2.2-0.2-3.2-0.7c-1-0.5-1.8-1-2.3-1.8l0.6-1c0.5,0.7,1.2,1.2,2.1,1.6c0.9,0.4,1.8,0.6,2.8,0.6c1.4,0,2.5-0.4,3.3-1.1
			s1.1-1.7,1.1-3c0-1.4-0.4-2.4-1.3-3.1c-0.9-0.7-2.3-1.1-4.3-1.1h-3.2l0.9-8.8h8.2v1.2h-7.3l-0.6,6.4h2.2
			C233,402.7,234.6,403.1,235.7,404.1z"/>
		<path class="st5" d="M241.9,413c-0.2-0.2-0.3-0.5-0.3-0.8s0.1-0.6,0.3-0.8c0.2-0.2,0.5-0.3,0.8-0.3s0.5,0.1,0.8,0.3
			c0.2,0.2,0.3,0.5,0.3,0.8s-0.1,0.6-0.3,0.8c-0.2,0.2-0.5,0.3-0.8,0.3C242.3,413.3,242.1,413.2,241.9,413z"/>
		<path class="st5" d="M249.8,412.2c-1.1-0.8-1.9-1.8-2.5-3.2c-0.6-1.4-0.9-3-0.9-4.9s0.3-3.5,0.9-4.9c0.6-1.4,1.4-2.5,2.5-3.2
			c1.1-0.8,2.3-1.1,3.7-1.1s2.6,0.4,3.7,1.1c1.1,0.8,1.9,1.8,2.5,3.2c0.6,1.4,0.9,3,0.9,4.9s-0.3,3.5-0.9,4.9s-1.4,2.5-2.5,3.2
			s-2.3,1.1-3.7,1.1C252.1,413.4,250.9,413,249.8,412.2z M256.5,411.2c0.9-0.6,1.6-1.6,2-2.8c0.5-1.2,0.7-2.6,0.7-4.3
			s-0.2-3.1-0.7-4.3c-0.5-1.2-1.2-2.1-2-2.8c-0.9-0.6-1.9-0.9-3-0.9s-2.2,0.3-3,0.9c-0.9,0.6-1.6,1.6-2,2.8s-0.7,2.6-0.7,4.3
			s0.2,3.1,0.7,4.3s1.2,2.1,2,2.8c0.9,0.6,1.9,0.9,3,0.9S255.7,411.8,256.5,411.2z"/>
		<path class="st5" d="M274.4,397.3c1.3,1.6,1.9,3.8,1.9,6.7c0,2-0.3,3.7-1,5.1s-1.6,2.4-2.8,3.2c-1.2,0.7-2.6,1.1-4.3,1.1
			c-1.7,0-3.1-0.3-4.1-0.9l0.5-1.1c0.9,0.6,2.1,0.8,3.6,0.8c2.1,0,3.7-0.7,5-2c1.2-1.4,1.8-3.3,1.8-5.9c0-0.8-0.1-1.5-0.2-2.2
			c-0.4,1.2-1.1,2.1-2.1,2.8c-1,0.7-2.3,1-3.7,1c-1.2,0-2.3-0.2-3.2-0.7s-1.6-1.1-2.1-1.9s-0.8-1.8-0.8-2.8c0-1.1,0.3-2.1,0.8-2.9
			s1.2-1.5,2.2-1.9c0.9-0.5,2-0.7,3.1-0.7C271.3,394.9,273.1,395.7,274.4,397.3z M271.8,404.1c0.8-0.4,1.4-0.9,1.8-1.6
			s0.6-1.4,0.6-2.2c0-0.7-0.2-1.4-0.6-2.1s-1-1.2-1.8-1.6s-1.7-0.6-2.8-0.6c-1.4,0-2.6,0.4-3.5,1.2c-0.9,0.8-1.3,1.8-1.3,3.1
			c0,1.3,0.4,2.3,1.3,3.1c0.9,0.8,2.1,1.2,3.6,1.2C270.1,404.7,271,404.5,271.8,404.1z"/>
	</g>
	<g>
		<path class="st3" d="M202.2,453.7c-1.4-0.8-2.6-1.9-3.4-3.3c-0.8-1.4-1.2-3-1.2-4.7c0-1.8,0.4-3.3,1.2-4.7c0.8-1.4,2-2.5,3.4-3.3
			s3-1.2,4.8-1.2c1.3,0,2.5,0.2,3.6,0.6s2.1,1.1,2.8,1.9l-0.8,0.9c-1.5-1.4-3.3-2.2-5.6-2.2c-1.5,0-2.9,0.3-4.2,1
			c-1.2,0.7-2.2,1.7-2.9,2.9c-0.7,1.2-1.1,2.6-1.1,4.1s0.4,2.9,1.1,4.1c0.7,1.2,1.7,2.2,2.9,2.9c1.2,0.7,2.6,1,4.2,1
			c2.3,0,4.1-0.7,5.6-2.2l0.8,0.9c-0.8,0.8-1.7,1.5-2.8,1.9s-2.3,0.6-3.6,0.6C205.2,454.9,203.6,454.5,202.2,453.7z"/>
		<path class="st3" d="M226,442.4h-5.3v12.4h-1.3v-12.4h-5.3v-1.2H226V442.4z"/>
		<path class="st3" d="M237.1,442.4c0.9,0.9,1.4,2.1,1.4,3.8v8.6h-1.2v-2.4c-0.4,0.8-1.1,1.4-1.9,1.9c-0.8,0.4-1.8,0.7-3,0.7
			c-1.5,0-2.7-0.4-3.6-1.1c-0.9-0.7-1.3-1.6-1.3-2.8c0-1.1,0.4-2,1.2-2.7s2.1-1.1,3.9-1.1h4.7v-1.1c0-1.3-0.3-2.2-1-2.9
			c-0.7-0.7-1.7-1-3-1c-0.9,0-1.8,0.2-2.6,0.5s-1.5,0.7-2.1,1.2l-0.6-0.9c0.7-0.6,1.5-1.1,2.4-1.4c1-0.3,2-0.5,3-0.5
			C235,441.1,236.2,441.5,237.1,442.4z M235.4,453c0.8-0.5,1.4-1.3,1.8-2.3v-2.5h-4.6c-1.3,0-2.3,0.2-2.9,0.7
			c-0.6,0.5-0.9,1.2-0.9,2c0,0.9,0.3,1.6,1,2.1s1.6,0.8,2.8,0.8C233.7,453.8,234.6,453.5,235.4,453z"/>
		<path class="st3" d="M254,442c1,0.6,1.8,1.4,2.4,2.4c0.6,1,0.9,2.2,0.9,3.6c0,1.3-0.3,2.5-0.9,3.6c-0.6,1-1.4,1.9-2.4,2.4
			c-1,0.6-2.2,0.9-3.4,0.9s-2.3-0.3-3.3-0.8c-1-0.6-1.7-1.3-2.3-2.4v8.1h-1.3v-18.6h1.2v3.2c0.5-1,1.3-1.9,2.3-2.4
			c1-0.6,2.1-0.9,3.3-0.9C251.9,441.1,253,441.4,254,442z M253.3,453c0.8-0.5,1.5-1.2,2-2s0.7-1.9,0.7-3s-0.2-2.1-0.7-3
			s-1.1-1.5-2-2s-1.8-0.7-2.8-0.7s-2,0.2-2.8,0.7s-1.5,1.2-1.9,2c-0.5,0.9-0.7,1.9-0.7,3s0.2,2.1,0.7,3s1.1,1.5,1.9,2
			s1.8,0.7,2.8,0.7S252.5,453.4,253.3,453z"/>
		<path class="st3" d="M270.1,442.4h-5.3v12.4h-1.3v-12.4h-5.3v-1.2h11.9L270.1,442.4L270.1,442.4z"/>
		<path class="st5" d="M282.8,436.6v18.2h-1.3v-17H277v-1.2H282.8z"/>
		<path class="st5" d="M290.8,453.8c-1.1-0.8-1.9-1.8-2.5-3.2c-0.6-1.4-0.9-3-0.9-4.9s0.3-3.5,0.9-4.9s1.4-2.5,2.5-3.2
			c1.1-0.8,2.3-1.1,3.7-1.1c1.4,0,2.6,0.4,3.7,1.1c1.1,0.8,1.9,1.8,2.5,3.2c0.6,1.4,0.9,3,0.9,4.9s-0.3,3.5-0.9,4.9
			s-1.4,2.5-2.5,3.2s-2.3,1.1-3.7,1.1C293.1,454.9,291.9,454.5,290.8,453.8z M297.5,452.7c0.9-0.6,1.6-1.6,2-2.8
			c0.5-1.2,0.7-2.6,0.7-4.3s-0.2-3.1-0.7-4.3c-0.5-1.2-1.2-2.1-2-2.8c-0.9-0.6-1.9-0.9-3-0.9s-2.2,0.3-3,0.9c-0.9,0.6-1.6,1.6-2,2.8
			s-0.7,2.6-0.7,4.3s0.2,3.1,0.7,4.3s1.2,2.1,2,2.8c0.9,0.6,1.9,0.9,3,0.9S296.7,453.3,297.5,452.7z"/>
		<path class="st5" d="M304.6,454.5c-0.2-0.2-0.3-0.5-0.3-0.8s0.1-0.6,0.3-0.8c0.2-0.2,0.5-0.3,0.8-0.3s0.5,0.1,0.8,0.3
			c0.2,0.2,0.3,0.5,0.3,0.8s-0.1,0.6-0.3,0.8c-0.2,0.2-0.5,0.3-0.8,0.3C305.1,454.9,304.8,454.8,304.6,454.5z"/>
		<path class="st5" d="M312.5,453.8c-1.1-0.8-1.9-1.8-2.5-3.2c-0.6-1.4-0.9-3-0.9-4.9s0.3-3.5,0.9-4.9s1.4-2.5,2.5-3.2
			c1.1-0.8,2.3-1.1,3.7-1.1c1.4,0,2.6,0.4,3.7,1.1c1.1,0.8,1.9,1.8,2.5,3.2c0.6,1.4,0.9,3,0.9,4.9s-0.3,3.5-0.9,4.9
			s-1.4,2.5-2.5,3.2s-2.3,1.1-3.7,1.1C314.9,454.9,313.6,454.5,312.5,453.8z M319.3,452.7c0.9-0.6,1.6-1.6,2-2.8
			c0.5-1.2,0.7-2.6,0.7-4.3s-0.2-3.1-0.7-4.3c-0.5-1.2-1.2-2.1-2-2.8c-0.9-0.6-1.9-0.9-3-0.9s-2.2,0.3-3,0.9c-0.9,0.6-1.6,1.6-2,2.8
			s-0.7,2.6-0.7,4.3s0.2,3.1,0.7,4.3s1.2,2.1,2,2.8c0.9,0.6,1.9,0.9,3,0.9S318.4,453.3,319.3,452.7z"/>
		<path class="st5" d="M337.1,438.8c1.3,1.6,1.9,3.8,1.9,6.7c0,2-0.3,3.7-1,5.1s-1.6,2.4-2.8,3.2c-1.2,0.7-2.6,1.1-4.3,1.1
			c-1.7,0-3.1-0.3-4.1-0.9l0.5-1.1c0.9,0.6,2.1,0.8,3.6,0.8c2.1,0,3.7-0.7,5-2c1.2-1.4,1.8-3.3,1.8-5.9c0-0.8-0.1-1.5-0.2-2.2
			c-0.4,1.2-1.1,2.1-2.1,2.8c-1,0.7-2.3,1-3.7,1c-1.2,0-2.3-0.2-3.2-0.7s-1.6-1.1-2.1-1.9s-0.8-1.8-0.8-2.8c0-1.1,0.3-2.1,0.8-2.9
			s1.2-1.5,2.2-1.9c0.9-0.5,2-0.7,3.1-0.7C334.1,436.4,335.9,437.2,337.1,438.8z M334.5,445.6c0.8-0.4,1.4-0.9,1.8-1.6
			s0.6-1.4,0.6-2.2c0-0.7-0.2-1.4-0.6-2.1s-1-1.2-1.8-1.6s-1.7-0.6-2.8-0.6c-1.4,0-2.6,0.4-3.5,1.2c-0.9,0.8-1.3,1.8-1.3,3.1
			c0,1.3,0.4,2.3,1.3,3.1c0.9,0.8,2.1,1.2,3.6,1.2C332.9,446.2,333.8,446,334.5,445.6z"/>
	</g>
</g>
<g>
	<g>
		<path class="st3" d="M1094.8,802.6v18.2h-1.3v-17h-12.3v17h-1.3v-18.2H1094.8z"/>
		<path class="st3" d="M1112.5,814.3h-11.7c0,1.1,0.3,2,0.8,2.8s1.2,1.5,2,1.9c0.9,0.5,1.8,0.7,2.9,0.7c0.9,0,1.7-0.2,2.5-0.5
			s1.4-0.8,1.9-1.4l0.8,0.9c-0.6,0.7-1.3,1.3-2.2,1.6c-0.9,0.4-1.9,0.6-2.9,0.6c-1.4,0-2.6-0.3-3.6-0.9c-1.1-0.6-1.9-1.4-2.5-2.4
			s-0.9-2.2-0.9-3.6c0-1.3,0.3-2.5,0.8-3.5s1.3-1.9,2.3-2.5s2.1-0.9,3.3-0.9s2.3,0.3,3.3,0.9c1,0.6,1.8,1.4,2.3,2.4s0.8,2.2,0.8,3.5
			L1112.5,814.3z M1103.5,808.9c-0.8,0.4-1.4,1-1.8,1.8c-0.5,0.8-0.7,1.6-0.8,2.6h10.4c-0.1-1-0.3-1.8-0.8-2.6s-1.1-1.4-1.8-1.8
			c-0.8-0.4-1.6-0.7-2.6-0.7S1104.2,808.5,1103.5,808.9z"/>
		<path class="st3" d="M1127,808c1,0.6,1.8,1.4,2.4,2.4s0.9,2.2,0.9,3.6s-0.3,2.5-0.9,3.6s-1.4,1.9-2.4,2.4c-1,0.6-2.2,0.9-3.4,0.9
			c-1.2,0-2.3-0.3-3.3-0.8s-1.7-1.3-2.3-2.4v8.1h-1.3v-18.6h1.2v3.2c0.5-1,1.3-1.9,2.3-2.4c1-0.6,2.1-0.9,3.3-0.9
			C1124.9,807.1,1126,807.4,1127,808z M1126.3,819c0.8-0.5,1.5-1.2,2-2c0.5-0.9,0.7-1.9,0.7-3s-0.2-2.1-0.7-3s-1.1-1.5-2-2
			s-1.8-0.7-2.8-0.7s-2,0.2-2.8,0.7s-1.5,1.2-1.9,2c-0.5,0.9-0.7,1.9-0.7,3s0.2,2.1,0.7,3s1.1,1.5,1.9,2s1.8,0.7,2.8,0.7
			S1125.5,819.5,1126.3,819z"/>
		<path class="st3" d="M1145.6,817.2c0,1.2-0.4,2.1-1.3,2.7c-0.9,0.6-2.1,0.9-3.9,0.9h-5.9v-13.6h5.7c1.5,0,2.7,0.3,3.5,0.9
			c0.9,0.6,1.3,1.5,1.3,2.6c0,0.8-0.2,1.5-0.7,2s-1.1,0.9-1.9,1.1C1144.6,814.2,1145.6,815.3,1145.6,817.2z M1135.8,813.4h4.4
			c1.2,0,2.1-0.2,2.7-0.7c0.6-0.4,0.9-1.1,0.9-1.9c0-0.8-0.3-1.5-0.9-1.9s-1.5-0.6-2.7-0.6h-4.4V813.4z M1144.3,817.1
			c0-0.9-0.3-1.6-0.9-2s-1.5-0.6-2.8-0.6h-4.8v5.3h4.6C1143,819.7,1144.3,818.9,1144.3,817.1z"/>
		<path class="st3" d="M1159.4,813.3c0.9,0.7,1.3,1.8,1.3,3.2s-0.5,2.5-1.4,3.3s-2.3,1.1-4.1,1.1l-5.1-0.1v-13.6h1.3v4.9l4.1,0.1
			C1157.2,812.2,1158.5,812.6,1159.4,813.3z M1158.4,819c0.7-0.6,1.1-1.4,1.1-2.5s-0.3-1.9-1-2.4s-1.8-0.8-3.2-0.8h-3.7v6.6l3.7,0.1
			C1156.6,819.8,1157.7,819.6,1158.4,819z M1163.2,807.2h1.3v13.6h-1.3V807.2z"/>
		<path class="st3" d="M1170.1,807.2h1.3v11.6l9.7-11.6h1.1v13.6h-1.3v-11.6l-9.7,11.6h-1.1V807.2z M1173.5,804.3
			c-0.7-0.6-1-1.3-1-2.4h1c0,0.7,0.3,1.3,0.8,1.7s1.2,0.6,1.9,0.6s1.4-0.2,1.9-0.6s0.8-1,0.8-1.7h1c0,1-0.4,1.8-1,2.4
			c-0.7,0.6-1.6,0.8-2.7,0.8S1174.1,804.9,1173.5,804.3z"/>
		<path class="st3" d="M1196.5,820c-1-0.6-1.8-1.4-2.4-2.5s-0.9-2.2-0.9-3.5s0.3-2.5,0.9-3.5s1.4-1.9,2.4-2.5s2.2-0.9,3.5-0.9
			s2.4,0.3,3.5,0.9s1.8,1.4,2.4,2.5c0.6,1,0.9,2.2,0.9,3.5s-0.3,2.5-0.9,3.5s-1.4,1.9-2.4,2.5s-2.2,0.9-3.5,0.9
			S1197.5,820.6,1196.5,820z M1202.7,819c0.8-0.5,1.5-1.2,2-2c0.5-0.9,0.7-1.9,0.7-3s-0.2-2.1-0.7-3s-1.1-1.5-2-2s-1.8-0.7-2.8-0.7
			s-2,0.2-2.8,0.7s-1.5,1.2-2,2c-0.5,0.9-0.7,1.9-0.7,3s0.2,2.1,0.7,3s1.1,1.5,2,2s1.8,0.7,2.8,0.7S1201.9,819.5,1202.7,819z"/>
		<path class="st3" d="M1211,807.2h1.3v6.2h9.2v-6.2h1.3v13.6h-1.3v-6.2h-9.2v6.2h-1.3V807.2z"/>
		<path class="st3" d="M1239,807.2v13.6h-1.3v-12.4h-7.1l-0.2,3.6c-0.1,1.9-0.3,3.4-0.5,4.7s-0.6,2.3-1.1,3.1s-1.2,1.2-2.1,1.2
			c-0.3,0-0.6-0.1-1.1-0.2l0.1-1.1c0.3,0.1,0.5,0.1,0.6,0.1c0.7,0,1.3-0.4,1.7-1.1c0.4-0.7,0.6-1.6,0.8-2.7c0.1-1.1,0.3-2.4,0.3-4.1
			l0.2-4.7L1239,807.2L1239,807.2z"/>
		<path class="st3" d="M1253,808.4c0.9,0.9,1.4,2.1,1.4,3.8v8.6h-1.2v-2.4c-0.4,0.8-1.1,1.4-1.9,1.9c-0.8,0.4-1.8,0.7-3,0.7
			c-1.5,0-2.7-0.4-3.6-1.1c-0.9-0.7-1.3-1.6-1.3-2.8c0-1.1,0.4-2,1.2-2.7c0.8-0.7,2.1-1.1,3.9-1.1h4.7v-1.1c0-1.3-0.3-2.2-1-2.9
			s-1.7-1-3-1c-0.9,0-1.8,0.2-2.6,0.5c-0.8,0.3-1.5,0.7-2.1,1.2l-0.6-0.9c0.7-0.6,1.5-1.1,2.4-1.4s2-0.5,3-0.5
			C1250.8,807.1,1252.1,807.6,1253,808.4z M1251.2,819.1c0.8-0.5,1.4-1.3,1.8-2.3v-2.5h-4.6c-1.3,0-2.3,0.2-2.9,0.7s-0.9,1.2-0.9,2
			c0,0.9,0.3,1.6,1,2.1s1.6,0.8,2.8,0.8C1249.5,819.8,1250.5,819.6,1251.2,819.1z"/>
		<path class="st3" d="M1259.6,807.2h1.3v11.6l9.7-11.6h1.1v13.6h-1.3v-11.6l-9.7,11.6h-1.1V807.2z M1263,804.3
			c-0.7-0.6-1-1.3-1-2.4h1c0,0.7,0.3,1.3,0.8,1.7s1.2,0.6,1.9,0.6c0.8,0,1.4-0.2,1.9-0.6s0.8-1,0.8-1.7h1c0,1-0.4,1.8-1,2.4
			s-1.6,0.8-2.7,0.8S1263.6,804.9,1263,804.3z"/>
		<path class="st3" d="M1277.3,807.2h1.3v6.2h9.2v-6.2h1.3v13.6h-1.3v-6.2h-9.2v6.2h-1.3V807.2z"/>
		<path class="st3" d="M1293.6,813.2h6.7v1.2h-6.7V813.2z"/>
		<path class="st3" d="M1311.2,808c1.1,0.6,1.9,1.4,2.5,2.5c0.6,1,0.9,2.2,0.9,3.5s-0.3,2.5-0.9,3.5s-1.5,1.9-2.5,2.5
			c-1.1,0.6-2.3,0.9-3.6,0.9c-1.1,0-2.1-0.2-3-0.5s-1.7-0.8-2.3-1.5l0.8-0.8c1.2,1.1,2.7,1.6,4.6,1.6c1.1,0,2-0.2,2.9-0.7
			s1.6-1.1,2.1-1.9s0.8-1.7,0.9-2.8h-7.7v-1h7.6c-0.1-1-0.4-1.9-1-2.7s-1.2-1.4-2.1-1.8c-0.9-0.4-1.8-0.7-2.8-0.7
			c-1.8,0-3.4,0.5-4.6,1.6l-0.8-0.8c0.6-0.6,1.4-1.1,2.3-1.5c0.9-0.3,1.9-0.5,3-0.5C1308.9,807.1,1310.1,807.4,1311.2,808z"/>
		<path class="st3" d="M1327.4,808.4h-5.3v12.4h-1.3v-12.4h-5.3v-1.2h11.9L1327.4,808.4L1327.4,808.4z"/>
		<path class="st3" d="M1338.6,808.4c0.9,0.9,1.4,2.1,1.4,3.8v8.6h-1.2v-2.4c-0.4,0.8-1.1,1.4-1.9,1.9c-0.8,0.4-1.8,0.7-3,0.7
			c-1.5,0-2.7-0.4-3.6-1.1c-0.9-0.7-1.3-1.6-1.3-2.8c0-1.1,0.4-2,1.2-2.7c0.8-0.7,2.1-1.1,3.9-1.1h4.7v-1.1c0-1.3-0.3-2.2-1-2.9
			s-1.7-1-3-1c-0.9,0-1.8,0.2-2.6,0.5c-0.8,0.3-1.5,0.7-2.1,1.2l-0.6-0.9c0.7-0.6,1.5-1.1,2.4-1.4s2-0.5,3-0.5
			C1336.4,807.1,1337.7,807.6,1338.6,808.4z M1336.9,819.1c0.8-0.5,1.4-1.3,1.8-2.3v-2.5h-4.6c-1.3,0-2.3,0.2-2.9,0.7
			s-0.9,1.2-0.9,2c0,0.9,0.3,1.6,1,2.1s1.6,0.8,2.8,0.8C1335.1,819.8,1336.1,819.6,1336.9,819.1z"/>
		<path class="st3" d="M1357.1,807.2v13.6h-1.3v-12.4h-9.3v12.4h-1.3v-13.6H1357.1z"/>
		<path class="st3" d="M1382.1,819.7v4.5h-1.2v-3.4h-12.8v3.4h-1.2v-4.5h0.8c0.9-0.1,1.5-0.8,1.9-2.1s0.6-3.3,0.7-5.8l0.2-4.5h9.5
			v12.4L1382.1,819.7L1382.1,819.7z M1370.9,816.9c-0.3,1.4-0.7,2.3-1.4,2.7h9.2v-11.3h-7.1l-0.2,3.4
			C1371.3,813.8,1371.2,815.6,1370.9,816.9z"/>
		<path class="st3" d="M1387.9,820c-1-0.6-1.8-1.4-2.4-2.5s-0.9-2.2-0.9-3.5s0.3-2.5,0.9-3.5s1.4-1.9,2.4-2.5s2.2-0.9,3.5-0.9
			s2.4,0.3,3.5,0.9s1.8,1.4,2.4,2.5c0.6,1,0.9,2.2,0.9,3.5s-0.3,2.5-0.9,3.5s-1.4,1.9-2.4,2.5s-2.2,0.9-3.5,0.9
			S1389,820.6,1387.9,820z M1394.2,819c0.8-0.5,1.5-1.2,2-2c0.5-0.9,0.7-1.9,0.7-3s-0.2-2.1-0.7-3s-1.1-1.5-2-2s-1.8-0.7-2.8-0.7
			s-2,0.2-2.8,0.7s-1.5,1.2-2,2c-0.5,0.9-0.7,1.9-0.7,3s0.2,2.1,0.7,3s1.1,1.5,2,2s1.8,0.7,2.8,0.7S1393.4,819.5,1394.2,819z"/>
		<path class="st5" d="M1412.3,802.6v18.2h-1.3v-17h-4.4v-1.2H1412.3z"/>
		<path class="st5" d="M1427.1,811.6c1.2,0.9,1.8,2.2,1.8,3.9c0,1-0.2,2-0.7,2.8s-1.2,1.4-2.1,1.9c-1,0.5-2.1,0.7-3.5,0.7
			c-1.3,0-2.6-0.2-3.7-0.7c-1.2-0.5-2.1-1-2.7-1.8l0.7-1c0.6,0.7,1.4,1.2,2.4,1.6c1,0.4,2.1,0.6,3.3,0.6c1.6,0,2.9-0.4,3.8-1.1
			s1.3-1.7,1.3-3c0-1.4-0.5-2.4-1.5-3.1c-1-0.7-2.7-1.1-5-1.1h-3.7l1-8.8h9.6v1.2h-8.5l-0.7,6.4h2.6
			C1424,810.2,1425.9,810.7,1427.1,811.6z"/>
		<path class="st5" d="M1431.8,820.6c-0.2-0.2-0.3-0.5-0.3-0.8s0.1-0.6,0.3-0.8c0.2-0.2,0.5-0.3,0.8-0.3s0.5,0.1,0.8,0.3
			c0.2,0.2,0.3,0.5,0.3,0.8s-0.1,0.6-0.3,0.8c-0.2,0.2-0.5,0.3-0.8,0.3S1432,820.8,1431.8,820.6z"/>
		<path class="st5" d="M1439.7,819.8c-1.1-0.8-1.9-1.8-2.5-3.2s-0.9-3-0.9-4.9s0.3-3.5,0.9-4.9s1.4-2.5,2.5-3.2s2.3-1.1,3.7-1.1
			s2.6,0.4,3.7,1.1c1.1,0.8,1.9,1.8,2.5,3.2s0.9,3,0.9,4.9s-0.3,3.5-0.9,4.9s-1.4,2.5-2.5,3.2c-1.1,0.8-2.3,1.1-3.7,1.1
			S1440.8,820.6,1439.7,819.8z M1446.5,818.8c0.9-0.6,1.6-1.6,2-2.8c0.5-1.2,0.7-2.6,0.7-4.3s-0.2-3.1-0.7-4.3s-1.2-2.1-2-2.8
			c-0.9-0.6-1.9-0.9-3-0.9s-2.2,0.3-3,0.9s-1.6,1.6-2,2.8c-0.5,1.2-0.7,2.6-0.7,4.3s0.2,3.1,0.7,4.3s1.2,2.1,2,2.8s1.9,0.9,3,0.9
			S1445.6,819.4,1446.5,818.8z"/>
		<path class="st5" d="M1464.3,804.9c1.3,1.6,1.9,3.8,1.9,6.7c0,2-0.3,3.7-1,5.1c-0.7,1.4-1.6,2.4-2.8,3.2c-1.2,0.7-2.6,1.1-4.3,1.1
			c-1.7,0-3.1-0.3-4.1-0.9l0.5-1.1c0.9,0.6,2.1,0.8,3.6,0.8c2.1,0,3.7-0.7,5-2c1.2-1.4,1.8-3.3,1.8-5.9c0-0.8-0.1-1.5-0.2-2.2
			c-0.4,1.2-1.1,2.1-2.1,2.8s-2.3,1-3.7,1c-1.2,0-2.3-0.2-3.2-0.7c-0.9-0.4-1.6-1.1-2.1-1.9s-0.8-1.8-0.8-2.8c0-1.1,0.3-2.1,0.8-2.9
			c0.5-0.8,1.2-1.5,2.2-1.9c0.9-0.5,2-0.7,3.1-0.7C1461.3,802.5,1463.1,803.3,1464.3,804.9z M1461.7,811.7c0.8-0.4,1.4-0.9,1.8-1.6
			c0.4-0.7,0.6-1.4,0.6-2.2c0-0.7-0.2-1.4-0.6-2.1c-0.4-0.7-1-1.2-1.8-1.6s-1.7-0.6-2.8-0.6c-1.4,0-2.6,0.4-3.5,1.2
			s-1.3,1.8-1.3,3.1s0.4,2.3,1.3,3.1s2.1,1.2,3.6,1.2C1460.1,812.2,1461,812,1461.7,811.7z"/>
		<path class="st3" d="M1470.8,819c0.2,0.2,0.3,0.5,0.3,0.8c0,0.2,0,0.4-0.1,0.5c0,0.2-0.1,0.4-0.2,0.6l-1,3.5h-0.9l0.9-3.7
			c-0.3-0.1-0.5-0.2-0.6-0.4s-0.2-0.4-0.2-0.7s0.1-0.6,0.3-0.8s0.5-0.3,0.8-0.3C1470.3,818.7,1470.5,818.8,1470.8,819z"/>
		<path class="st3" d="M1071.4,851.2c-1-0.6-1.8-1.4-2.4-2.5s-0.9-2.2-0.9-3.5s0.3-2.5,0.9-3.5s1.4-1.9,2.4-2.5s2.2-0.9,3.5-0.9
			s2.4,0.3,3.5,0.9s1.8,1.4,2.4,2.5c0.6,1,0.9,2.2,0.9,3.5s-0.3,2.5-0.9,3.5s-1.4,1.9-2.4,2.5s-2.2,0.9-3.5,0.9
			C1073.6,852.1,1072.5,851.8,1071.4,851.2z M1077.7,850.2c0.8-0.5,1.5-1.2,2-2c0.5-0.9,0.7-1.9,0.7-3s-0.2-2.1-0.7-3s-1.1-1.5-2-2
			s-1.8-0.7-2.8-0.7s-2,0.2-2.8,0.7s-1.5,1.2-2,2c-0.5,0.9-0.7,1.9-0.7,3s0.2,2.1,0.7,3s1.1,1.5,2,2s1.8,0.7,2.8,0.7
			S1076.9,850.7,1077.7,850.2z"/>
		<path class="st3" d="M1095.6,839.5c1,0.6,1.7,1.3,2.3,2.4s0.8,2.2,0.8,3.5s-0.3,2.5-0.8,3.5c-0.6,1-1.4,1.8-2.4,2.4
			c-1,0.6-2.2,0.9-3.5,0.9c-1.5,0-2.8-0.4-3.8-1.1c-1-0.7-1.8-1.8-2.4-3.1c-0.5-1.3-0.8-2.9-0.8-4.7c0-2,0.2-3.7,0.7-5
			s1.2-2.4,2.2-3.2s2.3-1.3,3.8-1.7l6-1.5l0.2,1.2l-5.7,1.4c-1.4,0.3-2.5,0.8-3.4,1.4c-0.9,0.6-1.5,1.5-2,2.6
			c-0.4,1.1-0.7,2.5-0.7,4.2c0.5-1.2,1.2-2.2,2.3-3c1.1-0.7,2.3-1.1,3.7-1.1C1093.5,838.6,1094.6,838.9,1095.6,839.5z M1094.8,850.3
			c0.8-0.5,1.4-1.2,1.9-2c0.5-0.9,0.7-1.8,0.7-2.9s-0.2-2.1-0.7-2.9c-0.5-0.8-1.1-1.5-1.9-1.9s-1.7-0.7-2.8-0.7s-2,0.2-2.8,0.7
			s-1.4,1.1-1.9,1.9c-0.5,0.8-0.7,1.8-0.7,2.9s0.2,2.1,0.7,2.9c0.5,0.9,1.1,1.5,1.9,2s1.7,0.7,2.8,0.7
			C1093.1,851,1094,850.8,1094.8,850.3z"/>
		<path class="st3" d="M1113.1,844.4c0.9,0.7,1.3,1.8,1.3,3.2s-0.5,2.5-1.4,3.3s-2.3,1.1-4,1.1h-5.1v-12.4h-4.3v-1.2h5.6v4.9h4.1
			C1111,843.3,1112.3,843.7,1113.1,844.4z M1113.1,847.6c0-2.2-1.3-3.3-4-3.3h-3.8v6.6h3.8C1111.8,851,1113.1,849.8,1113.1,847.6z"
			/>
		<path class="st3" d="M1127.2,838.4V852h-1.2v-4.7h-4.5c-0.3,0-0.5,0-0.7,0l-3.4,4.7h-1.4l3.5-4.9c-1.1-0.2-2-0.7-2.5-1.4
			c-0.6-0.7-0.9-1.6-0.9-2.8c0-1.5,0.5-2.6,1.5-3.4c1-0.8,2.4-1.1,4.1-1.1L1127.2,838.4L1127.2,838.4z M1121.6,846.3h4.4v-6.8h-4.2
			c-2.9,0-4.4,1.1-4.4,3.4C1117.4,845.2,1118.8,846.3,1121.6,846.3z"/>
		<path class="st3" d="M1143.8,848.4c0,1.2-0.4,2.1-1.3,2.7c-0.9,0.6-2.1,0.9-3.9,0.9h-5.9v-13.6h5.7c1.5,0,2.7,0.3,3.5,0.9
			c0.9,0.6,1.3,1.5,1.3,2.6c0,0.8-0.2,1.5-0.7,2s-1.1,0.9-1.9,1.1C1142.8,845.4,1143.8,846.5,1143.8,848.4z M1134.1,844.6h4.4
			c1.2,0,2.1-0.2,2.7-0.7c0.6-0.4,0.9-1.1,0.9-1.9c0-0.8-0.3-1.5-0.9-1.9s-1.5-0.6-2.7-0.6h-4.4V844.6z M1142.5,848.3
			c0-0.9-0.3-1.6-0.9-2s-1.5-0.6-2.8-0.6h-4.8v5.3h4.6C1141.2,850.9,1142.5,850.1,1142.5,848.3z"/>
		<path class="st3" d="M1159.1,838.4V852h-1.3v-12.4h-7.1l-0.2,3.6c-0.1,1.9-0.3,3.4-0.5,4.7s-0.6,2.3-1.1,3.1s-1.2,1.2-2.1,1.2
			c-0.3,0-0.6-0.1-1.1-0.2l0.1-1.1c0.3,0.1,0.5,0.1,0.6,0.1c0.7,0,1.3-0.4,1.7-1.1c0.4-0.7,0.6-1.6,0.8-2.7c0.1-1.1,0.3-2.4,0.3-4.1
			l0.2-4.7L1159.1,838.4L1159.1,838.4z"/>
		<path class="st3" d="M1176.3,845.5h-11.7c0,1.1,0.3,2,0.8,2.8s1.2,1.5,2,1.9c0.9,0.5,1.8,0.7,2.9,0.7c0.9,0,1.7-0.2,2.5-0.5
			s1.4-0.8,1.9-1.4l0.8,0.9c-0.6,0.7-1.3,1.3-2.2,1.6c-0.9,0.4-1.9,0.6-2.9,0.6c-1.4,0-2.6-0.3-3.6-0.9c-1.1-0.6-1.9-1.4-2.5-2.4
			s-0.9-2.2-0.9-3.6c0-1.3,0.3-2.5,0.8-3.5s1.3-1.9,2.3-2.5s2.1-0.9,3.3-0.9s2.3,0.3,3.3,0.9c1,0.6,1.8,1.4,2.3,2.4s0.8,2.2,0.8,3.5
			L1176.3,845.5z M1167.2,840.1c-0.8,0.4-1.4,1-1.8,1.8c-0.5,0.8-0.7,1.6-0.8,2.6h10.4c-0.1-1-0.3-1.8-0.8-2.6s-1.1-1.4-1.8-1.8
			c-0.8-0.4-1.6-0.7-2.6-0.7S1168,839.7,1167.2,840.1z"/>
		<path class="st3" d="M1180.5,838.4h1.3v6.2h9.2v-6.2h1.3V852h-1.3v-6.2h-9.2v6.2h-1.3V838.4z"/>
		<path class="st3" d="M1197.9,838.4h1.3V850l9.7-11.6h1.1V852h-1.3v-11.6L1199,852h-1.1V838.4z"/>
		<path class="st3" d="M1227.2,845.5h-11.7c0,1.1,0.3,2,0.8,2.8s1.2,1.5,2,1.9c0.9,0.5,1.8,0.7,2.9,0.7c0.9,0,1.7-0.2,2.5-0.5
			s1.4-0.8,1.9-1.4l0.8,0.9c-0.6,0.7-1.3,1.3-2.2,1.6c-0.9,0.4-1.9,0.6-2.9,0.6c-1.4,0-2.6-0.3-3.6-0.9c-1.1-0.6-1.9-1.4-2.5-2.4
			s-0.9-2.2-0.9-3.6c0-1.3,0.3-2.5,0.8-3.5c0.6-1,1.3-1.9,2.3-2.5s2.1-0.9,3.3-0.9c1.2,0,2.3,0.3,3.3,0.9c1,0.6,1.8,1.4,2.3,2.4
			c0.6,1,0.8,2.2,0.8,3.5L1227.2,845.5z M1218.2,840.1c-0.8,0.4-1.4,1-1.8,1.8c-0.5,0.8-0.7,1.6-0.8,2.6h10.4
			c-0.1-1-0.3-1.8-0.8-2.6s-1.1-1.4-1.8-1.8c-0.8-0.4-1.6-0.7-2.6-0.7C1219.8,839.5,1219,839.7,1218.2,840.1z"/>
		<path class="st3" d="M1248.5,839.2c1,0.6,1.8,1.4,2.4,2.4s0.9,2.2,0.9,3.6s-0.3,2.5-0.9,3.6c-0.6,1-1.4,1.9-2.4,2.4
			c-1,0.6-2.2,0.9-3.4,0.9c-1.2,0-2.3-0.3-3.3-0.8s-1.7-1.3-2.3-2.4v8.1h-1.3v-18.6h1.2v3.2c0.5-1,1.3-1.9,2.3-2.4
			c1-0.6,2.1-0.9,3.3-0.9C1246.3,838.3,1247.4,838.6,1248.5,839.2z M1247.8,850.2c0.8-0.5,1.5-1.2,2-2c0.5-0.9,0.7-1.9,0.7-3
			s-0.2-2.1-0.7-3s-1.1-1.5-2-2s-1.8-0.7-2.8-0.7s-2,0.2-2.8,0.7s-1.5,1.2-2,2c-0.5,0.9-0.7,1.9-0.7,3s0.2,2.1,0.7,3s1.1,1.5,2,2
			s1.8,0.7,2.8,0.7S1246.9,850.7,1247.8,850.2z"/>
		<path class="st3" d="M1267.5,845.5h-11.7c0,1.1,0.3,2,0.8,2.8s1.2,1.5,2,1.9c0.9,0.5,1.8,0.7,2.9,0.7c0.9,0,1.7-0.2,2.5-0.5
			s1.4-0.8,1.9-1.4l0.8,0.9c-0.6,0.7-1.3,1.3-2.2,1.6c-0.9,0.4-1.9,0.6-2.9,0.6c-1.4,0-2.6-0.3-3.6-0.9c-1.1-0.6-1.9-1.4-2.5-2.4
			s-0.9-2.2-0.9-3.6c0-1.3,0.3-2.5,0.8-3.5s1.3-1.9,2.3-2.5s2.1-0.9,3.3-0.9s2.3,0.3,3.3,0.9c1,0.6,1.8,1.4,2.3,2.4s0.8,2.2,0.8,3.5
			L1267.5,845.5z M1258.5,840.1c-0.8,0.4-1.4,1-1.8,1.8c-0.5,0.8-0.7,1.6-0.8,2.6h10.4c-0.1-1-0.3-1.8-0.8-2.6s-1.1-1.4-1.8-1.8
			c-0.8-0.4-1.6-0.7-2.6-0.7S1259.3,839.7,1258.5,840.1z"/>
		<path class="st3" d="M1279.7,846.1c0.5,0.6,0.8,1.3,0.8,2.1s-0.3,1.5-0.8,2.1s-1.2,1.1-2.1,1.4c-0.9,0.3-1.9,0.5-2.9,0.5
			s-1.9-0.2-2.8-0.5s-1.7-0.7-2.4-1.3l0.5-1c0.6,0.5,1.3,0.9,2.2,1.2s1.7,0.4,2.6,0.4c1.3,0,2.4-0.3,3.3-0.8s1.3-1.3,1.3-2.2
			c0-0.8-0.4-1.4-1.1-1.9s-1.7-0.7-3-0.7h-2.2v-1h2.1c1.1,0,2-0.2,2.7-0.7c0.7-0.4,1.1-1,1.1-1.7c0-0.8-0.4-1.5-1.2-2
			c-0.8-0.5-1.8-0.7-3-0.7c-1.5,0-3,0.4-4.3,1.2l-0.4-1c1.5-0.8,3.1-1.3,4.9-1.3c1.5,0,2.8,0.3,3.8,1c1,0.6,1.5,1.5,1.5,2.6
			c0,0.7-0.3,1.3-0.8,1.9c-0.5,0.5-1.2,0.9-2,1.2C1278.4,845.1,1279.1,845.5,1279.7,846.1z"/>
		<path class="st3" d="M1296.1,838.4l-7,15.4c-0.5,1.2-1.1,2-1.8,2.5s-1.5,0.8-2.4,0.8c-0.6,0-1.2-0.1-1.8-0.3s-1-0.5-1.4-0.9l0.7-1
			c0.7,0.7,1.5,1.1,2.5,1.1c0.7,0,1.2-0.2,1.7-0.5c0.5-0.4,0.9-1,1.3-1.9l0.7-1.6l-6.1-13.5h1.4l5.4,12.1l5.4-12.1L1296.1,838.4
			L1296.1,838.4z"/>
		<path class="st3" d="M1309.3,838.4V852h-1.3v-12.4h-7.1l-0.2,3.6c-0.1,1.9-0.3,3.4-0.5,4.7s-0.6,2.3-1.1,3.1s-1.2,1.2-2.1,1.2
			c-0.3,0-0.6-0.1-1.1-0.2l0.1-1.1c0.3,0.1,0.5,0.1,0.6,0.1c0.7,0,1.3-0.4,1.7-1.1c0.4-0.7,0.6-1.6,0.8-2.7c0.1-1.1,0.3-2.4,0.3-4.1
			l0.2-4.7L1309.3,838.4L1309.3,838.4z"/>
		<path class="st3" d="M1324.2,844.5c0.9,0.7,1.3,1.8,1.3,3.2s-0.5,2.5-1.4,3.3s-2.3,1.1-4.1,1.1l-5.1-0.1v-13.6h1.3v4.9l4.1,0.1
			C1322.1,843.4,1323.4,843.8,1324.2,844.5z M1323.2,850.2c0.7-0.6,1.1-1.4,1.1-2.5s-0.3-1.9-1-2.4s-1.7-0.8-3.1-0.8h-3.8v6.6
			l3.8,0.1C1321.4,851,1322.5,850.8,1323.2,850.2z"/>
		<path class="st3" d="M1337,839.6h-5.3V852h-1.3v-12.4h-5.3v-1.2h11.9L1337,839.6L1337,839.6z"/>
		<path class="st3" d="M1348.2,839.6c0.9,0.9,1.4,2.1,1.4,3.8v8.6h-1.2v-2.4c-0.4,0.8-1.1,1.4-1.9,1.9c-0.8,0.4-1.8,0.7-3,0.7
			c-1.5,0-2.7-0.4-3.6-1.1c-0.9-0.7-1.3-1.6-1.3-2.8c0-1.1,0.4-2,1.2-2.7c0.8-0.7,2.1-1.1,3.9-1.1h4.7v-1.1c0-1.3-0.3-2.2-1-2.9
			s-1.7-1-3-1c-0.9,0-1.8,0.2-2.6,0.5c-0.8,0.3-1.5,0.7-2.1,1.2l-0.6-0.9c0.7-0.6,1.5-1.1,2.4-1.4s2-0.5,3-0.5
			C1346,838.3,1347.3,838.8,1348.2,839.6z M1346.4,850.3c0.8-0.5,1.4-1.3,1.8-2.3v-2.5h-4.6c-1.3,0-2.3,0.2-2.9,0.7s-0.9,1.2-0.9,2
			c0,0.9,0.3,1.6,1,2.1s1.6,0.8,2.8,0.8C1344.7,851,1345.6,850.8,1346.4,850.3z"/>
		<path class="st3" d="M1363.9,839.6h-5.3V852h-1.3v-12.4h-5.3v-1.2h11.9L1363.9,839.6L1363.9,839.6z"/>
		<path class="st3" d="M1368,851.2c-1-0.6-1.8-1.4-2.4-2.5s-0.9-2.2-0.9-3.5s0.3-2.5,0.9-3.5s1.4-1.9,2.4-2.5s2.2-0.9,3.5-0.9
			s2.4,0.3,3.5,0.9s1.8,1.4,2.4,2.5c0.6,1,0.9,2.2,0.9,3.5s-0.3,2.5-0.9,3.5s-1.4,1.9-2.4,2.5s-2.2,0.9-3.5,0.9
			C1370.2,852.1,1369,851.8,1368,851.2z M1374.2,850.2c0.8-0.5,1.5-1.2,2-2c0.5-0.9,0.7-1.9,0.7-3s-0.2-2.1-0.7-3s-1.1-1.5-2-2
			s-1.8-0.7-2.8-0.7s-2,0.2-2.8,0.7s-1.5,1.2-2,2c-0.5,0.9-0.7,1.9-0.7,3s0.2,2.1,0.7,3s1.1,1.5,2,2s1.8,0.7,2.8,0.7
			S1373.4,850.7,1374.2,850.2z"/>
		<path class="st3" d="M1393.5,848.4c0,1.2-0.4,2.1-1.3,2.7c-0.9,0.6-2.1,0.9-3.9,0.9h-5.9v-13.6h5.7c1.5,0,2.7,0.3,3.5,0.9
			c0.9,0.6,1.3,1.5,1.3,2.6c0,0.8-0.2,1.5-0.7,2c-0.4,0.5-1.1,0.9-1.9,1.1C1392.5,845.4,1393.5,846.5,1393.5,848.4z M1383.7,844.6
			h4.4c1.2,0,2.1-0.2,2.7-0.7c0.6-0.4,0.9-1.1,0.9-1.9c0-0.8-0.3-1.5-0.9-1.9s-1.5-0.6-2.7-0.6h-4.4V844.6z M1392.2,848.3
			c0-0.9-0.3-1.6-0.9-2s-1.5-0.6-2.8-0.6h-4.8v5.3h4.6C1390.9,850.9,1392.2,850.1,1392.2,848.3z"/>
		<path class="st5" d="M1408,833.8V852h-1.3v-17h-4.4v-1.2H1408z"/>
		<path class="st5" d="M1425.1,833.8v0.9l-7.8,17.3h-1.5l7.7-17h-10.2v3.5h-1.3v-4.7H1425.1z"/>
		<path class="st5" d="M1426.7,851.8c-0.2-0.2-0.3-0.5-0.3-0.8s0.1-0.6,0.3-0.8s0.5-0.3,0.8-0.3s0.5,0.1,0.8,0.3s0.3,0.5,0.3,0.8
			s-0.1,0.6-0.3,0.8c-0.2,0.2-0.5,0.3-0.8,0.3S1426.9,852,1426.7,851.8z"/>
		<path class="st5" d="M1434.6,851c-1.1-0.8-1.9-1.8-2.5-3.2s-0.9-3-0.9-4.9s0.3-3.5,0.9-4.9s1.4-2.5,2.5-3.2
			c1.1-0.8,2.3-1.1,3.7-1.1c1.4,0,2.6,0.4,3.7,1.1c1.1,0.8,1.9,1.8,2.5,3.2s0.9,3,0.9,4.9s-0.3,3.5-0.9,4.9s-1.4,2.5-2.5,3.2
			c-1.1,0.8-2.3,1.1-3.7,1.1S1435.7,851.8,1434.6,851z M1441.4,850c0.9-0.6,1.6-1.6,2-2.8c0.5-1.2,0.7-2.6,0.7-4.3s-0.2-3.1-0.7-4.3
			s-1.2-2.1-2-2.8s-1.9-0.9-3-0.9s-2.2,0.3-3,0.9c-0.9,0.6-1.6,1.6-2,2.8c-0.5,1.2-0.7,2.6-0.7,4.3s0.2,3.1,0.7,4.3s1.2,2.1,2,2.8
			c0.9,0.6,1.9,0.9,3,0.9S1440.5,850.6,1441.4,850z"/>
		<path class="st5" d="M1459.2,836.1c1.3,1.6,1.9,3.8,1.9,6.7c0,2-0.3,3.7-1,5.1c-0.7,1.4-1.6,2.4-2.8,3.2c-1.2,0.7-2.6,1.1-4.3,1.1
			c-1.7,0-3.1-0.3-4.1-0.9l0.5-1.1c0.9,0.6,2.1,0.8,3.6,0.8c2.1,0,3.7-0.7,5-2c1.2-1.4,1.8-3.3,1.8-5.9c0-0.8-0.1-1.5-0.2-2.2
			c-0.4,1.2-1.1,2.1-2.1,2.8s-2.3,1-3.7,1c-1.2,0-2.3-0.2-3.2-0.7c-0.9-0.4-1.6-1.1-2.1-1.9s-0.8-1.8-0.8-2.8c0-1.1,0.3-2.1,0.8-2.9
			c0.5-0.8,1.2-1.5,2.2-1.9c0.9-0.5,2-0.7,3.1-0.7C1456.2,833.7,1458,834.5,1459.2,836.1z M1456.6,842.9c0.8-0.4,1.4-0.9,1.8-1.6
			c0.4-0.7,0.6-1.4,0.6-2.2c0-0.7-0.2-1.4-0.6-2.1c-0.4-0.7-1-1.2-1.8-1.6s-1.7-0.6-2.8-0.6c-1.4,0-2.6,0.4-3.5,1.2
			s-1.3,1.8-1.3,3.1s0.4,2.3,1.3,3.1s2.1,1.2,3.6,1.2C1455,843.4,1455.9,843.2,1456.6,842.9z"/>
	</g>
	<g>
		<path class="st3" d="M1093.2,883.1c0.7,0.8,1,1.8,1,3c0,1.6-0.5,2.8-1.6,3.6s-2.7,1.2-4.9,1.2h-7.8v-18.2h7.3
			c1.9,0,3.4,0.4,4.5,1.2s1.6,1.9,1.6,3.4c0,1.1-0.3,1.9-0.8,2.7s-1.3,1.2-2.3,1.6C1091.5,881.8,1092.5,882.3,1093.2,883.1z
			 M1081.2,881.2h6c1.5,0,2.7-0.3,3.5-0.9c0.8-0.6,1.2-1.5,1.2-2.7s-0.4-2.1-1.2-2.7c-0.8-0.6-2-0.9-3.5-0.9h-6V881.2z M1092.9,886
			c0-1.3-0.4-2.3-1.3-2.9c-0.9-0.6-2.1-0.9-3.8-0.9h-6.5v7.6h6.5C1091.2,889.8,1092.9,888.6,1092.9,886z"/>
		<path class="st3" d="M1108.1,883.4c0.9,0.7,1.3,1.8,1.3,3.2s-0.5,2.5-1.4,3.3s-2.3,1.1-4.1,1.1l-5.1-0.1v-13.6h1.3v4.9l4.1,0.1
			C1105.9,882.3,1107.2,882.7,1108.1,883.4z M1107.1,889.1c0.7-0.6,1.1-1.4,1.1-2.5s-0.3-1.9-1-2.4s-1.8-0.8-3.2-0.8h-3.7v6.6
			l3.7,0.1C1105.3,890,1106.4,889.7,1107.1,889.1z M1111.9,877.4h1.3V891h-1.3V877.4z"/>
		<path class="st3" d="M1131.6,889.8v4.5h-1.2v-3.4h-12.8v3.4h-1.2v-4.5h0.8c0.9-0.1,1.5-0.8,1.9-2.1s0.6-3.3,0.7-5.8l0.2-4.5h9.5
			v12.4L1131.6,889.8L1131.6,889.8z M1120.4,887.1c-0.3,1.4-0.7,2.3-1.4,2.7h9.2v-11.3h-7.1l-0.2,3.4
			C1120.8,884,1120.6,885.7,1120.4,887.1z"/>
		<path class="st3" d="M1143.8,878.5c0.9,0.9,1.4,2.1,1.4,3.8v8.6h-1.2v-2.4c-0.4,0.8-1.1,1.4-1.9,1.9c-0.8,0.4-1.8,0.7-3,0.7
			c-1.5,0-2.7-0.4-3.6-1.1s-1.3-1.6-1.3-2.8c0-1.1,0.4-2,1.2-2.7c0.8-0.7,2.1-1.1,3.9-1.1h4.7v-1.1c0-1.3-0.3-2.2-1-2.9s-1.7-1-3-1
			c-0.9,0-1.8,0.2-2.6,0.5c-0.8,0.3-1.5,0.7-2.1,1.2l-0.6-0.9c0.7-0.6,1.5-1.1,2.4-1.4s2-0.5,3-0.5
			C1141.6,877.3,1142.9,877.7,1143.8,878.5z M1142.1,889.2c0.8-0.5,1.4-1.3,1.8-2.3v-2.5h-4.6c-1.3,0-2.3,0.2-2.9,0.7
			s-0.9,1.2-0.9,2c0,0.9,0.3,1.6,1,2.1s1.6,0.8,2.8,0.8C1140.3,890,1141.3,889.7,1142.1,889.2z"/>
		<path class="st3" d="M1160.2,877.4V891h-1.3v-5.9c-1.6,0.7-3.2,1.1-4.8,1.1c-1.6,0-2.8-0.4-3.8-1.1s-1.4-1.8-1.4-3.2v-4.5h1.3v4.4
			c0,1.1,0.4,1.9,1.1,2.4c0.7,0.6,1.7,0.9,2.9,0.9c1.4,0,3-0.4,4.7-1.1v-6.7L1160.2,877.4L1160.2,877.4z"/>
		<path class="st3" d="M1174.2,878.5c0.9,0.9,1.4,2.1,1.4,3.8v8.6h-1.2v-2.4c-0.4,0.8-1.1,1.4-1.9,1.9c-0.8,0.4-1.8,0.7-3,0.7
			c-1.5,0-2.7-0.4-3.6-1.1c-0.9-0.7-1.3-1.6-1.3-2.8c0-1.1,0.4-2,1.2-2.7c0.8-0.7,2.1-1.1,3.9-1.1h4.7v-1.1c0-1.3-0.3-2.2-1-2.9
			s-1.7-1-3-1c-0.9,0-1.8,0.2-2.6,0.5c-0.8,0.3-1.5,0.7-2.1,1.2l-0.7-0.9c0.7-0.6,1.5-1.1,2.4-1.4s2-0.5,3-0.5
			C1172,877.3,1173.3,877.7,1174.2,878.5z M1172.4,889.2c0.8-0.5,1.4-1.3,1.8-2.3v-2.5h-4.6c-1.3,0-2.3,0.2-2.9,0.7s-0.9,1.2-0.9,2
			c0,0.9,0.3,1.6,1,2.1s1.6,0.8,2.8,0.8C1170.7,890,1171.7,889.7,1172.4,889.2z"/>
		<path class="st3" d="M1192.1,884.6h-3.3v6.3h-1.3v-13.6h1.3v6.2h3.3l5.1-6.2h1.4l-5.5,6.6l5.9,7h-1.6L1192.1,884.6z"/>
		<path class="st3" d="M1213.3,884.5h-11.7c0,1.1,0.3,2,0.8,2.8s1.2,1.5,2,1.9c0.9,0.5,1.8,0.7,2.9,0.7c0.9,0,1.7-0.2,2.5-0.5
			s1.4-0.8,1.9-1.4l0.8,0.9c-0.6,0.7-1.3,1.3-2.2,1.6c-0.9,0.4-1.9,0.6-2.9,0.6c-1.4,0-2.6-0.3-3.6-0.9c-1.1-0.6-1.9-1.4-2.5-2.4
			s-0.9-2.2-0.9-3.6c0-1.3,0.3-2.5,0.8-3.5c0.6-1,1.3-1.9,2.3-2.5s2.1-0.9,3.3-0.9c1.2,0,2.3,0.3,3.3,0.9c1,0.6,1.8,1.4,2.3,2.4
			c0.6,1,0.8,2.2,0.8,3.5L1213.3,884.5z M1204.3,879c-0.8,0.4-1.4,1-1.8,1.8c-0.5,0.8-0.7,1.6-0.8,2.6h10.4c-0.1-1-0.3-1.8-0.8-2.6
			s-1.1-1.4-1.8-1.8c-0.8-0.4-1.6-0.7-2.6-0.7C1205.9,878.4,1205.1,878.6,1204.3,879z"/>
		<path class="st3" d="M1217.6,877.4h1.3V889l9.7-11.6h1.1V891h-1.3v-11.6l-9.7,11.6h-1.1V877.4z M1220.9,874.4
			c-0.7-0.6-1-1.3-1-2.4h1c0,0.7,0.3,1.3,0.8,1.7s1.2,0.6,1.9,0.6c0.8,0,1.4-0.2,1.9-0.6c0.5-0.4,0.8-1,0.8-1.7h1c0,1-0.4,1.8-1,2.4
			s-1.6,0.8-2.7,0.8S1221.6,875,1220.9,874.4z"/>
		<path class="st3" d="M1237.3,890.2c-1-0.6-1.9-1.4-2.4-2.5c-0.6-1-0.9-2.2-0.9-3.5s0.3-2.5,0.9-3.6c0.6-1,1.4-1.9,2.4-2.4
			c1-0.6,2.2-0.9,3.5-0.9c1.1,0,2.1,0.2,3,0.6s1.6,1,2.2,1.9l-1,0.7c-0.5-0.7-1.1-1.2-1.8-1.5c-0.7-0.3-1.5-0.5-2.4-0.5
			c-1.1,0-2,0.2-2.8,0.7s-1.5,1.1-2,2s-0.7,1.9-0.7,3s0.2,2.1,0.7,3s1.1,1.5,2,2s1.8,0.7,2.8,0.7c0.9,0,1.7-0.2,2.4-0.5
			c0.7-0.3,1.3-0.8,1.8-1.5l1,0.7c-0.6,0.8-1.3,1.4-2.2,1.9s-1.9,0.6-3,0.6C1239.5,891,1238.3,890.7,1237.3,890.2z"/>
		<path class="st3" d="M1251.5,890.2c-1-0.6-1.8-1.4-2.4-2.5c-0.6-1-0.9-2.2-0.9-3.5s0.3-2.5,0.9-3.5s1.4-1.9,2.4-2.5
			s2.2-0.9,3.5-0.9s2.4,0.3,3.5,0.9s1.8,1.4,2.4,2.5c0.6,1,0.9,2.2,0.9,3.5s-0.3,2.5-0.9,3.5s-1.4,1.9-2.4,2.5s-2.2,0.9-3.5,0.9
			S1252.5,890.7,1251.5,890.2z M1257.8,889.1c0.8-0.5,1.5-1.2,2-2c0.5-0.9,0.7-1.9,0.7-3s-0.2-2.1-0.7-3s-1.1-1.5-2-2
			s-1.8-0.7-2.8-0.7s-2,0.2-2.8,0.7s-1.5,1.2-1.9,2c-0.5,0.9-0.7,1.9-0.7,3s0.2,2.1,0.7,3s1.1,1.5,1.9,2s1.8,0.7,2.8,0.7
			S1257,889.6,1257.8,889.1z"/>
		<path class="st3" d="M1277,887.3c0,1.2-0.4,2.1-1.3,2.7s-2.1,0.9-3.9,0.9h-5.9v-13.6h5.7c1.5,0,2.7,0.3,3.5,0.9
			c0.9,0.6,1.3,1.5,1.3,2.6c0,0.8-0.2,1.5-0.7,2s-1.1,0.9-1.9,1.1C1276,884.3,1277,885.4,1277,887.3z M1267.3,883.6h4.4
			c1.2,0,2.1-0.2,2.7-0.7c0.6-0.4,0.9-1.1,0.9-1.9c0-0.8-0.3-1.5-0.9-1.9s-1.5-0.6-2.7-0.6h-4.4V883.6z M1275.7,887.2
			c0-0.9-0.3-1.6-0.9-2s-1.5-0.6-2.8-0.6h-4.8v5.3h4.6C1274.4,889.9,1275.7,889,1275.7,887.2z"/>
		<path class="st3" d="M1299.4,887.3c0,1.2-0.4,2.1-1.3,2.7c-0.9,0.6-2.1,0.9-3.9,0.9h-5.9v-13.6h5.7c1.5,0,2.7,0.3,3.5,0.9
			c0.9,0.6,1.3,1.5,1.3,2.6c0,0.8-0.2,1.5-0.7,2c-0.4,0.5-1.1,0.9-1.9,1.1C1298.4,884.3,1299.4,885.4,1299.4,887.3z M1289.6,883.6
			h4.4c1.2,0,2.1-0.2,2.7-0.7c0.6-0.4,0.9-1.1,0.9-1.9c0-0.8-0.3-1.5-0.9-1.9s-1.5-0.6-2.7-0.6h-4.4V883.6z M1298.1,887.2
			c0-0.9-0.3-1.6-0.9-2s-1.5-0.6-2.8-0.6h-4.8v5.3h4.6C1296.8,889.9,1298.1,889,1298.1,887.2z"/>
		<path class="st3" d="M1313.1,878.5h-5.3v12.4h-1.3v-12.4h-5.3v-1.2h11.9L1313.1,878.5L1313.1,878.5z"/>
		<path class="st3" d="M1317.2,890.2c-1-0.6-1.8-1.4-2.4-2.5c-0.6-1-0.9-2.2-0.9-3.5s0.3-2.5,0.9-3.5s1.4-1.9,2.4-2.5
			s2.2-0.9,3.5-0.9s2.4,0.3,3.5,0.9s1.8,1.4,2.4,2.5c0.6,1,0.9,2.2,0.9,3.5s-0.3,2.5-0.9,3.5s-1.4,1.9-2.4,2.5s-2.2,0.9-3.5,0.9
			S1318.2,890.7,1317.2,890.2z M1323.4,889.1c0.8-0.5,1.5-1.2,1.9-2c0.5-0.9,0.7-1.9,0.7-3s-0.2-2.1-0.7-3s-1.1-1.5-1.9-2
			s-1.8-0.7-2.8-0.7s-2,0.2-2.8,0.7s-1.5,1.2-2,2c-0.5,0.9-0.7,1.9-0.7,3s0.2,2.1,0.7,3s1.1,1.5,2,2s1.8,0.7,2.8,0.7
			S1322.6,889.6,1323.4,889.1z"/>
		<path class="st3" d="M1341.9,878.1c1,0.6,1.8,1.4,2.4,2.4s0.9,2.2,0.9,3.6s-0.3,2.5-0.9,3.6c-0.6,1-1.4,1.9-2.4,2.4
			c-1,0.6-2.2,0.9-3.4,0.9c-1.2,0-2.3-0.3-3.3-0.8s-1.7-1.3-2.3-2.4v8.1h-1.3v-18.6h1.2v3.2c0.5-1,1.3-1.9,2.3-2.4
			c1-0.6,2.1-0.9,3.3-0.9C1339.8,877.3,1340.9,877.6,1341.9,878.1z M1341.2,889.1c0.8-0.5,1.5-1.2,2-2c0.5-0.9,0.7-1.9,0.7-3
			s-0.2-2.1-0.7-3s-1.1-1.5-2-2s-1.8-0.7-2.8-0.7s-2,0.2-2.8,0.7s-1.5,1.2-2,2c-0.5,0.9-0.7,1.9-0.7,3s0.2,2.1,0.7,3s1.1,1.5,2,2
			c0.8,0.5,1.8,0.7,2.8,0.7C1339.5,889.9,1340.4,889.6,1341.2,889.1z"/>
		<path class="st3" d="M1351.4,890.2c-1-0.6-1.8-1.4-2.4-2.5c-0.6-1-0.9-2.2-0.9-3.5s0.3-2.5,0.9-3.5s1.4-1.9,2.4-2.5
			s2.2-0.9,3.5-0.9s2.4,0.3,3.5,0.9s1.8,1.4,2.4,2.5c0.6,1,0.9,2.2,0.9,3.5s-0.3,2.5-0.9,3.5s-1.4,1.9-2.4,2.5s-2.2,0.9-3.5,0.9
			C1353.6,891,1352.4,890.7,1351.4,890.2z M1357.6,889.1c0.8-0.5,1.5-1.2,1.9-2c0.5-0.9,0.7-1.9,0.7-3s-0.2-2.1-0.7-3
			s-1.1-1.5-1.9-2s-1.8-0.7-2.8-0.7s-2,0.2-2.8,0.7s-1.5,1.2-2,2c-0.5,0.9-0.7,1.9-0.7,3s0.2,2.1,0.7,3s1.1,1.5,2,2
			c0.8,0.5,1.8,0.7,2.8,0.7C1355.9,889.9,1356.8,889.6,1357.6,889.1z"/>
		<path class="st3" d="M1375.1,878.5h-8v12.4h-1.3v-13.6h9.3V878.5z"/>
		<path class="st3" d="M1379.2,890.2c-1-0.6-1.8-1.4-2.4-2.5c-0.6-1-0.9-2.2-0.9-3.5s0.3-2.5,0.9-3.5s1.4-1.9,2.4-2.5
			s2.2-0.9,3.5-0.9s2.4,0.3,3.5,0.9s1.8,1.4,2.4,2.5c0.6,1,0.9,2.2,0.9,3.5s-0.3,2.5-0.9,3.5s-1.4,1.9-2.4,2.5s-2.2,0.9-3.5,0.9
			C1381.4,891,1380.3,890.7,1379.2,890.2z M1385.5,889.1c0.8-0.5,1.5-1.2,1.9-2c0.5-0.9,0.7-1.9,0.7-3s-0.2-2.1-0.7-3
			s-1.1-1.5-1.9-2s-1.8-0.7-2.8-0.7s-2,0.2-2.8,0.7s-1.5,1.2-2,2c-0.5,0.9-0.7,1.9-0.7,3s0.2,2.1,0.7,3s1.1,1.5,2,2
			c0.8,0.5,1.8,0.7,2.8,0.7C1383.8,889.9,1384.7,889.6,1385.5,889.1z"/>
		<path class="st3" d="M1076.6,909.4c1.1,0.6,1.9,1.4,2.5,2.5c0.6,1,0.9,2.2,0.9,3.5s-0.3,2.5-0.9,3.5s-1.5,1.9-2.5,2.5
			c-1.1,0.6-2.3,0.9-3.6,0.9c-1.1,0-2.1-0.2-3-0.5s-1.7-0.8-2.3-1.5l0.8-0.8c1.2,1.1,2.7,1.6,4.5,1.6c1.1,0,2-0.2,2.9-0.7
			s1.6-1.1,2.1-1.9s0.8-1.7,0.9-2.8h-7.7v-1h7.6c-0.1-1-0.4-1.9-1-2.7c-0.5-0.8-1.2-1.4-2.1-1.8c-0.9-0.4-1.8-0.7-2.8-0.7
			c-1.8,0-3.4,0.5-4.5,1.6l-0.8-0.8c0.6-0.6,1.4-1.1,2.3-1.5s1.9-0.5,3-0.5C1074.3,908.5,1075.5,908.8,1076.6,909.4z"/>
		<path class="st3" d="M1092.8,909.7h-5.3v12.4h-1.3v-12.4h-5.3v-1.2h11.9L1092.8,909.7L1092.8,909.7z"/>
		<path class="st3" d="M1104,909.7c0.9,0.9,1.4,2.1,1.4,3.8v8.6h-1.2v-2.4c-0.4,0.8-1.1,1.4-1.9,1.9c-0.8,0.4-1.8,0.7-3,0.7
			c-1.5,0-2.7-0.4-3.6-1.1s-1.3-1.6-1.3-2.8c0-1.1,0.4-2,1.2-2.7c0.8-0.7,2.1-1.1,3.9-1.1h4.7v-1.1c0-1.3-0.3-2.2-1-2.9s-1.7-1-3-1
			c-0.9,0-1.8,0.2-2.6,0.5c-0.8,0.3-1.5,0.7-2.1,1.2l-0.7-0.9c0.7-0.6,1.5-1.1,2.4-1.4c1-0.3,2-0.5,3-0.5
			C1101.8,908.5,1103.1,908.9,1104,909.7z M1102.2,920.4c0.8-0.5,1.4-1.3,1.8-2.3v-2.5h-4.6c-1.3,0-2.3,0.2-2.9,0.7s-0.9,1.2-0.9,2
			c0,0.9,0.3,1.6,1,2.1s1.6,0.8,2.8,0.8C1100.5,921.2,1101.5,920.9,1102.2,920.4z"/>
		<path class="st3" d="M1122.5,908.6v13.6h-1.3v-12.4h-9.3v12.4h-1.3v-13.6H1122.5z"/>
		<path class="st3" d="M1136.4,909.7c0.9,0.9,1.4,2.1,1.4,3.8v8.6h-1.2v-2.4c-0.4,0.8-1.1,1.4-1.9,1.9c-0.8,0.4-1.8,0.7-3,0.7
			c-1.5,0-2.7-0.4-3.6-1.1c-0.9-0.7-1.3-1.6-1.3-2.8c0-1.1,0.4-2,1.2-2.7c0.8-0.7,2.1-1.1,3.9-1.1h4.7v-1.1c0-1.3-0.3-2.2-1-2.9
			s-1.7-1-3-1c-0.9,0-1.8,0.2-2.6,0.5c-0.8,0.3-1.5,0.7-2.1,1.2l-0.7-0.9c0.7-0.6,1.5-1.1,2.4-1.4s2-0.5,3-0.5
			C1134.3,908.5,1135.5,908.9,1136.4,909.7z M1134.7,920.4c0.8-0.5,1.4-1.3,1.8-2.3v-2.5h-4.6c-1.3,0-2.3,0.2-2.9,0.7
			s-0.9,1.2-0.9,2c0,0.9,0.3,1.6,1,2.1s1.6,0.8,2.8,0.8C1133,921.2,1133.9,920.9,1134.7,920.4z"/>
		<path class="st5" d="M1153,903.9v18.2h-1.3v-17h-4.4v-1.2H1153z"/>
		<path class="st5" d="M1170.1,903.9v0.9l-7.8,17.3h-1.5l7.7-17h-10.2v3.5h-1.3v-4.7H1170.1z"/>
		<path class="st5" d="M1171.7,921.9c-0.2-0.2-0.3-0.5-0.3-0.8s0.1-0.6,0.3-0.8c0.2-0.2,0.5-0.3,0.8-0.3s0.6,0.1,0.8,0.3
			s0.3,0.5,0.3,0.8s-0.1,0.6-0.3,0.8c-0.2,0.2-0.5,0.3-0.8,0.3S1171.9,922.1,1171.7,921.9z"/>
		<path class="st5" d="M1179.6,921.1c-1.1-0.8-1.9-1.8-2.5-3.2s-0.9-3-0.9-4.9s0.3-3.5,0.9-4.9s1.4-2.5,2.5-3.2
			c1.1-0.8,2.3-1.1,3.7-1.1c1.4,0,2.6,0.4,3.7,1.1s1.9,1.8,2.5,3.2s0.9,3,0.9,4.9s-0.3,3.5-0.9,4.9s-1.4,2.5-2.5,3.2
			s-2.3,1.1-3.7,1.1C1181.9,922.3,1180.7,921.9,1179.6,921.1z M1186.3,920.1c0.9-0.6,1.6-1.6,2-2.8c0.5-1.2,0.7-2.6,0.7-4.3
			s-0.2-3.1-0.7-4.3s-1.2-2.1-2-2.8c-0.9-0.6-1.9-0.9-3-0.9s-2.2,0.3-3,0.9c-0.9,0.6-1.6,1.6-2,2.8c-0.5,1.2-0.7,2.6-0.7,4.3
			s0.2,3.1,0.7,4.3s1.2,2.1,2,2.8c0.9,0.6,1.9,0.9,3,0.9S1185.5,920.7,1186.3,920.1z"/>
		<path class="st5" d="M1204.2,906.2c1.3,1.6,1.9,3.8,1.9,6.7c0,2-0.3,3.7-1,5.1c-0.7,1.4-1.6,2.4-2.8,3.2c-1.2,0.7-2.6,1.1-4.3,1.1
			c-1.7,0-3.1-0.3-4.1-0.9l0.5-1.1c0.9,0.6,2.1,0.8,3.6,0.8c2.1,0,3.7-0.7,5-2c1.2-1.4,1.8-3.3,1.8-5.9c0-0.8-0.1-1.5-0.2-2.2
			c-0.4,1.2-1.1,2.1-2.1,2.8s-2.3,1-3.7,1c-1.2,0-2.3-0.2-3.2-0.7c-0.9-0.4-1.6-1.1-2.1-1.9s-0.8-1.8-0.8-2.8c0-1.1,0.3-2.1,0.8-2.9
			s1.2-1.5,2.2-1.9c0.9-0.5,2-0.7,3.1-0.7C1201.1,903.8,1202.9,904.6,1204.2,906.2z M1201.6,913c0.8-0.4,1.4-0.9,1.8-1.6
			c0.4-0.7,0.6-1.4,0.6-2.2c0-0.7-0.2-1.4-0.6-2.1c-0.4-0.7-1-1.2-1.8-1.6s-1.7-0.6-2.8-0.6c-1.4,0-2.6,0.4-3.5,1.2
			s-1.3,1.8-1.3,3.1s0.4,2.3,1.3,3.1s2.1,1.2,3.6,1.2C1199.9,913.6,1200.8,913.4,1201.6,913z"/>
	</g>
</g>
<g>
	<path class="st3" d="M1110.9,744v25.9h-4.8V748h-5.5v-4H1110.9z"/>
	<path class="st3" d="M1132.3,756.2c1.8,1.4,2.6,3.3,2.6,5.8c0,1.6-0.4,3-1.1,4.2s-1.9,2.3-3.4,3s-3.4,1.1-5.7,1.1
		c-1.9,0-3.6-0.3-5.4-0.8s-3.2-1.3-4.4-2.2l2-3.7c1,0.8,2.1,1.4,3.5,1.9c1.3,0.5,2.7,0.7,4.2,0.7c1.7,0,3-0.4,4-1.1
		c1-0.7,1.5-1.7,1.5-2.9c0-1.3-0.5-2.3-1.6-3c-1-0.7-2.8-1-5.4-1h-6.3l1.3-14.1h15.2v4h-11.1l-0.6,6h2.5
		C1127.8,754.1,1130.5,754.8,1132.3,756.2z"/>
	<path class="st3" d="M1138.4,769.3c-0.6-0.6-0.9-1.3-0.9-2.2s0.3-1.7,0.9-2.2c0.6-0.6,1.3-0.9,2.2-0.9c0.9,0,1.6,0.3,2.2,0.9
		c0.6,0.6,0.9,1.3,0.9,2.2s-0.3,1.6-0.9,2.2c-0.6,0.6-1.3,0.9-2.1,0.9C1139.7,770.2,1139,769.9,1138.4,769.3z"/>
	<path class="st3" d="M1151.5,768.7c-1.6-1-2.9-2.6-3.8-4.6s-1.4-4.4-1.4-7.2s0.5-5.1,1.4-7.2c0.9-2,2.2-3.5,3.8-4.6
		c1.6-1,3.5-1.6,5.5-1.6s3.9,0.5,5.6,1.6c1.6,1,2.9,2.6,3.9,4.6c0.9,2,1.4,4.4,1.4,7.2s-0.5,5.1-1.4,7.2c-0.9,2-2.2,3.5-3.9,4.6
		c-1.6,1-3.5,1.6-5.6,1.6S1153.2,769.8,1151.5,768.7z M1161.5,763.8c1.1-1.5,1.6-3.8,1.6-6.8s-0.5-5.3-1.6-6.8s-2.5-2.3-4.4-2.3
		c-1.8,0-3.3,0.8-4.3,2.3c-1.1,1.5-1.6,3.8-1.6,6.8s0.5,5.3,1.6,6.8s2.5,2.3,4.3,2.3S1160.4,765.4,1161.5,763.8z"/>
	<path class="st3" d="M1188.2,747c2,2.2,2.9,5.4,2.9,9.5c0,2.9-0.5,5.4-1.6,7.5s-2.5,3.6-4.5,4.7c-1.9,1.1-4.1,1.6-6.6,1.6
		c-1.3,0-2.6-0.1-3.8-0.4s-2.2-0.7-3.1-1.2l1.8-3.6c1.3,0.8,2.9,1.3,4.9,1.3c2.5,0,4.4-0.8,5.8-2.3s2.1-3.7,2.1-6.6l0,0
		c-0.8,0.9-1.7,1.6-2.9,2c-1.2,0.5-2.5,0.7-4,0.7c-1.7,0-3.2-0.3-4.6-1s-2.4-1.6-3.2-2.8c-0.8-1.2-1.1-2.6-1.1-4.2
		c0-1.7,0.4-3.2,1.3-4.4c0.8-1.3,2-2.3,3.4-2.9c1.4-0.7,3-1,4.8-1C1183.5,743.7,1186.2,744.8,1188.2,747z M1184.1,755
		c1-0.8,1.5-1.9,1.5-3.2s-0.5-2.3-1.4-3.1c-1-0.8-2.3-1.2-3.9-1.2c-1.5,0-2.7,0.4-3.7,1.2c-0.9,0.8-1.4,1.9-1.4,3.2
		c0,1.4,0.5,2.4,1.4,3.2s2.2,1.2,3.8,1.2C1181.8,756.3,1183.1,755.8,1184.1,755z"/>
	<path class="st3" d="M1195,757.7h10.2v3.8H1195V757.7z"/>
	<path class="st3" d="M1217,744v25.9h-4.8V748h-5.5v-4H1217z"/>
	<path class="st3" d="M1241.7,744v3.2l-10.1,22.7h-5.1l9.7-21.8H1226v4.4h-4.5V744H1241.7z"/>
	<path class="st3" d="M1243.5,769.3c-0.6-0.6-0.9-1.3-0.9-2.2s0.3-1.7,0.9-2.2c0.6-0.6,1.3-0.9,2.2-0.9c0.9,0,1.6,0.3,2.2,0.9
		c0.6,0.6,0.9,1.3,0.9,2.2s-0.3,1.6-0.9,2.2c-0.6,0.6-1.3,0.9-2.1,0.9C1244.9,770.2,1244.1,769.9,1243.5,769.3z"/>
	<path class="st3" d="M1256.6,768.7c-1.6-1-2.9-2.6-3.8-4.6s-1.4-4.4-1.4-7.2s0.5-5.1,1.4-7.2c0.9-2,2.2-3.5,3.8-4.6
		c1.6-1,3.5-1.6,5.5-1.6s3.9,0.5,5.6,1.6c1.6,1,2.9,2.6,3.9,4.6c0.9,2,1.4,4.4,1.4,7.2s-0.5,5.1-1.4,7.2c-0.9,2-2.2,3.5-3.9,4.6
		c-1.6,1-3.5,1.6-5.6,1.6S1258.3,769.8,1256.6,768.7z M1266.6,763.8c1.1-1.5,1.6-3.8,1.6-6.8s-0.5-5.3-1.6-6.8s-2.5-2.3-4.4-2.3
		c-1.8,0-3.3,0.8-4.3,2.3c-1.1,1.5-1.6,3.8-1.6,6.8s0.5,5.3,1.6,6.8s2.5,2.3,4.3,2.3S1265.5,765.4,1266.6,763.8z"/>
	<path class="st3" d="M1293.3,747c2,2.2,2.9,5.4,2.9,9.5c0,2.9-0.5,5.4-1.6,7.5s-2.5,3.6-4.5,4.7c-1.9,1.1-4.1,1.6-6.6,1.6
		c-1.3,0-2.6-0.1-3.8-0.4s-2.2-0.7-3.1-1.2l1.8-3.6c1.3,0.8,2.9,1.3,4.9,1.3c2.5,0,4.4-0.8,5.8-2.3s2.1-3.7,2.1-6.6l0,0
		c-0.8,0.9-1.7,1.6-2.9,2c-1.2,0.5-2.5,0.7-4,0.7c-1.7,0-3.2-0.3-4.6-1s-2.4-1.6-3.2-2.8c-0.8-1.2-1.1-2.6-1.1-4.2
		c0-1.7,0.4-3.2,1.3-4.4c0.8-1.3,2-2.3,3.4-2.9c1.4-0.7,3-1,4.8-1C1288.6,743.7,1291.3,744.8,1293.3,747z M1289.2,755
		c1-0.8,1.5-1.9,1.5-3.2s-0.5-2.3-1.4-3.1c-1-0.8-2.3-1.2-3.9-1.2c-1.5,0-2.7,0.4-3.7,1.2c-0.9,0.8-1.4,1.9-1.4,3.2
		c0,1.4,0.5,2.4,1.4,3.2s2.2,1.2,3.8,1.2C1287,756.3,1288.2,755.8,1289.2,755z"/>
</g>
<g>
	<path class="st3" d="M206.2,1153.9v4.1h-19.1v-3.2l10.3-9.8c1.2-1.1,1.9-2.1,2.3-2.9c0.4-0.8,0.6-1.6,0.6-2.5
		c0-1.2-0.4-2.1-1.2-2.8c-0.8-0.6-2-1-3.6-1c-2.6,0-4.7,0.9-6.1,2.7l-3.4-2.6c1-1.4,2.4-2.4,4.1-3.2c1.7-0.8,3.6-1.1,5.8-1.1
		c2.8,0,5.1,0.7,6.7,2c1.7,1.3,2.5,3.1,2.5,5.4c0,1.4-0.3,2.7-0.9,4c-0.6,1.2-1.7,2.6-3.4,4.2l-6.9,6.6h12.3L206.2,1153.9
		L206.2,1153.9z"/>
	<path class="st3" d="M231.5,1152h-4.6v5.9h-4.7v-5.9H208v-3.3l12.8-16.7h5.1l-12,15.9h8.5v-5.2h4.5v5.2h4.6L231.5,1152L231.5,1152z
		"/>
	<path class="st3" d="M235,1157.3c-0.6-0.6-0.9-1.3-0.9-2.2c0-0.9,0.3-1.7,0.9-2.2c0.6-0.6,1.3-0.9,2.2-0.9s1.6,0.3,2.2,0.9
		c0.6,0.6,0.9,1.3,0.9,2.2c0,0.9-0.3,1.6-0.9,2.2c-0.6,0.6-1.3,0.9-2.1,0.9C236.3,1158.2,235.6,1157.9,235,1157.3z"/>
	<path class="st3" d="M248.1,1156.7c-1.6-1-2.9-2.6-3.8-4.6c-0.9-2-1.4-4.4-1.4-7.2c0-2.8,0.5-5.1,1.4-7.2c0.9-2,2.2-3.5,3.8-4.6
		c1.6-1,3.5-1.6,5.6-1.6s3.9,0.5,5.6,1.6c1.6,1,2.9,2.6,3.9,4.6c0.9,2,1.4,4.4,1.4,7.2c0,2.8-0.5,5.1-1.4,7.2
		c-0.9,2-2.2,3.5-3.9,4.6c-1.6,1-3.5,1.6-5.6,1.6C251.6,1158.3,249.7,1157.8,248.1,1156.7z M258,1151.8c1.1-1.5,1.6-3.8,1.6-6.8
		s-0.5-5.3-1.6-6.8s-2.5-2.3-4.4-2.3c-1.8,0-3.3,0.8-4.3,2.3c-1.1,1.5-1.6,3.8-1.6,6.8s0.5,5.3,1.6,6.8s2.5,2.3,4.3,2.3
		C255.5,1154.1,257,1153.4,258,1151.8z"/>
	<path class="st3" d="M284.8,1135c2,2.2,2.9,5.4,2.9,9.5c0,2.9-0.5,5.4-1.6,7.5s-2.5,3.6-4.5,4.7c-1.9,1.1-4.1,1.6-6.6,1.6
		c-1.3,0-2.6-0.1-3.8-0.4c-1.2-0.3-2.2-0.7-3.1-1.2l1.8-3.6c1.3,0.8,2.9,1.3,4.9,1.3c2.5,0,4.4-0.8,5.8-2.3s2.1-3.7,2.1-6.6l0,0
		c-0.8,0.9-1.7,1.6-2.9,2c-1.2,0.5-2.5,0.7-4,0.7c-1.7,0-3.2-0.3-4.6-1s-2.4-1.6-3.2-2.8c-0.8-1.2-1.1-2.6-1.1-4.2
		c0-1.7,0.4-3.2,1.3-4.4c0.8-1.3,2-2.3,3.4-2.9s3-1,4.8-1C280,1131.7,282.8,1132.8,284.8,1135z M280.6,1143c1-0.8,1.5-1.9,1.5-3.2
		c0-1.3-0.5-2.3-1.4-3.1c-0.9-0.8-2.3-1.2-3.9-1.2c-1.5,0-2.7,0.4-3.7,1.2c-0.9,0.8-1.4,1.9-1.4,3.2c0,1.4,0.5,2.4,1.4,3.2
		c0.9,0.8,2.2,1.2,3.8,1.2C278.4,1144.2,279.7,1143.8,280.6,1143z"/>
	<path class="st3" d="M291.5,1145.7h10.2v3.8h-10.2V1145.7z"/>
	<path class="st3" d="M323.6,1153.9v4.1h-19.1v-3.2l10.3-9.8c1.2-1.1,1.9-2.1,2.3-2.9s0.6-1.6,0.6-2.5c0-1.2-0.4-2.1-1.2-2.8
		c-0.8-0.6-2-1-3.6-1c-2.6,0-4.7,0.9-6.1,2.7l-3.4-2.6c1-1.4,2.4-2.4,4.1-3.2c1.7-0.8,3.6-1.1,5.8-1.1c2.8,0,5.1,0.7,6.7,2
		c1.7,1.3,2.5,3.1,2.5,5.4c0,1.4-0.3,2.7-0.9,4c-0.6,1.2-1.7,2.6-3.4,4.2l-6.9,6.6h12.3L323.6,1153.9L323.6,1153.9z"/>
	<path class="st3" d="M342.6,1144.2c1.8,1.4,2.6,3.3,2.6,5.8c0,1.6-0.4,3-1.1,4.2c-0.8,1.3-1.9,2.3-3.4,3s-3.4,1.1-5.7,1.1
		c-1.9,0-3.6-0.3-5.4-0.8c-1.7-0.5-3.2-1.3-4.4-2.2l2-3.7c1,0.8,2.1,1.4,3.5,1.9c1.3,0.5,2.7,0.7,4.2,0.7c1.7,0,3-0.4,4-1.1
		s1.5-1.7,1.5-2.9c0-1.3-0.5-2.3-1.6-3c-1-0.7-2.8-1-5.4-1h-6.3l1.3-14.1h15.2v4h-11.1l-0.6,6h2.5
		C338.1,1142.1,340.8,1142.8,342.6,1144.2z"/>
	<path class="st3" d="M348.7,1157.3c-0.6-0.6-0.9-1.3-0.9-2.2c0-0.9,0.3-1.7,0.9-2.2c0.6-0.6,1.3-0.9,2.2-0.9c0.9,0,1.6,0.3,2.2,0.9
		s0.9,1.3,0.9,2.2c0,0.9-0.3,1.6-0.9,2.2s-1.3,0.9-2.1,0.9C350,1158.2,349.3,1157.9,348.7,1157.3z"/>
	<path class="st3" d="M361.8,1156.7c-1.6-1-2.9-2.6-3.8-4.6s-1.4-4.4-1.4-7.2c0-2.8,0.5-5.1,1.4-7.2c0.9-2,2.2-3.5,3.8-4.6
		c1.6-1,3.5-1.6,5.6-1.6s3.9,0.5,5.6,1.6c1.6,1,2.9,2.6,3.9,4.6c0.9,2,1.4,4.4,1.4,7.2c0,2.8-0.5,5.1-1.4,7.2
		c-0.9,2-2.2,3.5-3.9,4.6c-1.6,1-3.5,1.6-5.6,1.6C365.3,1158.3,363.4,1157.8,361.8,1156.7z M371.7,1151.8c1.1-1.5,1.6-3.8,1.6-6.8
		s-0.5-5.3-1.6-6.8s-2.5-2.3-4.4-2.3c-1.8,0-3.3,0.8-4.3,2.3c-1.1,1.5-1.6,3.8-1.6,6.8s0.5,5.3,1.6,6.8s2.5,2.3,4.3,2.3
		C369.2,1154.1,370.7,1153.4,371.7,1151.8z"/>
	<path class="st3" d="M398.5,1135c2,2.2,2.9,5.4,2.9,9.5c0,2.9-0.5,5.4-1.6,7.5s-2.5,3.6-4.5,4.7c-1.9,1.1-4.1,1.6-6.6,1.6
		c-1.3,0-2.6-0.1-3.8-0.4c-1.2-0.3-2.2-0.7-3.1-1.2l1.8-3.6c1.3,0.8,2.9,1.3,4.9,1.3c2.5,0,4.4-0.8,5.8-2.3s2.1-3.7,2.1-6.6l0,0
		c-0.8,0.9-1.7,1.6-2.9,2c-1.2,0.5-2.5,0.7-4,0.7c-1.7,0-3.2-0.3-4.6-1s-2.4-1.6-3.2-2.8c-0.8-1.2-1.1-2.6-1.1-4.2
		c0-1.7,0.4-3.2,1.3-4.4c0.8-1.3,2-2.3,3.4-2.9s3-1,4.8-1C393.7,1131.7,396.5,1132.8,398.5,1135z M394.3,1143c1-0.8,1.5-1.9,1.5-3.2
		c0-1.3-0.5-2.3-1.4-3.1c-0.9-0.8-2.3-1.2-3.9-1.2c-1.5,0-2.7,0.4-3.7,1.2c-0.9,0.8-1.4,1.9-1.4,3.2c0,1.4,0.5,2.4,1.4,3.2
		c0.9,0.8,2.2,1.2,3.8,1.2C392.1,1144.2,393.4,1143.8,394.3,1143z"/>
</g>
<g>
	<path class="st3" d="M220.2,328.2c-1.6-1-2.9-2.6-3.8-4.6c-0.9-2-1.4-4.4-1.4-7.2c0-2.8,0.5-5.1,1.4-7.2c0.9-2,2.2-3.5,3.8-4.6
		s3.5-1.6,5.6-1.6s3.9,0.5,5.6,1.6c1.6,1,2.9,2.6,3.9,4.6c0.9,2,1.4,4.4,1.4,7.2c0,2.8-0.5,5.1-1.4,7.2c-0.9,2-2.2,3.5-3.9,4.6
		c-1.6,1-3.5,1.6-5.6,1.6C223.6,329.7,221.8,329.2,220.2,328.2z M230.1,323.3c1.1-1.5,1.6-3.8,1.6-6.8s-0.5-5.3-1.6-6.8
		s-2.5-2.3-4.4-2.3c-1.8,0-3.3,0.8-4.3,2.3c-1.1,1.5-1.6,3.8-1.6,6.8s0.5,5.3,1.6,6.8s2.5,2.3,4.3,2.3
		C227.6,325.5,229,324.8,230.1,323.3z"/>
	<path class="st3" d="M256,315.6c1.8,1.4,2.6,3.3,2.6,5.8c0,1.6-0.4,3-1.1,4.2c-0.8,1.3-1.9,2.3-3.4,3s-3.4,1.1-5.7,1.1
		c-1.9,0-3.6-0.3-5.4-0.8c-1.7-0.5-3.2-1.3-4.4-2.2l2-3.7c1,0.8,2.1,1.4,3.5,1.9c1.3,0.5,2.7,0.7,4.2,0.7c1.7,0,3-0.4,4-1.1
		s1.5-1.7,1.5-2.9c0-1.3-0.5-2.3-1.6-3c-1-0.7-2.8-1-5.4-1h-6.3l1.3-14.1H257v4h-11l-0.6,6h2.5C251.6,313.5,254.3,314.2,256,315.6z"
		/>
	<path class="st3" d="M262.2,328.7c-0.6-0.6-0.9-1.3-0.9-2.2c0-0.9,0.3-1.7,0.9-2.2c0.6-0.6,1.3-0.9,2.2-0.9c0.9,0,1.6,0.3,2.2,0.9
		s0.9,1.3,0.9,2.2c0,0.9-0.3,1.6-0.9,2.2s-1.3,0.9-2.1,0.9C263.5,329.6,262.7,329.3,262.2,328.7z"/>
	<path class="st3" d="M275.3,328.2c-1.6-1-2.9-2.6-3.8-4.6s-1.4-4.4-1.4-7.2c0-2.8,0.5-5.1,1.4-7.2c0.9-2,2.2-3.5,3.8-4.6
		s3.5-1.6,5.6-1.6s3.9,0.5,5.6,1.6c1.6,1,2.9,2.6,3.9,4.6c0.9,2,1.4,4.4,1.4,7.2c0,2.8-0.5,5.1-1.4,7.2c-0.9,2-2.2,3.5-3.9,4.6
		c-1.6,1-3.5,1.6-5.6,1.6C278.7,329.7,276.9,329.2,275.3,328.2z M285.2,323.3c1.1-1.5,1.6-3.8,1.6-6.8s-0.5-5.3-1.6-6.8
		s-2.5-2.3-4.4-2.3c-1.8,0-3.3,0.8-4.3,2.3c-1.1,1.5-1.6,3.8-1.6,6.8s0.5,5.3,1.6,6.8s2.5,2.3,4.3,2.3
		C282.7,325.5,284.1,324.8,285.2,323.3z"/>
	<path class="st3" d="M311.9,306.4c2,2.2,2.9,5.4,2.9,9.5c0,2.9-0.5,5.4-1.6,7.5s-2.5,3.6-4.5,4.7c-1.9,1.1-4.1,1.6-6.6,1.6
		c-1.3,0-2.6-0.1-3.8-0.4c-1.2-0.3-2.2-0.7-3.1-1.2l1.8-3.6c1.3,0.8,2.9,1.3,4.9,1.3c2.5,0,4.4-0.8,5.8-2.3s2.1-3.7,2.1-6.6l0,0
		c-0.8,0.9-1.7,1.6-2.9,2c-1.2,0.5-2.5,0.7-4,0.7c-1.7,0-3.2-0.3-4.6-1s-2.4-1.6-3.2-2.8c-0.8-1.2-1.1-2.6-1.1-4.2
		c0-1.7,0.4-3.2,1.3-4.4c0.8-1.3,2-2.3,3.4-2.9c1.4-0.7,3-1,4.8-1C307.2,303.1,309.9,304.2,311.9,306.4z M307.8,314.4
		c1-0.8,1.5-1.9,1.5-3.2c0-1.3-0.5-2.3-1.4-3.1c-0.9-0.8-2.3-1.2-3.9-1.2c-1.5,0-2.7,0.4-3.7,1.2c-0.9,0.8-1.4,1.9-1.4,3.2
		c0,1.4,0.5,2.4,1.4,3.2c0.9,0.8,2.2,1.2,3.8,1.2C305.6,315.7,306.8,315.3,307.8,314.4z"/>
	<path class="st3" d="M318.7,317.1h10.2v3.8h-10.2V317.1z"/>
	<path class="st3" d="M340.7,303.5v25.9h-4.8v-21.9h-5.5v-4H340.7z"/>
	<path class="st3" d="M351.1,328.2c-1.6-1-2.9-2.6-3.8-4.6s-1.4-4.4-1.4-7.2c0-2.8,0.5-5.1,1.4-7.2c0.9-2,2.2-3.5,3.8-4.6
		s3.5-1.6,5.6-1.6s3.9,0.5,5.6,1.6c1.6,1,2.9,2.6,3.9,4.6c0.9,2,1.4,4.4,1.4,7.2c0,2.8-0.5,5.1-1.4,7.2c-0.9,2-2.2,3.5-3.9,4.6
		c-1.6,1-3.5,1.6-5.6,1.6C354.6,329.7,352.8,329.2,351.1,328.2z M361.1,323.3c1.1-1.5,1.6-3.8,1.6-6.8s-0.5-5.3-1.6-6.8
		s-2.5-2.3-4.4-2.3c-1.8,0-3.3,0.8-4.3,2.3c-1.1,1.5-1.6,3.8-1.6,6.8s0.5,5.3,1.6,6.8s2.5,2.3,4.3,2.3
		C358.5,325.5,360,324.8,361.1,323.3z"/>
	<path class="st3" d="M371.1,328.7c-0.6-0.6-0.9-1.3-0.9-2.2c0-0.9,0.3-1.7,0.9-2.2c0.6-0.6,1.3-0.9,2.2-0.9c0.9,0,1.6,0.3,2.2,0.9
		s0.9,1.3,0.9,2.2c0,0.9-0.3,1.6-0.9,2.2s-1.3,0.9-2.1,0.9C372.4,329.6,371.7,329.3,371.1,328.7z"/>
	<path class="st3" d="M384.2,328.2c-1.6-1-2.9-2.6-3.8-4.6s-1.4-4.4-1.4-7.2c0-2.8,0.5-5.1,1.4-7.2c0.9-2,2.2-3.5,3.8-4.6
		s3.5-1.6,5.6-1.6s3.9,0.5,5.6,1.6c1.6,1,2.9,2.6,3.9,4.6c0.9,2,1.4,4.4,1.4,7.2c0,2.8-0.5,5.1-1.4,7.2c-0.9,2-2.2,3.5-3.9,4.6
		c-1.6,1-3.5,1.6-5.6,1.6C387.7,329.7,385.8,329.2,384.2,328.2z M394.1,323.3c1.1-1.5,1.6-3.8,1.6-6.8s-0.5-5.3-1.6-6.8
		s-2.5-2.3-4.4-2.3c-1.8,0-3.3,0.8-4.3,2.3c-1.1,1.5-1.6,3.8-1.6,6.8s0.5,5.3,1.6,6.8s2.5,2.3,4.3,2.3
		C391.6,325.5,393,324.8,394.1,323.3z"/>
	<path class="st3" d="M420.8,306.4c2,2.2,2.9,5.4,2.9,9.5c0,2.9-0.5,5.4-1.6,7.5s-2.5,3.6-4.5,4.7c-1.9,1.1-4.1,1.6-6.6,1.6
		c-1.3,0-2.6-0.1-3.8-0.4c-1.2-0.3-2.2-0.7-3.1-1.2l1.8-3.6c1.3,0.8,2.9,1.3,4.9,1.3c2.5,0,4.4-0.8,5.8-2.3s2.1-3.7,2.1-6.6l0,0
		c-0.8,0.9-1.7,1.6-2.9,2c-1.2,0.5-2.5,0.7-4,0.7c-1.7,0-3.2-0.3-4.6-1s-2.4-1.6-3.2-2.8c-0.8-1.2-1.1-2.6-1.1-4.2
		c0-1.7,0.4-3.2,1.3-4.4c0.8-1.3,2-2.3,3.4-2.9c1.4-0.7,3-1,4.8-1C416.1,303.1,418.9,304.2,420.8,306.4z M416.7,314.4
		c1-0.8,1.5-1.9,1.5-3.2c0-1.3-0.5-2.3-1.4-3.1c-0.9-0.8-2.3-1.2-3.9-1.2c-1.5,0-2.7,0.4-3.7,1.2c-0.9,0.8-1.4,1.9-1.4,3.2
		c0,1.4,0.5,2.4,1.4,3.2c0.9,0.8,2.2,1.2,3.8,1.2C414.5,315.7,415.7,315.3,416.7,314.4z"/>
</g>
<g>
	<g>
		<path class="st3" d="M172.9,1209.6v5.4h-1.3v-4.2H155v4.2h-1.3v-5.4h1c1.2-0.1,2-1.1,2.5-3s0.8-4.6,0.9-8l0.2-6h11.8v17H172.9z
			 M158.6,1205.9c-0.4,1.9-1,3.1-1.8,3.7h12v-15.8h-9.3l-0.2,4.9C159.2,1201.6,159,1204,158.6,1205.9z"/>
		<path class="st3" d="M187.8,1204.3h-11.7c0,1.1,0.3,2,0.8,2.8s1.2,1.5,2,1.9c0.9,0.5,1.8,0.7,2.9,0.7c0.9,0,1.7-0.2,2.5-0.5
			s1.4-0.8,1.9-1.4l0.8,0.9c-0.6,0.7-1.3,1.3-2.2,1.6c-0.9,0.4-1.9,0.6-2.9,0.6c-1.4,0-2.6-0.3-3.6-0.9c-1.1-0.6-1.9-1.4-2.5-2.4
			s-0.9-2.2-0.9-3.6c0-1.3,0.3-2.5,0.8-3.5c0.6-1,1.3-1.9,2.3-2.5s2.1-0.9,3.3-0.9s2.3,0.3,3.3,0.9s1.8,1.4,2.3,2.4
			c0.6,1,0.8,2.2,0.8,3.5L187.8,1204.3z M178.8,1198.9c-0.8,0.4-1.4,1-1.8,1.8c-0.5,0.8-0.7,1.6-0.8,2.6h10.4
			c-0.1-1-0.3-1.8-0.8-2.6c-0.5-0.8-1.1-1.4-1.8-1.8c-0.8-0.4-1.6-0.7-2.6-0.7C180.4,1198.2,179.6,1198.4,178.8,1198.9z"/>
		<path class="st3" d="M204.5,1209.6v4.5h-1.2v-3.4h-12.8v3.4h-1.2v-4.5h0.8c0.9-0.1,1.5-0.8,1.9-2.1c0.3-1.4,0.6-3.3,0.7-5.8
			l0.2-4.5h9.5v12.4H204.5z M193.3,1206.9c-0.3,1.4-0.7,2.3-1.4,2.7h9.2v-11.3H194l-0.2,3.4C193.7,1203.8,193.5,1205.5,193.3,1206.9
			z"/>
		<path class="st3" d="M219,1197.2v13.6h-1.3v-12.4h-7.1l-0.2,3.6c-0.1,1.9-0.3,3.4-0.5,4.7c-0.2,1.3-0.6,2.3-1.1,3.1
			c-0.5,0.8-1.2,1.2-2.1,1.2c-0.3,0-0.6-0.1-1.1-0.2l0.1-1.1c0.3,0.1,0.5,0.1,0.6,0.1c0.7,0,1.3-0.4,1.7-1.1s0.6-1.6,0.8-2.7
			c0.1-1.1,0.3-2.4,0.3-4.1l0.2-4.7H219z"/>
		<path class="st3" d="M233,1198.4c0.9,0.9,1.4,2.1,1.4,3.8v8.6h-1.2v-2.4c-0.4,0.8-1.1,1.4-1.9,1.9c-0.8,0.4-1.8,0.7-3,0.7
			c-1.5,0-2.7-0.4-3.6-1.1c-0.9-0.7-1.3-1.6-1.3-2.8c0-1.1,0.4-2,1.2-2.7s2.1-1.1,3.9-1.1h4.7v-1.1c0-1.3-0.3-2.2-1-2.9
			c-0.7-0.7-1.7-1-3-1c-0.9,0-1.8,0.2-2.6,0.5s-1.5,0.7-2.1,1.2l-0.6-0.9c0.7-0.6,1.5-1.1,2.4-1.4c1-0.3,2-0.5,3-0.5
			C230.8,1197.1,232.1,1197.5,233,1198.4z M231.2,1209c0.8-0.5,1.4-1.3,1.8-2.3v-2.5h-4.6c-1.3,0-2.3,0.2-2.9,0.7
			c-0.6,0.5-0.9,1.2-0.9,2c0,0.9,0.3,1.6,1,2.1s1.6,0.8,2.8,0.8C229.5,1209.8,230.4,1209.5,231.2,1209z"/>
		<path class="st3" d="M239.6,1197.2h1.3v11.6l9.7-11.6h1.1v13.6h-1.3v-11.6l-9.7,11.6h-1.1V1197.2z M242.9,1194.3
			c-0.7-0.6-1-1.3-1-2.4h1c0,0.7,0.3,1.3,0.8,1.7s1.2,0.6,1.9,0.6c0.8,0,1.4-0.2,1.9-0.6s0.8-1,0.8-1.7h1c0,1-0.4,1.8-1,2.4
			c-0.7,0.6-1.6,0.8-2.7,0.8S243.6,1194.8,242.9,1194.3z"/>
		<path class="st3" d="M257.3,1197.2h1.3v6.2h9.2v-6.2h1.3v13.6h-1.3v-6.2h-9.2v6.2h-1.3V1197.2z"/>
		<path class="st3" d="M159.3,1240.8v4.5H158v-3.4h-12.8v3.4H144v-4.5h0.8c0.9-0.1,1.5-0.8,1.9-2.1c0.3-1.4,0.6-3.3,0.7-5.8l0.2-4.5
			h9.5v12.4H159.3z M148,1238.1c-0.3,1.4-0.7,2.3-1.4,2.7h9.2v-11.3h-7.1l-0.2,3.4C148.5,1235,148.3,1236.7,148,1238.1z"/>
		<path class="st3" d="M173.7,1228.4v13.6h-1.3v-12.4h-7.1l-0.2,3.6c-0.1,1.9-0.3,3.4-0.5,4.7c-0.2,1.3-0.6,2.3-1.1,3.1
			c-0.5,0.8-1.2,1.2-2.1,1.2c-0.3,0-0.6-0.1-1.1-0.2l0.1-1.1c0.3,0.1,0.5,0.1,0.6,0.1c0.7,0,1.3-0.4,1.7-1.1s0.6-1.6,0.8-2.7
			c0.1-1.1,0.3-2.4,0.3-4.1l0.2-4.7H173.7z"/>
		<path class="st3" d="M189.3,1228.4v13.6h-1.2v-4.7h-4.5c-0.3,0-0.5,0-0.7,0l-3.4,4.7h-1.4l3.5-4.9c-1.1-0.2-2-0.7-2.5-1.4
			c-0.6-0.7-0.9-1.6-0.9-2.8c0-1.5,0.5-2.6,1.5-3.4s2.4-1.1,4.1-1.1L189.3,1228.4L189.3,1228.4z M183.7,1236.3h4.4v-6.8h-4.2
			c-2.9,0-4.4,1.1-4.4,3.4C179.5,1235.2,180.9,1236.3,183.7,1236.3z"/>
		<path class="st3" d="M203.6,1241.2c-1-0.6-1.8-1.4-2.4-2.5c-0.6-1-0.9-2.2-0.9-3.5s0.3-2.5,0.9-3.5c0.6-1,1.4-1.9,2.4-2.5
			s2.2-0.9,3.5-0.9s2.4,0.3,3.5,0.9c1,0.6,1.8,1.4,2.4,2.5c0.6,1,0.9,2.2,0.9,3.5s-0.3,2.5-0.9,3.5c-0.6,1-1.4,1.9-2.4,2.5
			s-2.2,0.9-3.5,0.9S204.6,1241.8,203.6,1241.2z M209.8,1240.2c0.8-0.5,1.5-1.2,1.9-2c0.5-0.9,0.7-1.9,0.7-3s-0.2-2.1-0.7-3
			s-1.1-1.5-1.9-2c-0.8-0.5-1.8-0.7-2.8-0.7s-2,0.2-2.8,0.7s-1.5,1.2-1.9,2c-0.5,0.9-0.7,1.9-0.7,3s0.2,2.1,0.7,3s1.1,1.5,1.9,2
			s1.8,0.7,2.8,0.7S209,1240.6,209.8,1240.2z"/>
		<path class="st3" d="M226.6,1229.6h-5.3v12.4H220v-12.4h-5.3v-1.2h11.9L226.6,1229.6L226.6,1229.6z"/>
		<path class="st3" d="M241.3,1228.4v13.6H240v-12.4h-9.3v12.4h-1.3v-13.6H241.3z"/>
		<path class="st3" d="M257.1,1229.2c1,0.6,1.8,1.4,2.4,2.4s0.9,2.2,0.9,3.6c0,1.3-0.3,2.5-0.9,3.6c-0.6,1-1.4,1.9-2.4,2.4
			c-1,0.6-2.2,0.9-3.4,0.9s-2.3-0.3-3.3-0.8c-1-0.6-1.7-1.3-2.3-2.4v8.1h-1.3v-18.6h1.2v3.2c0.5-1,1.3-1.8,2.3-2.4s2.1-0.9,3.3-0.9
			C255,1228.3,256.1,1228.6,257.1,1229.2z M256.4,1240.2c0.8-0.5,1.5-1.2,2-2c0.5-0.9,0.7-1.9,0.7-3s-0.2-2.1-0.7-3s-1.1-1.5-2-2
			s-1.8-0.7-2.8-0.7s-2,0.2-2.8,0.7s-1.5,1.2-1.9,2c-0.5,0.9-0.7,1.9-0.7,3s0.2,2.1,0.7,3s1.1,1.5,1.9,2s1.8,0.7,2.8,0.7
			S255.6,1240.6,256.4,1240.2z"/>
		<path class="st3" d="M273,1229.6c0.9,0.9,1.4,2.1,1.4,3.8v8.6h-1.2v-2.4c-0.4,0.8-1.1,1.4-1.9,1.9c-0.8,0.4-1.8,0.7-3,0.7
			c-1.5,0-2.7-0.4-3.6-1.1s-1.3-1.6-1.3-2.8c0-1.1,0.4-2,1.2-2.7c0.8-0.7,2.1-1.1,3.9-1.1h4.7v-1.1c0-1.3-0.3-2.2-1-2.9
			c-0.7-0.7-1.7-1-3-1c-0.9,0-1.8,0.2-2.6,0.5c-0.8,0.3-1.5,0.7-2.1,1.2l-0.6-0.9c0.7-0.6,1.5-1.1,2.4-1.4c1-0.3,2-0.5,3-0.5
			C270.8,1228.3,272.1,1228.7,273,1229.6z M271.2,1240.2c0.8-0.5,1.4-1.3,1.8-2.3v-2.5h-4.6c-1.3,0-2.3,0.2-2.9,0.7s-0.9,1.2-0.9,2
			c0,0.9,0.3,1.6,1,2.1s1.6,0.8,2.8,0.8C269.5,1241,270.5,1240.7,271.2,1240.2z"/>
		<path class="st3" d="M290.6,1238.3c0,1.2-0.4,2.1-1.3,2.7s-2.1,0.9-3.9,0.9h-5.9v-13.6h5.7c1.5,0,2.7,0.3,3.5,0.9s1.3,1.5,1.3,2.6
			c0,0.8-0.2,1.5-0.7,2c-0.4,0.5-1.1,0.9-1.9,1.1C289.6,1235.3,290.6,1236.4,290.6,1238.3z M280.9,1234.6h4.4c1.2,0,2.1-0.2,2.7-0.7
			c0.6-0.4,0.9-1.1,0.9-1.9s-0.3-1.5-0.9-1.9s-1.5-0.6-2.7-0.6h-4.4V1234.6z M289.3,1238.3c0-0.9-0.3-1.6-0.9-2s-1.5-0.7-2.8-0.7
			h-4.8v5.3h4.6C288,1240.9,289.3,1240,289.3,1238.3z"/>
		<path class="st3" d="M299.9,1235.7h-3.3v6.3h-1.3v-13.6h1.3v6.2h3.3l5.1-6.2h1.4l-5.5,6.6l5.9,7h-1.6L299.9,1235.7z"/>
		<path class="st3" d="M310,1228.4h1.3v11.6l9.7-11.6h1.1v13.6h-1.3v-11.6l-9.7,11.6H310V1228.4z"/>
		<path class="st3" d="M344.7,1229.2c1,0.6,1.8,1.4,2.4,2.4s0.9,2.2,0.9,3.6c0,1.3-0.3,2.5-0.9,3.6c-0.6,1-1.4,1.9-2.4,2.4
			c-1,0.6-2.2,0.9-3.4,0.9c-1.2,0-2.3-0.3-3.3-0.8c-1-0.6-1.7-1.3-2.3-2.4v8.1h-1.3v-18.6h1.2v3.2c0.5-1,1.3-1.8,2.3-2.4
			s2.1-0.9,3.3-0.9C342.5,1228.3,343.7,1228.6,344.7,1229.2z M344,1240.2c0.8-0.5,1.5-1.2,2-2c0.5-0.9,0.7-1.9,0.7-3s-0.2-2.1-0.7-3
			s-1.1-1.5-2-2s-1.8-0.7-2.8-0.7s-2,0.2-2.8,0.7s-1.5,1.2-1.9,2c-0.5,0.9-0.7,1.9-0.7,3s0.2,2.1,0.7,3s1.1,1.5,1.9,2
			s1.8,0.7,2.8,0.7S343.2,1240.6,344,1240.2z"/>
		<path class="st3" d="M363.8,1235.5h-11.7c0,1.1,0.3,2,0.8,2.8s1.2,1.5,2,1.9c0.9,0.5,1.8,0.7,2.9,0.7c0.9,0,1.7-0.2,2.5-0.5
			s1.4-0.8,1.9-1.4l0.8,0.9c-0.6,0.7-1.3,1.3-2.2,1.6c-0.9,0.4-1.9,0.6-2.9,0.6c-1.4,0-2.6-0.3-3.6-0.9c-1.1-0.6-1.9-1.4-2.5-2.4
			s-0.9-2.2-0.9-3.6c0-1.3,0.3-2.5,0.8-3.5c0.6-1,1.3-1.9,2.3-2.5s2.1-0.9,3.3-0.9c1.2,0,2.3,0.3,3.3,0.9s1.8,1.4,2.3,2.4
			c0.6,1,0.8,2.2,0.8,3.5L363.8,1235.5z M354.8,1230.1c-0.8,0.4-1.4,1-1.8,1.8c-0.5,0.8-0.7,1.6-0.8,2.6h10.4
			c-0.1-1-0.3-1.8-0.8-2.6c-0.5-0.8-1.1-1.4-1.8-1.8c-0.8-0.4-1.6-0.7-2.6-0.7C356.4,1229.4,355.5,1229.6,354.8,1230.1z"/>
		<path class="st3" d="M386.3,1228.4v13.6H368v-13.6h1.3v12.4h7.2v-12.4h1.3v12.4h7.1v-12.4H386.3z"/>
		<path class="st3" d="M403.5,1235.5h-11.7c0,1.1,0.3,2,0.8,2.8s1.2,1.5,2,1.9c0.9,0.5,1.8,0.7,2.9,0.7c0.9,0,1.7-0.2,2.5-0.5
			s1.4-0.8,1.9-1.4l0.8,0.9c-0.6,0.7-1.3,1.3-2.2,1.6c-0.9,0.4-1.9,0.6-2.9,0.6c-1.4,0-2.6-0.3-3.6-0.9c-1.1-0.6-1.9-1.4-2.5-2.4
			s-0.9-2.2-0.9-3.6c0-1.3,0.3-2.5,0.8-3.5c0.6-1,1.3-1.9,2.3-2.5s2.1-0.9,3.3-0.9c1.2,0,2.3,0.3,3.3,0.9s1.8,1.4,2.3,2.4
			c0.6,1,0.8,2.2,0.8,3.5L403.5,1235.5z M394.5,1230.1c-0.8,0.4-1.4,1-1.8,1.8c-0.5,0.8-0.7,1.6-0.8,2.6h10.4
			c-0.1-1-0.3-1.8-0.8-2.6c-0.5-0.8-1.1-1.4-1.8-1.8c-0.8-0.4-1.6-0.7-2.6-0.7C396.1,1229.4,395.2,1229.6,394.5,1230.1z"/>
		<path class="st3" d="M407.8,1228.4h1.3v6.2h9.2v-6.2h1.3v13.6h-1.3v-6.2h-9.2v6.2h-1.3V1228.4z"/>
		<path class="st3" d="M425.2,1228.4h1.3v11.6l9.7-11.6h1.1v13.6H436v-11.6l-9.7,11.6h-1.1L425.2,1228.4L425.2,1228.4z"/>
		<path class="st3" d="M442.9,1228.4h1.3v11.6l9.7-11.6h1.1v13.6h-1.3v-11.6L444,1242h-1.1V1228.4z M446.3,1225.5
			c-0.7-0.6-1-1.3-1-2.4h1c0,0.7,0.3,1.3,0.8,1.7s1.2,0.6,1.9,0.6c0.8,0,1.4-0.2,1.9-0.6s0.8-1,0.8-1.7h1c0,1-0.4,1.8-1,2.4
			c-0.7,0.6-1.6,0.8-2.7,0.8S446.9,1226,446.3,1225.5z"/>
		<path class="st5" d="M478.1,1240.8v1.2h-12.5v-0.9l7.7-7.6c1-1,1.7-1.9,2-2.6c0.4-0.7,0.5-1.5,0.5-2.2c0-1.2-0.4-2.1-1.2-2.7
			c-0.8-0.7-1.9-1-3.4-1c-1.1,0-2.1,0.2-3,0.5s-1.6,0.9-2.2,1.6l-0.9-0.8c0.7-0.8,1.6-1.4,2.6-1.8s2.3-0.7,3.6-0.7
			c1.8,0,3.2,0.4,4.3,1.3c1.1,0.9,1.6,2,1.6,3.5c0,0.9-0.2,1.8-0.6,2.7c-0.4,0.8-1.2,1.8-2.3,3l-6.7,6.7h10.5V1240.8z"/>
		<path class="st5" d="M495.1,1236.9h-3.8v5H490v-5h-10.4v-1l9.9-12.2h1.5l-9.7,12h8.7v-4.4h1.3v4.4h3.8L495.1,1236.9L495.1,1236.9z
			"/>
		<path class="st5" d="M497.8,1241.7c-0.2-0.2-0.3-0.5-0.3-0.8s0.1-0.6,0.3-0.8c0.2-0.2,0.5-0.3,0.8-0.3s0.5,0.1,0.8,0.3
			c0.2,0.2,0.3,0.5,0.3,0.8s-0.1,0.6-0.3,0.8c-0.2,0.2-0.5,0.3-0.8,0.3C498.3,1242.1,498,1241.9,497.8,1241.7z"/>
		<path class="st5" d="M505.8,1241c-1.1-0.8-1.9-1.8-2.5-3.2c-0.6-1.4-0.9-3-0.9-4.9s0.3-3.5,0.9-4.9s1.4-2.5,2.5-3.2
			c1.1-0.8,2.3-1.1,3.7-1.1c1.4,0,2.6,0.4,3.7,1.1c1.1,0.8,1.9,1.8,2.5,3.2c0.6,1.4,0.9,3,0.9,4.9s-0.3,3.5-0.9,4.9
			c-0.6,1.4-1.4,2.5-2.5,3.2s-2.3,1.1-3.7,1.1C508.1,1242.1,506.8,1241.7,505.8,1241z M512.5,1239.9c0.9-0.6,1.6-1.6,2-2.8
			c0.5-1.2,0.7-2.6,0.7-4.3s-0.2-3.1-0.7-4.3c-0.5-1.2-1.2-2.1-2-2.8c-0.9-0.6-1.9-0.9-3-0.9s-2.2,0.3-3,0.9c-0.9,0.6-1.6,1.6-2,2.8
			c-0.5,1.2-0.7,2.6-0.7,4.3s0.2,3.1,0.7,4.3c0.5,1.2,1.2,2.1,2,2.8c0.9,0.6,1.9,0.9,3,0.9S511.6,1240.5,512.5,1239.9z"/>
		<path class="st5" d="M530.4,1226c1.3,1.6,1.9,3.8,1.9,6.7c0,2-0.3,3.7-1,5.1s-1.6,2.4-2.8,3.2s-2.6,1.1-4.3,1.1s-3.1-0.3-4.1-0.9
			l0.5-1.1c0.9,0.6,2.1,0.8,3.6,0.8c2.1,0,3.7-0.7,5-2c1.2-1.4,1.8-3.3,1.8-5.9c0-0.8-0.1-1.5-0.2-2.2c-0.4,1.2-1.1,2.1-2.1,2.8
			c-1,0.7-2.3,1-3.7,1c-1.2,0-2.3-0.2-3.2-0.7c-0.9-0.4-1.6-1.1-2.1-1.9s-0.8-1.8-0.8-2.8c0-1.1,0.3-2.1,0.8-2.9s1.2-1.5,2.2-1.9
			c0.9-0.5,2-0.7,3.1-0.7C527.3,1223.6,529.1,1224.4,530.4,1226z M527.8,1232.8c0.8-0.4,1.4-0.9,1.8-1.6c0.4-0.7,0.6-1.4,0.6-2.2
			c0-0.7-0.2-1.4-0.6-2.1c-0.4-0.7-1-1.2-1.8-1.6s-1.7-0.6-2.8-0.6c-1.4,0-2.6,0.4-3.5,1.2c-0.9,0.8-1.3,1.8-1.3,3.1
			c0,1.3,0.4,2.3,1.3,3.1c0.9,0.8,2.1,1.2,3.6,1.2C526.1,1233.4,527,1233.2,527.8,1232.8z"/>
	</g>
	<g>
		<path class="st5" d="M166.9,1283.6v1.2h-12.5v-0.9l7.7-7.6c1-1,1.7-1.9,2-2.6c0.4-0.7,0.5-1.5,0.5-2.2c0-1.2-0.4-2.1-1.2-2.7
			c-0.8-0.7-1.9-1-3.4-1c-1.1,0-2.1,0.2-3,0.5s-1.6,0.9-2.2,1.6l-0.9-0.8c0.7-0.8,1.6-1.4,2.6-1.8c1.1-0.4,2.3-0.6,3.6-0.6
			c1.8,0,3.2,0.4,4.3,1.3s1.6,2,1.6,3.5c0,0.9-0.2,1.8-0.6,2.7c-0.4,0.8-1.2,1.8-2.3,3l-6.7,6.7h10.5L166.9,1283.6L166.9,1283.6z"/>
		<path class="st5" d="M179.6,1275.6c1.2,0.9,1.8,2.2,1.8,3.9c0,1-0.2,2-0.7,2.8s-1.2,1.4-2.1,1.9c-1,0.5-2.1,0.7-3.5,0.7
			c-1.3,0-2.6-0.2-3.7-0.7c-1.2-0.5-2.1-1-2.7-1.8l0.7-1c0.6,0.7,1.4,1.2,2.4,1.6s2.1,0.6,3.3,0.6c1.6,0,2.9-0.4,3.8-1.1
			c0.9-0.7,1.3-1.7,1.3-3c0-1.4-0.5-2.4-1.5-3.1s-2.7-1.1-5-1.1H170l1-8.8h9.6v1.2h-8.5l-0.7,6.4h2.6
			C176.5,1274.2,178.4,1274.7,179.6,1275.6z"/>
		<path class="st5" d="M184.3,1284.6c-0.2-0.2-0.3-0.5-0.3-0.8s0.1-0.6,0.3-0.8c0.2-0.2,0.5-0.3,0.8-0.3s0.5,0.1,0.8,0.3
			c0.2,0.2,0.3,0.5,0.3,0.8s-0.1,0.6-0.3,0.8c-0.2,0.2-0.5,0.3-0.8,0.3C184.7,1284.9,184.5,1284.8,184.3,1284.6z"/>
		<path class="st5" d="M192.2,1283.8c-1.1-0.8-1.9-1.8-2.5-3.2c-0.6-1.4-0.9-3-0.9-4.9s0.3-3.5,0.9-4.9c0.6-1.4,1.4-2.5,2.5-3.2
			c1.1-0.8,2.3-1.1,3.7-1.1s2.6,0.4,3.7,1.1s1.9,1.8,2.5,3.2c0.6,1.4,0.9,3,0.9,4.9s-0.3,3.5-0.9,4.9c-0.6,1.4-1.4,2.5-2.5,3.2
			s-2.3,1.1-3.7,1.1S193.3,1284.5,192.2,1283.8z M198.9,1282.7c0.9-0.6,1.6-1.6,2-2.8c0.5-1.2,0.7-2.6,0.7-4.3s-0.2-3.1-0.7-4.3
			c-0.5-1.2-1.2-2.1-2-2.8c-0.9-0.6-1.9-0.9-3-0.9s-2.2,0.3-3,0.9c-0.9,0.6-1.6,1.6-2,2.8c-0.5,1.2-0.7,2.6-0.7,4.3s0.2,3.1,0.7,4.3
			c0.5,1.2,1.2,2.1,2,2.8c0.9,0.6,1.9,0.9,3,0.9S198.1,1283.4,198.9,1282.7z"/>
		<path class="st5" d="M216.8,1268.9c1.3,1.6,1.9,3.8,1.9,6.7c0,2-0.3,3.7-1,5.1s-1.6,2.4-2.8,3.2c-1.2,0.7-2.6,1.1-4.3,1.1
			s-3.1-0.3-4.1-0.9l0.5-1.1c0.9,0.6,2.1,0.8,3.6,0.8c2.1,0,3.7-0.7,5-2s1.8-3.3,1.8-5.9c0-0.8-0.1-1.5-0.2-2.2
			c-0.4,1.2-1.1,2.1-2.1,2.8c-1,0.7-2.3,1-3.7,1c-1.2,0-2.3-0.2-3.2-0.7c-0.9-0.4-1.6-1.1-2.1-1.9s-0.8-1.8-0.8-2.8
			c0-1.1,0.3-2.1,0.8-2.9s1.2-1.5,2.2-1.9c0.9-0.5,2-0.7,3.1-0.7C213.7,1266.4,215.5,1267.2,216.8,1268.9z M214.2,1275.6
			c0.8-0.4,1.4-0.9,1.8-1.6c0.4-0.7,0.6-1.4,0.6-2.2c0-0.7-0.2-1.4-0.6-2.1c-0.4-0.7-1-1.2-1.8-1.6s-1.7-0.6-2.8-0.6
			c-1.4,0-2.6,0.4-3.5,1.2c-0.9,0.8-1.3,1.8-1.3,3.1s0.4,2.3,1.3,3.1c0.9,0.8,2.1,1.2,3.6,1.2C212.6,1276.2,213.4,1276,214.2,1275.6
			z"/>
		<path class="st3" d="M231.5,1284c-1-0.6-1.8-1.4-2.4-2.5c-0.6-1-0.9-2.2-0.9-3.5s0.3-2.5,0.9-3.5c0.6-1,1.4-1.9,2.4-2.5
			s2.2-0.9,3.5-0.9s2.4,0.3,3.5,0.9s1.8,1.4,2.4,2.5c0.6,1,0.9,2.2,0.9,3.5s-0.3,2.5-0.9,3.5c-0.6,1-1.4,1.9-2.4,2.5
			s-2.2,0.9-3.5,0.9S232.6,1284.6,231.5,1284z M237.8,1283c0.8-0.5,1.5-1.2,1.9-2c0.5-0.9,0.7-1.9,0.7-3s-0.2-2.1-0.7-3
			s-1.1-1.5-1.9-2c-0.8-0.5-1.8-0.7-2.8-0.7s-2,0.2-2.8,0.7s-1.5,1.2-1.9,2c-0.5,0.9-0.7,1.9-0.7,3s0.2,2.1,0.7,3s1.1,1.5,1.9,2
			s1.8,0.7,2.8,0.7S237,1283.5,237.8,1283z"/>
		<path class="st3" d="M259.7,1283c-1.4,1.2-3.3,1.9-5.9,1.9v4.9h-1.3v-4.9c-2.5-0.1-4.5-0.7-5.9-1.9c-1.4-1.2-2.1-2.9-2.1-5
			s0.7-3.7,2.1-4.9c1.4-1.2,3.3-1.8,5.9-1.9v-5.6h1.3v5.6c2.5,0.1,4.5,0.7,5.9,1.9c1.4,1.2,2.1,2.8,2.1,4.9
			C261.8,1280.1,261.1,1281.8,259.7,1283z M247.6,1282.1c1.1,1,2.8,1.6,4.9,1.6v-11.5c-2.1,0.1-3.8,0.6-4.9,1.6
			c-1.1,1-1.7,2.3-1.7,4.1C245.9,1279.7,246.5,1281.1,247.6,1282.1z M258.8,1282.1c1.2-1,1.7-2.4,1.7-4.1s-0.6-3.1-1.7-4.1
			c-1.2-1-2.8-1.5-5-1.6v11.5C256,1283.7,257.6,1283.1,258.8,1282.1z"/>
		<path class="st3" d="M279.7,1283c-1.4,1.2-3.3,1.9-5.9,1.9v4.9h-1.3v-4.9c-2.5-0.1-4.5-0.7-5.9-1.9c-1.4-1.2-2.1-2.9-2.1-5
			s0.7-3.7,2.1-4.9c1.4-1.2,3.3-1.8,5.9-1.9v-5.6h1.3v5.6c2.5,0.1,4.5,0.7,5.9,1.9c1.4,1.2,2.1,2.8,2.1,4.9
			C281.8,1280.1,281.1,1281.8,279.7,1283z M267.6,1282.1c1.1,1,2.8,1.6,4.9,1.6v-11.5c-2.1,0.1-3.8,0.6-4.9,1.6s-1.7,2.3-1.7,4.1
			C265.9,1279.7,266.4,1281.1,267.6,1282.1z M278.8,1282.1c1.2-1,1.7-2.4,1.7-4.1s-0.6-3.1-1.7-4.1c-1.2-1-2.8-1.5-5-1.6v11.5
			C276,1283.7,277.6,1283.1,278.8,1282.1z"/>
		<path class="st3" d="M296.5,1271.2v13.6h-1.3v-12.4h-7.1l-0.2,3.6c-0.1,1.9-0.3,3.4-0.5,4.7s-0.6,2.3-1.1,3.1
			c-0.5,0.8-1.2,1.2-2.1,1.2c-0.3,0-0.6-0.1-1.1-0.2l0.1-1.1c0.3,0.1,0.5,0.1,0.6,0.1c0.7,0,1.3-0.4,1.7-1.1
			c0.4-0.7,0.6-1.6,0.8-2.7c0.1-1.1,0.3-2.4,0.3-4.1l0.2-4.7H296.5z"/>
		<path class="st3" d="M310.5,1272.4c0.9,0.9,1.4,2.1,1.4,3.8v8.6h-1.2v-2.4c-0.4,0.8-1.1,1.4-1.9,1.9c-0.8,0.4-1.8,0.7-3,0.7
			c-1.5,0-2.7-0.4-3.6-1.1s-1.3-1.6-1.3-2.8c0-1.1,0.4-2,1.2-2.7c0.8-0.7,2.1-1.1,3.9-1.1h4.7v-1.1c0-1.3-0.3-2.2-1-2.9
			c-0.7-0.7-1.7-1-3-1c-0.9,0-1.8,0.2-2.6,0.5c-0.8,0.3-1.5,0.7-2.1,1.2l-0.6-0.9c0.7-0.6,1.5-1.1,2.4-1.4c1-0.3,2-0.5,3-0.5
			C308.3,1271.1,309.6,1271.5,310.5,1272.4z M308.8,1283c0.8-0.5,1.4-1.3,1.8-2.3v-2.5H306c-1.3,0-2.3,0.2-2.9,0.7s-0.9,1.2-0.9,2
			c0,0.9,0.3,1.6,1,2.1s1.6,0.8,2.8,0.8C307,1283.8,308,1283.6,308.8,1283z"/>
		<path class="st3" d="M317.1,1271.2h1.3v11.6l9.7-11.6h1.1v13.6H328v-11.6l-9.7,11.6h-1.1L317.1,1271.2L317.1,1271.2z
			 M320.5,1268.3c-0.7-0.6-1-1.3-1-2.4h1c0,0.7,0.3,1.3,0.8,1.7s1.2,0.6,1.9,0.6c0.8,0,1.4-0.2,1.9-0.6s0.8-1,0.8-1.7h1
			c0,1-0.4,1.8-1,2.4c-0.7,0.6-1.6,0.8-2.7,0.8S321.2,1268.8,320.5,1268.3z"/>
		<path class="st3" d="M334.9,1271.2h1.3v6.2h9.2v-6.2h1.3v13.6h-1.3v-6.2h-9.2v6.2h-1.3V1271.2z"/>
		<path class="st3" d="M359.9,1284.3c-0.5-2.1-0.8-4.3-0.8-6.7c0-2.4,0.3-4.6,0.8-6.7s1.2-3.9,2.2-5.4h1.2c-2,3.3-2.9,7.4-2.9,12.2
			s1,8.8,2.9,12.2H362C361.1,1288.2,360.4,1286.4,359.9,1284.3z"/>
		<path class="st3" d="M369.2,1284c-1-0.6-1.8-1.4-2.4-2.5c-0.6-1-0.9-2.2-0.9-3.5s0.3-2.5,0.9-3.5s1.4-1.9,2.4-2.5s2.2-0.9,3.5-0.9
			s2.4,0.3,3.5,0.9s1.8,1.4,2.4,2.5c0.6,1,0.9,2.2,0.9,3.5s-0.3,2.5-0.9,3.5s-1.4,1.9-2.4,2.5s-2.2,0.9-3.5,0.9
			S370.3,1284.6,369.2,1284z M375.5,1283c0.8-0.5,1.5-1.2,1.9-2c0.5-0.9,0.7-1.9,0.7-3s-0.2-2.1-0.7-3s-1.1-1.5-1.9-2
			s-1.8-0.7-2.8-0.7s-2,0.2-2.8,0.7s-1.5,1.2-1.9,2c-0.5,0.9-0.7,1.9-0.7,3s0.2,2.1,0.7,3s1.1,1.5,1.9,2s1.8,0.7,2.8,0.7
			S374.7,1283.5,375.5,1283z"/>
		<path class="st3" d="M383.7,1271.2h1.3v6.2h9.2v-6.2h1.3v13.6h-1.3v-6.2H385v6.2h-1.3V1271.2z"/>
		<path class="st3" d="M411.8,1271.2v13.6h-1.3v-12.4h-7.1l-0.2,3.6c-0.1,1.9-0.3,3.4-0.5,4.7s-0.6,2.3-1.1,3.1
			c-0.5,0.8-1.2,1.2-2.1,1.2c-0.3,0-0.6-0.1-1.1-0.2l0.1-1.1c0.3,0.1,0.5,0.1,0.6,0.1c0.7,0,1.3-0.4,1.7-1.1
			c0.4-0.7,0.6-1.6,0.8-2.7c0.1-1.1,0.3-2.4,0.3-4.1l0.2-4.7H411.8z"/>
		<path class="st3" d="M425.7,1272.4c0.9,0.9,1.4,2.1,1.4,3.8v8.6h-1.2v-2.4c-0.4,0.8-1.1,1.4-1.9,1.9c-0.8,0.4-1.8,0.7-3,0.7
			c-1.5,0-2.7-0.4-3.6-1.1s-1.3-1.6-1.3-2.8c0-1.1,0.4-2,1.2-2.7c0.8-0.7,2.1-1.1,3.9-1.1h4.7v-1.1c0-1.3-0.3-2.2-1-2.9
			c-0.7-0.7-1.7-1-3-1c-0.9,0-1.8,0.2-2.6,0.5c-0.8,0.3-1.5,0.7-2.1,1.2l-0.6-0.9c0.7-0.6,1.5-1.1,2.4-1.4c1-0.3,2-0.5,3-0.5
			C423.6,1271.1,424.8,1271.5,425.7,1272.4z M424,1283c0.8-0.5,1.4-1.3,1.8-2.3v-2.5h-4.6c-1.3,0-2.3,0.2-2.9,0.7s-0.9,1.2-0.9,2
			c0,0.9,0.3,1.6,1,2.1s1.6,0.8,2.8,0.8C422.3,1283.8,423.2,1283.6,424,1283z"/>
		<path class="st3" d="M432.4,1271.2h1.3v11.6l9.7-11.6h1.1v13.6h-1.3v-11.6l-9.7,11.6h-1.1V1271.2z M435.7,1268.3
			c-0.7-0.6-1-1.3-1-2.4h1c0,0.7,0.3,1.3,0.8,1.7s1.2,0.6,1.9,0.6c0.8,0,1.4-0.2,1.9-0.6s0.8-1,0.8-1.7h1c0,1-0.4,1.8-1,2.4
			c-0.7,0.6-1.6,0.8-2.7,0.8S436.4,1268.8,435.7,1268.3z"/>
		<path class="st3" d="M450.1,1271.2h1.3v6.2h9.2v-6.2h1.3v13.6h-1.3v-6.2h-9.2v6.2h-1.3V1271.2z"/>
		<path class="st3" d="M466,1289.8c1-1.7,1.7-3.6,2.2-5.6s0.7-4.2,0.7-6.6s-0.2-4.6-0.7-6.6s-1.2-3.9-2.2-5.6h1.2
			c1,1.5,1.7,3.4,2.2,5.4c0.5,2.1,0.8,4.3,0.8,6.7c0,2.4-0.3,4.6-0.8,6.7s-1.3,3.9-2.2,5.5L466,1289.8L466,1289.8z"/>
		<path class="st3" d="M154.8,1310c0.5,0.6,0.8,1.3,0.8,2.1c0,0.8-0.3,1.5-0.8,2.1s-1.2,1.1-2.1,1.4c-0.9,0.3-1.9,0.5-2.9,0.5
			s-1.9-0.2-2.8-0.5c-0.9-0.3-1.7-0.7-2.4-1.3l0.5-1c0.6,0.5,1.3,0.9,2.2,1.2c0.8,0.3,1.7,0.4,2.6,0.4c1.3,0,2.4-0.3,3.3-0.8
			c0.9-0.5,1.3-1.3,1.3-2.2c0-0.8-0.4-1.4-1.1-1.9c-0.7-0.5-1.7-0.7-3-0.7H148v-1h2.1c1.1,0,2-0.2,2.7-0.7c0.7-0.4,1.1-1,1.1-1.7
			c0-0.8-0.4-1.5-1.2-2s-1.8-0.7-3-0.7c-1.5,0-3,0.4-4.3,1.2l-0.4-1c1.5-0.8,3.1-1.3,4.9-1.3c1.5,0,2.8,0.3,3.8,1
			c1,0.6,1.5,1.5,1.5,2.6c0,0.7-0.3,1.3-0.8,1.9c-0.5,0.5-1.2,0.9-2,1.2C153.5,1309.1,154.3,1309.5,154.8,1310z"/>
		<path class="st3" d="M168.5,1303.6c0.9,0.9,1.4,2.1,1.4,3.8v8.6h-1.2v-2.4c-0.4,0.8-1.1,1.4-1.9,1.9c-0.8,0.4-1.8,0.7-3,0.7
			c-1.5,0-2.7-0.4-3.6-1.1s-1.3-1.6-1.3-2.8c0-1.1,0.4-2,1.2-2.7s2.1-1.1,3.9-1.1h4.7v-1.1c0-1.3-0.3-2.2-1-2.9c-0.7-0.7-1.7-1-3-1
			c-0.9,0-1.8,0.2-2.6,0.5s-1.5,0.7-2.1,1.2l-0.6-0.9c0.7-0.6,1.5-1.1,2.4-1.4c1-0.3,2-0.5,3-0.5
			C166.3,1302.3,167.6,1302.7,168.5,1303.6z M166.8,1314.2c0.8-0.5,1.4-1.3,1.8-2.3v-2.5H164c-1.3,0-2.3,0.2-2.9,0.7s-0.9,1.2-0.9,2
			c0,0.9,0.3,1.6,1,2.1s1.6,0.8,2.8,0.8C165.1,1315,166,1314.8,166.8,1314.2z"/>
		<path class="st3" d="M193.4,1302.4v13.6h-18.3v-13.6h1.3v12.4h7.2v-12.4h1.3v12.4h7.1v-12.4H193.4z M195.5,1314.8v4.2h-1.2v-3.1
			H192v-1.1H195.5z"/>
		<path class="st3" d="M199,1302.4h1.3v11.6l9.7-11.6h1.1v13.6h-1.3v-11.6l-9.7,11.6H199V1302.4z"/>
		<path class="st3" d="M225.8,1303.6h-5.3v12.4h-1.3v-12.4h-5.3v-1.2h11.9L225.8,1303.6L225.8,1303.6z"/>
		<path class="st3" d="M237,1303.6c0.9,0.9,1.4,2.1,1.4,3.8v8.6h-1.2v-2.4c-0.4,0.8-1.1,1.4-1.9,1.9c-0.8,0.4-1.8,0.7-3,0.7
			c-1.5,0-2.7-0.4-3.6-1.1s-1.3-1.6-1.3-2.8c0-1.1,0.4-2,1.2-2.7s2.1-1.1,3.9-1.1h4.7v-1.1c0-1.3-0.3-2.2-1-2.9c-0.7-0.7-1.7-1-3-1
			c-0.9,0-1.8,0.2-2.6,0.5s-1.5,0.7-2.1,1.2l-0.6-0.9c0.7-0.6,1.5-1.1,2.4-1.4c1-0.3,2-0.5,3-0.5
			C234.8,1302.3,236.1,1302.7,237,1303.6z M235.3,1314.2c0.8-0.5,1.4-1.3,1.8-2.3v-2.5h-4.6c-1.3,0-2.3,0.2-2.9,0.7s-0.9,1.2-0.9,2
			c0,0.9,0.3,1.6,1,2.1s1.6,0.8,2.8,0.8C233.5,1315,234.5,1314.8,235.3,1314.2z"/>
		<path class="st3" d="M260.6,1303.2c1,0.6,1.8,1.4,2.4,2.4s0.9,2.2,0.9,3.6s-0.3,2.5-0.9,3.6c-0.6,1-1.4,1.9-2.4,2.4
			c-1,0.6-2.2,0.9-3.4,0.9c-1.2,0-2.3-0.3-3.3-0.8s-1.7-1.3-2.3-2.4v8.1h-1.3v-18.6h1.2v3.2c0.5-1,1.3-1.9,2.3-2.4
			c1-0.6,2.1-0.9,3.3-0.9C258.4,1302.3,259.5,1302.6,260.6,1303.2z M259.9,1314.2c0.8-0.5,1.5-1.2,2-2c0.5-0.9,0.7-1.9,0.7-3
			s-0.2-2.1-0.7-3s-1.1-1.5-2-2s-1.8-0.7-2.8-0.7s-2,0.2-2.8,0.7s-1.5,1.2-1.9,2c-0.5,0.9-0.7,1.9-0.7,3s0.2,2.1,0.7,3
			s1.1,1.5,1.9,2s1.8,0.7,2.8,0.7S259,1314.7,259.9,1314.2z"/>
		<path class="st3" d="M279.7,1309.5H268c0,1.1,0.3,2,0.8,2.8s1.2,1.5,2,1.9c0.9,0.5,1.8,0.7,2.9,0.7c0.9,0,1.7-0.2,2.5-0.5
			s1.4-0.8,1.9-1.4l0.8,0.9c-0.6,0.7-1.3,1.3-2.2,1.6c-0.9,0.4-1.9,0.6-2.9,0.6c-1.4,0-2.6-0.3-3.6-0.9c-1.1-0.6-1.9-1.4-2.5-2.4
			s-0.9-2.2-0.9-3.6c0-1.3,0.3-2.5,0.8-3.5c0.6-1,1.3-1.9,2.3-2.5s2.1-0.9,3.3-0.9c1.2,0,2.3,0.3,3.3,0.9s1.8,1.4,2.3,2.4
			c0.6,1,0.8,2.2,0.8,3.5L279.7,1309.5z M270.6,1304.1c-0.8,0.4-1.4,1-1.8,1.8c-0.5,0.8-0.7,1.6-0.8,2.6h10.4
			c-0.1-1-0.3-1.8-0.8-2.6c-0.5-0.8-1.1-1.4-1.8-1.8c-0.8-0.4-1.6-0.7-2.6-0.7C272.3,1303.4,271.4,1303.7,270.6,1304.1z"/>
		<path class="st3" d="M302.2,1302.4v13.6h-18.3v-13.6h1.3v12.4h7.2v-12.4h1.3v12.4h7.1v-12.4H302.2z"/>
		<path class="st3" d="M319.4,1309.5h-11.7c0,1.1,0.3,2,0.8,2.8s1.2,1.5,2,1.9c0.9,0.5,1.8,0.7,2.9,0.7c0.9,0,1.7-0.2,2.5-0.5
			s1.4-0.8,1.9-1.4l0.8,0.9c-0.6,0.7-1.3,1.3-2.2,1.6c-0.9,0.4-1.9,0.6-2.9,0.6c-1.4,0-2.6-0.3-3.6-0.9c-1.1-0.6-1.9-1.4-2.5-2.4
			s-0.9-2.2-0.9-3.6c0-1.3,0.3-2.5,0.8-3.5c0.6-1,1.3-1.9,2.3-2.5s2.1-0.9,3.3-0.9c1.2,0,2.3,0.3,3.3,0.9s1.8,1.4,2.3,2.4
			c0.6,1,0.8,2.2,0.8,3.5L319.4,1309.5z M310.3,1304.1c-0.8,0.4-1.4,1-1.8,1.8c-0.5,0.8-0.7,1.6-0.8,2.6h10.4
			c-0.1-1-0.3-1.8-0.8-2.6c-0.5-0.8-1.1-1.4-1.8-1.8c-0.8-0.4-1.6-0.7-2.6-0.7C312,1303.4,311.1,1303.7,310.3,1304.1z"/>
		<path class="st3" d="M323.6,1302.4h1.3v6.2h9.2v-6.2h1.3v13.6h-1.3v-6.2h-9.2v6.2h-1.3V1302.4z"/>
		<path class="st3" d="M341,1302.4h1.3v11.6l9.7-11.6h1.1v13.6h-1.3v-11.6l-9.7,11.6H341V1302.4z"/>
		<path class="st3" d="M358.8,1302.4h1.3v11.6l9.7-11.6h1.1v13.6h-1.3v-11.6l-9.7,11.6h-1.1V1302.4z M362.1,1299.5
			c-0.7-0.6-1-1.3-1-2.4h1c0,0.7,0.3,1.3,0.8,1.7s1.2,0.6,1.9,0.6c0.8,0,1.4-0.2,1.9-0.6s0.8-1,0.8-1.7h1c0,1-0.4,1.8-1,2.4
			c-0.7,0.6-1.6,0.8-2.7,0.8S362.8,1300,362.1,1299.5z"/>
		<path class="st3" d="M383.2,1302.4h1.3v11.6l9.7-11.6h1.1v13.6H394v-11.6l-9.7,11.6h-1.1L383.2,1302.4L383.2,1302.4z"/>
		<path class="st3" d="M407.6,1302.4h1.3v6.2h9.2v-6.2h1.3v13.6h-1.3v-6.2h-9.2v6.2h-1.3V1302.4z"/>
		<path class="st3" d="M433.4,1303.6c0.9,0.9,1.4,2.1,1.4,3.8v8.6h-1.2v-2.4c-0.4,0.8-1.1,1.4-1.9,1.9c-0.8,0.4-1.8,0.7-3,0.7
			c-1.5,0-2.7-0.4-3.6-1.1s-1.3-1.6-1.3-2.8c0-1.1,0.4-2,1.2-2.7c0.8-0.7,2.1-1.1,3.9-1.1h4.7v-1.1c0-1.3-0.3-2.2-1-2.9
			c-0.7-0.7-1.7-1-3-1c-0.9,0-1.8,0.2-2.6,0.5c-0.8,0.3-1.5,0.7-2.1,1.2l-0.6-0.9c0.7-0.6,1.5-1.1,2.4-1.4c1-0.3,2-0.5,3-0.5
			C431.2,1302.3,432.5,1302.7,433.4,1303.6z M431.7,1314.2c0.8-0.5,1.4-1.3,1.8-2.3v-2.5h-4.6c-1.3,0-2.3,0.2-2.9,0.7
			s-0.9,1.2-0.9,2c0,0.9,0.3,1.6,1,2.1s1.6,0.8,2.8,0.8C429.9,1315,430.9,1314.8,431.7,1314.2z"/>
		<path class="st3" d="M449.3,1303.6h-8v12.4H440v-13.6h9.3V1303.6z"/>
		<path class="st3" d="M462.4,1303.2c1,0.6,1.8,1.4,2.4,2.4s0.9,2.2,0.9,3.6s-0.3,2.5-0.9,3.6c-0.6,1-1.4,1.9-2.4,2.4
			c-1,0.6-2.2,0.9-3.4,0.9c-1.2,0-2.3-0.3-3.3-0.8s-1.7-1.3-2.3-2.4v8.1h-1.3v-18.6h1.2v3.2c0.5-1,1.3-1.9,2.3-2.4
			c1-0.6,2.1-0.9,3.3-0.9C460.2,1302.3,461.3,1302.6,462.4,1303.2z M461.7,1314.2c0.8-0.5,1.5-1.2,2-2c0.5-0.9,0.7-1.9,0.7-3
			s-0.2-2.1-0.7-3s-1.1-1.5-2-2s-1.8-0.7-2.8-0.7s-2,0.2-2.8,0.7s-1.5,1.2-1.9,2c-0.5,0.9-0.7,1.9-0.7,3s0.2,2.1,0.7,3
			s1.1,1.5,1.9,2s1.8,0.7,2.8,0.7S460.8,1314.7,461.7,1314.2z"/>
		<path class="st3" d="M478.2,1303.6c0.9,0.9,1.4,2.1,1.4,3.8v8.6h-1.2v-2.4c-0.4,0.8-1.1,1.4-1.9,1.9c-0.8,0.4-1.8,0.7-3,0.7
			c-1.5,0-2.7-0.4-3.6-1.1s-1.3-1.6-1.3-2.8c0-1.1,0.4-2,1.2-2.7c0.8-0.7,2.1-1.1,3.9-1.1h4.7v-1.1c0-1.3-0.3-2.2-1-2.9
			c-0.7-0.7-1.7-1-3-1c-0.9,0-1.8,0.2-2.6,0.5c-0.8,0.3-1.5,0.7-2.1,1.2l-0.6-0.9c0.7-0.6,1.5-1.1,2.4-1.4c1-0.3,2-0.5,3-0.5
			C476,1302.3,477.3,1302.7,478.2,1303.6z M476.5,1314.2c0.8-0.5,1.4-1.3,1.8-2.3v-2.5h-4.6c-1.3,0-2.3,0.2-2.9,0.7s-0.9,1.2-0.9,2
			c0,0.9,0.3,1.6,1,2.1s1.6,0.8,2.8,0.8C474.7,1315,475.7,1314.8,476.5,1314.2z"/>
		<path class="st3" d="M496.3,1309.7h-3.2v6.3h-1.3v-6.3h-3.2l-4.5,6.3h-1.6l5.1-7l-4.7-6.6h1.4l4.3,6.2h3.2v-6.2h1.3v6.2h3.2
			l4.3-6.2h1.4l-4.7,6.6l5,7h-1.6L496.3,1309.7z"/>
		<path class="st3" d="M518.6,1314.8v4.5h-1.2v-3.4h-12.8v3.4h-1.2v-4.5h0.8c0.9-0.1,1.5-0.8,1.9-2.1c0.3-1.4,0.6-3.3,0.7-5.8
			l0.2-4.5h9.5v12.4H518.6z M507.3,1312.1c-0.3,1.4-0.7,2.3-1.4,2.7h9.2v-11.3H508l-0.2,3.4C507.8,1309,507.6,1310.7,507.3,1312.1z"
			/>
		<path class="st3" d="M534,1309.5h-11.7c0,1.1,0.3,2,0.8,2.8s1.2,1.5,2,1.9c0.9,0.5,1.8,0.7,2.9,0.7c0.9,0,1.7-0.2,2.5-0.5
			s1.4-0.8,1.9-1.4l0.8,0.9c-0.6,0.7-1.3,1.3-2.2,1.6c-0.9,0.4-1.9,0.6-2.9,0.6c-1.4,0-2.6-0.3-3.6-0.9c-1.1-0.6-1.9-1.4-2.5-2.4
			s-0.9-2.2-0.9-3.6c0-1.3,0.3-2.5,0.8-3.5c0.6-1,1.3-1.9,2.3-2.5s2.1-0.9,3.3-0.9s2.3,0.3,3.3,0.9s1.8,1.4,2.3,2.4
			c0.6,1,0.8,2.2,0.8,3.5L534,1309.5z M525,1304.1c-0.8,0.4-1.4,1-1.8,1.8c-0.5,0.8-0.7,1.6-0.8,2.6h10.4c-0.1-1-0.3-1.8-0.8-2.6
			c-0.5-0.8-1.1-1.4-1.8-1.8c-0.8-0.4-1.6-0.7-2.6-0.7C526.6,1303.4,525.7,1303.7,525,1304.1z"/>
		<path class="st3" d="M538.3,1302.4h1.3v6.2h9.2v-6.2h1.3v13.6h-1.3v-6.2h-9.2v6.2h-1.3V1302.4z"/>
		<path class="st3" d="M555.7,1302.4h1.3v11.6l9.7-11.6h1.1v13.6h-1.3v-11.6l-9.7,11.6h-1.1V1302.4z"/>
		<path class="st3" d="M585,1309.5h-11.7c0,1.1,0.3,2,0.8,2.8s1.2,1.5,2,1.9c0.9,0.5,1.8,0.7,2.9,0.7c0.9,0,1.7-0.2,2.5-0.5
			s1.4-0.8,1.9-1.4l0.8,0.9c-0.6,0.7-1.3,1.3-2.2,1.6c-0.9,0.4-1.9,0.6-2.9,0.6c-1.4,0-2.6-0.3-3.6-0.9c-1.1-0.6-1.9-1.4-2.5-2.4
			s-0.9-2.2-0.9-3.6c0-1.3,0.3-2.5,0.8-3.5c0.6-1,1.3-1.9,2.3-2.5s2.1-0.9,3.3-0.9s2.3,0.3,3.3,0.9s1.8,1.4,2.3,2.4
			c0.6,1,0.8,2.2,0.8,3.5L585,1309.5z M576,1304.1c-0.8,0.4-1.4,1-1.8,1.8c-0.5,0.8-0.7,1.6-0.8,2.6h10.4c-0.1-1-0.3-1.8-0.8-2.6
			c-0.5-0.8-1.1-1.4-1.8-1.8c-0.8-0.4-1.6-0.7-2.6-0.7C577.6,1303.4,576.7,1303.7,576,1304.1z"/>
		<path class="st3" d="M158.3,1333.6v13.6H157v-12.4h-9.3v12.4h-1.3v-13.6H158.3z"/>
		<path class="st3" d="M165.9,1346.4c-1-0.6-1.8-1.4-2.4-2.5c-0.6-1-0.9-2.2-0.9-3.5s0.3-2.5,0.9-3.5c0.6-1,1.4-1.9,2.4-2.5
			s2.2-0.9,3.5-0.9s2.4,0.3,3.5,0.9s1.8,1.4,2.4,2.5c0.6,1,0.9,2.2,0.9,3.5s-0.3,2.5-0.9,3.5c-0.6,1-1.4,1.9-2.4,2.5
			s-2.2,0.9-3.5,0.9S166.9,1347,165.9,1346.4z M172.2,1345.4c0.8-0.5,1.5-1.2,1.9-2c0.5-0.9,0.7-1.9,0.7-3s-0.2-2.1-0.7-3
			s-1.1-1.5-1.9-2c-0.8-0.5-1.8-0.7-2.8-0.7s-2,0.2-2.8,0.7s-1.5,1.2-1.9,2c-0.5,0.9-0.7,1.9-0.7,3s0.2,2.1,0.7,3s1.1,1.5,1.9,2
			s1.8,0.7,2.8,0.7S171.3,1345.9,172.2,1345.4z"/>
		<path class="st3" d="M190,1334.7c1,0.6,1.7,1.3,2.3,2.4c0.6,1,0.8,2.2,0.8,3.5s-0.3,2.5-0.8,3.5c-0.6,1-1.4,1.8-2.4,2.4
			s-2.2,0.9-3.5,0.9c-1.5,0-2.8-0.4-3.8-1.1s-1.8-1.8-2.4-3.1c-0.5-1.3-0.8-2.9-0.8-4.7c0-2,0.2-3.7,0.7-5s1.2-2.4,2.2-3.2
			c1-0.8,2.3-1.3,3.8-1.7l6-1.5l0.2,1.2l-5.7,1.4c-1.4,0.3-2.5,0.8-3.4,1.4s-1.5,1.5-2,2.6s-0.7,2.5-0.7,4.2c0.5-1.2,1.2-2.2,2.3-3
			c1.1-0.7,2.3-1.1,3.7-1.1C187.9,1333.8,189.1,1334.1,190,1334.7z M189.3,1345.5c0.8-0.5,1.4-1.2,1.9-2c0.5-0.9,0.7-1.8,0.7-2.9
			s-0.2-2.1-0.7-2.9s-1.1-1.5-1.9-1.9c-0.8-0.5-1.7-0.7-2.8-0.7s-2,0.2-2.8,0.7s-1.4,1.1-1.9,1.9s-0.7,1.8-0.7,2.9s0.2,2.1,0.7,2.9
			c0.5,0.9,1.1,1.5,1.9,2c0.8,0.5,1.7,0.7,2.8,0.7C187.5,1346.2,188.5,1345.9,189.3,1345.5z"/>
		<path class="st3" d="M209,1340.7h-11.7c0,1.1,0.3,2,0.8,2.8s1.2,1.5,2,1.9c0.9,0.5,1.8,0.7,2.9,0.7c0.9,0,1.7-0.2,2.5-0.5
			s1.4-0.8,1.9-1.4l0.8,0.9c-0.6,0.7-1.3,1.3-2.2,1.6c-0.9,0.4-1.9,0.6-2.9,0.6c-1.4,0-2.6-0.3-3.6-0.9c-1.1-0.6-1.9-1.4-2.5-2.4
			s-0.9-2.2-0.9-3.6c0-1.3,0.3-2.5,0.8-3.5c0.6-1,1.3-1.9,2.3-2.5s2.1-0.9,3.3-0.9s2.3,0.3,3.3,0.9s1.8,1.4,2.3,2.4
			c0.6,1,0.8,2.2,0.8,3.5L209,1340.7z M200,1335.3c-0.8,0.4-1.4,1-1.8,1.8c-0.5,0.8-0.7,1.6-0.8,2.6h10.4c-0.1-1-0.3-1.8-0.8-2.6
			c-0.5-0.8-1.1-1.4-1.8-1.8c-0.8-0.4-1.6-0.7-2.6-0.7C201.6,1334.6,200.8,1334.9,200,1335.3z"/>
		<path class="st3" d="M225.7,1346v4.5h-1.2v-3.4h-12.8v3.4h-1.2v-4.5h0.8c0.9-0.1,1.5-0.8,1.9-2.1c0.3-1.4,0.6-3.3,0.7-5.8l0.2-4.5
			h9.5v12.4H225.7z M214.5,1343.3c-0.3,1.4-0.7,2.3-1.4,2.7h9.2v-11.3h-7.1l-0.2,3.4C214.9,1340.2,214.7,1341.9,214.5,1343.3z"/>
		<path class="st3" d="M229.6,1333.6h1.3v11.6l9.7-11.6h1.1v13.6h-1.3v-11.6l-9.7,11.6h-1.1V1333.6z"/>
		<path class="st3" d="M256.4,1334.8h-5.3v12.4h-1.3v-12.4h-5.3v-1.2h11.9V1334.8z"/>
		<path class="st3" d="M270.1,1340.7h-11.7c0,1.1,0.3,2,0.8,2.8s1.2,1.5,2,1.9c0.9,0.5,1.8,0.7,2.9,0.7c0.9,0,1.7-0.2,2.5-0.5
			s1.4-0.8,1.9-1.4l0.8,0.9c-0.6,0.7-1.3,1.3-2.2,1.6c-0.9,0.4-1.9,0.6-2.9,0.6c-1.4,0-2.6-0.3-3.6-0.9c-1.1-0.6-1.9-1.4-2.5-2.4
			s-0.9-2.2-0.9-3.6c0-1.3,0.3-2.5,0.8-3.5c0.6-1,1.3-1.9,2.3-2.5s2.1-0.9,3.3-0.9c1.2,0,2.3,0.3,3.3,0.9s1.8,1.4,2.3,2.4
			c0.6,1,0.8,2.2,0.8,3.5L270.1,1340.7z M261.1,1335.3c-0.8,0.4-1.4,1-1.8,1.8c-0.5,0.8-0.7,1.6-0.8,2.6h10.4
			c-0.1-1-0.3-1.8-0.8-2.6c-0.5-0.8-1.1-1.4-1.8-1.8c-0.8-0.4-1.6-0.7-2.6-0.7C262.7,1334.6,261.8,1334.9,261.1,1335.3z"/>
		<path class="st3" d="M284.6,1333.6v13.6h-1.3v-12.4h-7.1l-0.2,3.6c-0.1,1.9-0.3,3.4-0.5,4.7s-0.6,2.3-1.1,3.1
			c-0.5,0.8-1.2,1.2-2.1,1.2c-0.3,0-0.6-0.1-1.1-0.2l0.1-1.1c0.3,0.1,0.5,0.1,0.6,0.1c0.7,0,1.3-0.4,1.7-1.1
			c0.4-0.7,0.6-1.6,0.8-2.7c0.1-1.1,0.3-2.4,0.3-4.1l0.2-4.7H284.6z"/>
		<path class="st3" d="M301.8,1340.7h-11.7c0,1.1,0.3,2,0.8,2.8s1.2,1.5,2,1.9c0.9,0.5,1.8,0.7,2.9,0.7c0.9,0,1.7-0.2,2.5-0.5
			s1.4-0.8,1.9-1.4l0.8,0.9c-0.6,0.7-1.3,1.3-2.2,1.6c-0.9,0.4-1.9,0.6-2.9,0.6c-1.4,0-2.6-0.3-3.6-0.9c-1.1-0.6-1.9-1.4-2.5-2.4
			s-0.9-2.2-0.9-3.6c0-1.3,0.3-2.5,0.8-3.5c0.6-1,1.3-1.9,2.3-2.5s2.1-0.9,3.3-0.9c1.2,0,2.3,0.3,3.3,0.9s1.8,1.4,2.3,2.4
			c0.6,1,0.8,2.2,0.8,3.5L301.8,1340.7z M292.8,1335.3c-0.8,0.4-1.4,1-1.8,1.8c-0.5,0.8-0.7,1.6-0.8,2.6h10.4
			c-0.1-1-0.3-1.8-0.8-2.6c-0.5-0.8-1.1-1.4-1.8-1.8c-0.8-0.4-1.6-0.7-2.6-0.7C294.4,1334.6,293.5,1334.9,292.8,1335.3z"/>
		<path class="st3" d="M306.1,1333.6h1.3v11.6l9.7-11.6h1.1v13.6h-1.3v-11.6l-9.7,11.6h-1.1V1333.6z M309.4,1330.7
			c-0.7-0.6-1-1.3-1-2.4h1c0,0.7,0.3,1.3,0.8,1.7s1.2,0.6,1.9,0.6c0.8,0,1.4-0.2,1.9-0.6s0.8-1,0.8-1.7h1c0,1-0.4,1.8-1,2.4
			c-0.7,0.6-1.6,0.8-2.7,0.8S310.1,1331.2,309.4,1330.7z"/>
	</g>
</g>
<circle class="st3" cx="184.3" cy="374.5" r="6.1"/>
<circle class="st3" cx="184.3" cy="447.2" r="6.1"/>
<g>
	<path class="st3" d="M290.8,1207.2c0,1.2-0.4,2.1-1.3,2.7s-2.1,0.9-3.9,0.9h-5.9v-13.6h5.7c1.5,0,2.7,0.3,3.5,0.9
		c0.9,0.6,1.3,1.5,1.3,2.6c0,0.8-0.2,1.5-0.7,2c-0.4,0.5-1.1,0.9-1.9,1.1C289.8,1204.2,290.8,1205.3,290.8,1207.2z M281.1,1203.5
		h4.4c1.2,0,2.1-0.2,2.7-0.7c0.6-0.4,0.9-1.1,0.9-1.9s-0.3-1.5-0.9-1.9s-1.5-0.6-2.7-0.6h-4.4V1203.5z M289.5,1207.2
		c0-0.9-0.3-1.6-0.9-2s-1.5-0.7-2.8-0.7H281v5.3h4.6C288.2,1209.8,289.5,1208.9,289.5,1207.2z"/>
	<path class="st3" d="M304.5,1198.5h-5.3v12.4h-1.3v-12.4h-5.3v-1.2h11.9L304.5,1198.5L304.5,1198.5z"/>
	<path class="st3" d="M308.6,1210.1c-1-0.6-1.8-1.4-2.4-2.5c-0.6-1-0.9-2.2-0.9-3.5s0.3-2.5,0.9-3.5s1.4-1.9,2.4-2.5
		s2.2-0.9,3.5-0.9s2.4,0.3,3.5,0.9c1,0.6,1.8,1.4,2.4,2.5c0.6,1,0.9,2.2,0.9,3.5s-0.3,2.5-0.9,3.5s-1.4,1.9-2.4,2.5
		s-2.2,0.9-3.5,0.9S309.7,1210.7,308.6,1210.1z M314.9,1209.1c0.8-0.5,1.5-1.2,1.9-2c0.5-0.9,0.7-1.9,0.7-3s-0.2-2.1-0.7-3
		s-1.1-1.5-1.9-2s-1.8-0.7-2.8-0.7s-2,0.2-2.8,0.7s-1.5,1.2-1.9,2c-0.5,0.9-0.7,1.9-0.7,3s0.2,2.1,0.7,3s1.1,1.5,1.9,2
		s1.8,0.7,2.8,0.7S314.1,1209.6,314.9,1209.1z"/>
	<path class="st3" d="M333.4,1198.1c1,0.6,1.8,1.4,2.4,2.4s0.9,2.2,0.9,3.6c0,1.3-0.3,2.5-0.9,3.6c-0.6,1-1.4,1.9-2.4,2.4
		c-1,0.6-2.2,0.9-3.4,0.9c-1.2,0-2.3-0.3-3.3-0.8c-1-0.6-1.7-1.3-2.3-2.4v8.1h-1.3v-18.6h1.2v3.2c0.5-1,1.3-1.8,2.3-2.4
		s2.1-0.9,3.3-0.9C331.2,1197.2,332.4,1197.5,333.4,1198.1z M332.7,1209.1c0.8-0.5,1.5-1.2,2-2c0.5-0.9,0.7-1.9,0.7-3
		s-0.2-2.1-0.7-3s-1.1-1.5-2-2c-0.8-0.5-1.8-0.7-2.8-0.7s-2,0.2-2.8,0.7s-1.5,1.2-1.9,2c-0.5,0.9-0.7,1.9-0.7,3s0.2,2.1,0.7,3
		s1.1,1.5,1.9,2s1.8,0.7,2.8,0.7S331.9,1209.6,332.7,1209.1z"/>
	<path class="st3" d="M342.9,1210.1c-1-0.6-1.8-1.4-2.4-2.5c-0.6-1-0.9-2.2-0.9-3.5s0.3-2.5,0.9-3.5s1.4-1.9,2.4-2.5
		s2.2-0.9,3.5-0.9s2.4,0.3,3.5,0.9c1,0.6,1.8,1.4,2.4,2.5c0.6,1,0.9,2.2,0.9,3.5s-0.3,2.5-0.9,3.5s-1.4,1.9-2.4,2.5
		s-2.2,0.9-3.5,0.9S343.9,1210.7,342.9,1210.1z M349.1,1209.1c0.8-0.5,1.5-1.2,1.9-2c0.5-0.9,0.7-1.9,0.7-3s-0.2-2.1-0.7-3
		s-1.1-1.5-1.9-2s-1.8-0.7-2.8-0.7s-2,0.2-2.8,0.7s-1.5,1.2-1.9,2c-0.5,0.9-0.7,1.9-0.7,3s0.2,2.1,0.7,3s1.1,1.5,1.9,2
		s1.8,0.7,2.8,0.7S348.3,1209.6,349.1,1209.1z"/>
	<path class="st3" d="M366.6,1198.5h-8v12.4h-1.3v-13.6h9.3V1198.5z"/>
	<path class="st3" d="M370.7,1210.1c-1-0.6-1.8-1.4-2.4-2.5c-0.6-1-0.9-2.2-0.9-3.5s0.3-2.5,0.9-3.5s1.4-1.9,2.4-2.5
		s2.2-0.9,3.5-0.9s2.4,0.3,3.5,0.9c1,0.6,1.8,1.4,2.4,2.5c0.6,1,0.9,2.2,0.9,3.5s-0.3,2.5-0.9,3.5s-1.4,1.9-2.4,2.5
		s-2.2,0.9-3.5,0.9S371.8,1210.7,370.7,1210.1z M377,1209.1c0.8-0.5,1.5-1.2,1.9-2c0.5-0.9,0.7-1.9,0.7-3s-0.2-2.1-0.7-3
		s-1.1-1.5-1.9-2s-1.8-0.7-2.8-0.7s-2,0.2-2.8,0.7s-1.5,1.2-1.9,2c-0.5,0.9-0.7,1.9-0.7,3s0.2,2.1,0.7,3s1.1,1.5,1.9,2
		s1.8,0.7,2.8,0.7S376.2,1209.6,377,1209.1z"/>
	<path class="st3" d="M399,1198.1c1.1,0.6,1.9,1.4,2.5,2.5s0.9,2.2,0.9,3.5s-0.3,2.5-0.9,3.5c-0.6,1.1-1.5,1.9-2.5,2.5
		c-1.1,0.6-2.3,0.9-3.6,0.9c-1.1,0-2.1-0.2-3-0.5s-1.7-0.8-2.3-1.5l0.8-0.8c1.2,1.1,2.7,1.6,4.6,1.6c1.1,0,2-0.2,2.9-0.7
		s1.6-1.1,2.1-1.9s0.8-1.7,0.9-2.8h-7.7v-1h7.6c-0.1-1-0.4-1.9-1-2.7c-0.5-0.8-1.2-1.4-2.1-1.8s-1.8-0.7-2.8-0.7
		c-1.8,0-3.4,0.5-4.6,1.6l-0.8-0.8c0.6-0.6,1.4-1.1,2.3-1.5c0.9-0.3,1.9-0.5,3-0.5C396.7,1197.2,397.9,1197.5,399,1198.1z"/>
	<path class="st3" d="M415.2,1198.5h-5.3v12.4h-1.3v-12.4h-5.3v-1.2h11.9L415.2,1198.5L415.2,1198.5z"/>
	<path class="st3" d="M426.4,1198.5c0.9,0.9,1.4,2.1,1.4,3.8v8.6h-1.2v-2.4c-0.4,0.8-1.1,1.4-1.9,1.9c-0.8,0.4-1.8,0.7-3,0.7
		c-1.5,0-2.7-0.4-3.6-1.1s-1.3-1.6-1.3-2.8c0-1.1,0.4-2,1.2-2.7c0.8-0.7,2.1-1.1,3.9-1.1h4.7v-1.1c0-1.3-0.3-2.2-1-2.9
		c-0.7-0.7-1.7-1-3-1c-0.9,0-1.8,0.2-2.6,0.5c-0.8,0.3-1.5,0.7-2.1,1.2l-0.6-0.9c0.7-0.6,1.5-1.1,2.4-1.4c1-0.3,2-0.5,3-0.5
		C424.2,1197.2,425.5,1197.6,426.4,1198.5z M424.6,1209.1c0.8-0.5,1.4-1.3,1.8-2.3v-2.5h-4.6c-1.3,0-2.3,0.2-2.9,0.7s-0.9,1.2-0.9,2
		c0,0.9,0.3,1.6,1,2.1s1.6,0.8,2.8,0.8C422.9,1209.9,423.9,1209.7,424.6,1209.1z"/>
	<path class="st3" d="M444.9,1197.3v13.6h-1.3v-12.4h-9.3v12.4H433v-13.6H444.9z"/>
	<path class="st3" d="M458.9,1198.5c0.9,0.9,1.4,2.1,1.4,3.8v8.6H459v-2.4c-0.4,0.8-1.1,1.4-1.9,1.9c-0.8,0.4-1.8,0.7-3,0.7
		c-1.5,0-2.7-0.4-3.6-1.1s-1.3-1.6-1.3-2.8c0-1.1,0.4-2,1.2-2.7c0.8-0.7,2.1-1.1,3.9-1.1h4.7v-1.1c0-1.3-0.3-2.2-1-2.9
		c-0.7-0.7-1.7-1-3-1c-0.9,0-1.8,0.2-2.6,0.5c-0.8,0.3-1.5,0.7-2.1,1.2l-0.7-0.9c0.7-0.6,1.5-1.1,2.4-1.4c1-0.3,1.9-0.5,3-0.5
		C456.7,1197.2,457.9,1197.6,458.9,1198.5z M457.1,1209.1c0.8-0.5,1.4-1.3,1.8-2.3v-2.5h-4.6c-1.3,0-2.3,0.2-2.9,0.7s-0.9,1.2-0.9,2
		c0,0.9,0.3,1.6,1,2.1s1.6,0.8,2.8,0.8C455.4,1209.9,456.3,1209.7,457.1,1209.1z"/>
</g>
<circle class="st3" cx="1065.2" cy="813.4" r="6.1"/>
<circle class="st3" cx="1065.2" cy="883" r="6.1"/>
<circle class="st3" cx="139" cy="1203.3" r="6.1"/>
<circle class="st3" cx="140.3" cy="1277.7" r="6.1"/>
</svg>
