<svg xmlns="http://www.w3.org/2000/svg" viewBox="0 0 81.96417 120">
  <path d="M5.53594,91.42758c4.8202,2.67818,15.89207,7.14441,26.964,7.14441,14.10663,0,21.251-6.78784,21.251-15.35853,0-11.60543-11.42845-16.7848-23.39305-16.7848H19.286V46.96309H30.0013c9.10684,0,20.53529-3.57091,20.53529-13.39089,0-6.96482-5.53594-12.14419-17.144-12.14419-9.46341,0-19.463,4.10706-24.10619,6.96482L3.75049,8.75027C10.71531,4.28664,24.46536,0,39.6417,0,64.28664,0,78.0341,13.03691,78.0341,28.929c0,12.32117-6.96222,22.14115-21.24843,26.964v.35657c13.927,2.50119,25.1785,13.03692,25.1785,28.39284C81.96417,105.00065,63.92747,120,34.46493,120,19.46558,120,6.78523,116.06993,0,111.96287Z"/>
</svg>
