<?xml version="1.0" encoding="utf-8"?>
<!-- Generator: Adobe Illustrator 24.1.1, SVG Export Plug-In . SVG Version: 6.00 Build 0)  -->
<svg version="1.1" id="Слой_1" xmlns="http://www.w3.org/2000/svg" xmlns:xlink="http://www.w3.org/1999/xlink" x="0px" y="0px"
	 viewBox="0 0 1923.6 2049.2" style="enable-background:new 0 0 1923.6 2049.2;" xml:space="preserve">
<style type="text/css">
	.st0{fill:#F58821;}
	.st1{fill:#FD6E08;}
	.st2{fill:none;stroke:#000000;stroke-width:12;stroke-miterlimit:10;stroke-dasharray:56,27;}
	.st3{fill:#FFFFFF;}
	.st4{fill:none;stroke:#FFFFFF;stroke-width:43;stroke-miterlimit:10;}
	.st5{enable-background:new    ;}
	.st6{fill:#DA6B27;}
	.st7{fill:#D56B27;}
	.st8{fill:#E9D1C9;}
	.st9{fill:#010101;}
	.st10{fill:none;stroke:#E9D1C9;stroke-width:4.3998;stroke-linecap:round;stroke-miterlimit:10;}
	.st11{fill:#ECD4CB;}
	.st12{fill:#4579BC;}
	.st13{fill:none;stroke:#000000;stroke-width:4.3998;stroke-linecap:round;stroke-miterlimit:10;}
	.st14{fill:none;stroke:#FFFFFF;stroke-width:4.3998;stroke-linecap:round;stroke-miterlimit:10;}
</style>
<polygon class="st0" points="1641.1,460.5 1099.7,447.5 1173.1,691.1 1539.9,800.1 "/>
<g>
	<path class="st1" d="M1234,652.3c-480.7-159-714.3-265-1170-318c-21-2.4-42.4-4.3-64-5.8v1449.6c812.8-14,1673.2,42.3,1923.6,267.9
		V731C1748.5,751.7,1530.6,750.4,1234,652.3z"/>
	<path class="st2" d="M318.6,255.5c0,0-36.2,31.8-68.4,93.4"/>
	<path class="st3" d="M831.7,1583c-7.8,0-15.6-0.1-23.2-0.3l0.3-12c7.5,0.2,15.2,0.3,22.9,0.3c10.8,0,21.8-0.2,32.8-0.5l0.4,12
		C853.7,1582.8,842.6,1583,831.7,1583z M781.3,1581.7c-19-1-37.8-2.6-56.1-4.7l1.4-11.9c18,2.1,36.7,3.7,55.3,4.6L781.3,1581.7z
		 M891.9,1581.2l-0.7-12c18.2-1,36.8-2.6,55.5-4.5l1.3,11.9C929.1,1578.6,910.3,1580.2,891.9,1581.2z M975,1573.5l-1.5-11.9
		c18.1-2.3,36.6-5.1,55.1-8.2l2,11.8C1011.9,1568.4,993.2,1571.2,975,1573.5z M698.3,1573.4c-18.7-2.8-37.4-6.3-55.4-10.4l2.6-11.7
		c17.7,4,36.1,7.4,54.5,10.2L698.3,1573.4z M1057.3,1560.4l-2.2-11.8c17.9-3.4,36.3-7.3,54.6-11.4l2.7,11.7
		C1093.8,1553,1075.3,1556.9,1057.3,1560.4z M616.5,1556.5c-18.3-4.8-36.4-10.4-53.9-16.6l4-11.3c17.2,6.1,35,11.6,53,16.3
		L616.5,1556.5z M1138.7,1542.6l-2.9-11.7c17.7-4.4,35.9-9.1,54-14.2l3.2,11.6C1174.8,1533.4,1156.5,1538.2,1138.7,1542.6z
		 M537.1,1530.4c-17.5-7-34.8-14.8-51.4-23.2l5.4-10.7c16.3,8.2,33.3,15.9,50.5,22.8L537.1,1530.4z M1219,1520.8l-3.4-11.5
		c10.3-3.1,20.9-6.3,31.4-9.6l3.6,11.4C1240.1,1514.5,1229.4,1517.7,1219,1520.8z M461.7,1494.3c-16.4-9.2-32.5-19.3-47.9-29.9
		l6.8-9.9c15.1,10.4,30.9,20.3,47,29.3L461.7,1494.3z M328.6,1393.4c-13.2-13.2-26-27.2-38.1-41.6l9.2-7.7
		c11.9,14.2,24.5,27.9,37.4,40.9L328.6,1393.4z M273.4,1330.6c-11.3-14.7-22.3-30.2-32.5-46.1l10.1-6.5
		c10.1,15.6,20.8,30.9,31.9,45.3L273.4,1330.6z M188.2,1187.1c-7.6-16.9-14.8-34.5-21.3-52.2l11.3-4.2c6.4,17.5,13.5,34.8,21,51.5
		L188.2,1187.1z M157.8,1109.2c-5.9-17.6-6.9-20.7-11.7-38.9l11.6-3c4.7,18,5.7,20.8,11.4,38.2L157.8,1109.2z M125.5,946.1
		c-3.1-18.3-6.6-51.7-8.7-70.4l12-1.3c2,18.5,5.5,51.6,8.6,69.7L125.5,946.1z M111.8,756.5c0.4-18.7,1.1-20.5,2.5-39.2l12,0.9
		c-1.3,18.5-2.2,20-2.4,38.6L111.8,756.5z M128.3,698.2l-11.9-1.3c2.1-18.8,4.8-37.6,7.9-55.8l11.8,2.1
		C133.1,661.2,130.4,679.7,128.3,698.2z M141.2,616.8l-11.8-2.4c3.8-18.7,8.3-37.1,13.2-54.8l11.6,3.2
		C149.4,580.2,145,598.4,141.2,616.8z M161.9,537.1l-11.4-3.6c5.8-18.4,12.3-36.2,19.3-53.1l11.1,4.6
		C174,501.5,167.6,519.1,161.9,537.1z M191.6,460.5l-10.9-5.1c8.3-17.7,17.3-34.5,26.8-49.9l10.2,6.3
		C208.5,426.8,199.7,443.2,191.6,460.5z M224.8,401.5l-10.6-5.6c9.1-17.3,18.9-33.7,29.1-48.6l9.9,6.8
		C243.3,368.7,233.7,384.6,224.8,401.5z"/>
	<path class="st4" d="M1410.3,1367c-1.5,2.3-168.8,251.1-168.8,251.1"/>
	<path class="st4" d="M1200.4,1408.2c2.3,1.5,251.1,168.8,251.1,168.8"/>
</g>
<g class="st5">
	<path class="st3" d="M248.4,535.4h19.5v41.1l28.9-41.1h18.6v70h-19.5v-41l-28.8,41h-18.7V535.4z"/>
	<path class="st3" d="M386.8,551.1h-21.4v54.3h-19.5v-54.3h-21.5v-15.7h62.4V551.1z"/>
	<path class="st3" d="M409.3,602.1c-5.9-3.1-10.5-7.5-13.9-13c-3.4-5.5-5-11.8-5-18.7c0-6.9,1.7-13.2,5-18.7c3.4-5.5,8-9.9,13.9-13
		c5.9-3.1,12.5-4.7,19.9-4.7s14.1,1.6,20,4.7c5.9,3.1,10.5,7.5,13.9,13c3.4,5.5,5,11.8,5,18.7c0,6.9-1.7,13.2-5,18.7
		c-3.4,5.5-8,9.9-13.9,13c-5.9,3.1-12.6,4.7-20,4.7S415.2,605.3,409.3,602.1z M438.9,587.9c2.9-1.7,5.1-4,6.8-7
		c1.7-3,2.5-6.5,2.5-10.5c0-3.9-0.8-7.4-2.5-10.5c-1.7-3-3.9-5.4-6.8-7c-2.9-1.7-6.1-2.5-9.6-2.5c-3.5,0-6.7,0.8-9.6,2.5
		c-2.9,1.7-5.1,4-6.8,7c-1.7,3-2.5,6.5-2.5,10.5c0,3.9,0.8,7.4,2.5,10.5c1.7,3,3.9,5.4,6.8,7c2.9,1.7,6.1,2.5,9.6,2.5
		C432.8,590.4,436,589.6,438.9,587.9z"/>
	<path class="st3" d="M530,551.1h-31.7v54.3h-19.5v-70h51.3L530,551.1z"/>
	<path class="st3" d="M539,535.4h19.5v41.1l28.9-41.1H606v70h-19.5v-41l-28.8,41H539V535.4z"/>
</g>
<g class="st5">
	<path class="st3" d="M291.9,989.4v42h-7.7V996h-21.8v35.4h-7.7v-42H291.9z"/>
	<path class="st3" d="M329,1001c2.5,1.4,4.4,3.3,5.8,5.8c1.4,2.5,2.1,5.3,2.1,8.6c0,3.2-0.7,6.1-2.1,8.6c-1.4,2.5-3.3,4.4-5.8,5.8
		c-2.5,1.4-5.3,2-8.4,2c-4.3,0-7.7-1.4-10.3-4.3v15.5h-7.5v-43.7h7.1v4.2c1.2-1.5,2.8-2.7,4.6-3.4c1.8-0.8,3.8-1.1,6-1.1
		C323.7,999,326.5,999.6,329,1001z M326.6,1022.6c1.8-1.8,2.7-4.3,2.7-7.3s-0.9-5.4-2.7-7.3c-1.8-1.8-4-2.8-6.8-2.8
		c-1.8,0-3.4,0.4-4.9,1.2c-1.4,0.8-2.6,2-3.4,3.5c-0.8,1.5-1.3,3.3-1.3,5.3s0.4,3.8,1.3,5.3c0.8,1.5,2,2.7,3.4,3.5
		c1.4,0.8,3.1,1.2,4.9,1.2C322.5,1025.4,324.8,1024.4,326.6,1022.6z"/>
	<path class="st3" d="M366.7,1002.4c2.5,2.3,3.8,5.7,3.8,10.2v18.8h-7.1v-3.9c-0.9,1.4-2.2,2.5-3.9,3.2c-1.7,0.7-3.8,1.1-6.1,1.1
		s-4.5-0.4-6.3-1.2c-1.8-0.8-3.2-2-4.2-3.4c-1-1.5-1.5-3.1-1.5-4.9c0-2.9,1.1-5.2,3.2-6.9c2.1-1.7,5.5-2.6,10.1-2.6h8.3v-0.5
		c0-2.2-0.7-4-2-5.2c-1.3-1.2-3.3-1.8-6-1.8c-1.8,0-3.6,0.3-5.3,0.8c-1.7,0.6-3.2,1.3-4.4,2.3l-2.9-5.5c1.7-1.3,3.7-2.3,6.1-2.9
		c2.4-0.7,4.9-1,7.5-1C360.6,999,364.2,1000.1,366.7,1002.4z M359.8,1025c1.5-0.9,2.5-2.1,3.1-3.7v-3.7h-7.7c-4.3,0-6.5,1.4-6.5,4.3
		c0,1.4,0.5,2.4,1.6,3.2s2.6,1.2,4.5,1.2C356.7,1026.3,358.4,1025.9,359.8,1025z"/>
	<path class="st3" d="M393,1018.5h-5.8v12.8h-7.5v-32h7.5v13h6l9.5-13h8l-11.6,15.4l12.4,16.6h-8.8L393,1018.5z"/>
	<path class="st3" d="M441.8,1005.7h-11.2v25.7H423v-25.7h-11.3v-6.4h30V1005.7z"/>
	<path class="st3" d="M447.2,999.3h7.5v21.1l17.7-21.1h6.8v32h-7.5v-21.1l-17.6,21.1h-6.9V999.3z"/>
	<path class="st3" d="M516.5,999.3v32H509v-12.4c-3.1,1.5-6.3,2.2-9.7,2.2c-4.1,0-7.3-0.9-9.5-2.8c-2.2-1.9-3.3-4.8-3.3-8.7v-10.3
		h7.5v9.8c0,2,0.6,3.6,1.8,4.6c1.2,1,2.9,1.5,5.1,1.5c2.8,0,5.5-0.6,8-1.8v-14H516.5z"/>
	<path class="st3" d="M556.5,1017.7h-25.1c0.4,2.4,1.6,4.2,3.5,5.6c1.9,1.4,4.2,2.1,6.9,2.1c3.5,0,6.4-1.2,8.7-3.5l4,4.6
		c-1.4,1.7-3.3,3-5.5,3.9c-2.2,0.9-4.7,1.3-7.4,1.3c-3.5,0-6.6-0.7-9.3-2.1c-2.7-1.4-4.8-3.3-6.2-5.9c-1.5-2.5-2.2-5.3-2.2-8.5
		c0-3.1,0.7-5.9,2.1-8.4c1.4-2.5,3.4-4.4,5.9-5.8c2.5-1.4,5.4-2.1,8.5-2.1c3.1,0,5.9,0.7,8.4,2.1c2.5,1.4,4.4,3.3,5.8,5.8
		c1.4,2.5,2.1,5.4,2.1,8.7C556.6,1016,556.6,1016.8,556.5,1017.7z M534.3,1007.1c-1.7,1.4-2.7,3.3-3,5.7h18.2
		c-0.3-2.3-1.3-4.2-2.9-5.6c-1.6-1.4-3.7-2.2-6.1-2.2C538,1005,536,1005.7,534.3,1007.1z"/>
	<path class="st3" d="M570.5,1029.7c-2.6-1.4-4.7-3.3-6.2-5.9c-1.5-2.5-2.2-5.3-2.2-8.5s0.7-6,2.2-8.5c1.5-2.5,3.5-4.4,6.1-5.8
		c2.6-1.4,5.6-2.1,9-2.1c3.2,0,5.9,0.6,8.3,1.9c2.4,1.3,4.2,3.1,5.4,5.5l-5.8,3.4c-0.9-1.5-2.1-2.6-3.5-3.3
		c-1.4-0.7-2.9-1.1-4.5-1.1c-2.8,0-5.1,0.9-7,2.7c-1.8,1.8-2.8,4.3-2.8,7.3c0,3,0.9,5.5,2.7,7.3c1.8,1.8,4.1,2.7,7,2.7
		c1.6,0,3.1-0.4,4.5-1.1c1.4-0.7,2.5-1.8,3.5-3.3l5.8,3.4c-1.2,2.4-3.1,4.3-5.4,5.5c-2.4,1.3-5.1,2-8.3,2
		C576.1,1031.8,573.1,1031.1,570.5,1029.7z"/>
	<path class="st3" d="M613,1018.5h-5.8v12.8h-7.5v-32h7.5v13h6l9.5-13h8l-11.6,15.4l12.4,16.6h-8.8L613,1018.5z"/>
	<path class="st3" d="M636.8,999.3h7.5v21.1l17.7-21.1h6.8v32h-7.5v-21.1l-17.6,21.1h-6.9V999.3z"/>
	<path class="st3" d="M708.8,1017.7h-25.1c0.4,2.4,1.6,4.2,3.5,5.6c1.9,1.4,4.2,2.1,6.9,2.1c3.5,0,6.4-1.2,8.7-3.5l4,4.6
		c-1.4,1.7-3.3,3-5.5,3.9c-2.2,0.9-4.7,1.3-7.4,1.3c-3.5,0-6.6-0.7-9.3-2.1c-2.7-1.4-4.8-3.3-6.2-5.9c-1.5-2.5-2.2-5.3-2.2-8.5
		c0-3.1,0.7-5.9,2.1-8.4c1.4-2.5,3.4-4.4,5.9-5.8c2.5-1.4,5.4-2.1,8.5-2.1c3.1,0,5.9,0.7,8.4,2.1c2.5,1.4,4.4,3.3,5.8,5.8
		c1.4,2.5,2.1,5.4,2.1,8.7C708.9,1016,708.8,1016.8,708.8,1017.7z M686.6,1007.1c-1.7,1.4-2.7,3.3-3,5.7h18.2
		c-0.3-2.3-1.3-4.2-2.9-5.6c-1.6-1.4-3.7-2.2-6.1-2.2C690.3,1005,688.2,1005.7,686.6,1007.1z"/>
	<path class="st3" d="M757.4,1017.4c1.1,1.3,1.6,2.8,1.6,4.5c0,2-0.7,3.7-2,5.2s-3.1,2.7-5.5,3.5c-2.3,0.8-5,1.3-7.9,1.3
		c-2.5,0-4.9-0.3-7.3-0.9c-2.4-0.6-4.5-1.4-6.4-2.5l2.2-5.6c1.6,0.9,3.3,1.6,5.3,2c2,0.5,3.9,0.7,5.9,0.7c2.5,0,4.5-0.4,5.9-1.2
		c1.4-0.8,2.1-1.8,2.1-3.2c0-1.2-0.6-2.2-1.6-2.9c-1.1-0.7-2.7-1-4.6-1h-6.2v-5h5.6c1.9,0,3.3-0.3,4.4-1c1.1-0.6,1.6-1.5,1.6-2.7
		c0-1.2-0.6-2.1-1.9-2.8c-1.3-0.7-3-1-5.3-1c-3.2,0-6.6,0.8-10.1,2.3l-1.9-5.5c4.2-2,8.4-2.9,12.7-2.9c2.7,0,5.2,0.4,7.3,1.1
		c2.2,0.7,3.8,1.8,5.1,3.1c1.2,1.3,1.8,2.9,1.8,4.6c0,1.6-0.5,3-1.4,4.2c-1,1.2-2.3,2.2-4,2.9
		C754.8,1015.2,756.3,1016.1,757.4,1017.4z"/>
	<path class="st3" d="M766.9,999.3h7.5v13h16.1v-13h7.5v32h-7.5v-12.7h-16.1v12.7h-7.5V999.3z"/>
	<path class="st3" d="M830.9,1002.4c2.5,2.3,3.8,5.7,3.8,10.2v18.8h-7.1v-3.9c-0.9,1.4-2.2,2.5-3.9,3.2c-1.7,0.7-3.8,1.1-6.1,1.1
		c-2.4,0-4.5-0.4-6.3-1.2c-1.8-0.8-3.2-2-4.2-3.4c-1-1.5-1.5-3.1-1.5-4.9c0-2.9,1.1-5.2,3.2-6.9c2.1-1.7,5.5-2.6,10.1-2.6h8.3v-0.5
		c0-2.2-0.7-4-2-5.2c-1.3-1.2-3.3-1.8-6-1.8c-1.8,0-3.6,0.3-5.3,0.8c-1.7,0.6-3.2,1.3-4.4,2.3l-2.9-5.5c1.7-1.3,3.7-2.3,6.1-2.9
		c2.4-0.7,4.9-1,7.5-1C824.8,999,828.4,1000.1,830.9,1002.4z M824,1025c1.5-0.9,2.5-2.1,3.1-3.7v-3.7h-7.7c-4.3,0-6.5,1.4-6.5,4.3
		c0,1.4,0.5,2.4,1.6,3.2s2.6,1.2,4.5,1.2C820.9,1026.3,822.6,1025.9,824,1025z"/>
	<path class="st3" d="M843.9,999.3h7.5v13h16.1v-13h7.5v32h-7.5v-12.7h-16.1v12.7h-7.5V999.3z"/>
	<path class="st3" d="M885.1,999.3h7.5v21.1l17.7-21.1h6.8v32h-7.5v-21.1l-17.6,21.1h-6.9V999.3z"/>
	<path class="st3" d="M954.3,999.3v32h-6.7v-9.7h-8.5l-6.5,9.7h-8l7.6-10.7c-2.3-0.8-4.1-2-5.3-3.7c-1.2-1.7-1.8-3.7-1.8-6.1
		c0-3.7,1.3-6.5,3.9-8.5c2.6-2,6.2-3,10.7-3H954.3z M932.6,1011.1c0,3.6,2.3,5.4,7,5.4h8v-10.9h-7.7
		C935,1005.6,932.6,1007.4,932.6,1011.1z"/>
	<path class="st3" d="M986.5,1029.7c-2.6-1.4-4.6-3.3-6.1-5.9c-1.5-2.5-2.2-5.3-2.2-8.5s0.7-6,2.2-8.5s3.5-4.4,6.1-5.8
		c2.6-1.4,5.5-2.1,8.8-2.1c3.3,0,6.2,0.7,8.8,2.1c2.6,1.4,4.6,3.3,6.1,5.8c1.5,2.5,2.2,5.3,2.2,8.5s-0.7,6-2.2,8.5
		c-1.5,2.5-3.5,4.5-6.1,5.9c-2.6,1.4-5.5,2.1-8.8,2.1C992,1031.8,989.1,1031.1,986.5,1029.7z M1002.1,1022.6
		c1.8-1.8,2.7-4.3,2.7-7.3s-0.9-5.4-2.7-7.3c-1.8-1.8-4.1-2.8-6.8-2.8c-2.8,0-5,0.9-6.8,2.8c-1.8,1.8-2.7,4.3-2.7,7.3
		s0.9,5.4,2.7,7.3c1.8,1.8,4,2.8,6.8,2.8C998,1025.4,1000.3,1024.4,1002.1,1022.6z"/>
	<path class="st3" d="M1043.9,1005.7h-11.2v25.7h-7.5v-25.7h-11.3v-6.4h30V1005.7z"/>
	<path class="st3" d="M1084.9,1001c2.7,1.4,4.8,3.4,6.3,5.9c1.5,2.5,2.3,5.3,2.3,8.5s-0.8,6-2.3,8.5c-1.5,2.5-3.6,4.5-6.3,5.9
		s-5.7,2.1-9.1,2.1c-2.9,0-5.6-0.5-7.9-1.4c-2.4-1-4.4-2.3-6-4.1l4.3-4.2c2.5,2.5,5.6,3.8,9.3,3.8c2.7,0,5-0.7,7-2.2
		c1.9-1.5,3.2-3.4,3.8-5.8h-14.8v-5.4h14.8c-0.6-2.4-1.9-4.2-3.8-5.6c-1.9-1.4-4.2-2.1-6.9-2.1c-3.7,0-6.8,1.3-9.3,3.8l-4.3-4.2
		c1.6-1.8,3.6-3.2,6-4.2c2.4-0.9,5-1.4,8-1.4C1079.2,998.8,1082.3,999.6,1084.9,1001z"/>
	<path class="st3" d="M1114.1,1018.5h-5.8v12.8h-7.5v-32h7.5v13h6l9.5-13h8l-11.6,15.4l12.4,16.6h-8.8L1114.1,1018.5z"/>
	<path class="st3" d="M1142.4,1029.7c-2.6-1.4-4.7-3.3-6.2-5.9c-1.5-2.5-2.2-5.3-2.2-8.5s0.7-6,2.2-8.5c1.5-2.5,3.5-4.4,6.2-5.8
		c2.6-1.4,5.6-2.1,9-2.1c3.2,0,5.9,0.6,8.3,1.9c2.4,1.3,4.2,3.1,5.4,5.5l-5.8,3.4c-0.9-1.5-2.1-2.6-3.5-3.3s-2.9-1.1-4.5-1.1
		c-2.8,0-5.1,0.9-7,2.7s-2.8,4.3-2.8,7.3c0,3,0.9,5.5,2.7,7.3c1.8,1.8,4.1,2.7,7,2.7c1.6,0,3.2-0.4,4.5-1.1c1.4-0.7,2.5-1.8,3.5-3.3
		l5.8,3.4c-1.2,2.4-3.1,4.3-5.4,5.5c-2.4,1.3-5.1,2-8.3,2C1148,1031.8,1145.1,1031.1,1142.4,1029.7z"/>
	<path class="st3" d="M1202.4,999.3v32h-7.4v-25.7h-15.8v25.7h-7.5v-32H1202.4z"/>
	<path class="st3" d="M1242.4,1017.7h-25.1c0.4,2.4,1.6,4.2,3.5,5.6c1.9,1.4,4.2,2.1,6.9,2.1c3.5,0,6.4-1.2,8.7-3.5l4,4.6
		c-1.4,1.7-3.3,3-5.5,3.9c-2.2,0.9-4.7,1.3-7.4,1.3c-3.5,0-6.6-0.7-9.3-2.1s-4.8-3.3-6.2-5.9c-1.5-2.5-2.2-5.3-2.2-8.5
		c0-3.1,0.7-5.9,2.1-8.4c1.4-2.5,3.4-4.4,5.9-5.8c2.5-1.4,5.4-2.1,8.5-2.1c3.1,0,5.9,0.7,8.4,2.1c2.5,1.4,4.4,3.3,5.8,5.8
		s2.1,5.4,2.1,8.7C1242.5,1016,1242.5,1016.8,1242.4,1017.7z M1220.2,1007.1c-1.7,1.4-2.7,3.3-3,5.7h18.2c-0.3-2.3-1.3-4.2-2.9-5.6
		c-1.6-1.4-3.7-2.2-6.1-2.2C1223.9,1005,1221.9,1005.7,1220.2,1007.1z"/>
	<path class="st3" d="M1276.9,1001c2.5,1.4,4.4,3.3,5.8,5.8c1.4,2.5,2.1,5.3,2.1,8.6c0,3.2-0.7,6.1-2.1,8.6
		c-1.4,2.5-3.3,4.4-5.8,5.8c-2.5,1.4-5.3,2-8.4,2c-4.3,0-7.7-1.4-10.3-4.3v15.5h-7.5v-43.7h7.1v4.2c1.2-1.5,2.8-2.7,4.6-3.4
		s3.8-1.1,6-1.1C1271.6,999,1274.4,999.6,1276.9,1001z M1274.5,1022.6c1.8-1.8,2.7-4.3,2.7-7.3s-0.9-5.4-2.7-7.3
		c-1.8-1.8-4-2.8-6.8-2.8c-1.8,0-3.4,0.4-4.9,1.2c-1.4,0.8-2.6,2-3.4,3.5c-0.8,1.5-1.3,3.3-1.3,5.3s0.4,3.8,1.3,5.3s2,2.7,3.4,3.5
		c1.4,0.8,3.1,1.2,4.9,1.2C1270.4,1025.4,1272.7,1024.4,1274.5,1022.6z"/>
	<path class="st3" d="M1316.4,1005.7h-11.2v25.7h-7.5v-25.7h-11.3v-6.4h30V1005.7z"/>
	<path class="st3" d="M1326,1029.7c-2.6-1.4-4.6-3.3-6.1-5.9c-1.5-2.5-2.2-5.3-2.2-8.5s0.7-6,2.2-8.5s3.5-4.4,6.1-5.8
		c2.6-1.4,5.5-2.1,8.8-2.1c3.3,0,6.2,0.7,8.8,2.1c2.6,1.4,4.6,3.3,6.1,5.8c1.5,2.5,2.2,5.3,2.2,8.5s-0.7,6-2.2,8.5
		c-1.5,2.5-3.5,4.5-6.1,5.9c-2.6,1.4-5.5,2.1-8.8,2.1C1331.5,1031.8,1328.6,1031.1,1326,1029.7z M1341.6,1022.6
		c1.8-1.8,2.7-4.3,2.7-7.3s-0.9-5.4-2.7-7.3c-1.8-1.8-4.1-2.8-6.8-2.8c-2.8,0-5,0.9-6.8,2.8c-1.8,1.8-2.7,4.3-2.7,7.3
		s0.9,5.4,2.7,7.3c1.8,1.8,4,2.8,6.8,2.8C1337.5,1025.4,1339.8,1024.4,1341.6,1022.6z"/>
	<path class="st3" d="M1388.4,1022.4c0,2.9-1.1,5.1-3.2,6.7c-2.2,1.6-5.4,2.3-9.6,2.3h-16.3v-32h15.7c3.9,0,7,0.7,9.2,2.2
		c2.2,1.4,3.3,3.5,3.3,6.1c0,1.6-0.4,3.1-1.3,4.3c-0.9,1.2-2.1,2.1-3.6,2.8C1386.4,1015.9,1388.4,1018.4,1388.4,1022.4z
		 M1366.3,1012.7h7.9c3.9,0,5.8-1.3,5.8-4c0-2.6-1.9-3.9-5.8-3.9h-7.9V1012.7z M1381.1,1021.9c0-1.4-0.5-2.4-1.4-3.2
		c-1-0.7-2.5-1-4.5-1h-8.8v8.2h8.6C1379,1025.9,1381.1,1024.6,1381.1,1021.9z"/>
</g>
<g class="st5">
	<path class="st3" d="M335.5,1233.5c-3.4-1.9-6.1-4.4-8-7.7c-1.9-3.3-2.9-7-2.9-11.1c0-4.1,1-7.8,2.9-11.1c2-3.3,4.6-5.9,8.1-7.7
		c3.4-1.9,7.2-2.8,11.5-2.8c3.4,0,6.6,0.6,9.4,1.8c2.8,1.2,5.2,2.9,7.2,5.2l-5,4.7c-3-3.3-6.8-4.9-11.2-4.9c-2.9,0-5.5,0.6-7.7,1.9
		c-2.3,1.3-4.1,3-5.3,5.3c-1.3,2.2-1.9,4.8-1.9,7.6c0,2.8,0.6,5.4,1.9,7.6c1.3,2.2,3.1,4,5.3,5.3c2.3,1.3,4.9,1.9,7.7,1.9
		c4.4,0,8.2-1.7,11.2-5l5,4.8c-2,2.3-4.4,4-7.2,5.2c-2.9,1.2-6,1.8-9.4,1.8C342.8,1236.3,338.9,1235.3,335.5,1233.5z"/>
	<path class="st3" d="M398.8,1222h-25.1c0.4,2.4,1.6,4.2,3.5,5.6s4.2,2.1,6.9,2.1c3.5,0,6.4-1.2,8.7-3.5l4,4.6
		c-1.4,1.7-3.3,3-5.5,3.9c-2.2,0.9-4.7,1.3-7.4,1.3c-3.5,0-6.6-0.7-9.3-2.1c-2.7-1.4-4.8-3.3-6.2-5.9c-1.5-2.5-2.2-5.3-2.2-8.5
		c0-3.1,0.7-5.9,2.1-8.4c1.4-2.5,3.4-4.4,5.9-5.8c2.5-1.4,5.4-2.1,8.5-2.1c3.1,0,5.9,0.7,8.4,2.1s4.4,3.3,5.8,5.8
		c1.4,2.5,2.1,5.4,2.1,8.7C398.9,1220.3,398.9,1221.1,398.8,1222z M376.6,1211.4c-1.7,1.4-2.7,3.3-3,5.7h18.2
		c-0.3-2.3-1.3-4.2-2.9-5.6c-1.6-1.4-3.7-2.2-6.1-2.2C380.3,1209.3,378.3,1210,376.6,1211.4z"/>
	<path class="st3" d="M433.2,1205.3c2.5,1.4,4.4,3.3,5.8,5.8c1.4,2.5,2.1,5.3,2.1,8.6c0,3.2-0.7,6.1-2.1,8.6
		c-1.4,2.5-3.3,4.4-5.8,5.8c-2.5,1.4-5.3,2-8.4,2c-4.3,0-7.7-1.4-10.3-4.3v15.5h-7.5v-43.7h7.1v4.2c1.2-1.5,2.8-2.7,4.6-3.4
		c1.8-0.8,3.8-1.1,6-1.1C428,1203.3,430.8,1203.9,433.2,1205.3z M430.8,1226.9c1.8-1.8,2.7-4.3,2.7-7.3s-0.9-5.4-2.7-7.3
		c-1.8-1.8-4-2.8-6.8-2.8c-1.8,0-3.4,0.4-4.9,1.2c-1.4,0.8-2.6,2-3.4,3.5c-0.8,1.5-1.3,3.3-1.3,5.3s0.4,3.8,1.3,5.3
		c0.8,1.5,2,2.7,3.4,3.5c1.4,0.8,3.1,1.2,4.9,1.2C426.8,1229.7,429.1,1228.7,430.8,1226.9z"/>
	<path class="st3" d="M474,1216.9c2.2,1.8,3.3,4.4,3.3,7.8c0,3.5-1.2,6.2-3.6,8.2c-2.4,1.9-5.8,2.9-10.1,2.8l-15-0.1v-32h7.5v10.5
		l8.6,0.1C468.7,1214.2,471.9,1215.1,474,1216.9z M468,1228.8c1.2-1,1.7-2.4,1.7-4.2c0-1.8-0.6-3.1-1.7-4c-1.1-0.8-2.8-1.3-5.1-1.3
		l-6.8-0.1v10.9l6.8,0.1C465.1,1230.2,466.8,1229.8,468,1228.8z"/>
	<path class="st3" d="M513.8,1222h-25.1c0.4,2.4,1.6,4.2,3.5,5.6s4.2,2.1,6.9,2.1c3.5,0,6.4-1.2,8.7-3.5l4,4.6
		c-1.4,1.7-3.3,3-5.5,3.9c-2.2,0.9-4.7,1.3-7.4,1.3c-3.5,0-6.6-0.7-9.3-2.1c-2.7-1.4-4.8-3.3-6.2-5.9c-1.5-2.5-2.2-5.3-2.2-8.5
		c0-3.1,0.7-5.9,2.1-8.4c1.4-2.5,3.4-4.4,5.9-5.8c2.5-1.4,5.4-2.1,8.5-2.1c3.1,0,5.9,0.7,8.4,2.1s4.4,3.3,5.8,5.8
		c1.4,2.5,2.1,5.4,2.1,8.7C513.9,1220.3,513.9,1221.1,513.8,1222z M489.1,1197.6c-0.7-0.7-1-1.5-1-2.6c0-1.1,0.3-2,1-2.6
		c0.7-0.7,1.5-1,2.6-1c1,0,1.9,0.3,2.6,1c0.7,0.7,1,1.6,1,2.6c0,1-0.3,1.9-1,2.6c-0.7,0.7-1.5,1-2.6,1
		C490.7,1198.6,489.8,1198.2,489.1,1197.6z M491.6,1211.4c-1.7,1.4-2.7,3.3-3,5.7h18.2c-0.3-2.3-1.3-4.2-2.9-5.6
		c-1.6-1.4-3.7-2.2-6.1-2.2C495.3,1209.3,493.3,1210,491.6,1211.4z M500.8,1197.6c-0.7-0.7-1-1.5-1-2.6c0-1.1,0.3-2,1-2.6
		c0.7-0.7,1.5-1,2.6-1c1,0,1.9,0.3,2.6,1c0.7,0.7,1,1.6,1,2.6c0,1-0.3,1.9-1,2.6c-0.7,0.7-1.5,1-2.6,1
		C502.3,1198.6,501.5,1198.2,500.8,1197.6z"/>
	<path class="st3" d="M545.3,1221.7c1.1,1.3,1.6,2.8,1.6,4.5c0,2-0.7,3.7-2,5.2s-3.1,2.7-5.5,3.5c-2.3,0.8-5,1.3-7.9,1.3
		c-2.5,0-4.9-0.3-7.3-0.9c-2.4-0.6-4.5-1.4-6.4-2.5l2.2-5.6c1.6,0.9,3.3,1.6,5.3,2c2,0.5,3.9,0.7,5.9,0.7c2.5,0,4.5-0.4,5.9-1.2
		c1.4-0.8,2.1-1.9,2.1-3.2c0-1.2-0.6-2.2-1.6-2.9c-1.1-0.7-2.7-1-4.6-1h-6.2v-5h5.6c1.9,0,3.3-0.3,4.4-1c1.1-0.6,1.6-1.5,1.6-2.7
		c0-1.2-0.6-2.1-1.9-2.8c-1.3-0.7-3-1-5.3-1c-3.2,0-6.6,0.8-10.1,2.3l-1.9-5.5c4.2-2,8.4-2.9,12.7-2.9c2.7,0,5.2,0.4,7.3,1.1
		c2.2,0.7,3.8,1.8,5.1,3.1c1.2,1.3,1.8,2.9,1.8,4.6c0,1.6-0.5,3-1.4,4.2c-1,1.2-2.3,2.2-4,2.9
		C542.7,1219.5,544.2,1220.5,545.3,1221.7z"/>
	<path class="st3" d="M554.8,1203.6h7.5v13h16.1v-13h7.5v32h-7.5V1223h-16.1v12.7h-7.5V1203.6z"/>
	<path class="st3" d="M621,1216.9c2.2,1.8,3.2,4.4,3.2,7.8c0,3.5-1.2,6.2-3.6,8.2c-2.4,1.9-5.8,2.9-10.1,2.8l-14.5-0.1v-32h7.5v10.5
		l8.1,0.1C615.7,1214.2,618.8,1215.1,621,1216.9z M614.9,1228.8c1.2-1,1.7-2.4,1.7-4.2c0-1.8-0.6-3.1-1.7-4
		c-1.1-0.8-2.8-1.3-5.1-1.3l-6.4-0.1v10.9l6.4,0.1C612.1,1230.2,613.7,1229.8,614.9,1228.8z M628.3,1203.6h7.5v32h-7.5V1203.6z"/>
	<path class="st3" d="M645.9,1203.6h7.5v21.1l17.7-21.1h6.8v32h-7.5v-21.1l-17.6,21.1h-6.9V1203.6z M654,1197.6
		c-1.7-1.5-2.6-3.7-2.6-6.6h5c0,1.4,0.5,2.6,1.4,3.4c0.9,0.8,2.1,1.3,3.6,1.3c1.5,0,2.7-0.4,3.6-1.3s1.4-2,1.4-3.4h5.1
		c0,2.9-0.9,5.1-2.6,6.6c-1.7,1.5-4.2,2.3-7.4,2.3C658.2,1199.8,655.7,1199.1,654,1197.6z"/>
	<path class="st3" d="M735.3,1203.6v32h-7.4V1210h-15.8v25.7h-7.5v-32H735.3z"/>
	<path class="st3" d="M771.6,1205.3c2.5,1.4,4.4,3.3,5.8,5.8c1.4,2.5,2.1,5.3,2.1,8.6c0,3.2-0.7,6.1-2.1,8.6
		c-1.4,2.5-3.3,4.4-5.8,5.8c-2.5,1.4-5.3,2-8.4,2c-4.3,0-7.7-1.4-10.3-4.3v15.5h-7.5v-43.7h7.1v4.2c1.2-1.5,2.8-2.7,4.6-3.4
		c1.8-0.8,3.8-1.1,6-1.1C766.3,1203.3,769.1,1203.9,771.6,1205.3z M769.2,1226.9c1.8-1.8,2.7-4.3,2.7-7.3s-0.9-5.4-2.7-7.3
		c-1.8-1.8-4-2.8-6.8-2.8c-1.8,0-3.4,0.4-4.9,1.2c-1.4,0.8-2.6,2-3.4,3.5c-0.8,1.5-1.3,3.3-1.3,5.3s0.4,3.8,1.3,5.3
		c0.8,1.5,2,2.7,3.4,3.5c1.4,0.8,3.1,1.2,4.9,1.2C765.1,1229.7,767.4,1228.7,769.2,1226.9z"/>
	<path class="st3" d="M792.4,1234c-2.6-1.4-4.6-3.3-6.1-5.9c-1.5-2.5-2.2-5.3-2.2-8.5s0.7-6,2.2-8.5c1.5-2.5,3.5-4.4,6.1-5.8
		c2.6-1.4,5.5-2.1,8.8-2.1c3.3,0,6.2,0.7,8.8,2.1c2.6,1.4,4.6,3.3,6.1,5.8c1.5,2.5,2.2,5.3,2.2,8.5s-0.7,6-2.2,8.5
		c-1.5,2.5-3.5,4.5-6.1,5.9c-2.6,1.4-5.5,2.1-8.8,2.1C798,1236.1,795,1235.4,792.4,1234z M808,1226.9c1.8-1.8,2.7-4.3,2.7-7.3
		s-0.9-5.4-2.7-7.3c-1.8-1.8-4.1-2.8-6.8-2.8c-2.8,0-5,0.9-6.8,2.8c-1.8,1.8-2.7,4.3-2.7,7.3s0.9,5.4,2.7,7.3
		c1.8,1.8,4.1,2.8,6.8,2.8C804,1229.7,806.2,1228.7,808,1226.9z"/>
	<path class="st3" d="M855.6,1222h-25.1c0.4,2.4,1.6,4.2,3.5,5.6s4.2,2.1,6.9,2.1c3.5,0,6.4-1.2,8.7-3.5l4,4.6
		c-1.4,1.7-3.3,3-5.5,3.9c-2.2,0.9-4.7,1.3-7.4,1.3c-3.5,0-6.6-0.7-9.3-2.1c-2.7-1.4-4.8-3.3-6.2-5.9c-1.5-2.5-2.2-5.3-2.2-8.5
		c0-3.1,0.7-5.9,2.1-8.4c1.4-2.5,3.4-4.4,5.9-5.8c2.5-1.4,5.4-2.1,8.5-2.1c3.1,0,5.9,0.7,8.4,2.1s4.4,3.3,5.8,5.8
		c1.4,2.5,2.1,5.4,2.1,8.7C855.7,1220.3,855.6,1221.1,855.6,1222z M833.4,1211.4c-1.7,1.4-2.7,3.3-3,5.7h18.2
		c-0.3-2.3-1.3-4.2-2.9-5.6c-1.6-1.4-3.7-2.2-6.1-2.2C837.1,1209.3,835,1210,833.4,1211.4z"/>
	<path class="st3" d="M877.2,1222.8h-5.8v12.8h-7.5v-32h7.5v13h6l9.5-13h8l-11.6,15.4l12.4,16.6h-8.8L877.2,1222.8z"/>
	<path class="st3" d="M925.9,1210h-11.2v25.7h-7.5V1210h-11.3v-6.4h30V1210z"/>
	<path class="st3" d="M977.1,1226.7c0,2.9-1.1,5.1-3.2,6.7c-2.2,1.6-5.4,2.3-9.6,2.3H948v-32h15.7c3.9,0,7,0.7,9.2,2.2
		c2.2,1.4,3.3,3.5,3.3,6.1c0,1.6-0.4,3.1-1.3,4.3s-2.1,2.1-3.6,2.8C975.1,1220.2,977.1,1222.7,977.1,1226.7z M955.1,1217h7.9
		c3.9,0,5.8-1.3,5.8-4c0-2.6-1.9-3.9-5.8-3.9h-7.9V1217z M969.9,1226.2c0-1.4-0.5-2.4-1.4-3.1c-1-0.7-2.5-1-4.5-1h-8.8v8.2h8.6
		C967.8,1230.2,969.9,1228.9,969.9,1226.2z"/>
	<path class="st3" d="M1032.4,1203.6v32h-7.4V1210h-15.8v25.7h-7.5v-32H1032.4z"/>
	<path class="st3" d="M1048,1234c-2.6-1.4-4.6-3.3-6.1-5.9c-1.5-2.5-2.2-5.3-2.2-8.5s0.7-6,2.2-8.5c1.5-2.5,3.5-4.4,6.1-5.8
		c2.6-1.4,5.5-2.1,8.8-2.1c3.3,0,6.2,0.7,8.8,2.1c2.6,1.4,4.6,3.3,6.1,5.8c1.5,2.5,2.2,5.3,2.2,8.5s-0.7,6-2.2,8.5
		c-1.5,2.5-3.5,4.5-6.1,5.9c-2.6,1.4-5.5,2.1-8.8,2.1C1053.6,1236.1,1050.6,1235.4,1048,1234z M1063.6,1226.9
		c1.8-1.8,2.7-4.3,2.7-7.3s-0.9-5.4-2.7-7.3c-1.8-1.8-4.1-2.8-6.8-2.8c-2.8,0-5,0.9-6.8,2.8c-1.8,1.8-2.7,4.3-2.7,7.3
		s0.9,5.4,2.7,7.3c1.8,1.8,4,2.8,6.8,2.8C1059.6,1229.7,1061.8,1228.7,1063.6,1226.9z"/>
	<path class="st3" d="M1107.4,1205.3c2.5,1.4,4.4,3.3,5.8,5.8c1.4,2.5,2.1,5.3,2.1,8.6c0,3.2-0.7,6.1-2.1,8.6
		c-1.4,2.5-3.3,4.4-5.8,5.8c-2.5,1.4-5.3,2-8.4,2c-4.3,0-7.7-1.4-10.3-4.3v15.5h-7.5v-43.7h7.1v4.2c1.2-1.5,2.8-2.7,4.6-3.4
		s3.8-1.1,6-1.1C1102.2,1203.3,1104.9,1203.9,1107.4,1205.3z M1105,1226.9c1.8-1.8,2.7-4.3,2.7-7.3s-0.9-5.4-2.7-7.3
		c-1.8-1.8-4-2.8-6.8-2.8c-1.8,0-3.4,0.4-4.9,1.2c-1.4,0.8-2.6,2-3.4,3.5c-0.8,1.5-1.3,3.3-1.3,5.3s0.4,3.8,1.3,5.3
		c0.8,1.5,2,2.7,3.4,3.5c1.4,0.8,3.1,1.2,4.9,1.2C1101,1229.7,1103.2,1228.7,1105,1226.9z"/>
	<path class="st3" d="M1146.9,1210h-11.2v25.7h-7.5V1210h-11.3v-6.4h30V1210z"/>
	<path class="st3" d="M1188.4,1231.3c-3.3,2.8-8,4.5-14.1,4.9v11.2h-7.1v-11.1c-6.1-0.4-10.8-2-14.1-4.9c-3.3-2.8-4.9-6.8-4.9-11.8
		c0-5,1.6-8.8,4.9-11.6c3.3-2.8,8-4.4,14.1-4.8v-12.1h7.1v12.1c6.1,0.4,10.8,2,14.1,4.8c3.3,2.8,5,6.7,5,11.6
		C1193.4,1224.5,1191.7,1228.4,1188.4,1231.3z M1158.4,1226.8c1.9,1.7,4.8,2.8,8.8,3.1v-20.3c-4,0.3-6.9,1.3-8.8,3
		c-1.9,1.7-2.9,4-2.9,7C1155.6,1222.7,1156.5,1225.1,1158.4,1226.8z M1186,1219.6c0-3-1-5.4-2.9-7c-1.9-1.7-4.9-2.6-8.8-3v20.3
		C1182.1,1229.2,1186,1225.7,1186,1219.6z"/>
	<path class="st3" d="M1206.1,1234c-2.6-1.4-4.6-3.3-6.1-5.9c-1.5-2.5-2.2-5.3-2.2-8.5s0.7-6,2.2-8.5c1.5-2.5,3.5-4.4,6.1-5.8
		c2.6-1.4,5.5-2.1,8.8-2.1c3.3,0,6.2,0.7,8.8,2.1c2.6,1.4,4.6,3.3,6.1,5.8c1.5,2.5,2.2,5.3,2.2,8.5s-0.7,6-2.2,8.5
		c-1.5,2.5-3.5,4.5-6.1,5.9c-2.6,1.4-5.5,2.1-8.8,2.1C1211.7,1236.1,1208.7,1235.4,1206.1,1234z M1221.7,1226.9
		c1.8-1.8,2.7-4.3,2.7-7.3s-0.9-5.4-2.7-7.3c-1.8-1.8-4.1-2.8-6.8-2.8c-2.8,0-5,0.9-6.8,2.8c-1.8,1.8-2.7,4.3-2.7,7.3
		s0.9,5.4,2.7,7.3c1.8,1.8,4,2.8,6.8,2.8C1217.7,1229.7,1219.9,1228.7,1221.7,1226.9z"/>
	<path class="st3" d="M1268.1,1203.6v32h-7.5V1210h-12l-0.3,6.4c-0.2,4.2-0.6,7.8-1.2,10.7c-0.6,2.9-1.6,5.1-2.9,6.8
		s-3.3,2.5-5.7,2.5c-1.1,0-2.5-0.2-4.1-0.7l0.4-6.3c0.6,0.1,1,0.2,1.4,0.2c1.5,0,2.7-0.6,3.4-1.8c0.8-1.2,1.3-2.7,1.5-4.4
		s0.4-4.1,0.6-7.3l0.5-12.4H1268.1z"/>
	<path class="st3" d="M1278.1,1203.6h7.5v21.1l17.7-21.1h6.8v32h-7.5v-21.1l-17.6,21.1h-6.9V1203.6z"/>
	<path class="st3" d="M1325.8,1234c-2.6-1.4-4.6-3.3-6.1-5.9c-1.5-2.5-2.2-5.3-2.2-8.5s0.7-6,2.2-8.5c1.5-2.5,3.5-4.4,6.1-5.8
		c2.6-1.4,5.5-2.1,8.8-2.1c3.3,0,6.2,0.7,8.8,2.1c2.6,1.4,4.6,3.3,6.1,5.8c1.5,2.5,2.2,5.3,2.2,8.5s-0.7,6-2.2,8.5
		c-1.5,2.5-3.5,4.5-6.1,5.9c-2.6,1.4-5.5,2.1-8.8,2.1C1331.3,1236.1,1328.4,1235.4,1325.8,1234z M1341.4,1226.9
		c1.8-1.8,2.7-4.3,2.7-7.3s-0.9-5.4-2.7-7.3c-1.8-1.8-4.1-2.8-6.8-2.8c-2.8,0-5,0.9-6.8,2.8c-1.8,1.8-2.7,4.3-2.7,7.3
		s0.9,5.4,2.7,7.3c1.8,1.8,4,2.8,6.8,2.8C1337.3,1229.7,1339.6,1228.7,1341.4,1226.9z"/>
</g>
<g class="st5">
	<path class="st3" d="M526.3,1422.1h-7.8v17.7h-7.7v-42h7.7v17.6h8l12.1-17.6h8.3l-14.3,20.3l14.9,21.7h-8.8L526.3,1422.1z"/>
	<path class="st3" d="M578.8,1409.4c2.5,1.4,4.4,3.3,5.8,5.8c1.4,2.5,2.1,5.3,2.1,8.6c0,3.2-0.7,6.1-2.1,8.6
		c-1.4,2.5-3.3,4.4-5.8,5.8c-2.5,1.4-5.3,2-8.4,2c-4.3,0-7.7-1.4-10.3-4.3v15.5h-7.5v-43.7h7.1v4.2c1.2-1.5,2.8-2.7,4.6-3.4
		c1.8-0.8,3.8-1.1,6-1.1C573.5,1407.4,576.3,1408.1,578.8,1409.4z M576.4,1431c1.8-1.8,2.7-4.3,2.7-7.3s-0.9-5.4-2.7-7.3
		c-1.8-1.8-4-2.8-6.8-2.8c-1.8,0-3.4,0.4-4.9,1.2c-1.4,0.8-2.6,2-3.4,3.5c-0.8,1.5-1.3,3.3-1.3,5.3s0.4,3.8,1.3,5.3
		c0.8,1.5,2,2.7,3.4,3.5c1.4,0.8,3.1,1.2,4.9,1.2C572.3,1433.8,574.6,1432.9,576.4,1431z"/>
	<path class="st3" d="M623.5,1407.7l-15,34.6c-1.4,3.5-3.1,5.9-5.1,7.3c-2,1.4-4.4,2.1-7.3,2.1c-1.6,0-3.2-0.3-4.7-0.8
		c-1.6-0.5-2.8-1.2-3.8-2.2l3-5.5c0.7,0.7,1.6,1.2,2.6,1.6c1,0.4,2,0.6,3,0.6c1.3,0,2.4-0.3,3.3-1c0.9-0.7,1.6-1.8,2.4-3.4l0.5-1.3
		l-14-32.2h7.8l10.1,23.7l10.1-23.7H623.5z"/>
	<path class="st3" d="M654.3,1414.1h-11.2v25.7h-7.5v-25.7h-11.3v-6.4h30V1414.1z"/>
	<path class="st3" d="M663.9,1438.1c-2.6-1.4-4.6-3.3-6.1-5.9c-1.5-2.5-2.2-5.3-2.2-8.5s0.7-6,2.2-8.5c1.5-2.5,3.5-4.4,6.1-5.8
		c2.6-1.4,5.5-2.1,8.8-2.1c3.3,0,6.2,0.7,8.8,2.1c2.6,1.4,4.6,3.3,6.1,5.8c1.5,2.5,2.2,5.3,2.2,8.5s-0.7,6-2.2,8.5
		c-1.5,2.5-3.5,4.5-6.1,5.9c-2.6,1.4-5.5,2.1-8.8,2.1C669.4,1440.2,666.5,1439.5,663.9,1438.1z M679.5,1431c1.8-1.8,2.7-4.3,2.7-7.3
		s-0.9-5.4-2.7-7.3c-1.8-1.8-4.1-2.8-6.8-2.8c-2.8,0-5,0.9-6.8,2.8c-1.8,1.8-2.7,4.3-2.7,7.3s0.9,5.4,2.7,7.3
		c1.8,1.8,4.1,2.8,6.8,2.8C675.4,1433.8,677.7,1432.9,679.5,1431z"/>
	<path class="st3" d="M697.1,1407.7h7.5v21.1l17.7-21.1h6.8v32h-7.5v-21.1l-17.6,21.1h-6.9V1407.7z M705.3,1401.7
		c-1.7-1.5-2.6-3.7-2.6-6.6h5c0,1.4,0.5,2.6,1.4,3.4c0.9,0.8,2.1,1.3,3.6,1.3c1.5,0,2.7-0.4,3.6-1.3s1.4-2,1.4-3.4h5.1
		c0,2.9-0.9,5.1-2.6,6.6c-1.7,1.5-4.2,2.3-7.4,2.3C709.4,1404,707,1403.2,705.3,1401.7z"/>
	<path class="st3" d="M787.3,1439.8v-21.2l-10.8,17.9h-3.2l-10.6-17.9v21.3h-6.8v-32h7.9l11.4,20l11.9-20h7l0.1,32H787.3z"/>
	<path class="st3" d="M834,1426.2h-25.1c0.4,2.4,1.6,4.2,3.5,5.6s4.2,2.1,6.9,2.1c3.5,0,6.4-1.2,8.7-3.5l4,4.6
		c-1.4,1.7-3.3,3-5.5,3.9c-2.2,0.9-4.7,1.3-7.4,1.3c-3.5,0-6.6-0.7-9.3-2.1c-2.7-1.4-4.8-3.3-6.2-5.9c-1.5-2.5-2.2-5.3-2.2-8.5
		c0-3.1,0.7-5.9,2.1-8.4c1.4-2.5,3.4-4.4,5.9-5.8c2.5-1.4,5.4-2.1,8.5-2.1c3.1,0,5.9,0.7,8.4,2.1s4.4,3.3,5.8,5.8
		c1.4,2.5,2.1,5.4,2.1,8.7C834.2,1424.5,834.1,1425.2,834,1426.2z M811.9,1415.5c-1.7,1.4-2.7,3.3-3,5.7H827
		c-0.3-2.3-1.3-4.2-2.9-5.6c-1.6-1.4-3.7-2.2-6.1-2.2C815.6,1413.4,813.5,1414.1,811.9,1415.5z"/>
	<path class="st3" d="M868.5,1409.4c2.5,1.4,4.4,3.3,5.8,5.8c1.4,2.5,2.1,5.3,2.1,8.6c0,3.2-0.7,6.1-2.1,8.6
		c-1.4,2.5-3.3,4.4-5.8,5.8c-2.5,1.4-5.3,2-8.4,2c-4.3,0-7.7-1.4-10.3-4.3v15.5h-7.5v-43.7h7.1v4.2c1.2-1.5,2.8-2.7,4.6-3.4
		c1.8-0.8,3.8-1.1,6-1.1C863.3,1407.4,866.1,1408.1,868.5,1409.4z M866.1,1431c1.8-1.8,2.7-4.3,2.7-7.3s-0.9-5.4-2.7-7.3
		c-1.8-1.8-4-2.8-6.8-2.8c-1.8,0-3.4,0.4-4.9,1.2c-1.4,0.8-2.6,2-3.4,3.5c-0.8,1.5-1.3,3.3-1.3,5.3s0.4,3.8,1.3,5.3
		c0.8,1.5,2,2.7,3.4,3.5c1.4,0.8,3.1,1.2,4.9,1.2C862.1,1433.8,864.3,1432.9,866.1,1431z"/>
	<path class="st3" d="M911,1407.7v32h-7.5v-12.4c-3.1,1.5-6.3,2.2-9.7,2.2c-4.1,0-7.3-0.9-9.5-2.8c-2.2-1.9-3.3-4.8-3.3-8.7v-10.3
		h7.5v9.8c0,2,0.6,3.6,1.8,4.6c1.2,1,2.9,1.5,5.1,1.5c2.8,0,5.5-0.6,8-1.8v-14H911z"/>
</g>
<g class="st5">
	<path class="st3" d="M257.9,808.4c1.4,1.7,2.1,3.9,2.1,6.5c0,3.7-1.4,6.5-4.1,8.6c-2.7,2-6.7,3.1-11.8,3.1h-19.9v-42H243
		c4.7,0,8.4,0.9,11,2.8c2.6,1.9,4,4.5,4,8c0,2.2-0.5,4.1-1.6,5.7c-1.1,1.6-2.6,2.8-4.6,3.7C254.5,805.4,256.5,806.7,257.9,808.4z
		 M231.9,802.5h10.4c2.5,0,4.4-0.5,5.8-1.5c1.3-1,2-2.5,2-4.4c0-2-0.7-3.5-2-4.5c-1.3-1-3.2-1.5-5.8-1.5h-10.4V802.5z M252.1,814.3
		c0-4.1-2.8-6.1-8.3-6.1h-12v12.4h12C249.4,820.5,252.1,818.5,252.1,814.3z"/>
	<path class="st3" d="M273.6,824.9c-2.6-1.4-4.6-3.3-6.1-5.9c-1.5-2.5-2.2-5.3-2.2-8.5s0.7-6,2.2-8.5c1.5-2.5,3.5-4.4,6.1-5.8
		c2.6-1.4,5.5-2.1,8.8-2.1c3.3,0,6.2,0.7,8.8,2.1c2.6,1.4,4.6,3.3,6.1,5.8c1.5,2.5,2.2,5.3,2.2,8.5s-0.7,6-2.2,8.5
		c-1.5,2.5-3.5,4.5-6.1,5.9c-2.6,1.4-5.5,2.1-8.8,2.1C279.1,827,276.2,826.3,273.6,824.9z M289.2,817.8c1.8-1.8,2.7-4.3,2.7-7.3
		s-0.9-5.4-2.7-7.3c-1.8-1.8-4.1-2.8-6.8-2.8c-2.8,0-5,0.9-6.8,2.8c-1.8,1.8-2.7,4.3-2.7,7.3s0.9,5.4,2.7,7.3
		c1.8,1.8,4.1,2.8,6.8,2.8C285.1,820.5,287.4,819.6,289.2,817.8z"/>
	<path class="st3" d="M330.1,812.6c1.1,1.3,1.6,2.8,1.6,4.5c0,2-0.7,3.7-2,5.2s-3.1,2.7-5.5,3.5c-2.3,0.8-5,1.3-7.9,1.3
		c-2.5,0-4.9-0.3-7.3-0.9c-2.4-0.6-4.5-1.4-6.4-2.5l2.2-5.6c1.6,0.9,3.3,1.6,5.3,2c2,0.5,3.9,0.7,5.9,0.7c2.5,0,4.5-0.4,5.9-1.2
		c1.4-0.8,2.1-1.9,2.1-3.2c0-1.2-0.6-2.2-1.6-2.9c-1.1-0.7-2.7-1-4.6-1h-6.2v-5h5.6c1.9,0,3.3-0.3,4.4-1c1.1-0.6,1.6-1.5,1.6-2.7
		c0-1.2-0.6-2.1-1.9-2.8c-1.3-0.7-3-1-5.3-1c-3.2,0-6.6,0.8-10.1,2.3l-1.9-5.5c4.2-2,8.4-2.9,12.7-2.9c2.7,0,5.2,0.4,7.3,1.1
		c2.2,0.7,3.8,1.8,5.1,3.1c1.2,1.3,1.8,2.9,1.8,4.6c0,1.6-0.5,3-1.4,4.2c-1,1.2-2.3,2.2-4,2.9C327.5,810.4,329,811.3,330.1,812.6z"
		/>
	<path class="st3" d="M371.1,826.5v-21.2l-10.8,17.9H357l-10.6-17.9v21.3h-6.8v-32h7.9l11.4,20l11.9-20h7l0.1,32H371.1z"/>
	<path class="st3" d="M393.4,824.9c-2.6-1.4-4.6-3.3-6.1-5.9c-1.5-2.5-2.2-5.3-2.2-8.5s0.7-6,2.2-8.5c1.5-2.5,3.5-4.4,6.1-5.8
		c2.6-1.4,5.5-2.1,8.8-2.1c3.3,0,6.2,0.7,8.8,2.1c2.6,1.4,4.6,3.3,6.1,5.8c1.5,2.5,2.2,5.3,2.2,8.5s-0.7,6-2.2,8.5
		c-1.5,2.5-3.5,4.5-6.1,5.9c-2.6,1.4-5.5,2.1-8.8,2.1C399,827,396,826.3,393.4,824.9z M409,817.8c1.8-1.8,2.7-4.3,2.7-7.3
		s-0.9-5.4-2.7-7.3c-1.8-1.8-4.1-2.8-6.8-2.8c-2.8,0-5,0.9-6.8,2.8c-1.8,1.8-2.7,4.3-2.7,7.3s0.9,5.4,2.7,7.3
		c1.8,1.8,4.1,2.8,6.8,2.8C405,820.5,407.2,819.6,409,817.8z"/>
	<path class="st3" d="M456,813.7h-5.4v12.8h-7.4v-12.8h-5.4l-7.8,12.8h-8.9l10.5-16.6l-9.7-15.5h8l7.8,13h5.5v-13h7.4v13h5.5l7.9-13
		h8l-9.7,15.5l10.6,16.6h-8.9L456,813.7z"/>
	<path class="st3" d="M478.3,794.5h7.5v13H502v-13h7.5v32H502v-12.7h-16.1v12.7h-7.5V794.5z"/>
	<path class="st3" d="M525.1,824.9c-2.6-1.4-4.6-3.3-6.1-5.9c-1.5-2.5-2.2-5.3-2.2-8.5s0.7-6,2.2-8.5c1.5-2.5,3.5-4.4,6.1-5.8
		c2.6-1.4,5.5-2.1,8.8-2.1c3.3,0,6.2,0.7,8.8,2.1c2.6,1.4,4.6,3.3,6.1,5.8c1.5,2.5,2.2,5.3,2.2,8.5s-0.7,6-2.2,8.5
		c-1.5,2.5-3.5,4.5-6.1,5.9c-2.6,1.4-5.5,2.1-8.8,2.1C530.6,827,527.7,826.3,525.1,824.9z M540.7,817.8c1.8-1.8,2.7-4.3,2.7-7.3
		s-0.9-5.4-2.7-7.3c-1.8-1.8-4.1-2.8-6.8-2.8c-2.8,0-5,0.9-6.8,2.8c-1.8,1.8-2.7,4.3-2.7,7.3s0.9,5.4,2.7,7.3
		c1.8,1.8,4.1,2.8,6.8,2.8C536.6,820.5,538.9,819.6,540.7,817.8z"/>
	<path class="st3" d="M564,824.9c-2.6-1.4-4.7-3.3-6.2-5.9c-1.5-2.5-2.2-5.3-2.2-8.5s0.7-6,2.2-8.5c1.5-2.5,3.5-4.4,6.1-5.8
		c2.6-1.4,5.6-2.1,9-2.1c3.2,0,5.9,0.6,8.3,1.9c2.4,1.3,4.2,3.1,5.4,5.5l-5.8,3.4c-0.9-1.5-2.1-2.6-3.5-3.3
		c-1.4-0.7-2.9-1.1-4.5-1.1c-2.8,0-5.1,0.9-7,2.7c-1.8,1.8-2.8,4.3-2.8,7.3s0.9,5.5,2.7,7.3c1.8,1.8,4.1,2.7,7,2.7
		c1.6,0,3.1-0.4,4.5-1.1c1.4-0.7,2.5-1.8,3.5-3.3l5.8,3.4c-1.2,2.4-3.1,4.3-5.4,5.5c-2.4,1.3-5.1,2-8.3,2
		C569.6,827,566.6,826.3,564,824.9z"/>
	<path class="st3" d="M618.3,800.9H607v25.7h-7.5v-25.7h-11.3v-6.4h30V800.9z"/>
	<path class="st3" d="M649.2,807.8c2.2,1.8,3.3,4.4,3.3,7.8c0,3.5-1.2,6.2-3.6,8.2c-2.4,1.9-5.8,2.9-10.1,2.8l-15-0.1v-32h7.5V805
		l8.6,0.1C643.9,805.1,647,806,649.2,807.8z M643.1,819.7c1.2-1,1.7-2.4,1.7-4.2c0-1.8-0.6-3.1-1.7-4c-1.1-0.8-2.8-1.3-5.1-1.3
		l-6.8-0.1V821l6.8,0.1C640.3,821.1,641.9,820.7,643.1,819.7z"/>
	<path class="st3" d="M706.3,794.5v32h-7.4v-25.7h-15.8v25.7h-7.5v-32H706.3z"/>
	<path class="st3" d="M722,824.9c-2.6-1.4-4.6-3.3-6.1-5.9c-1.5-2.5-2.2-5.3-2.2-8.5s0.7-6,2.2-8.5c1.5-2.5,3.5-4.4,6.1-5.8
		c2.6-1.4,5.5-2.1,8.8-2.1c3.3,0,6.2,0.7,8.8,2.1c2.6,1.4,4.6,3.3,6.1,5.8c1.5,2.5,2.2,5.3,2.2,8.5s-0.7,6-2.2,8.5
		c-1.5,2.5-3.5,4.5-6.1,5.9c-2.6,1.4-5.5,2.1-8.8,2.1C727.5,827,724.6,826.3,722,824.9z M737.6,817.8c1.8-1.8,2.7-4.3,2.7-7.3
		s-0.9-5.4-2.7-7.3c-1.8-1.8-4.1-2.8-6.8-2.8c-2.8,0-5,0.9-6.8,2.8c-1.8,1.8-2.7,4.3-2.7,7.3s0.9,5.4,2.7,7.3
		c1.8,1.8,4.1,2.8,6.8,2.8C733.5,820.5,735.8,819.6,737.6,817.8z"/>
	<path class="st3" d="M783.9,794.5v32h-7.5v-25.7h-12l-0.3,6.4c-0.2,4.2-0.6,7.8-1.2,10.7c-0.6,2.9-1.6,5.1-2.9,6.8
		c-1.4,1.7-3.3,2.5-5.7,2.5c-1.1,0-2.5-0.2-4.1-0.7l0.4-6.3c0.6,0.1,1,0.2,1.4,0.2c1.5,0,2.7-0.6,3.4-1.8c0.8-1.2,1.2-2.7,1.5-4.4
		c0.2-1.7,0.4-4.1,0.6-7.3l0.5-12.4H783.9z"/>
	<path class="st3" d="M824.2,794.5l-15,34.6c-1.4,3.5-3.1,5.9-5.1,7.3s-4.4,2.1-7.3,2.1c-1.6,0-3.2-0.3-4.7-0.8
		c-1.6-0.5-2.8-1.2-3.8-2.2l3-5.5c0.7,0.7,1.6,1.2,2.5,1.6c1,0.4,2,0.6,3,0.6c1.3,0,2.4-0.3,3.3-1c0.9-0.7,1.7-1.8,2.4-3.4l0.5-1.3
		l-14-32.2h7.8l10.1,23.7l10.1-23.7H824.2z"/>
	<path class="st3" d="M856.6,794.5v32h-7.5v-12.4c-3.1,1.5-6.3,2.2-9.7,2.2c-4.1,0-7.3-0.9-9.5-2.8c-2.2-1.9-3.3-4.8-3.3-8.7v-10.3
		h7.5v9.8c0,2,0.6,3.6,1.8,4.6c1.2,1,2.9,1.5,5.1,1.5c2.8,0,5.5-0.6,8-1.8v-14H856.6z"/>
	<path class="st3" d="M866.7,794.5h7.5v21.1l17.7-21.1h6.8v32h-7.5v-21.1l-17.6,21.1h-6.9V794.5z"/>
	<path class="st3" d="M934.2,800.9H923v25.7h-7.5v-25.7h-11.3v-6.4h30V800.9z"/>
	<path class="st3" d="M965.2,807.8c2.2,1.8,3.3,4.4,3.3,7.8c0,3.5-1.2,6.2-3.6,8.2c-2.4,1.9-5.8,2.9-10.1,2.8l-15-0.1v-32h7.5V805
		l8.6,0.1C959.8,805.1,963,806,965.2,807.8z M959.1,819.7c1.2-1,1.7-2.4,1.7-4.2c0-1.8-0.6-3.1-1.7-4c-1.1-0.8-2.8-1.3-5.1-1.3
		l-6.8-0.1V821l6.8,0.1C956.2,821.1,957.9,820.7,959.1,819.7z"/>
	<path class="st3" d="M1017.7,796.2c2.5,1.4,4.4,3.3,5.8,5.8c1.4,2.5,2.1,5.3,2.1,8.6c0,3.2-0.7,6.1-2.1,8.6
		c-1.4,2.5-3.3,4.4-5.8,5.8c-2.5,1.4-5.3,2-8.4,2c-4.3,0-7.7-1.4-10.3-4.3v15.5h-7.5v-43.7h7.1v4.2c1.2-1.5,2.8-2.7,4.6-3.4
		s3.8-1.1,6-1.1C1012.5,794.1,1015.3,794.8,1017.7,796.2z M1015.3,817.8c1.8-1.8,2.7-4.3,2.7-7.3s-0.9-5.4-2.7-7.3
		c-1.8-1.8-4-2.8-6.8-2.8c-1.8,0-3.4,0.4-4.9,1.2c-1.4,0.8-2.6,2-3.4,3.5c-0.8,1.5-1.3,3.3-1.3,5.3s0.4,3.8,1.3,5.3
		c0.8,1.5,2,2.7,3.4,3.5c1.4,0.8,3.1,1.2,4.9,1.2C1011.3,820.5,1013.5,819.6,1015.3,817.8z"/>
	<path class="st3" d="M1055.4,797.5c2.5,2.3,3.8,5.7,3.8,10.2v18.8h-7.1v-3.9c-0.9,1.4-2.2,2.5-3.9,3.2c-1.7,0.7-3.8,1.1-6.1,1.1
		c-2.4,0-4.5-0.4-6.3-1.2c-1.8-0.8-3.2-2-4.2-3.4c-1-1.5-1.5-3.1-1.5-4.9c0-2.9,1.1-5.2,3.2-6.9c2.1-1.7,5.5-2.6,10.1-2.6h8.3v-0.5
		c0-2.2-0.7-4-2-5.2c-1.3-1.2-3.3-1.8-6-1.8c-1.8,0-3.6,0.3-5.3,0.8c-1.7,0.6-3.2,1.3-4.4,2.3l-2.9-5.5c1.7-1.3,3.7-2.3,6.1-2.9
		c2.4-0.7,4.9-1,7.5-1C1049.3,794.1,1052.9,795.3,1055.4,797.5z M1048.6,820.2c1.5-0.9,2.5-2.1,3.1-3.7v-3.7h-7.7
		c-4.3,0-6.5,1.4-6.5,4.3c0,1.4,0.5,2.4,1.6,3.2c1.1,0.8,2.6,1.2,4.5,1.2C1045.4,821.5,1047.1,821.1,1048.6,820.2z"/>
	<path class="st3" d="M1093.8,798c2.3,1.3,4.1,3.1,5.4,5.4c1.3,2.3,2,5,2,8c0,3.1-0.7,5.8-2.2,8.2c-1.4,2.4-3.5,4.2-6.1,5.5
		c-2.6,1.3-5.6,2-8.9,2c-5.6,0-9.9-1.8-12.9-5.5c-3-3.7-4.6-9-4.6-15.9c0-6.4,1.4-11.5,4.1-15.3c2.8-3.8,7-6.2,12.7-7.4l14.9-3.2
		l1.1,6.7l-13.5,2.8c-3.9,0.8-6.8,2.2-8.7,4.1s-3,4.6-3.4,8.1c1.4-1.7,3.2-3,5.2-4c2-0.9,4.3-1.4,6.7-1.4
		C1088.8,796.1,1091.5,796.7,1093.8,798z M1091,818.4c1.7-1.8,2.5-4,2.5-6.8c0-2.8-0.9-5-2.5-6.7c-1.7-1.7-3.9-2.5-6.7-2.5
		c-2.8,0-5.1,0.8-6.8,2.5c-1.7,1.7-2.6,3.9-2.6,6.7c0,2.8,0.9,5.1,2.6,6.8s4,2.6,6.8,2.6S1089.3,820.2,1091,818.4z"/>
	<path class="st3" d="M1114,824.9c-2.6-1.4-4.6-3.3-6.1-5.9c-1.5-2.5-2.2-5.3-2.2-8.5s0.7-6,2.2-8.5c1.5-2.5,3.5-4.4,6.1-5.8
		c2.6-1.4,5.5-2.1,8.8-2.1c3.3,0,6.2,0.7,8.8,2.1c2.6,1.4,4.6,3.3,6.1,5.8c1.5,2.5,2.2,5.3,2.2,8.5s-0.7,6-2.2,8.5
		c-1.5,2.5-3.5,4.5-6.1,5.9c-2.6,1.4-5.5,2.1-8.8,2.1C1119.5,827,1116.6,826.3,1114,824.9z M1129.6,817.8c1.8-1.8,2.7-4.3,2.7-7.3
		s-0.9-5.4-2.7-7.3c-1.8-1.8-4.1-2.8-6.8-2.8c-2.8,0-5,0.9-6.8,2.8c-1.8,1.8-2.7,4.3-2.7,7.3s0.9,5.4,2.7,7.3c1.8,1.8,4,2.8,6.8,2.8
		C1125.5,820.5,1127.8,819.6,1129.6,817.8z"/>
	<path class="st3" d="M1171.4,800.9h-11.2v25.7h-7.5v-25.7h-11.3v-6.4h30V800.9z"/>
	<path class="st3" d="M1207.3,794.5l-15,34.6c-1.4,3.5-3.1,5.9-5.1,7.3s-4.4,2.1-7.3,2.1c-1.6,0-3.2-0.3-4.7-0.8
		c-1.6-0.5-2.8-1.2-3.8-2.2l3-5.5c0.7,0.7,1.6,1.2,2.5,1.6c1,0.4,2,0.6,3,0.6c1.3,0,2.4-0.3,3.3-1c0.9-0.7,1.7-1.8,2.4-3.4l0.5-1.3
		l-14-32.2h7.8l10.1,23.7l10.1-23.7H1207.3z"/>
</g>
<circle class="st3" cx="378.6" cy="1419.3" r="35.2"/>
<circle class="st3" cx="218.3" cy="1237.3" r="35.2"/>
<circle class="st3" cx="146.1" cy="1006.2" r="35.2"/>
<circle class="st3" cx="119" cy="812.1" r="35.2"/>
<polygon class="st0" points="1515.6,380.8 1388.9,391.8 1271.4,349.4 1296.8,279 1305.1,256.3 1318.8,218.3 1328.5,191.4 
	1493.9,212.7 1498.1,245.3 1503,283.6 1506.3,309 1506.3,309 "/>
<polygon class="st6" points="1347.2,476.5 1347.2,539.3 1339.6,563.2 1333.4,595.9 1239.9,596.3 1132.3,621.1 1130.1,615.5 
	1045.4,558.2 1032.9,535.7 1079.9,533.2 1205.6,505.5 1241.1,480.4 1251.3,439.6 1246.1,418.6 1269.7,402.9 1287.4,432.9 
	1286.8,470.9 "/>
<polygon class="st6" points="1754.7,572.1 1754.6,572.7 1600,603.2 1588.8,635.8 1446,576.9 1445.1,541.8 1433.8,522.1 
	1433.5,460.4 1489.8,461.4 1498.3,420.3 1519.9,390.4 1542.2,403.7 1535.3,439.3 1560.2,484.3 1566.7,512.4 1689.8,555.1 "/>
<path class="st0" d="M1754.7,572.1l-64.8-16.9l-123.2-42.7l-6.5-28l-24.9-45.1l6.9-35.6l-22.3-13.3l-21.6,29.9l-8.5,41.1l-56.3-1
	l0.3,61.7l11.3,19.7l0.9,35.2l142.9,58.9l158.8,65.4l64.9-34.7l16.8-75l-90.2-131.7c-28.7-41.8-71.7-71.7-120.9-84l-108.9-27.2
	l-232.9-11.8l-88,12.6c-69.1,9.9-132.3,44.4-178,97.3l-81.7,94.5l-2.6,84.6l76.1,24.2l237.8-53.8l93.5-0.4l6.2-32.8l7.5-23.9
	l0.1-62.8l-60.5-5.6l0.6-38l-17.6-30l-23.6,15.7l5.2,21l-10.2,40.9l-35.5,25.1l-125.7,27.7l-47,2.5"/>
<polygon class="st6" points="1352.1,522.9 1336,516.4 1307,514 1306.8,520.4 1335.6,523.4 1351.5,533.5 "/>
<polygon class="st6" points="1342.5,567.7 1331.4,560.9 1311.5,558.1 1310.7,564.7 1329.9,568 1341.9,574.8 "/>
<polygon class="st6" points="1432.7,499.8 1459.9,492.5 1499.3,503.8 1491.1,507.9 1462.7,499.6 1428.9,509.7 "/>
<polygon class="st6" points="1440.7,542.7 1476.6,540.4 1485.3,547.7 1479.7,551.9 1473.5,547.8 1444.2,550.5 "/>
<path class="st7" d="M1503.4,286.8l-34.3,63.7c0,0-28.8,19-57.5,20.3c-28.7,1.3-65.9-0.7-65.9-0.7l-60.5-59.6l20-50.3l191-15.3
	L1503.4,286.8z"/>
<path class="st0" d="M1478.6,54.2L1478.6,54.2c-70.6-13.4-143.5-6.7-210.5,19.3l-0.6,0.2l-1.9,67.3l-7.4,115.3l87.8,98.4l20.8,1.7
	c26.2,2.1,52.7-0.3,78.1-7l22.2-5.9l61.3-112.2l-38.6-117L1478.6,54.2z"/>
<polygon class="st8" points="1278.6,116.6 1244.6,73 1243.2,38.3 1256.4,41.7 1266.8,65 1294.3,78 1299.8,92.9 "/>
<polygon class="st8" points="1479.8,99.2 1501,61.1 1500.1,10.5 1481.1,17.4 1480.3,49.9 1455.2,65.5 1457.8,88.7 "/>
<polygon class="st7" points="1364.9,174.9 1352.6,130.5 1316.7,141.9 1324.6,176 1341.5,174.5 "/>
<polygon class="st7" points="1413.2,128.1 1410.8,173.5 1434,165.3 1454.1,168 1458.7,135.9 "/>
<polygon class="st8" points="1408.6,117.9 1412.8,134.2 1475.4,141 1478.7,111.6 "/>
<polygon class="st8" points="1305,149.4 1355.6,143.9 1364.6,123.3 1289.7,126.8 "/>
<polygon class="st7" points="1383.9,325.8 1437.3,318.3 1406.4,334.9 "/>
<polygon class="st9" points="1376.1,237.2 1409.8,233.9 1423.4,206.7 1352.7,214.5 "/>
<path class="st10" d="M1403.8,229.5l-1.1-8.6c0,0,7.2-1.2,7.7-1.2"/>
<polyline class="st10" points="1378.4,233 1379.2,224 1370.3,224.5 "/>
<polyline class="st10" points="1387.4,210.2 1352.1,213.5 1363.1,224.9 "/>
<polygon class="st6" points="1356,548.5 1339.7,603.2 1240.6,601.6 1153.3,625.4 1132.3,621.1 1239.9,596.3 1333.4,595.9 
	1339.6,563.2 1347.2,539.3 1347.2,476.5 1286.8,470.9 1287.4,432.9 1269.7,402.9 1246.1,418.6 1251.3,439.6 1241.1,480.4 
	1205.6,505.5 1079.9,533.2 1032.9,535.7 1029.8,530.2 1134.2,502.9 1214.9,487.2 1241.4,441.1 1237.8,406.6 1276,399 1295.7,439.6 
	1293.6,467.7 1351.5,472.7 "/>
<polygon class="st6" points="1755.5,566.8 1754.7,572.1 1689.8,555.1 1566.7,512.4 1560.2,484.3 1535.3,439.3 1542.2,403.7 
	1519.9,390.4 1498.3,420.3 1489.8,461.4 1433.5,460.4 1433.8,522.1 1445.1,541.8 1446,576.9 1588.8,635.8 1584.5,648.4 
	1430.8,585.7 1431.5,545.7 1424.4,503.4 1424,456.1 1479.9,449.2 1489.4,413.5 1511.4,381.4 1546.9,395.5 1541.8,438.1 
	1563.3,478.5 1570.9,508 "/>
<polygon class="st7" points="1474.3,242.2 1468.8,236.1 1460.2,233.1 1449.6,237.2 1462.3,237.6 "/>
<polygon class="st7" points="1339.6,266.8 1396.5,263.3 1439.1,254.5 1457.6,244.9 1453,252.6 1448,267.7 1398.3,281.8 
	1345.1,281.2 1332.1,266.6 "/>
<polygon class="st3" points="1344,266.4 1343.9,272 1346.6,277.1 1349.4,279.1 1353,270.6 1353.6,272.9 1397.2,269.2 1439.6,265.1 
	1441.1,264.6 1443.1,267.8 1445.1,266.7 1447,258 1447.7,250.1 1439.1,254.5 1396.5,263.3 "/>
<polygon class="st3" points="1350.5,281.5 1350.6,270.3 1401.2,265.7 1441.3,259.7 1440.6,270.2 1398.3,281.8 "/>
<polygon class="st11" points="1352,272.3 1350.5,276.5 1350.5,279.1 1361.7,273.1 "/>
<polygon class="st11" points="1440.2,261.6 1429.1,265.8 1440.8,268.1 1441.1,264.6 "/>
<polygon class="st3" points="1409.9,171.4 1433.2,163.1 1463.9,164.6 1468,176.5 1444.4,178.6 1410.6,181.9 "/>
<path class="st12" d="M1424.2,179.1l2.2,0.3l4.4-0.4l14.7-1.4l0.6-3.6l-5.1-5.7l-8.4-1.5l-7,4.9l-1.4,4.7L1424.2,179.1z"/>
<polygon class="st9" points="1426.5,180.1 1431.8,178.6 1443.1,178 1443.7,174.6 1439.3,170.4 1432.6,169.5 1427.3,173.6 
	1426.3,177 "/>
<polygon class="st7" points="1410.6,181.7 1424.5,203.3 1423.2,180.8 "/>
<polygon class="st7" points="1364.8,186.8 1350.9,208.5 1352.2,186 "/>
<polyline class="st13" points="1410.6,181.7 1444.7,179 1468,176.5 1464.7,164.6 1433.1,162.9 1410.4,170.9 1411.8,145 "/>
<polygon class="st3" points="1364,174.4 1339.8,169.6 1309,176.9 1306.1,185.1 1331,186.6 1364.6,187.3 "/>
<path class="st12" d="M1348.2,177.3l-7.6-3.9l-8.1,2.6l-3.9,7.7l0.7,2.2l14.7-0.7l6.3,0.3l0.7-2.5L1348.2,177.3z"/>
<polygon class="st9" points="1348.9,185.3 1342.4,185.7 1331.6,186 1330.9,183.9 1333.9,177.9 1340.3,175.8 1346.3,178.9 
	1349,183.6 "/>
<polyline class="st13" points="1364.8,185.9 1330.7,187.2 1304.9,186 1309,176.9 1339.8,169.6 1363.5,174.2 1358.2,148.7 "/>
<polygon class="st9" points="1376,167.5 1402.5,164.2 1402.6,169.7 1375.1,171.9 "/>
<path class="st9" d="M1375.4,159l-85,4.8l3,36.5l86.3-7.3L1375.4,159z M1300.5,195.7l-3.4-28l74.6-5.2l4,28.5L1300.5,195.7z"/>
<polyline class="st14" points="1316.4,162.5 1290.4,163.9 1293.2,192.5 "/>
<path class="st9" d="M1400.4,154.6l4,34.9l80.2-0.2l-2.8-43.1L1400.4,154.6z M1407,187l-3.3-30.3l72.7-5.6l1.5,33.8L1407,187z"/>
<polyline class="st14" points="1402.3,176.7 1399.7,154.2 1441.1,150.7 "/>
</svg>
