<?xml version="1.0" encoding="utf-8"?>
<!-- Generator: Adobe Illustrator 24.1.1, SVG Export Plug-In . SVG Version: 6.00 Build 0)  -->
<svg version="1.1" id="Слой_1" xmlns="http://www.w3.org/2000/svg" xmlns:xlink="http://www.w3.org/1999/xlink" x="0px" y="0px"
	 viewBox="0 0 320.9 842.9" style="enable-background:new 0 0 320.9 842.9;" xml:space="preserve">
<style type="text/css">
	.st0{enable-background:new    ;}
	.st1{fill:none;stroke:#000000;stroke-width:6;stroke-miterlimit:10;stroke-dasharray:30,27;}
	.st2{fill:#FD6A00;}
	.st3{fill:#FFFFFF;}
	.st4{fill:#FFFFFF;stroke:#FFFFFF;stroke-width:0.5542;stroke-miterlimit:10;}
	.st5{fill:#FFFFFF;stroke:#FFFFFF;stroke-width:0.5982;stroke-miterlimit:10;}
	.st6{fill:#FFFFFF;stroke:#FFFFFF;stroke-width:0.605;stroke-miterlimit:10;}
</style>
<g>
	<g class="st0">
		<path d="M235.5,22.3v24.5h-5.6V26.9h-11.1v19.9h-5.6V22.3H235.5z"/>
	</g>
	<g class="st0">
		<path d="M263.8,22.3l-10.4,19.4c-1,1.9-2.2,3.3-3.6,4.2c-1.4,1-2.9,1.4-4.6,1.4c-1.3,0-2.6-0.3-4-0.8l1.4-4.3
			c1,0.3,1.8,0.5,2.5,0.5c0.7,0,1.3-0.2,1.9-0.5c0.6-0.3,1.1-0.9,1.5-1.6l0.2-0.3l-9.7-18h6.1l6.5,13.2l6.7-13.2H263.8z"/>
	</g>
	<g class="st0">
		<path d="M285.2,26.9h-7.8v19.9h-5.6V26.9H264v-4.6h21.2V26.9z"/>
		<path d="M307.6,32.4c1.6,1.3,2.4,3.3,2.4,5.9c0,2.8-0.9,4.9-2.6,6.4c-1.8,1.5-4.2,2.2-7.4,2.2h-11.1V22.3h5.6v8h6.2
			C303.7,30.4,306,31,307.6,32.4z M303,41.5c0.8-0.7,1.2-1.8,1.2-3.1c0-2.5-1.6-3.8-4.7-3.8h-5.1v8h5.1
			C301,42.6,302.2,42.2,303,41.5z"/>
	</g>
	<g class="st0">
		<path d="M109.7,64.3L99.3,83.7c-1,1.9-2.2,3.3-3.6,4.2s-2.9,1.4-4.6,1.4c-1.3,0-2.6-0.3-4-0.8l1.4-4.3c1,0.3,1.8,0.5,2.5,0.5
			c0.7,0,1.3-0.2,1.9-0.5c0.6-0.3,1.1-0.9,1.5-1.6l0.2-0.3l-9.7-18h6.1l6.5,13.2l6.7-13.2H109.7z"/>
		<path d="M133,64.3v24.5h-5.6V80c-2.1,0.8-4.1,1.2-5.9,1.2c-3.3,0-5.8-0.8-7.6-2.4s-2.6-3.8-2.6-6.8v-7.7h5.6v7
			c0,1.7,0.4,2.9,1.3,3.8c0.9,0.9,2.2,1.3,3.9,1.3c1.9,0,3.6-0.4,5.3-1.1v-11H133z"/>
	</g>
	<g class="st0">
		<path d="M155.7,83.6h-11.4l-2.2,5.3h-5.8l10.9-24.5h5.6l11,24.5h-5.9L155.7,83.6z M153.9,79.3l-3.9-9.4l-3.9,9.4H153.9z"/>
	</g>
	<g class="st0">
		<path d="M171.5,87.6c-2-1.1-3.6-2.6-4.8-4.5s-1.7-4.1-1.7-6.5s0.6-4.6,1.7-6.5s2.7-3.4,4.8-4.5c2-1.1,4.3-1.6,6.8-1.6
			c2.1,0,4,0.4,5.8,1.1s3.2,1.8,4.3,3.2l-3.6,3.4c-1.7-1.9-3.7-2.9-6.2-2.9c-1.5,0-2.9,0.3-4.1,1c-1.2,0.7-2.1,1.6-2.8,2.8
			c-0.7,1.2-1,2.5-1,4.1s0.3,2.9,1,4.1c0.7,1.2,1.6,2.1,2.8,2.8c1.2,0.7,2.5,1,4.1,1c2.5,0,4.5-1,6.2-2.9l3.6,3.4
			c-1.2,1.4-2.6,2.5-4.3,3.3c-1.7,0.7-3.7,1.1-5.8,1.1C175.8,89.2,173.6,88.7,171.5,87.6z"/>
	</g>
	<g class="st0">
		<path d="M210.6,68.9h-7.8v19.9h-5.6V68.9h-7.8v-4.6h21.2V68.9z"/>
		<path d="M236.7,64.3v24.5H231v-10h-11.1v10h-5.7V64.3h5.7V74H231v-9.7H236.7z"/>
		<path d="M242.8,64.3h5.6v16l11.7-16h5.3v24.5h-5.6V72.9l-11.7,15.9h-5.4V64.3z"/>
	</g>
	<g class="st0">
		<path d="M281,78.9h-3.9v9.9h-5.6V64.3h5.6v9.9h4.1l6.4-9.9h6l-8,11.8l8.3,12.7h-6.4L281,78.9z"/>
	</g>
	<g class="st0">
		<path d="M312.6,83.6h-11.4l-2.2,5.3h-5.8l10.9-24.5h5.6l11,24.5h-5.9L312.6,83.6z M310.8,79.3l-3.9-9.4l-3.9,9.4H310.8z"/>
	</g>
	<rect x="203.2" width="1.1" height="25.3"/>
	<rect x="191.1" y="12.1" width="25.3" height="1.1"/>
	<path class="st1" d="M210.7,506.3c25.1,42.2,33.9,122.2-36.8,189.2"/>
	<path class="st1" d="M163.3,429.2c-32.6-36.6-56.5-113.5,0.2-192.7"/>
	<g>
		<path class="st2" d="M311,486.3c3,26.9-11.2,37.7-39.2,40.4c-19.3,1.8-25,19.8-60.5,25c-56.6,8.3-84.5,0.7-87.1-53.3
			c-1.4-29.6,21.7-58.6,79.2-62.6C257.2,432.1,306.4,444,311,486.3"/>
		<path d="M314.4,438.9v20h-80.1v-15.9l40.9-38.6c4.3-4.1,7.3-7.7,8.8-10.7c1.5-2.7,2.2-5.8,2.3-8.9c0-4.2-1.4-7.5-4.3-9.8
			c-2.9-2.3-7.1-3.4-12.6-3.4c-4.3-0.1-8.6,0.8-12.6,2.7c-3.8,1.8-7,4.5-9.4,8l-17.9-11.5c4.3-6.3,10.2-11.3,17.1-14.5
			c7.8-3.6,16.4-5.4,25-5.2c7.1-0.2,14.1,1.2,20.7,3.9c5.5,2.3,10.3,6.1,13.8,10.9c3.3,4.9,5.1,10.7,4.9,16.6
			c0,5.6-1.2,11.2-3.6,16.2c-2.4,5.1-7.1,10.8-14.1,17.3l-24.4,23L314.4,438.9z"/>
	</g>
	<g>
		<path d="M82.3,668.1c5.3,5.8,7.9,12.9,7.9,21.5c0,6.4-1.8,12.8-5.2,18.2c-3.5,5.6-8.7,10-15.8,13.4c-7.1,3.3-15.8,5-26,5
			c-8,0-15.9-1.1-23.6-3.2c-7.1-1.8-13.7-4.8-19.7-9L10.2,694c4.5,3.3,9.6,5.9,15,7.5c5.6,1.8,11.5,2.7,17.4,2.7
			c6.6,0,11.8-1.3,15.6-3.8c3.7-2.3,5.8-6.4,5.7-10.8c0-9.3-7.1-13.9-21.2-13.9h-12v-17.3L54,631.9H5.7v-21.1h79.4v17L59.5,657
			C69.4,658.6,77,662.3,82.3,668.1"/>
		<path class="st2" d="M192.6,710.3c25.3,12.1,95.4,15.3,94.3,65.4c-0.5,22.4-18.1,63.5-138,60.8c-28.2,1.4-64.4,18.9-92.3-11.1
			s-37.6-59.3-28.3-96.7c9.3-37.4,37.5-51.6,74.7-49C146.6,682.7,167.2,698.2,192.6,710.3"/>
	</g>
	<g>
		<polygon points="156.2,126.1 156.2,234.9 131,234.9 131,146.3 109.2,146.3 109.2,126.1 		"/>
		<path class="st2" d="M196.8,247.3c0,49.7-58.7,84.5-108.4,84.5c-49.7,0-78.1-17.5-78.1-67.3c0-49.7,40-60.2,89.7-60.2
			C149.7,204.3,196.8,197.6,196.8,247.3"/>
	</g>
</g>
<g>
	<g>
		<g>
			<path class="st3" d="M49.7,261.5c0.5,0.4,0.8,1,0.8,1.8c0,0.8-0.2,1.4-0.8,1.8c-0.5,0.4-1.2,0.6-2.2,0.6h-2.1v2.4H45v-7.3h2.6
				C48.5,260.9,49.2,261.1,49.7,261.5z M49.4,264.8c0.4-0.3,0.6-0.8,0.6-1.4c0-0.6-0.2-1.1-0.6-1.5c-0.4-0.4-1-0.5-1.8-0.5h-2.1v3.9
				h2.1C48.3,265.3,48.9,265.1,49.4,264.8z"/>
			<path class="st3" d="M56.6,265.6h-4.7c0,0.4,0.1,0.8,0.3,1.1s0.5,0.6,0.8,0.8c0.4,0.2,0.7,0.3,1.2,0.3c0.4,0,0.7-0.1,1-0.2
				c0.3-0.1,0.6-0.3,0.8-0.6l0.3,0.4c-0.2,0.3-0.5,0.5-0.9,0.6c-0.4,0.2-0.8,0.2-1.2,0.2c-0.6,0-1-0.1-1.4-0.4c-0.4-0.2-0.8-0.6-1-1
				c-0.2-0.4-0.4-0.9-0.4-1.4c0-0.5,0.1-1,0.3-1.4c0.2-0.4,0.5-0.8,0.9-1c0.4-0.2,0.8-0.4,1.3-0.4s0.9,0.1,1.3,0.4
				c0.4,0.2,0.7,0.6,0.9,1c0.2,0.4,0.3,0.9,0.3,1.4L56.6,265.6z M53,263.4c-0.3,0.2-0.6,0.4-0.7,0.7c-0.2,0.3-0.3,0.6-0.3,1h4.1
				c0-0.4-0.1-0.7-0.3-1s-0.4-0.6-0.7-0.7c-0.3-0.2-0.6-0.3-1-0.3C53.6,263.1,53.3,263.2,53,263.4z"/>
			<path class="st3" d="M62,263.2h-3.2v4.9h-0.5v-5.4H62V263.2z"/>
			<path class="st3" d="M63.1,262.7h0.5v4.6l3.9-4.6h0.4v5.4h-0.5v-4.6l-3.9,4.6h-0.4V262.7z"/>
			<path class="st3" d="M71,267.8c-0.4-0.2-0.8-0.6-1-1c-0.2-0.4-0.4-0.9-0.4-1.4s0.1-1,0.4-1.4c0.2-0.4,0.6-0.8,1-1
				c0.4-0.2,0.9-0.4,1.4-0.4c0.4,0,0.8,0.1,1.2,0.2c0.4,0.2,0.6,0.4,0.9,0.8L74,264c-0.2-0.3-0.4-0.5-0.7-0.6
				c-0.3-0.1-0.6-0.2-1-0.2c-0.4,0-0.8,0.1-1.1,0.3c-0.3,0.2-0.6,0.4-0.8,0.8c-0.2,0.4-0.3,0.8-0.3,1.2s0.1,0.8,0.3,1.2
				c0.2,0.4,0.4,0.6,0.8,0.8c0.4,0.2,0.7,0.3,1.1,0.3c0.4,0,0.7-0.1,1-0.2c0.3-0.1,0.5-0.3,0.7-0.6l0.4,0.3
				c-0.2,0.3-0.5,0.6-0.9,0.8c-0.4,0.2-0.8,0.2-1.2,0.2C71.8,268.2,71.4,268.1,71,267.8z"/>
			<path class="st3" d="M79.5,263.2h-2.1v4.9h-0.5v-4.9h-2.1v-0.5h4.7L79.5,263.2L79.5,263.2z"/>
			<path class="st3" d="M84.7,263.1c0.4,0.2,0.7,0.6,1,1c0.2,0.4,0.4,0.9,0.4,1.4c0,0.5-0.1,1-0.4,1.4c-0.2,0.4-0.6,0.8-1,1
				c-0.4,0.2-0.9,0.4-1.4,0.4c-0.5,0-0.9-0.1-1.3-0.3c-0.4-0.2-0.7-0.5-0.9-1v3.2h-0.5v-7.4H81v1.3c0.2-0.4,0.5-0.8,0.9-1
				c0.4-0.2,0.8-0.4,1.3-0.4C83.8,262.7,84.2,262.8,84.7,263.1z M84.4,267.4c0.3-0.2,0.6-0.5,0.8-0.8c0.2-0.3,0.3-0.8,0.3-1.2
				c0-0.4-0.1-0.8-0.3-1.2c-0.2-0.4-0.4-0.6-0.8-0.8c-0.4-0.2-0.7-0.3-1.1-0.3c-0.4,0-0.8,0.1-1.1,0.3c-0.3,0.2-0.6,0.5-0.8,0.8
				c-0.2,0.4-0.3,0.8-0.3,1.2c0,0.4,0.1,0.8,0.3,1.2c0.2,0.4,0.4,0.6,0.8,0.8c0.3,0.2,0.7,0.3,1.1,0.3
				C83.7,267.7,84,267.6,84.4,267.4z"/>
			<path class="st3" d="M91,263.2c0.4,0.4,0.6,0.8,0.6,1.5v3.4h-0.5v-1c-0.2,0.3-0.4,0.6-0.8,0.8c-0.3,0.2-0.7,0.3-1.2,0.3
				c-0.6,0-1.1-0.2-1.4-0.4s-0.5-0.6-0.5-1.1c0-0.4,0.2-0.8,0.5-1.1c0.3-0.3,0.8-0.4,1.6-0.4h1.9v-0.4c0-0.5-0.1-0.9-0.4-1.2
				c-0.3-0.3-0.7-0.4-1.2-0.4c-0.4,0-0.7,0.1-1,0.2c-0.3,0.1-0.6,0.3-0.8,0.5l-0.2-0.4c0.3-0.2,0.6-0.4,1-0.6
				c0.4-0.1,0.8-0.2,1.2-0.2C90.1,262.7,90.6,262.9,91,263.2z M90.3,267.5c0.3-0.2,0.6-0.5,0.7-0.9v-1h-1.8c-0.5,0-0.9,0.1-1.2,0.3
				s-0.4,0.5-0.4,0.8c0,0.4,0.1,0.6,0.4,0.8s0.6,0.3,1.1,0.3C89.6,267.8,90,267.6,90.3,267.5z"/>
			<path class="st3" d="M99.2,267.7v1.9h-0.5v-1.4h-5v-5.4h0.5v4.9h3.6v-4.9h0.5v4.9L99.2,267.7L99.2,267.7z"/>
			<path class="st3" d="M100.7,262.7h0.5v4.6l3.9-4.6h0.4v5.4H105v-4.6l-3.9,4.6h-0.4V262.7z"/>
			<path class="st3" d="M111.7,262.7v5.4h-0.5v-1.9h-1.8c-0.1,0-0.2,0-0.3,0l-1.4,1.9h-0.6l1.4-2c-0.4-0.1-0.8-0.3-1-0.6
				c-0.2-0.3-0.4-0.6-0.4-1.1c0-0.6,0.2-1,0.6-1.4c0.4-0.3,1-0.4,1.6-0.4L111.7,262.7L111.7,262.7z M109.5,265.9h1.8v-2.7h-1.7
				c-1.2,0-1.8,0.4-1.8,1.4S108.4,265.9,109.5,265.9z"/>
			<path class="st3" d="M119.9,265.8c0.2,0.2,0.3,0.5,0.3,0.8c0,0.3-0.1,0.6-0.3,0.8c-0.2,0.2-0.5,0.4-0.8,0.6
				c-0.4,0.1-0.8,0.2-1.2,0.2c-0.4,0-0.8-0.1-1.1-0.2c-0.4-0.1-0.7-0.3-1-0.5l0.2-0.4c0.2,0.2,0.5,0.4,0.9,0.5
				c0.3,0.1,0.7,0.2,1,0.2c0.5,0,1-0.1,1.3-0.3c0.4-0.2,0.5-0.5,0.5-0.9c0-0.3-0.2-0.6-0.4-0.8c-0.3-0.2-0.7-0.3-1.2-0.3h-0.9v-0.4
				h0.8c0.4,0,0.8-0.1,1.1-0.2c0.3-0.2,0.4-0.4,0.4-0.7c0-0.3-0.2-0.6-0.5-0.8c-0.3-0.2-0.7-0.3-1.2-0.3c-0.6,0-1.2,0.2-1.7,0.5
				l-0.2-0.4c0.6-0.3,1.2-0.5,2-0.5c0.6,0,1.1,0.1,1.5,0.4c0.4,0.2,0.6,0.6,0.6,1c0,0.3-0.1,0.5-0.3,0.8c-0.2,0.2-0.5,0.4-0.8,0.5
				C119.4,265.4,119.7,265.5,119.9,265.8z"/>
			<path class="st3" d="M125.4,263.2c0.4,0.4,0.6,0.8,0.6,1.5v3.4h-0.5v-1c-0.2,0.3-0.4,0.6-0.8,0.8c-0.3,0.2-0.7,0.3-1.2,0.3
				c-0.6,0-1.1-0.2-1.4-0.4c-0.4-0.3-0.5-0.6-0.5-1.1c0-0.4,0.2-0.8,0.5-1.1c0.3-0.3,0.8-0.4,1.6-0.4h1.9v-0.4
				c0-0.5-0.1-0.9-0.4-1.2c-0.3-0.3-0.7-0.4-1.2-0.4c-0.4,0-0.7,0.1-1,0.2c-0.3,0.1-0.6,0.3-0.8,0.5l-0.2-0.4c0.3-0.2,0.6-0.4,1-0.6
				c0.4-0.1,0.8-0.2,1.2-0.2C124.6,262.7,125.1,262.9,125.4,263.2z M124.7,267.5c0.3-0.2,0.6-0.5,0.7-0.9v-1h-1.8
				c-0.5,0-0.9,0.1-1.2,0.3c-0.2,0.2-0.4,0.5-0.4,0.8c0,0.4,0.1,0.6,0.4,0.8c0.3,0.2,0.6,0.3,1.1,0.3
				C124,267.8,124.4,267.6,124.7,267.5z"/>
			<path class="st3" d="M132.1,262.7v5.4h-0.5v-1.9h-1.8c-0.1,0-0.2,0-0.3,0l-1.4,1.9h-0.6l1.4-2c-0.4-0.1-0.8-0.3-1-0.6
				c-0.2-0.3-0.4-0.6-0.4-1.1c0-0.6,0.2-1,0.6-1.4c0.4-0.3,1-0.4,1.6-0.4L132.1,262.7L132.1,262.7z M129.8,265.9h1.8v-2.7h-1.7
				c-1.2,0-1.8,0.4-1.8,1.4S128.7,265.9,129.8,265.9z"/>
			<path class="st3" d="M138.7,266.7c0,0.5-0.2,0.8-0.5,1.1c-0.4,0.2-0.8,0.4-1.6,0.4h-2.4v-5.4h2.3c0.6,0,1.1,0.1,1.4,0.4
				c0.4,0.2,0.5,0.6,0.5,1c0,0.3-0.1,0.6-0.3,0.8c-0.2,0.2-0.4,0.4-0.8,0.4C138.3,265.5,138.7,265.9,138.7,266.7z M134.8,265.2h1.8
				c0.5,0,0.8-0.1,1.1-0.3c0.2-0.2,0.4-0.4,0.4-0.8s-0.1-0.6-0.4-0.8c-0.2-0.2-0.6-0.2-1.1-0.2h-1.8V265.2z M138.2,266.7
				c0-0.4-0.1-0.6-0.4-0.8c-0.2-0.2-0.6-0.2-1.1-0.2h-1.9v2.1h1.8C137.6,267.7,138.2,267.4,138.2,266.7z"/>
			<path class="st3" d="M141.3,267.8c-0.4-0.2-0.7-0.6-1-1c-0.2-0.4-0.4-0.9-0.4-1.4s0.1-1,0.4-1.4c0.2-0.4,0.6-0.8,1-1
				c0.4-0.2,0.9-0.4,1.4-0.4c0.5,0,1,0.1,1.4,0.4c0.4,0.2,0.7,0.6,1,1c0.2,0.4,0.4,0.9,0.4,1.4s-0.1,1-0.4,1.4c-0.2,0.4-0.6,0.8-1,1
				c-0.4,0.2-0.9,0.4-1.4,0.4C142.2,268.2,141.7,268.1,141.3,267.8z M143.8,267.4c0.3-0.2,0.6-0.5,0.8-0.8c0.2-0.4,0.3-0.8,0.3-1.2
				c0-0.4-0.1-0.8-0.3-1.2s-0.4-0.6-0.8-0.8c-0.3-0.2-0.7-0.3-1.1-0.3c-0.4,0-0.8,0.1-1.1,0.3c-0.3,0.2-0.6,0.5-0.8,0.8
				c-0.2,0.4-0.3,0.8-0.3,1.2c0,0.4,0.1,0.8,0.3,1.2c0.2,0.4,0.4,0.6,0.8,0.8c0.3,0.2,0.7,0.3,1.1,0.3
				C143.1,267.7,143.5,267.6,143.8,267.4z"/>
			<path class="st3" d="M148.9,265.7h-1.3v2.5h-0.5v-5.4h0.5v2.5h1.3l2-2.5h0.6l-2.2,2.6l2.4,2.8h-0.6L148.9,265.7z"/>
			<path class="st3" d="M46,280.1v1.8h-0.5v-1.4h-5.1v1.4h-0.5v-1.8h0.3c0.4,0,0.6-0.3,0.8-0.8c0.1-0.6,0.2-1.3,0.3-2.3l0.1-1.8h3.8
				v4.9H46z M41.4,279.1c-0.1,0.6-0.3,0.9-0.6,1.1h3.7v-4.5h-2.8l-0.1,1.4C41.6,277.8,41.6,278.5,41.4,279.1z"/>
			<path class="st3" d="M48.3,280.3c-0.4-0.2-0.7-0.6-1-1c-0.2-0.4-0.4-0.9-0.4-1.4s0.1-1,0.4-1.4s0.6-0.8,1-1
				c0.4-0.2,0.9-0.4,1.4-0.4c0.5,0,1,0.1,1.4,0.4c0.4,0.2,0.7,0.6,1,1c0.2,0.4,0.4,0.9,0.4,1.4s-0.1,1-0.4,1.4c-0.2,0.4-0.6,0.8-1,1
				c-0.4,0.2-0.9,0.4-1.4,0.4C49.1,280.7,48.7,280.5,48.3,280.3z M50.7,279.9c0.3-0.2,0.6-0.5,0.8-0.8c0.2-0.4,0.3-0.8,0.3-1.2
				s-0.1-0.8-0.3-1.2c-0.2-0.4-0.4-0.6-0.8-0.8c-0.3-0.2-0.7-0.3-1.1-0.3c-0.4,0-0.8,0.1-1.1,0.3c-0.3,0.2-0.6,0.5-0.8,0.8
				c-0.2,0.4-0.3,0.8-0.3,1.2s0.1,0.8,0.3,1.2s0.4,0.6,0.8,0.8c0.3,0.2,0.7,0.3,1.1,0.3C50,280.1,50.4,280.1,50.7,279.9z"/>
			<path class="st4" d="M59.6,276.9c0.4,0.4,0.6,0.9,0.6,1.6c0,0.4-0.1,0.8-0.2,1.1c-0.2,0.3-0.4,0.6-0.7,0.8
				c-0.3,0.2-0.7,0.3-1.2,0.3c-0.4,0-0.9-0.1-1.3-0.3c-0.4-0.2-0.7-0.4-0.9-0.7l0.2-0.4c0.2,0.3,0.5,0.5,0.8,0.6
				c0.3,0.2,0.7,0.2,1.1,0.2c0.5,0,1-0.2,1.3-0.4c0.3-0.3,0.4-0.7,0.4-1.2c0-0.6-0.2-1-0.5-1.2c-0.3-0.3-0.9-0.4-1.7-0.4h-1.3
				l0.3-3.5H60v0.5H57l-0.2,2.6h0.9C58.6,276.4,59.2,276.5,59.6,276.9z"/>
			<path class="st5" d="M62.1,280.5c-0.1-0.1-0.1-0.2-0.1-0.3c0-0.1,0-0.2,0.1-0.3s0.2-0.1,0.3-0.1c0.1,0,0.2,0,0.3,0.1
				c0.1,0.1,0.1,0.2,0.1,0.3c0,0.1,0,0.2-0.1,0.3s-0.2,0.1-0.3,0.1C62.3,280.6,62.2,280.6,62.1,280.5z"/>
			<path class="st5" d="M65.3,280.2c-0.4-0.3-0.8-0.7-1-1.3c-0.2-0.6-0.4-1.2-0.4-2c0-0.8,0.1-1.4,0.4-2s0.6-1,1-1.3
				c0.4-0.3,0.9-0.4,1.5-0.4s1,0.2,1.5,0.4c0.4,0.3,0.8,0.7,1,1.3c0.2,0.6,0.4,1.2,0.4,2c0,0.8-0.1,1.4-0.4,2c-0.2,0.6-0.6,1-1,1.3
				s-0.9,0.4-1.5,0.4C66.2,280.7,65.7,280.5,65.3,280.2z M67.9,279.8c0.4-0.2,0.6-0.6,0.8-1.1c0.2-0.5,0.3-1,0.3-1.7
				c0-0.7-0.1-1.2-0.3-1.7c-0.2-0.5-0.5-0.8-0.8-1.1c-0.4-0.2-0.8-0.4-1.2-0.4s-0.9,0.1-1.2,0.4c-0.4,0.2-0.6,0.6-0.8,1.1
				c-0.2,0.5-0.3,1-0.3,1.7c0,0.7,0.1,1.2,0.3,1.7c0.2,0.5,0.5,0.8,0.8,1.1c0.4,0.2,0.8,0.4,1.2,0.4S67.6,280,67.9,279.8z"/>
			<path class="st5" d="M75.1,274.2c0.5,0.6,0.8,1.5,0.8,2.7c0,0.8-0.1,1.5-0.4,2s-0.6,1-1.1,1.3c-0.5,0.3-1,0.4-1.7,0.4
				c-0.7,0-1.2-0.1-1.6-0.4l0.2-0.4c0.4,0.2,0.8,0.3,1.4,0.3c0.8,0,1.5-0.3,2-0.8c0.5-0.6,0.7-1.3,0.7-2.4c0-0.3,0-0.6-0.1-0.9
				c-0.2,0.5-0.4,0.8-0.8,1.1c-0.4,0.3-0.9,0.4-1.5,0.4c-0.5,0-0.9-0.1-1.3-0.3c-0.4-0.2-0.6-0.4-0.8-0.8c-0.2-0.3-0.3-0.7-0.3-1.1
				c0-0.4,0.1-0.8,0.3-1.2c0.2-0.3,0.5-0.6,0.9-0.8c0.4-0.2,0.8-0.3,1.2-0.3C73.8,273.3,74.5,273.6,75.1,274.2z M74,276.9
				c0.3-0.2,0.6-0.4,0.7-0.6c0.2-0.3,0.2-0.6,0.2-0.9c0-0.3-0.1-0.6-0.2-0.8c-0.2-0.3-0.4-0.5-0.7-0.6c-0.3-0.2-0.7-0.2-1.1-0.2
				c-0.6,0-1,0.2-1.4,0.5c-0.4,0.3-0.5,0.7-0.5,1.2c0,0.5,0.2,0.9,0.5,1.2c0.4,0.3,0.8,0.5,1.4,0.5C73.4,277.2,73.7,277.1,74,276.9z
				"/>
		</g>
		<g>
			<path class="st3" d="M46.3,296.7c-0.6-0.3-1-0.8-1.4-1.3c-0.3-0.6-0.5-1.2-0.5-1.9c0-0.7,0.2-1.3,0.5-1.9c0.3-0.6,0.8-1,1.4-1.3
				c0.6-0.3,1.2-0.5,1.9-0.5c0.5,0,1,0.1,1.4,0.2c0.4,0.2,0.8,0.4,1.1,0.8l-0.3,0.4c-0.6-0.6-1.3-0.9-2.2-0.9
				c-0.6,0-1.2,0.1-1.7,0.4c-0.5,0.3-0.9,0.7-1.2,1.2c-0.3,0.5-0.4,1-0.4,1.6s0.2,1.2,0.4,1.6c0.3,0.5,0.7,0.9,1.2,1.2
				c0.5,0.3,1,0.4,1.7,0.4c0.9,0,1.6-0.3,2.2-0.9l0.3,0.4c-0.3,0.3-0.7,0.6-1.1,0.8c-0.4,0.2-0.9,0.2-1.4,0.2
				C47.5,297.2,46.8,297,46.3,296.7z"/>
			<path class="st3" d="M55.8,292.2h-2.1v4.9h-0.5v-4.9H51v-0.5h4.7V292.2z"/>
			<path class="st3" d="M60.2,292.2c0.4,0.4,0.6,0.8,0.6,1.5v3.4h-0.5v-1c-0.2,0.3-0.4,0.6-0.8,0.8c-0.3,0.2-0.7,0.3-1.2,0.3
				c-0.6,0-1.1-0.2-1.4-0.4c-0.4-0.3-0.5-0.6-0.5-1.1c0-0.4,0.2-0.8,0.5-1.1c0.3-0.3,0.8-0.4,1.6-0.4h1.9v-0.4
				c0-0.5-0.1-0.9-0.4-1.2c-0.3-0.3-0.7-0.4-1.2-0.4c-0.4,0-0.7,0.1-1,0.2c-0.3,0.1-0.6,0.3-0.8,0.5l-0.2-0.4c0.3-0.2,0.6-0.4,1-0.6
				c0.4-0.1,0.8-0.2,1.2-0.2C59.4,291.7,59.8,291.9,60.2,292.2z M59.5,296.4c0.3-0.2,0.6-0.5,0.7-0.9v-1h-1.8
				c-0.5,0-0.9,0.1-1.2,0.3c-0.2,0.2-0.4,0.5-0.4,0.8c0,0.4,0.1,0.6,0.4,0.8c0.3,0.2,0.6,0.3,1.1,0.3
				C58.8,296.8,59.2,296.6,59.5,296.4z"/>
			<path class="st3" d="M66.9,292.1c0.4,0.2,0.7,0.6,1,1c0.2,0.4,0.4,0.9,0.4,1.4c0,0.5-0.1,1-0.4,1.4c-0.2,0.4-0.6,0.8-1,1
				c-0.4,0.2-0.9,0.4-1.4,0.4s-0.9-0.1-1.3-0.3c-0.4-0.2-0.7-0.5-0.9-1v3.2h-0.5v-7.4h0.5v1.3c0.2-0.4,0.5-0.8,0.9-1
				c0.4-0.2,0.8-0.4,1.3-0.4C66.1,291.7,66.5,291.8,66.9,292.1z M66.7,296.4c0.3-0.2,0.6-0.5,0.8-0.8c0.2-0.3,0.3-0.8,0.3-1.2
				s-0.1-0.8-0.3-1.2c-0.2-0.4-0.4-0.6-0.8-0.8c-0.4-0.2-0.7-0.3-1.1-0.3s-0.8,0.1-1.1,0.3c-0.3,0.2-0.6,0.5-0.8,0.8
				c-0.2,0.4-0.3,0.8-0.3,1.2s0.1,0.8,0.3,1.2c0.2,0.4,0.4,0.6,0.8,0.8c0.3,0.2,0.7,0.3,1.1,0.3S66.3,296.6,66.7,296.4z"/>
			<path class="st3" d="M73.4,292.2h-2.1v4.9h-0.5v-4.9h-2.1v-0.5h4.7L73.4,292.2L73.4,292.2z"/>
			<path class="st5" d="M78.4,289.9v7.3h-0.5v-6.8h-1.8v-0.5H78.4z"/>
			<path class="st5" d="M81.6,296.8c-0.4-0.3-0.8-0.7-1-1.3c-0.2-0.6-0.4-1.2-0.4-2c0-0.8,0.1-1.4,0.4-2c0.2-0.6,0.6-1,1-1.3
				c0.4-0.3,0.9-0.4,1.5-0.4c0.6,0,1,0.2,1.5,0.4c0.4,0.3,0.8,0.7,1,1.3c0.2,0.6,0.4,1.2,0.4,2c0,0.8-0.1,1.4-0.4,2
				c-0.2,0.6-0.6,1-1,1.3s-0.9,0.4-1.5,0.4C82.5,297.2,82,297,81.6,296.8z M84.3,296.3c0.4-0.2,0.6-0.6,0.8-1.1
				c0.2-0.5,0.3-1,0.3-1.7c0-0.7-0.1-1.2-0.3-1.7c-0.2-0.5-0.5-0.8-0.8-1.1c-0.4-0.2-0.8-0.4-1.2-0.4s-0.9,0.1-1.2,0.4
				c-0.4,0.2-0.6,0.6-0.8,1.1c-0.2,0.5-0.3,1-0.3,1.7c0,0.7,0.1,1.2,0.3,1.7c0.2,0.5,0.5,0.8,0.8,1.1c0.4,0.2,0.8,0.4,1.2,0.4
				S84,296.6,84.3,296.3z"/>
			<path class="st5" d="M87.1,297c-0.1-0.1-0.1-0.2-0.1-0.3c0-0.1,0-0.2,0.1-0.3c0.1-0.1,0.2-0.1,0.3-0.1s0.2,0,0.3,0.1
				c0.1,0.1,0.1,0.2,0.1,0.3c0,0.1,0,0.2-0.1,0.3c-0.1,0.1-0.2,0.1-0.3,0.1C87.3,297.2,87.2,297.2,87.1,297z"/>
			<path class="st5" d="M90.3,296.8c-0.4-0.3-0.8-0.7-1-1.3c-0.2-0.6-0.4-1.2-0.4-2c0-0.8,0.1-1.4,0.4-2c0.2-0.6,0.6-1,1-1.3
				c0.4-0.3,0.9-0.4,1.5-0.4c0.6,0,1,0.2,1.5,0.4c0.4,0.3,0.8,0.7,1,1.3c0.2,0.6,0.4,1.2,0.4,2c0,0.8-0.1,1.4-0.4,2
				c-0.2,0.6-0.6,1-1,1.3s-0.9,0.4-1.5,0.4C91.2,297.2,90.7,297,90.3,296.8z M93,296.3c0.4-0.2,0.6-0.6,0.8-1.1
				c0.2-0.5,0.3-1,0.3-1.7c0-0.7-0.1-1.2-0.3-1.7c-0.2-0.5-0.5-0.8-0.8-1.1c-0.4-0.2-0.8-0.4-1.2-0.4s-0.9,0.1-1.2,0.4
				c-0.4,0.2-0.6,0.6-0.8,1.1s-0.3,1-0.3,1.7c0,0.7,0.1,1.2,0.3,1.7c0.2,0.5,0.5,0.8,0.8,1.1c0.4,0.2,0.8,0.4,1.2,0.4
				S92.6,296.6,93,296.3z"/>
			<path class="st5" d="M100.1,290.8c0.5,0.6,0.8,1.5,0.8,2.7c0,0.8-0.1,1.5-0.4,2c-0.3,0.6-0.6,1-1.1,1.3c-0.5,0.3-1,0.4-1.7,0.4
				c-0.7,0-1.2-0.1-1.6-0.4l0.2-0.4c0.4,0.2,0.8,0.3,1.4,0.3c0.8,0,1.5-0.3,2-0.8c0.5-0.6,0.7-1.3,0.7-2.4c0-0.3,0-0.6-0.1-0.9
				c-0.2,0.5-0.4,0.8-0.8,1.1s-0.9,0.4-1.5,0.4c-0.5,0-0.9-0.1-1.3-0.3c-0.4-0.2-0.6-0.4-0.8-0.8c-0.2-0.3-0.3-0.7-0.3-1.1
				c0-0.4,0.1-0.8,0.3-1.2c0.2-0.3,0.5-0.6,0.9-0.8c0.4-0.2,0.8-0.3,1.2-0.3C98.9,289.8,99.6,290.1,100.1,290.8z M99,293.5
				c0.3-0.2,0.6-0.4,0.7-0.6s0.2-0.6,0.2-0.9c0-0.3-0.1-0.6-0.2-0.8s-0.4-0.5-0.7-0.6c-0.3-0.2-0.7-0.2-1.1-0.2
				c-0.6,0-1,0.2-1.4,0.5S96,291.5,96,292c0,0.5,0.2,0.9,0.5,1.2s0.8,0.5,1.4,0.5C98.4,293.7,98.8,293.7,99,293.5z"/>
		</g>
	</g>
	<g>
		<path class="st3" d="M53.5,246.7c-0.6-0.4-1.2-1-1.5-1.8c-0.4-0.8-0.6-1.8-0.6-2.9s0.2-2,0.6-2.9c0.4-0.8,0.9-1.4,1.5-1.8
			s1.4-0.6,2.2-0.6s1.6,0.2,2.2,0.6c0.6,0.4,1.2,1,1.6,1.8c0.4,0.8,0.6,1.8,0.6,2.9c0,1.1-0.2,2-0.6,2.9c-0.4,0.8-0.9,1.4-1.6,1.8
			c-0.6,0.4-1.4,0.6-2.2,0.6C54.8,247.3,54.1,247.1,53.5,246.7z M57.4,244.7c0.4-0.6,0.6-1.5,0.6-2.7c0-1.2-0.2-2.1-0.6-2.7
			c-0.4-0.6-1-0.9-1.8-0.9c-0.7,0-1.3,0.3-1.7,0.9c-0.4,0.6-0.6,1.5-0.6,2.7c0,1.2,0.2,2.1,0.6,2.7c0.4,0.6,1,0.9,1.7,0.9
			C56.4,245.6,57,245.3,57.4,244.7z"/>
		<path class="st3" d="M67.7,241.6c0.7,0.6,1,1.3,1,2.3c0,0.6-0.2,1.2-0.4,1.7c-0.3,0.5-0.8,0.9-1.4,1.2c-0.6,0.3-1.4,0.4-2.3,0.4
			c-0.8,0-1.4-0.1-2.2-0.3c-0.7-0.2-1.3-0.5-1.8-0.9l0.8-1.5c0.4,0.3,0.8,0.6,1.4,0.8c0.5,0.2,1.1,0.3,1.7,0.3
			c0.7,0,1.2-0.2,1.6-0.4s0.6-0.7,0.6-1.2c0-0.5-0.2-0.9-0.6-1.2c-0.4-0.3-1.1-0.4-2.2-0.4h-2.5l0.5-5.6h6.1v1.6h-4.4l-0.2,2.4h1
			C66,240.8,67.1,241.1,67.7,241.6z"/>
		<path class="st3" d="M70.2,246.9c-0.2-0.2-0.4-0.5-0.4-0.9c0-0.4,0.1-0.7,0.4-0.9c0.2-0.2,0.5-0.4,0.9-0.4c0.4,0,0.6,0.1,0.9,0.4
			c0.2,0.2,0.4,0.5,0.4,0.9s-0.1,0.6-0.4,0.9s-0.5,0.4-0.8,0.4C70.7,247.2,70.4,247.1,70.2,246.9z"/>
		<path class="st3" d="M75.4,246.7c-0.6-0.4-1.2-1-1.5-1.8c-0.4-0.8-0.6-1.8-0.6-2.9s0.2-2,0.6-2.9c0.4-0.8,0.9-1.4,1.5-1.8
			s1.4-0.6,2.2-0.6s1.6,0.2,2.2,0.6c0.6,0.4,1.2,1,1.6,1.8c0.4,0.8,0.6,1.8,0.6,2.9c0,1.1-0.2,2-0.6,2.9c-0.4,0.8-0.9,1.4-1.6,1.8
			c-0.6,0.4-1.4,0.6-2.2,0.6C76.8,247.3,76.1,247.1,75.4,246.7z M79.4,244.7c0.4-0.6,0.6-1.5,0.6-2.7c0-1.2-0.2-2.1-0.6-2.7
			c-0.4-0.6-1-0.9-1.8-0.9c-0.7,0-1.3,0.3-1.7,0.9c-0.4,0.6-0.6,1.5-0.6,2.7c0,1.2,0.2,2.1,0.6,2.7c0.4,0.6,1,0.9,1.7,0.9
			C78.4,245.6,78.9,245.3,79.4,244.7z"/>
		<path class="st3" d="M90,238c0.8,0.9,1.2,2.2,1.2,3.8c0,1.2-0.2,2.2-0.6,3c-0.4,0.8-1,1.4-1.8,1.9c-0.8,0.4-1.6,0.6-2.6,0.6
			c-0.5,0-1,0-1.5-0.2c-0.5-0.1-0.9-0.3-1.2-0.5l0.7-1.4c0.5,0.3,1.2,0.5,2,0.5c1,0,1.8-0.3,2.3-0.9c0.6-0.6,0.8-1.5,0.8-2.6l0,0
			c-0.3,0.4-0.7,0.6-1.2,0.8c-0.5,0.2-1,0.3-1.6,0.3c-0.7,0-1.3-0.1-1.8-0.4c-0.6-0.3-1-0.6-1.3-1.1c-0.3-0.5-0.4-1-0.4-1.7
			c0-0.7,0.2-1.3,0.5-1.8c0.3-0.5,0.8-0.9,1.4-1.2c0.6-0.3,1.2-0.4,1.9-0.4C88.1,236.7,89.2,237.1,90,238z M88.4,241.2
			c0.4-0.3,0.6-0.8,0.6-1.3c0-0.5-0.2-0.9-0.6-1.2c-0.4-0.3-0.9-0.5-1.6-0.5c-0.6,0-1.1,0.2-1.5,0.5c-0.4,0.3-0.6,0.8-0.6,1.3
			c0,0.6,0.2,1,0.6,1.3s0.9,0.5,1.5,0.5C87.5,241.7,88,241.5,88.4,241.2z"/>
		<path class="st3" d="M92.7,242.2h4.1v1.5h-4.1V242.2z"/>
		<path class="st3" d="M101.5,236.8v10.3h-1.9v-8.7h-2.2v-1.6H101.5z"/>
		<path class="st3" d="M105.7,246.7c-0.6-0.4-1.2-1-1.5-1.8c-0.4-0.8-0.6-1.8-0.6-2.9s0.2-2,0.6-2.9c0.4-0.8,0.9-1.4,1.5-1.8
			s1.4-0.6,2.2-0.6s1.6,0.2,2.2,0.6c0.6,0.4,1.2,1,1.6,1.8c0.4,0.8,0.6,1.8,0.6,2.9c0,1.1-0.2,2-0.6,2.9c-0.4,0.8-0.9,1.4-1.6,1.8
			c-0.6,0.4-1.4,0.6-2.2,0.6C107.1,247.3,106.3,247.1,105.7,246.7z M109.6,244.7c0.4-0.6,0.6-1.5,0.6-2.7c0-1.2-0.2-2.1-0.6-2.7
			c-0.4-0.6-1-0.9-1.8-0.9c-0.7,0-1.3,0.3-1.7,0.9c-0.4,0.6-0.6,1.5-0.6,2.7c0,1.2,0.2,2.1,0.6,2.7c0.4,0.6,1,0.9,1.7,0.9
			C108.6,245.6,109.2,245.3,109.6,244.7z"/>
		<path class="st3" d="M113.6,246.9c-0.2-0.2-0.4-0.5-0.4-0.9c0-0.4,0.1-0.7,0.4-0.9c0.2-0.2,0.5-0.4,0.9-0.4c0.4,0,0.6,0.1,0.9,0.4
			c0.2,0.2,0.4,0.5,0.4,0.9s-0.1,0.6-0.4,0.9c-0.2,0.2-0.5,0.4-0.8,0.4C114.2,247.2,113.9,247.1,113.6,246.9z"/>
		<path class="st3" d="M118.9,246.7c-0.6-0.4-1.2-1-1.5-1.8c-0.4-0.8-0.6-1.8-0.6-2.9s0.2-2,0.6-2.9c0.4-0.8,0.9-1.4,1.5-1.8
			s1.4-0.6,2.2-0.6s1.6,0.2,2.2,0.6c0.6,0.4,1.2,1,1.6,1.8c0.4,0.8,0.6,1.8,0.6,2.9c0,1.1-0.2,2-0.6,2.9c-0.4,0.8-0.9,1.4-1.6,1.8
			c-0.6,0.4-1.4,0.6-2.2,0.6C120.3,247.3,119.5,247.1,118.9,246.7z M122.8,244.7c0.4-0.6,0.6-1.5,0.6-2.7c0-1.2-0.2-2.1-0.6-2.7
			c-0.4-0.6-1-0.9-1.8-0.9c-0.7,0-1.3,0.3-1.7,0.9c-0.4,0.6-0.6,1.5-0.6,2.7c0,1.2,0.2,2.1,0.6,2.7c0.4,0.6,1,0.9,1.7,0.9
			C121.8,245.6,122.4,245.3,122.8,244.7z"/>
		<path class="st3" d="M133.5,238c0.8,0.9,1.2,2.2,1.2,3.8c0,1.2-0.2,2.2-0.6,3c-0.4,0.8-1,1.4-1.8,1.9c-0.8,0.4-1.6,0.6-2.6,0.6
			c-0.5,0-1,0-1.5-0.2c-0.5-0.1-0.9-0.3-1.2-0.5l0.7-1.4c0.5,0.3,1.2,0.5,2,0.5c1,0,1.8-0.3,2.3-0.9c0.6-0.6,0.8-1.5,0.8-2.6l0,0
			c-0.3,0.4-0.7,0.6-1.2,0.8c-0.5,0.2-1,0.3-1.6,0.3c-0.7,0-1.3-0.1-1.8-0.4c-0.6-0.3-1-0.6-1.3-1.1c-0.3-0.5-0.4-1-0.4-1.7
			c0-0.7,0.2-1.3,0.5-1.8c0.3-0.5,0.8-0.9,1.4-1.2c0.6-0.3,1.2-0.4,1.9-0.4C131.6,236.7,132.7,237.1,133.5,238z M131.8,241.2
			c0.4-0.3,0.6-0.8,0.6-1.3c0-0.5-0.2-0.9-0.6-1.2c-0.4-0.3-0.9-0.5-1.6-0.5c-0.6,0-1.1,0.2-1.5,0.5c-0.4,0.3-0.6,0.8-0.6,1.3
			c0,0.6,0.2,1,0.6,1.3s0.9,0.5,1.5,0.5C130.9,241.7,131.4,241.5,131.8,241.2z"/>
	</g>
	<circle class="st3" cx="39.1" cy="265.1" r="2.4"/>
	<circle class="st3" cx="39.1" cy="294.1" r="2.4"/>
</g>
<g>
	<g>
		<g>
			<path class="st3" d="M152.1,482.6v7.3h-0.5v-6.8h-4.9v6.8h-0.5v-7.3H152.1z"/>
			<path class="st3" d="M159.2,487.3h-4.7c0,0.4,0.1,0.8,0.3,1.1c0.2,0.3,0.5,0.6,0.8,0.8c0.4,0.2,0.7,0.3,1.2,0.3
				c0.4,0,0.7-0.1,1-0.2c0.3-0.1,0.6-0.3,0.8-0.6l0.3,0.4c-0.2,0.3-0.5,0.5-0.9,0.6c-0.4,0.2-0.8,0.2-1.2,0.2c-0.6,0-1-0.1-1.4-0.4
				c-0.4-0.2-0.8-0.6-1-1s-0.4-0.9-0.4-1.4c0-0.5,0.1-1,0.3-1.4s0.5-0.8,0.9-1c0.4-0.2,0.8-0.4,1.3-0.4s0.9,0.1,1.3,0.4
				c0.4,0.2,0.7,0.6,0.9,1c0.2,0.4,0.3,0.9,0.3,1.4L159.2,487.3z M155.6,485.1c-0.3,0.2-0.6,0.4-0.7,0.7c-0.2,0.3-0.3,0.6-0.3,1h4.1
				c0-0.4-0.1-0.7-0.3-1s-0.4-0.6-0.7-0.7c-0.3-0.2-0.6-0.3-1-0.3C156.2,484.8,155.9,485,155.6,485.1z"/>
			<path class="st3" d="M165,484.8c0.4,0.2,0.7,0.6,1,1s0.4,0.9,0.4,1.4c0,0.6-0.1,1-0.4,1.4c-0.2,0.4-0.6,0.8-1,1
				c-0.4,0.2-0.9,0.4-1.4,0.4c-0.5,0-0.9-0.1-1.3-0.3c-0.4-0.2-0.7-0.5-0.9-1v3.2h-0.5v-7.4h0.5v1.3c0.2-0.4,0.5-0.8,0.9-1
				c0.4-0.2,0.8-0.4,1.3-0.4C164.1,484.4,164.6,484.5,165,484.8z M164.7,489.2c0.3-0.2,0.6-0.5,0.8-0.8c0.2-0.4,0.3-0.8,0.3-1.2
				c0-0.4-0.1-0.8-0.3-1.2s-0.4-0.6-0.8-0.8c-0.4-0.2-0.7-0.3-1.1-0.3c-0.4,0-0.8,0.1-1.1,0.3c-0.3,0.2-0.6,0.5-0.8,0.8
				c-0.2,0.4-0.3,0.8-0.3,1.2c0,0.4,0.1,0.8,0.3,1.2s0.4,0.6,0.8,0.8c0.3,0.2,0.7,0.3,1.1,0.3C164,489.4,164.4,489.4,164.7,489.2z"
				/>
			<path class="st3" d="M172.4,488.4c0,0.5-0.2,0.8-0.5,1.1c-0.4,0.2-0.8,0.4-1.6,0.4h-2.4v-5.4h2.3c0.6,0,1.1,0.1,1.4,0.4
				c0.4,0.2,0.5,0.6,0.5,1c0,0.3-0.1,0.6-0.3,0.8s-0.4,0.4-0.8,0.4C172,487.2,172.4,487.7,172.4,488.4z M168.5,486.9h1.8
				c0.5,0,0.8-0.1,1.1-0.3c0.2-0.2,0.4-0.4,0.4-0.8c0-0.3-0.1-0.6-0.4-0.8s-0.6-0.2-1.1-0.2h-1.8V486.9z M171.9,488.4
				c0-0.4-0.1-0.6-0.4-0.8c-0.2-0.2-0.6-0.2-1.1-0.2h-1.9v2.1h1.8C171.3,489.4,171.9,489.1,171.9,488.4z"/>
			<path class="st3" d="M177.9,486.9c0.4,0.3,0.5,0.7,0.5,1.3c0,0.6-0.2,1-0.6,1.3c-0.4,0.3-0.9,0.4-1.6,0.4l-2,0v-5.4h0.5v2l1.6,0
				C177,486.4,177.5,486.6,177.9,486.9z M177.5,489.2c0.3-0.2,0.4-0.6,0.4-1c0-0.4-0.1-0.8-0.4-1s-0.7-0.3-1.3-0.3h-1.5v2.6l1.5,0
				C176.8,489.5,177.2,489.4,177.5,489.2z M179.4,484.4h0.5v5.4h-0.5V484.4z"/>
			<path class="st3" d="M182.1,484.4h0.5v4.6l3.9-4.6h0.4v5.4h-0.5v-4.6l-3.9,4.6h-0.4V484.4z M183.5,483.3c-0.3-0.2-0.4-0.5-0.4-1
				h0.4c0,0.3,0.1,0.5,0.3,0.7c0.2,0.2,0.5,0.2,0.8,0.2s0.6-0.1,0.8-0.2c0.2-0.2,0.3-0.4,0.3-0.7h0.4c0,0.4-0.2,0.7-0.4,1
				c-0.3,0.2-0.6,0.3-1.1,0.3S183.7,483.5,183.5,483.3z"/>
			<path class="st3" d="M192.7,489.6c-0.4-0.2-0.7-0.6-1-1c-0.2-0.4-0.4-0.9-0.4-1.4c0-0.5,0.1-1,0.4-1.4c0.2-0.4,0.6-0.8,1-1
				c0.4-0.2,0.9-0.4,1.4-0.4s1,0.1,1.4,0.4s0.7,0.6,1,1c0.2,0.4,0.4,0.9,0.4,1.4c0,0.5-0.1,1-0.4,1.4s-0.6,0.8-1,1
				c-0.4,0.2-0.9,0.4-1.4,0.4S193.1,489.8,192.7,489.6z M195.1,489.2c0.3-0.2,0.6-0.5,0.8-0.8c0.2-0.4,0.3-0.8,0.3-1.2
				c0-0.4-0.1-0.8-0.3-1.2s-0.4-0.6-0.8-0.8c-0.4-0.2-0.7-0.3-1.1-0.3c-0.4,0-0.8,0.1-1.1,0.3c-0.3,0.2-0.6,0.5-0.8,0.8
				c-0.2,0.4-0.3,0.8-0.3,1.2c0,0.4,0.1,0.8,0.3,1.2s0.4,0.6,0.8,0.8c0.4,0.2,0.7,0.3,1.1,0.3C194.4,489.4,194.8,489.4,195.1,489.2z
				"/>
			<path class="st3" d="M198.5,484.4h0.5v2.5h3.7v-2.5h0.5v5.4h-0.5v-2.5H199v2.5h-0.5V484.4z"/>
			<path class="st3" d="M209.6,484.4v5.4h-0.5v-4.9h-2.8l-0.1,1.4c0,0.8-0.1,1.4-0.2,1.9c-0.1,0.5-0.2,0.9-0.4,1.2
				c-0.2,0.3-0.5,0.5-0.8,0.5c-0.1,0-0.2,0-0.4-0.1l0-0.4c0.1,0,0.2,0,0.2,0c0.3,0,0.5-0.2,0.7-0.4c0.2-0.3,0.2-0.6,0.3-1.1
				c0-0.4,0.1-1,0.1-1.6l0.1-1.9L209.6,484.4L209.6,484.4z"/>
			<path class="st3" d="M215.2,484.9c0.4,0.4,0.6,0.8,0.6,1.5v3.4h-0.5v-1c-0.2,0.3-0.4,0.6-0.8,0.8c-0.3,0.2-0.7,0.3-1.2,0.3
				c-0.6,0-1.1-0.2-1.4-0.4c-0.4-0.3-0.5-0.6-0.5-1.1c0-0.4,0.2-0.8,0.5-1.1c0.3-0.3,0.8-0.4,1.6-0.4h1.9v-0.4
				c0-0.5-0.1-0.9-0.4-1.2s-0.7-0.4-1.2-0.4c-0.4,0-0.7,0.1-1,0.2c-0.3,0.1-0.6,0.3-0.8,0.5l-0.2-0.4c0.3-0.2,0.6-0.4,1-0.6
				c0.4-0.1,0.8-0.2,1.2-0.2C214.3,484.4,214.8,484.6,215.2,484.9z M214.5,489.2c0.3-0.2,0.6-0.5,0.7-0.9v-1h-1.8
				c-0.5,0-0.9,0.1-1.2,0.3c-0.2,0.2-0.4,0.5-0.4,0.8c0,0.4,0.1,0.6,0.4,0.8s0.6,0.3,1.1,0.3C213.8,489.5,214.2,489.4,214.5,489.2z"
				/>
			<path class="st3" d="M217.8,484.4h0.5v4.6l3.9-4.6h0.4v5.4h-0.5v-4.6l-3.9,4.6h-0.4V484.4z M219.2,483.3c-0.3-0.2-0.4-0.5-0.4-1
				h0.4c0,0.3,0.1,0.5,0.3,0.7s0.5,0.2,0.8,0.2c0.3,0,0.6-0.1,0.8-0.2s0.3-0.4,0.3-0.7h0.4c0,0.4-0.2,0.7-0.4,1
				c-0.2,0.2-0.6,0.3-1.1,0.3C219.8,483.6,219.4,483.5,219.2,483.3z"/>
			<path class="st3" d="M224.9,484.4h0.5v2.5h3.7v-2.5h0.5v5.4h-0.5v-2.5h-3.7v2.5h-0.5V484.4z"/>
			<path class="st3" d="M231.4,486.8h2.7v0.5h-2.7V486.8z"/>
			<path class="st3" d="M238.4,484.8c0.4,0.2,0.8,0.6,1,1c0.2,0.4,0.4,0.9,0.4,1.4c0,0.5-0.1,1-0.4,1.4s-0.6,0.8-1,1
				c-0.4,0.2-0.9,0.4-1.4,0.4c-0.4,0-0.8-0.1-1.2-0.2c-0.4-0.1-0.7-0.3-0.9-0.6l0.3-0.3c0.5,0.4,1.1,0.6,1.8,0.6
				c0.4,0,0.8-0.1,1.2-0.3c0.4-0.2,0.6-0.4,0.8-0.8c0.2-0.3,0.3-0.7,0.4-1.1h-3.1v-0.4h3c0-0.4-0.2-0.8-0.4-1.1s-0.5-0.6-0.8-0.7
				c-0.4-0.2-0.7-0.3-1.1-0.3c-0.7,0-1.4,0.2-1.8,0.6l-0.3-0.3c0.2-0.2,0.6-0.4,0.9-0.6c0.4-0.1,0.8-0.2,1.2-0.2
				C237.5,484.4,238,484.5,238.4,484.8z"/>
			<path class="st3" d="M244.9,484.9h-2.1v4.9h-0.5v-4.9h-2.1v-0.5h4.7L244.9,484.9L244.9,484.9z"/>
			<path class="st3" d="M249.3,484.9c0.4,0.4,0.6,0.8,0.6,1.5v3.4h-0.5v-1c-0.2,0.3-0.4,0.6-0.8,0.8c-0.3,0.2-0.7,0.3-1.2,0.3
				c-0.6,0-1.1-0.2-1.4-0.4c-0.4-0.3-0.5-0.6-0.5-1.1c0-0.4,0.2-0.8,0.5-1.1c0.3-0.3,0.8-0.4,1.6-0.4h1.9v-0.4
				c0-0.5-0.1-0.9-0.4-1.2s-0.7-0.4-1.2-0.4c-0.4,0-0.7,0.1-1,0.2c-0.3,0.1-0.6,0.3-0.8,0.5l-0.2-0.4c0.3-0.2,0.6-0.4,1-0.6
				c0.4-0.1,0.8-0.2,1.2-0.2C248.5,484.4,249,484.6,249.3,484.9z M248.7,489.2c0.3-0.2,0.6-0.5,0.7-0.9v-1h-1.8
				c-0.5,0-0.9,0.1-1.2,0.3c-0.2,0.2-0.4,0.5-0.4,0.8c0,0.4,0.1,0.6,0.4,0.8s0.6,0.3,1.1,0.3C248,489.5,248.3,489.4,248.7,489.2z"/>
			<path class="st3" d="M256.7,484.4v5.4h-0.5v-4.9h-3.7v4.9H252v-5.4H256.7z"/>
			<path class="st3" d="M266.7,489.4v1.8h-0.5v-1.4h-5.1v1.4h-0.5v-1.8h0.3c0.4,0,0.6-0.3,0.8-0.8c0.2-0.5,0.2-1.3,0.3-2.3l0.1-1.8
				h3.8v4.9L266.7,489.4L266.7,489.4z M262.2,488.3c-0.1,0.6-0.3,0.9-0.6,1.1h3.7v-4.5h-2.8l-0.1,1.4
				C262.4,487.1,262.3,487.8,262.2,488.3z"/>
			<path class="st3" d="M269,489.6c-0.4-0.2-0.7-0.6-1-1c-0.2-0.4-0.4-0.9-0.4-1.4c0-0.5,0.1-1,0.4-1.4s0.6-0.8,1-1s0.9-0.4,1.4-0.4
				s1,0.1,1.4,0.4c0.4,0.2,0.7,0.6,1,1c0.2,0.4,0.4,0.9,0.4,1.4c0,0.5-0.1,1-0.4,1.4s-0.6,0.8-1,1c-0.4,0.2-0.9,0.4-1.4,0.4
				S269.4,489.8,269,489.6z M271.5,489.2c0.3-0.2,0.6-0.5,0.8-0.8c0.2-0.4,0.3-0.8,0.3-1.2c0-0.4-0.1-0.8-0.3-1.2s-0.4-0.6-0.8-0.8
				c-0.4-0.2-0.7-0.3-1.1-0.3s-0.8,0.1-1.1,0.3c-0.3,0.2-0.6,0.5-0.8,0.8c-0.2,0.4-0.3,0.8-0.3,1.2c0,0.4,0.1,0.8,0.3,1.2
				c0.2,0.4,0.4,0.6,0.8,0.8c0.4,0.2,0.7,0.3,1.1,0.3S271.2,489.4,271.5,489.2z"/>
			<path class="st5" d="M278.7,482.6v7.3h-0.5v-6.8h-1.8v-0.5H278.7z"/>
			<path class="st5" d="M284.6,486.2c0.5,0.4,0.7,0.9,0.7,1.6c0,0.4-0.1,0.8-0.3,1.1c-0.2,0.3-0.5,0.6-0.8,0.8
				c-0.4,0.2-0.8,0.3-1.4,0.3c-0.5,0-1-0.1-1.5-0.3c-0.5-0.2-0.8-0.4-1.1-0.7l0.3-0.4c0.2,0.3,0.6,0.5,1,0.6
				c0.4,0.2,0.8,0.2,1.3,0.2c0.6,0,1.2-0.2,1.5-0.4c0.4-0.3,0.5-0.7,0.5-1.2c0-0.6-0.2-1-0.6-1.2c-0.4-0.3-1.1-0.4-2-0.4h-1.5
				l0.4-3.5h3.8v0.5h-3.4l-0.3,2.6h1C283.4,485.6,284.2,485.8,284.6,486.2z"/>
			<path class="st5" d="M286.5,489.8c-0.1-0.1-0.1-0.2-0.1-0.3c0-0.1,0-0.2,0.1-0.3c0.1-0.1,0.2-0.1,0.3-0.1c0.1,0,0.2,0,0.3,0.1
				c0.1,0.1,0.1,0.2,0.1,0.3c0,0.1,0,0.2-0.1,0.3c-0.1,0.1-0.2,0.1-0.3,0.1C286.7,489.9,286.6,489.9,286.5,489.8z"/>
			<path class="st5" d="M289.7,489.5c-0.4-0.3-0.8-0.7-1-1.3s-0.4-1.2-0.4-2s0.1-1.4,0.4-2c0.2-0.6,0.6-1,1-1.3s0.9-0.4,1.5-0.4
				s1,0.2,1.5,0.4c0.4,0.3,0.8,0.7,1,1.3c0.2,0.6,0.4,1.2,0.4,2s-0.1,1.4-0.4,2c-0.2,0.6-0.6,1-1,1.3c-0.4,0.3-0.9,0.4-1.5,0.4
				S290.1,489.8,289.7,489.5z M292.4,489.1c0.4-0.2,0.6-0.6,0.8-1.1c0.2-0.5,0.3-1,0.3-1.7c0-0.7-0.1-1.2-0.3-1.7
				c-0.2-0.5-0.5-0.8-0.8-1.1c-0.4-0.2-0.8-0.4-1.2-0.4s-0.9,0.1-1.2,0.4c-0.3,0.2-0.6,0.6-0.8,1.1c-0.2,0.5-0.3,1-0.3,1.7
				c0,0.7,0.1,1.2,0.3,1.7s0.5,0.8,0.8,1.1c0.3,0.3,0.8,0.4,1.2,0.4S292,489.3,292.4,489.1z"/>
			<path class="st5" d="M299.5,483.5c0.5,0.6,0.8,1.5,0.8,2.7c0,0.8-0.1,1.5-0.4,2c-0.3,0.6-0.6,1-1.1,1.3c-0.5,0.3-1,0.4-1.7,0.4
				c-0.7,0-1.2-0.1-1.6-0.4l0.2-0.4c0.4,0.2,0.8,0.3,1.4,0.3c0.8,0,1.5-0.3,2-0.8c0.5-0.6,0.7-1.3,0.7-2.4c0-0.3,0-0.6-0.1-0.9
				c-0.2,0.5-0.4,0.8-0.8,1.1c-0.4,0.3-0.9,0.4-1.5,0.4c-0.5,0-0.9-0.1-1.3-0.3c-0.4-0.2-0.6-0.4-0.8-0.8c-0.2-0.3-0.3-0.7-0.3-1.1
				c0-0.4,0.1-0.8,0.3-1.2c0.2-0.3,0.5-0.6,0.9-0.8c0.4-0.2,0.8-0.3,1.2-0.3C298.3,482.6,299,482.9,299.5,483.5z M298.4,486.2
				c0.3-0.2,0.6-0.4,0.7-0.6c0.2-0.3,0.2-0.6,0.2-0.9c0-0.3-0.1-0.6-0.2-0.8c-0.2-0.3-0.4-0.5-0.7-0.6s-0.7-0.2-1.1-0.2
				c-0.6,0-1,0.2-1.4,0.5s-0.5,0.7-0.5,1.2s0.2,0.9,0.5,1.2s0.8,0.5,1.4,0.5C297.8,486.4,298.2,486.4,298.4,486.2z"/>
			<path class="st3" d="M302.1,489.2c0.1,0.1,0.1,0.2,0.1,0.3c0,0.1,0,0.2,0,0.2c0,0.1,0,0.2-0.1,0.2l-0.4,1.4h-0.4l0.4-1.5
				c-0.1,0-0.2-0.1-0.2-0.2c0-0.1-0.1-0.2-0.1-0.3c0-0.1,0-0.2,0.1-0.3c0.1-0.1,0.2-0.1,0.3-0.1C301.9,489,302,489.1,302.1,489.2z"
				/>
			<path class="st3" d="M142.8,502c-0.4-0.2-0.7-0.6-1-1c-0.2-0.4-0.4-0.9-0.4-1.4c0-0.5,0.1-1,0.4-1.4s0.6-0.8,1-1
				c0.4-0.2,0.9-0.4,1.4-0.4s1,0.1,1.4,0.4c0.4,0.2,0.7,0.6,1,1c0.2,0.4,0.4,0.9,0.4,1.4c0,0.5-0.1,1-0.4,1.4c-0.2,0.4-0.6,0.8-1,1
				c-0.4,0.2-0.9,0.4-1.4,0.4S143.2,502.2,142.8,502z M145.3,501.6c0.3-0.2,0.6-0.5,0.8-0.8c0.2-0.4,0.3-0.8,0.3-1.2
				c0-0.4-0.1-0.8-0.3-1.2s-0.4-0.6-0.8-0.8c-0.4-0.2-0.7-0.3-1.1-0.3c-0.4,0-0.8,0.1-1.1,0.3c-0.3,0.2-0.6,0.5-0.8,0.8
				c-0.2,0.4-0.3,0.8-0.3,1.2c0,0.4,0.1,0.8,0.3,1.2s0.4,0.6,0.8,0.8c0.4,0.2,0.7,0.3,1.1,0.3C144.6,501.9,145,501.8,145.3,501.6z"
				/>
			<path class="st3" d="M152.4,497.3c0.4,0.2,0.7,0.5,0.9,1s0.3,0.9,0.3,1.4c0,0.5-0.1,1-0.3,1.4c-0.2,0.4-0.6,0.7-1,1
				c-0.4,0.2-0.9,0.4-1.4,0.4c-0.6,0-1.1-0.2-1.5-0.4c-0.4-0.3-0.7-0.7-1-1.2c-0.2-0.5-0.3-1.2-0.3-1.9c0-0.8,0.1-1.5,0.3-2
				c0.2-0.5,0.5-1,0.9-1.3c0.4-0.3,0.9-0.5,1.5-0.7l2.4-0.6l0.1,0.5l-2.3,0.6c-0.6,0.1-1,0.3-1.4,0.6c-0.4,0.2-0.6,0.6-0.8,1
				c-0.2,0.4-0.3,1-0.3,1.7c0.2-0.5,0.5-0.9,0.9-1.2c0.4-0.3,0.9-0.4,1.5-0.4C151.6,497,152,497.1,152.4,497.3z M152.1,501.6
				c0.3-0.2,0.6-0.5,0.8-0.8c0.2-0.4,0.3-0.7,0.3-1.2s-0.1-0.8-0.3-1.2c-0.2-0.3-0.4-0.6-0.8-0.8s-0.7-0.3-1.1-0.3
				c-0.4,0-0.8,0.1-1.1,0.3s-0.6,0.4-0.8,0.8c-0.2,0.3-0.3,0.7-0.3,1.2s0.1,0.8,0.3,1.2c0.2,0.4,0.4,0.6,0.8,0.8s0.7,0.3,1.1,0.3
				C151.4,501.9,151.8,501.8,152.1,501.6z"/>
			<path class="st3" d="M159.4,499.3c0.4,0.3,0.5,0.7,0.5,1.3s-0.2,1-0.6,1.3c-0.4,0.3-0.9,0.4-1.6,0.4h-2v-4.9H154v-0.5h2.2v2h1.6
				C158.6,498.8,159.1,499,159.4,499.3z M159.4,500.6c0-0.9-0.5-1.3-1.6-1.3h-1.5v2.6h1.5C158.9,501.9,159.4,501.4,159.4,500.6z"/>
			<path class="st3" d="M165,496.9v5.4h-0.5v-1.9h-1.8c-0.1,0-0.2,0-0.3,0l-1.4,1.9h-0.6l1.4-2c-0.4-0.1-0.8-0.3-1-0.6
				c-0.2-0.3-0.4-0.6-0.4-1.1c0-0.6,0.2-1,0.6-1.4c0.4-0.3,1-0.4,1.6-0.4L165,496.9L165,496.9z M162.8,500h1.8v-2.7h-1.7
				c-1.2,0-1.8,0.4-1.8,1.4C161.1,499.6,161.7,500,162.8,500z"/>
			<path class="st3" d="M171.7,500.9c0,0.5-0.2,0.8-0.5,1.1c-0.4,0.2-0.8,0.4-1.6,0.4h-2.4v-5.4h2.3c0.6,0,1.1,0.1,1.4,0.4
				c0.4,0.2,0.5,0.6,0.5,1c0,0.3-0.1,0.6-0.3,0.8s-0.4,0.4-0.8,0.4C171.3,499.7,171.7,500.1,171.7,500.9z M167.8,499.4h1.8
				c0.5,0,0.8-0.1,1.1-0.3c0.2-0.2,0.4-0.4,0.4-0.8s-0.1-0.6-0.4-0.8c-0.2-0.2-0.6-0.2-1.1-0.2h-1.8V499.4z M171.1,500.8
				c0-0.4-0.1-0.6-0.4-0.8s-0.6-0.2-1.1-0.2h-1.9v2.1h1.8C170.6,501.9,171.1,501.6,171.1,500.8z"/>
			<path class="st3" d="M177.8,496.9v5.4h-0.5v-4.9h-2.8l-0.1,1.4c0,0.8-0.1,1.4-0.2,1.9c-0.1,0.5-0.2,0.9-0.4,1.2
				c-0.2,0.3-0.5,0.5-0.8,0.5c-0.1,0-0.2,0-0.4-0.1l0-0.4c0.1,0,0.2,0,0.2,0c0.3,0,0.5-0.2,0.7-0.4c0.2-0.3,0.2-0.6,0.3-1.1
				c0-0.4,0.1-1,0.1-1.6l0.1-1.9L177.8,496.9L177.8,496.9z"/>
			<path class="st3" d="M184.6,499.7H180c0,0.4,0.1,0.8,0.3,1.1c0.2,0.3,0.5,0.6,0.8,0.8c0.4,0.2,0.7,0.3,1.2,0.3
				c0.4,0,0.7-0.1,1-0.2c0.3-0.1,0.6-0.3,0.8-0.6l0.3,0.4c-0.2,0.3-0.5,0.5-0.9,0.6c-0.4,0.2-0.8,0.2-1.2,0.2c-0.6,0-1-0.1-1.4-0.4
				c-0.4-0.2-0.8-0.6-1-1c-0.2-0.4-0.4-0.9-0.4-1.4c0-0.5,0.1-1,0.3-1.4c0.2-0.4,0.5-0.8,0.9-1c0.4-0.2,0.8-0.4,1.3-0.4
				s0.9,0.1,1.3,0.4c0.4,0.2,0.7,0.6,0.9,1c0.2,0.4,0.3,0.9,0.3,1.4L184.6,499.7z M181,497.6c-0.3,0.2-0.6,0.4-0.7,0.7
				c-0.2,0.3-0.3,0.6-0.3,1h4.1c0-0.4-0.1-0.7-0.3-1s-0.4-0.6-0.7-0.7c-0.3-0.2-0.6-0.3-1-0.3C181.6,497.3,181.3,497.4,181,497.6z"
				/>
			<path class="st3" d="M186.3,496.9h0.5v2.5h3.7v-2.5h0.5v5.4h-0.5v-2.5h-3.7v2.5h-0.5V496.9z"/>
			<path class="st3" d="M193.2,496.9h0.5v4.6l3.9-4.6h0.4v5.4h-0.5v-4.6l-3.9,4.6h-0.4V496.9z"/>
			<path class="st3" d="M204.9,499.7h-4.7c0,0.4,0.1,0.8,0.3,1.1c0.2,0.3,0.5,0.6,0.8,0.8c0.4,0.2,0.7,0.3,1.2,0.3
				c0.4,0,0.7-0.1,1-0.2c0.3-0.1,0.6-0.3,0.8-0.6l0.3,0.4c-0.2,0.3-0.5,0.5-0.9,0.6c-0.4,0.2-0.8,0.2-1.2,0.2c-0.6,0-1-0.1-1.4-0.4
				c-0.4-0.2-0.8-0.6-1-1s-0.4-0.9-0.4-1.4c0-0.5,0.1-1,0.3-1.4c0.2-0.4,0.5-0.8,0.9-1c0.4-0.2,0.8-0.4,1.3-0.4
				c0.5,0,0.9,0.1,1.3,0.4c0.4,0.2,0.7,0.6,0.9,1c0.2,0.4,0.3,0.9,0.3,1.4L204.9,499.7z M201.3,497.6c-0.3,0.2-0.6,0.4-0.7,0.7
				c-0.2,0.3-0.3,0.6-0.3,1h4.1c0-0.4-0.1-0.7-0.3-1c-0.2-0.3-0.4-0.6-0.7-0.7c-0.3-0.2-0.6-0.3-1-0.3
				C202,497.3,201.6,497.4,201.3,497.6z"/>
			<path class="st3" d="M213.4,497.2c0.4,0.2,0.7,0.6,1,1s0.4,0.9,0.4,1.4c0,0.6-0.1,1-0.4,1.4c-0.2,0.4-0.6,0.8-1,1
				c-0.4,0.2-0.9,0.4-1.4,0.4c-0.5,0-0.9-0.1-1.3-0.3c-0.4-0.2-0.7-0.5-0.9-1v3.2h-0.5v-7.4h0.5v1.3c0.2-0.4,0.5-0.8,0.9-1
				c0.4-0.2,0.8-0.4,1.3-0.4C212.5,496.9,213,497,213.4,497.2z M213.1,501.6c0.3-0.2,0.6-0.5,0.8-0.8c0.2-0.4,0.3-0.8,0.3-1.2
				c0-0.4-0.1-0.8-0.3-1.2c-0.2-0.4-0.4-0.6-0.8-0.8c-0.4-0.2-0.7-0.3-1.1-0.3c-0.4,0-0.8,0.1-1.1,0.3c-0.3,0.2-0.6,0.5-0.8,0.8
				c-0.2,0.4-0.3,0.8-0.3,1.2c0,0.4,0.1,0.8,0.3,1.2s0.4,0.6,0.8,0.8c0.4,0.2,0.7,0.3,1.1,0.3C212.4,501.9,212.8,501.8,213.1,501.6z
				"/>
			<path class="st3" d="M221,499.7h-4.7c0,0.4,0.1,0.8,0.3,1.1c0.2,0.3,0.5,0.6,0.8,0.8c0.4,0.2,0.7,0.3,1.2,0.3
				c0.4,0,0.7-0.1,1-0.2c0.3-0.1,0.6-0.3,0.8-0.6l0.3,0.4c-0.2,0.3-0.5,0.5-0.9,0.6c-0.4,0.2-0.8,0.2-1.2,0.2c-0.6,0-1-0.1-1.4-0.4
				c-0.4-0.2-0.8-0.6-1-1c-0.2-0.4-0.4-0.9-0.4-1.4c0-0.5,0.1-1,0.3-1.4c0.2-0.4,0.5-0.8,0.9-1s0.8-0.4,1.3-0.4s0.9,0.1,1.3,0.4
				c0.4,0.2,0.7,0.6,0.9,1c0.2,0.4,0.3,0.9,0.3,1.4L221,499.7z M217.4,497.6c-0.3,0.2-0.6,0.4-0.7,0.7c-0.2,0.3-0.3,0.6-0.3,1h4.1
				c0-0.4-0.1-0.7-0.3-1c-0.2-0.3-0.4-0.6-0.7-0.7c-0.3-0.2-0.6-0.3-1-0.3C218,497.3,217.7,497.4,217.4,497.6z"/>
			<path class="st3" d="M225.9,500c0.2,0.2,0.3,0.5,0.3,0.8s-0.1,0.6-0.3,0.8c-0.2,0.2-0.5,0.4-0.8,0.6c-0.4,0.1-0.8,0.2-1.2,0.2
				c-0.4,0-0.8-0.1-1.1-0.2c-0.4-0.1-0.7-0.3-1-0.5l0.2-0.4c0.2,0.2,0.5,0.4,0.9,0.5c0.4,0.1,0.7,0.2,1,0.2c0.5,0,1-0.1,1.3-0.3
				c0.4-0.2,0.5-0.5,0.5-0.9c0-0.3-0.2-0.6-0.4-0.8s-0.7-0.3-1.2-0.3h-0.9v-0.4h0.8c0.4,0,0.8-0.1,1.1-0.3c0.3-0.2,0.4-0.4,0.4-0.7
				c0-0.3-0.2-0.6-0.5-0.8c-0.3-0.2-0.7-0.3-1.2-0.3c-0.6,0-1.2,0.2-1.7,0.5l-0.2-0.4c0.6-0.3,1.2-0.5,2-0.5c0.6,0,1.1,0.1,1.5,0.4
				c0.4,0.2,0.6,0.6,0.6,1c0,0.3-0.1,0.5-0.3,0.8c-0.2,0.2-0.5,0.4-0.8,0.5C225.3,499.6,225.6,499.7,225.9,500z"/>
			<path class="st3" d="M232.4,496.9l-2.8,6.1c-0.2,0.5-0.4,0.8-0.7,1c-0.3,0.2-0.6,0.3-1,0.3c-0.2,0-0.5,0-0.7-0.1
				s-0.4-0.2-0.6-0.4l0.3-0.4c0.3,0.3,0.6,0.4,1,0.4c0.3,0,0.5-0.1,0.7-0.2c0.2-0.2,0.4-0.4,0.5-0.8l0.3-0.6l-2.4-5.4h0.6l2.2,4.8
				l2.2-4.8L232.4,496.9L232.4,496.9z"/>
			<path class="st3" d="M237.7,496.9v5.4h-0.5v-4.9h-2.8l-0.1,1.4c0,0.8-0.1,1.4-0.2,1.9c-0.1,0.5-0.2,0.9-0.4,1.2
				c-0.2,0.3-0.5,0.5-0.8,0.5c-0.1,0-0.2,0-0.4-0.1l0-0.4c0.1,0,0.2,0,0.2,0c0.3,0,0.5-0.2,0.7-0.4c0.2-0.3,0.2-0.6,0.3-1.1
				c0-0.4,0.1-1,0.1-1.6l0.1-1.9L237.7,496.9L237.7,496.9z"/>
			<path class="st3" d="M243.6,499.3c0.4,0.3,0.5,0.7,0.5,1.3c0,0.6-0.2,1-0.6,1.3c-0.4,0.3-0.9,0.4-1.6,0.4l-2,0v-5.4h0.5v2l1.6,0
				C242.8,498.9,243.3,499,243.6,499.3z M243.2,501.6c0.3-0.2,0.4-0.6,0.4-1c0-0.4-0.1-0.8-0.4-1c-0.3-0.2-0.7-0.3-1.2-0.3h-1.5v2.6
				l1.5,0C242.5,501.9,242.9,501.8,243.2,501.6z"/>
			<path class="st3" d="M248.7,497.4h-2.1v4.9h-0.5v-4.9H244v-0.5h4.7L248.7,497.4L248.7,497.4z"/>
			<path class="st3" d="M253.2,497.4c0.4,0.4,0.6,0.8,0.6,1.5v3.4h-0.5v-1c-0.2,0.3-0.4,0.6-0.8,0.8c-0.3,0.2-0.7,0.3-1.2,0.3
				c-0.6,0-1.1-0.2-1.4-0.4c-0.4-0.3-0.5-0.6-0.5-1.1c0-0.4,0.2-0.8,0.5-1.1c0.3-0.3,0.8-0.4,1.6-0.4h1.9v-0.4
				c0-0.5-0.1-0.9-0.4-1.2s-0.7-0.4-1.2-0.4c-0.4,0-0.7,0.1-1,0.2c-0.3,0.1-0.6,0.3-0.8,0.5l-0.2-0.4c0.3-0.2,0.6-0.4,1-0.6
				c0.4-0.1,0.8-0.2,1.2-0.2C252.3,496.9,252.8,497,253.2,497.4z M252.5,501.6c0.3-0.2,0.6-0.5,0.7-0.9v-1h-1.8
				c-0.5,0-0.9,0.1-1.2,0.3c-0.2,0.2-0.4,0.5-0.4,0.8c0,0.4,0.1,0.6,0.4,0.8s0.6,0.3,1.1,0.3C251.8,501.9,252.1,501.8,252.5,501.6z"
				/>
			<path class="st3" d="M259.4,497.4h-2.1v4.9h-0.5v-4.9h-2.1v-0.5h4.7L259.4,497.4L259.4,497.4z"/>
			<path class="st3" d="M261.1,502c-0.4-0.2-0.7-0.6-1-1c-0.2-0.4-0.4-0.9-0.4-1.4c0-0.5,0.1-1,0.4-1.4s0.6-0.8,1-1s0.9-0.4,1.4-0.4
				s1,0.1,1.4,0.4c0.4,0.2,0.7,0.6,1,1c0.2,0.4,0.4,0.9,0.4,1.4c0,0.5-0.1,1-0.4,1.4c-0.2,0.4-0.6,0.8-1,1c-0.4,0.2-0.9,0.4-1.4,0.4
				S261.5,502.2,261.1,502z M263.5,501.6c0.3-0.2,0.6-0.5,0.8-0.8c0.2-0.4,0.3-0.8,0.3-1.2c0-0.4-0.1-0.8-0.3-1.2
				c-0.2-0.4-0.4-0.6-0.8-0.8c-0.4-0.2-0.7-0.3-1.1-0.3c-0.4,0-0.8,0.1-1.1,0.3c-0.3,0.2-0.6,0.5-0.8,0.8c-0.2,0.4-0.3,0.8-0.3,1.2
				c0,0.4,0.1,0.8,0.3,1.2s0.4,0.6,0.8,0.8c0.4,0.2,0.7,0.3,1.1,0.3C262.8,501.9,263.2,501.8,263.5,501.6z"/>
			<path class="st3" d="M271.2,500.9c0,0.5-0.2,0.8-0.5,1.1c-0.4,0.2-0.8,0.4-1.6,0.4h-2.4v-5.4h2.3c0.6,0,1.1,0.1,1.4,0.4
				c0.4,0.2,0.5,0.6,0.5,1c0,0.3-0.1,0.6-0.3,0.8c-0.2,0.2-0.4,0.4-0.8,0.4C270.8,499.7,271.2,500.1,271.2,500.9z M267.3,499.4h1.8
				c0.5,0,0.8-0.1,1.1-0.3c0.2-0.2,0.4-0.4,0.4-0.8s-0.1-0.6-0.4-0.8c-0.2-0.2-0.6-0.2-1.1-0.2h-1.8V499.4z M270.7,500.8
				c0-0.4-0.1-0.6-0.4-0.8s-0.6-0.2-1.1-0.2h-1.9v2.1h1.8C270.2,501.9,270.7,501.6,270.7,500.8z"/>
			<path class="st5" d="M277,495.1v7.3h-0.5v-6.8h-1.8v-0.5H277z"/>
			<path class="st5" d="M283.8,495.1v0.4l-3.1,6.9h-0.6l3.1-6.8h-4.1v1.4h-0.5v-1.9H283.8z"/>
			<path class="st5" d="M284.5,502.2c-0.1-0.1-0.1-0.2-0.1-0.3c0-0.1,0-0.2,0.1-0.3c0.1-0.1,0.2-0.1,0.3-0.1c0.1,0,0.2,0,0.3,0.1
				c0.1,0.1,0.1,0.2,0.1,0.3c0,0.1,0,0.2-0.1,0.3c-0.1,0.1-0.2,0.1-0.3,0.1C284.7,502.4,284.6,502.3,284.5,502.2z"/>
			<path class="st5" d="M287.6,501.9c-0.4-0.3-0.8-0.7-1-1.3c-0.2-0.6-0.4-1.2-0.4-2s0.1-1.4,0.4-2c0.2-0.6,0.6-1,1-1.3
				c0.4-0.3,0.9-0.4,1.5-0.4c0.6,0,1,0.2,1.5,0.4c0.4,0.3,0.8,0.7,1,1.3c0.2,0.6,0.4,1.2,0.4,2s-0.1,1.4-0.4,2s-0.6,1-1,1.3
				c-0.4,0.3-0.9,0.4-1.5,0.4S288.1,502.2,287.6,501.9z M290.3,501.5c0.4-0.2,0.6-0.6,0.8-1.1c0.2-0.5,0.3-1,0.3-1.7
				c0-0.7-0.1-1.2-0.3-1.7c-0.2-0.5-0.5-0.8-0.8-1.1c-0.3-0.3-0.8-0.4-1.2-0.4c-0.4,0-0.9,0.1-1.2,0.4c-0.4,0.2-0.6,0.6-0.8,1.1
				c-0.2,0.5-0.3,1-0.3,1.7c0,0.7,0.1,1.2,0.3,1.7c0.2,0.5,0.5,0.8,0.8,1.1c0.4,0.2,0.8,0.4,1.2,0.4
				C289.6,501.9,290,501.8,290.3,501.5z"/>
			<path class="st5" d="M297.4,496c0.5,0.6,0.8,1.5,0.8,2.7c0,0.8-0.1,1.5-0.4,2c-0.3,0.6-0.6,1-1.1,1.3c-0.5,0.3-1,0.4-1.7,0.4
				c-0.7,0-1.2-0.1-1.6-0.4l0.2-0.4c0.4,0.2,0.8,0.3,1.4,0.3c0.8,0,1.5-0.3,2-0.8c0.5-0.6,0.7-1.3,0.7-2.4c0-0.3,0-0.6-0.1-0.9
				c-0.2,0.5-0.4,0.8-0.8,1.1c-0.4,0.3-0.9,0.4-1.5,0.4c-0.5,0-0.9-0.1-1.3-0.3c-0.4-0.2-0.6-0.4-0.8-0.8c-0.2-0.3-0.3-0.7-0.3-1.1
				c0-0.4,0.1-0.8,0.3-1.2c0.2-0.3,0.5-0.6,0.9-0.8c0.4-0.2,0.8-0.3,1.2-0.3C296.2,495,297,495.3,297.4,496z M296.4,498.7
				c0.3-0.2,0.6-0.4,0.7-0.6c0.2-0.3,0.2-0.6,0.2-0.9c0-0.3-0.1-0.6-0.2-0.8s-0.4-0.5-0.7-0.6c-0.3-0.2-0.7-0.2-1.1-0.2
				c-0.6,0-1,0.2-1.4,0.5c-0.4,0.3-0.5,0.7-0.5,1.2s0.2,0.9,0.5,1.2c0.4,0.3,0.8,0.5,1.4,0.5C295.8,498.9,296.1,498.8,296.4,498.7z"
				/>
		</g>
		<g>
			<path class="st3" d="M151.5,514.7c0.3,0.3,0.4,0.7,0.4,1.2c0,0.6-0.2,1.1-0.6,1.4c-0.4,0.3-1.1,0.5-2,0.5h-3.1v-7.3h2.9
				c0.8,0,1.4,0.2,1.8,0.5s0.6,0.8,0.6,1.4c0,0.4-0.1,0.8-0.3,1.1c-0.2,0.3-0.5,0.5-0.9,0.6C150.8,514.2,151.2,514.4,151.5,514.7z
				 M146.7,514h2.4c0.6,0,1.1-0.1,1.4-0.4c0.3-0.2,0.5-0.6,0.5-1.1c0-0.5-0.2-0.8-0.5-1.1c-0.3-0.2-0.8-0.4-1.4-0.4h-2.4V514z
				 M151.4,515.9c0-0.5-0.2-0.9-0.5-1.2c-0.4-0.2-0.8-0.4-1.5-0.4h-2.6v3h2.6C150.7,517.4,151.4,516.9,151.4,515.9z"/>
			<path class="st3" d="M157.4,514.8c0.4,0.3,0.5,0.7,0.5,1.3c0,0.6-0.2,1-0.6,1.3c-0.4,0.3-0.9,0.4-1.6,0.4l-2,0v-5.4h0.5v2l1.6,0
				C156.5,514.4,157.1,514.6,157.4,514.8z M157,517.1c0.3-0.2,0.4-0.6,0.4-1c0-0.4-0.1-0.8-0.4-1c-0.3-0.2-0.7-0.3-1.3-0.3h-1.5v2.6
				l1.5,0C156.3,517.5,156.7,517.3,157,517.1z M158.9,512.4h0.5v5.4h-0.5V512.4z"/>
			<path class="st3" d="M166.8,517.4v1.8h-0.5v-1.4h-5.1v1.4h-0.5v-1.8h0.3c0.4,0,0.6-0.3,0.8-0.8c0.2-0.5,0.2-1.3,0.3-2.3l0.1-1.8
				h3.8v4.9L166.8,517.4L166.8,517.4z M162.3,516.3c-0.1,0.6-0.3,0.9-0.6,1.1h3.7v-4.5h-2.8l-0.1,1.4
				C162.5,515.1,162.4,515.8,162.3,516.3z"/>
			<path class="st3" d="M171.7,512.9c0.4,0.4,0.6,0.8,0.6,1.5v3.4h-0.5v-1c-0.2,0.3-0.4,0.6-0.8,0.8c-0.3,0.2-0.7,0.3-1.2,0.3
				c-0.6,0-1.1-0.2-1.4-0.4c-0.4-0.3-0.5-0.6-0.5-1.1c0-0.4,0.2-0.8,0.5-1.1c0.3-0.3,0.8-0.4,1.6-0.4h1.9v-0.4
				c0-0.5-0.1-0.9-0.4-1.2s-0.7-0.4-1.2-0.4c-0.4,0-0.7,0.1-1,0.2c-0.3,0.1-0.6,0.3-0.8,0.5l-0.2-0.4c0.3-0.2,0.6-0.4,1-0.6
				c0.4-0.1,0.8-0.2,1.2-0.2C170.8,512.4,171.3,512.6,171.7,512.9z M171,517.2c0.3-0.2,0.6-0.5,0.7-0.9v-1h-1.8
				c-0.5,0-0.9,0.1-1.2,0.3s-0.4,0.5-0.4,0.8c0,0.4,0.1,0.6,0.4,0.8s0.6,0.3,1.1,0.3C170.3,517.5,170.7,517.3,171,517.2z"/>
			<path class="st3" d="M178.2,512.4v5.4h-0.5v-2.4c-0.6,0.3-1.3,0.4-1.9,0.4c-0.6,0-1.1-0.2-1.5-0.4c-0.4-0.3-0.6-0.7-0.6-1.3v-1.8
				h0.5v1.8c0,0.4,0.2,0.8,0.4,1c0.3,0.2,0.7,0.4,1.2,0.4c0.6,0,1.2-0.2,1.9-0.4v-2.7L178.2,512.4L178.2,512.4z"/>
			<path class="st3" d="M183.8,512.9c0.4,0.4,0.6,0.8,0.6,1.5v3.4h-0.5v-1c-0.2,0.3-0.4,0.6-0.8,0.8c-0.3,0.2-0.7,0.3-1.2,0.3
				c-0.6,0-1.1-0.2-1.4-0.4c-0.4-0.3-0.5-0.6-0.5-1.1c0-0.4,0.2-0.8,0.5-1.1c0.3-0.3,0.8-0.4,1.6-0.4h1.9v-0.4
				c0-0.5-0.1-0.9-0.4-1.2s-0.7-0.4-1.2-0.4c-0.4,0-0.7,0.1-1,0.2c-0.3,0.1-0.6,0.3-0.8,0.5l-0.3-0.4c0.3-0.2,0.6-0.4,1-0.6
				c0.4-0.1,0.8-0.2,1.2-0.2C182.9,512.4,183.4,512.6,183.8,512.9z M183.1,517.2c0.3-0.2,0.6-0.5,0.7-0.9v-1h-1.8
				c-0.5,0-0.9,0.1-1.2,0.3s-0.4,0.5-0.4,0.8c0,0.4,0.1,0.6,0.4,0.8s0.6,0.3,1.1,0.3C182.4,517.5,182.8,517.3,183.1,517.2z"/>
			<path class="st3" d="M190.9,515.3h-1.3v2.5h-0.5v-5.4h0.5v2.5h1.3l2-2.5h0.6l-2.2,2.6l2.4,2.8H193L190.9,515.3z"/>
			<path class="st3" d="M199.4,515.3h-4.7c0,0.4,0.1,0.8,0.3,1.1c0.2,0.3,0.5,0.6,0.8,0.8c0.4,0.2,0.7,0.3,1.2,0.3
				c0.4,0,0.7-0.1,1-0.2c0.3-0.1,0.6-0.3,0.8-0.6l0.3,0.4c-0.2,0.3-0.5,0.5-0.9,0.6c-0.4,0.2-0.8,0.2-1.2,0.2c-0.6,0-1-0.1-1.4-0.4
				c-0.4-0.2-0.8-0.6-1-1c-0.2-0.4-0.4-0.9-0.4-1.4c0-0.5,0.1-1,0.3-1.4c0.2-0.4,0.5-0.8,0.9-1c0.4-0.2,0.8-0.4,1.3-0.4
				c0.5,0,0.9,0.1,1.3,0.4c0.4,0.2,0.7,0.6,0.9,1c0.2,0.4,0.3,0.9,0.3,1.4L199.4,515.3z M195.8,513.1c-0.3,0.2-0.6,0.4-0.7,0.7
				c-0.2,0.3-0.3,0.6-0.3,1h4.1c0-0.4-0.1-0.7-0.3-1c-0.2-0.3-0.4-0.6-0.7-0.7c-0.3-0.2-0.6-0.3-1-0.3
				C196.4,512.8,196.1,512.9,195.8,513.1z"/>
			<path class="st3" d="M201.1,512.4h0.5v4.6l3.9-4.6h0.4v5.4h-0.5v-4.6l-3.9,4.6h-0.4V512.4z M202.4,511.2c-0.3-0.2-0.4-0.5-0.4-1
				h0.4c0,0.3,0.1,0.5,0.3,0.7c0.2,0.2,0.5,0.2,0.8,0.2c0.3,0,0.6-0.1,0.8-0.2c0.2-0.2,0.3-0.4,0.3-0.7h0.4c0,0.4-0.2,0.7-0.4,1
				s-0.6,0.3-1.1,0.3C203,511.6,202.7,511.5,202.4,511.2z"/>
			<path class="st3" d="M208.9,517.5c-0.4-0.2-0.8-0.6-1-1c-0.2-0.4-0.4-0.9-0.4-1.4s0.1-1,0.4-1.4c0.2-0.4,0.6-0.8,1-1
				c0.4-0.2,0.9-0.4,1.4-0.4c0.4,0,0.8,0.1,1.2,0.2s0.6,0.4,0.9,0.8l-0.4,0.3c-0.2-0.3-0.4-0.5-0.7-0.6c-0.3-0.1-0.6-0.2-1-0.2
				c-0.4,0-0.8,0.1-1.1,0.3c-0.3,0.2-0.6,0.4-0.8,0.8c-0.2,0.4-0.3,0.8-0.3,1.2s0.1,0.8,0.3,1.2c0.2,0.4,0.4,0.6,0.8,0.8
				c0.4,0.2,0.7,0.3,1.1,0.3c0.4,0,0.7-0.1,1-0.2c0.3-0.1,0.5-0.3,0.7-0.6l0.4,0.3c-0.2,0.3-0.5,0.6-0.9,0.8s-0.8,0.2-1.2,0.2
				C209.8,517.9,209.3,517.7,208.9,517.5z"/>
			<path class="st3" d="M214.6,517.5c-0.4-0.2-0.7-0.6-1-1c-0.2-0.4-0.4-0.9-0.4-1.4s0.1-1,0.4-1.4c0.2-0.4,0.6-0.8,1-1
				c0.4-0.2,0.9-0.4,1.4-0.4s1,0.1,1.4,0.4c0.4,0.2,0.7,0.6,1,1c0.2,0.4,0.4,0.9,0.4,1.4s-0.1,1-0.4,1.4c-0.2,0.4-0.6,0.8-1,1
				c-0.4,0.2-0.9,0.4-1.4,0.4S215,517.7,214.6,517.5z M217.1,517.1c0.3-0.2,0.6-0.5,0.8-0.8c0.2-0.4,0.3-0.8,0.3-1.2
				c0-0.4-0.1-0.8-0.3-1.2s-0.4-0.6-0.8-0.8c-0.4-0.2-0.7-0.3-1.1-0.3c-0.4,0-0.8,0.1-1.1,0.3c-0.3,0.2-0.6,0.5-0.8,0.8
				c-0.2,0.4-0.3,0.8-0.3,1.2c0,0.4,0.1,0.8,0.3,1.2c0.2,0.4,0.4,0.6,0.8,0.8s0.7,0.3,1.1,0.3C216.4,517.4,216.8,517.3,217.1,517.1z
				"/>
			<path class="st3" d="M224.8,516.4c0,0.5-0.2,0.8-0.5,1.1c-0.4,0.2-0.8,0.4-1.6,0.4h-2.4v-5.4h2.3c0.6,0,1.1,0.1,1.4,0.4
				c0.4,0.2,0.5,0.6,0.5,1c0,0.3-0.1,0.6-0.3,0.8c-0.2,0.2-0.4,0.4-0.8,0.4C224.4,515.2,224.8,515.6,224.8,516.4z M220.9,514.9h1.8
				c0.5,0,0.8-0.1,1.1-0.3c0.2-0.2,0.4-0.4,0.4-0.8c0-0.3-0.1-0.6-0.4-0.8c-0.2-0.2-0.6-0.2-1.1-0.2h-1.8V514.9z M224.3,516.4
				c0-0.4-0.1-0.6-0.4-0.8s-0.6-0.2-1.1-0.2h-1.9v2.1h1.8C223.7,517.4,224.3,517.1,224.3,516.4z"/>
			<path class="st3" d="M233.7,516.4c0,0.5-0.2,0.8-0.5,1.1c-0.4,0.2-0.8,0.4-1.6,0.4h-2.4v-5.4h2.3c0.6,0,1.1,0.1,1.4,0.4
				c0.4,0.2,0.5,0.6,0.5,1c0,0.3-0.1,0.6-0.3,0.8c-0.2,0.2-0.4,0.4-0.8,0.4C233.3,515.2,233.7,515.6,233.7,516.4z M229.8,514.9h1.8
				c0.5,0,0.8-0.1,1.1-0.3c0.2-0.2,0.4-0.4,0.4-0.8c0-0.3-0.1-0.6-0.4-0.8s-0.6-0.2-1.1-0.2h-1.8V514.9z M233.2,516.4
				c0-0.4-0.1-0.6-0.4-0.8s-0.6-0.2-1.1-0.2h-1.9v2.1h1.8C232.7,517.4,233.2,517.1,233.2,516.4z"/>
			<path class="st3" d="M239.2,512.9h-2.1v4.9h-0.5v-4.9h-2.1v-0.5h4.7L239.2,512.9L239.2,512.9z"/>
			<path class="st3" d="M240.8,517.5c-0.4-0.2-0.7-0.6-1-1c-0.2-0.4-0.4-0.9-0.4-1.4s0.1-1,0.4-1.4c0.2-0.4,0.6-0.8,1-1
				c0.4-0.2,0.9-0.4,1.4-0.4c0.5,0,1,0.1,1.4,0.4c0.4,0.2,0.7,0.6,1,1c0.2,0.4,0.4,0.9,0.4,1.4s-0.1,1-0.4,1.4c-0.2,0.4-0.6,0.8-1,1
				c-0.4,0.2-0.9,0.4-1.4,0.4C241.7,517.9,241.2,517.7,240.8,517.5z M243.3,517.1c0.3-0.2,0.6-0.5,0.8-0.8c0.2-0.4,0.3-0.8,0.3-1.2
				c0-0.4-0.1-0.8-0.3-1.2s-0.4-0.6-0.8-0.8c-0.3-0.2-0.7-0.3-1.1-0.3c-0.4,0-0.8,0.1-1.1,0.3c-0.3,0.2-0.6,0.5-0.8,0.8
				c-0.2,0.4-0.3,0.8-0.3,1.2c0,0.4,0.1,0.8,0.3,1.2c0.2,0.4,0.4,0.6,0.8,0.8s0.7,0.3,1.1,0.3C242.6,517.4,243,517.3,243.3,517.1z"
				/>
			<path class="st3" d="M250.7,512.7c0.4,0.2,0.7,0.6,1,1c0.2,0.4,0.4,0.9,0.4,1.4s-0.1,1-0.4,1.4c-0.2,0.4-0.6,0.8-1,1
				c-0.4,0.2-0.9,0.4-1.4,0.4c-0.5,0-0.9-0.1-1.3-0.3c-0.4-0.2-0.7-0.5-0.9-1v3.2h-0.5v-7.4h0.5v1.3c0.2-0.4,0.5-0.8,0.9-1
				c0.4-0.2,0.8-0.4,1.3-0.4C249.8,512.4,250.3,512.5,250.7,512.7z M250.4,517.1c0.3-0.2,0.6-0.5,0.8-0.8c0.2-0.4,0.3-0.8,0.3-1.2
				c0-0.4-0.1-0.8-0.3-1.2c-0.2-0.4-0.4-0.6-0.8-0.8c-0.4-0.2-0.7-0.3-1.1-0.3s-0.8,0.1-1.1,0.3c-0.3,0.2-0.6,0.5-0.8,0.8
				c-0.2,0.4-0.3,0.8-0.3,1.2c0,0.4,0.1,0.8,0.3,1.2c0.2,0.4,0.4,0.6,0.8,0.8c0.3,0.2,0.7,0.3,1.1,0.3
				C249.7,517.4,250.1,517.3,250.4,517.1z"/>
			<path class="st3" d="M254.5,517.5c-0.4-0.2-0.7-0.6-1-1c-0.2-0.4-0.4-0.9-0.4-1.4s0.1-1,0.4-1.4c0.2-0.4,0.6-0.8,1-1
				c0.4-0.2,0.9-0.4,1.4-0.4c0.5,0,1,0.1,1.4,0.4c0.4,0.2,0.7,0.6,1,1c0.2,0.4,0.4,0.9,0.4,1.4s-0.1,1-0.4,1.4c-0.2,0.4-0.6,0.8-1,1
				c-0.4,0.2-0.9,0.4-1.4,0.4C255.3,517.9,254.9,517.7,254.5,517.5z M256.9,517.1c0.3-0.2,0.6-0.5,0.8-0.8c0.2-0.4,0.3-0.8,0.3-1.2
				c0-0.4-0.1-0.8-0.3-1.2c-0.2-0.4-0.4-0.6-0.8-0.8c-0.3-0.2-0.7-0.3-1.1-0.3c-0.4,0-0.8,0.1-1.1,0.3c-0.3,0.2-0.6,0.5-0.8,0.8
				c-0.2,0.4-0.3,0.8-0.3,1.2c0,0.4,0.1,0.8,0.3,1.2c0.2,0.4,0.4,0.6,0.8,0.8c0.3,0.2,0.7,0.3,1.1,0.3
				C256.2,517.4,256.6,517.3,256.9,517.1z"/>
			<path class="st3" d="M263.9,512.9h-3.2v4.9h-0.5v-5.4h3.7V512.9z"/>
			<path class="st3" d="M265.5,517.5c-0.4-0.2-0.7-0.6-1-1c-0.2-0.4-0.4-0.9-0.4-1.4s0.1-1,0.4-1.4c0.2-0.4,0.6-0.8,1-1
				c0.4-0.2,0.9-0.4,1.4-0.4c0.5,0,1,0.1,1.4,0.4c0.4,0.2,0.7,0.6,1,1c0.2,0.4,0.4,0.9,0.4,1.4s-0.1,1-0.4,1.4c-0.2,0.4-0.6,0.8-1,1
				c-0.4,0.2-0.9,0.4-1.4,0.4C266.4,517.9,266,517.7,265.5,517.5z M268.1,517.1c0.3-0.2,0.6-0.5,0.8-0.8c0.2-0.4,0.3-0.8,0.3-1.2
				c0-0.4-0.1-0.8-0.3-1.2c-0.2-0.4-0.4-0.6-0.8-0.8c-0.3-0.2-0.7-0.3-1.1-0.3c-0.4,0-0.8,0.1-1.1,0.3c-0.3,0.2-0.6,0.5-0.8,0.8
				c-0.2,0.4-0.3,0.8-0.3,1.2c0,0.4,0.1,0.8,0.3,1.2c0.2,0.4,0.4,0.6,0.8,0.8c0.3,0.2,0.7,0.3,1.1,0.3
				C267.4,517.4,267.7,517.3,268.1,517.1z"/>
			<path class="st3" d="M144.9,525.2c0.4,0.2,0.8,0.6,1,1c0.2,0.4,0.4,0.9,0.4,1.4s-0.1,1-0.4,1.4c-0.2,0.4-0.6,0.8-1,1
				c-0.4,0.2-0.9,0.4-1.4,0.4c-0.4,0-0.8-0.1-1.2-0.2c-0.4-0.1-0.7-0.3-0.9-0.6l0.3-0.3c0.5,0.4,1.1,0.6,1.8,0.6
				c0.4,0,0.8-0.1,1.2-0.3c0.4-0.2,0.6-0.4,0.8-0.8c0.2-0.3,0.3-0.7,0.4-1.1h-3.1v-0.4h3c0-0.4-0.2-0.8-0.4-1.1
				c-0.2-0.3-0.5-0.6-0.8-0.7c-0.4-0.2-0.7-0.3-1.1-0.3c-0.7,0-1.4,0.2-1.8,0.6l-0.3-0.3c0.2-0.2,0.6-0.4,0.9-0.6
				c0.4-0.2,0.8-0.2,1.2-0.2C143.9,524.8,144.4,525,144.9,525.2z"/>
			<path class="st3" d="M151.3,525.3h-2.1v4.9h-0.5v-4.9h-2.1v-0.5h4.7L151.3,525.3L151.3,525.3z"/>
			<path class="st3" d="M155.8,525.3c0.4,0.4,0.6,0.8,0.6,1.5v3.4h-0.5v-1c-0.2,0.3-0.4,0.6-0.8,0.8c-0.3,0.2-0.7,0.3-1.2,0.3
				c-0.6,0-1.1-0.2-1.4-0.4c-0.4-0.3-0.5-0.6-0.5-1.1c0-0.4,0.2-0.8,0.5-1.1c0.3-0.3,0.8-0.4,1.6-0.4h1.9v-0.4
				c0-0.5-0.1-0.9-0.4-1.2s-0.7-0.4-1.2-0.4c-0.4,0-0.7,0.1-1,0.2c-0.3,0.1-0.6,0.3-0.8,0.5l-0.3-0.4c0.3-0.2,0.6-0.4,1-0.6
				c0.4-0.1,0.8-0.2,1.2-0.2C154.9,524.8,155.4,525,155.8,525.3z M155.1,529.6c0.3-0.2,0.6-0.5,0.7-0.9v-1h-1.8
				c-0.5,0-0.9,0.1-1.2,0.3c-0.2,0.2-0.4,0.5-0.4,0.8c0,0.4,0.1,0.6,0.4,0.8s0.6,0.3,1.1,0.3C154.4,529.9,154.8,529.8,155.1,529.6z"
				/>
			<path class="st3" d="M163.2,524.9v5.4h-0.5v-4.9h-3.7v4.9h-0.5v-5.4H163.2z"/>
			<path class="st3" d="M168.7,525.3c0.4,0.4,0.6,0.8,0.6,1.5v3.4h-0.5v-1c-0.2,0.3-0.4,0.6-0.8,0.8c-0.3,0.2-0.7,0.3-1.2,0.3
				c-0.6,0-1.1-0.2-1.4-0.4c-0.4-0.3-0.5-0.6-0.5-1.1c0-0.4,0.2-0.8,0.5-1.1c0.3-0.3,0.8-0.4,1.6-0.4h1.9v-0.4
				c0-0.5-0.1-0.9-0.4-1.2s-0.7-0.4-1.2-0.4c-0.4,0-0.7,0.1-1,0.2c-0.3,0.1-0.6,0.3-0.8,0.5l-0.3-0.4c0.3-0.2,0.6-0.4,1-0.6
				c0.4-0.1,0.8-0.2,1.2-0.2C167.9,524.8,168.3,525,168.7,525.3z M168,529.6c0.3-0.2,0.6-0.5,0.7-0.9v-1h-1.8
				c-0.5,0-0.9,0.1-1.2,0.3s-0.4,0.5-0.4,0.8c0,0.4,0.1,0.6,0.4,0.8s0.6,0.3,1.1,0.3C167.3,529.9,167.7,529.8,168,529.6z"/>
			<path class="st5" d="M175.3,523v7.3h-0.5v-6.8h-1.8V523H175.3z"/>
			<path class="st5" d="M182.1,523v0.4l-3.1,6.9h-0.6l3.1-6.8h-4.1v1.4h-0.5V523H182.1z"/>
			<path class="st5" d="M182.8,530.2c-0.1-0.1-0.1-0.2-0.1-0.3s0-0.2,0.1-0.3c0.1-0.1,0.2-0.1,0.3-0.1c0.1,0,0.2,0,0.3,0.1
				c0.1,0.1,0.1,0.2,0.1,0.3s0,0.2-0.1,0.3c-0.1,0.1-0.2,0.1-0.3,0.1C183,530.3,182.9,530.3,182.8,530.2z"/>
			<path class="st5" d="M185.9,529.9c-0.4-0.3-0.8-0.7-1-1.3c-0.2-0.6-0.4-1.2-0.4-2c0-0.8,0.1-1.4,0.4-2c0.2-0.6,0.6-1,1-1.3
				c0.4-0.3,0.9-0.4,1.5-0.4c0.6,0,1,0.2,1.5,0.4c0.4,0.3,0.8,0.7,1,1.3c0.2,0.6,0.4,1.2,0.4,2c0,0.8-0.1,1.4-0.4,2
				c-0.2,0.6-0.6,1-1,1.3c-0.4,0.3-0.9,0.4-1.5,0.4C186.9,530.4,186.4,530.2,185.9,529.9z M188.6,529.5c0.4-0.2,0.6-0.6,0.8-1.1
				c0.2-0.5,0.3-1,0.3-1.7c0-0.7-0.1-1.2-0.3-1.7c-0.2-0.5-0.5-0.8-0.8-1.1c-0.4-0.2-0.8-0.4-1.2-0.4c-0.4,0-0.9,0.1-1.2,0.4
				c-0.4,0.2-0.6,0.6-0.8,1.1c-0.2,0.5-0.3,1-0.3,1.7c0,0.7,0.1,1.2,0.3,1.7s0.5,0.8,0.8,1.1c0.4,0.2,0.8,0.4,1.2,0.4
				C187.8,529.8,188.3,529.7,188.6,529.5z"/>
			<path class="st5" d="M195.7,523.9c0.5,0.6,0.8,1.5,0.8,2.7c0,0.8-0.1,1.5-0.4,2c-0.3,0.6-0.6,1-1.1,1.3c-0.5,0.3-1,0.4-1.7,0.4
				c-0.7,0-1.2-0.1-1.6-0.4l0.2-0.4c0.4,0.2,0.8,0.3,1.4,0.3c0.8,0,1.5-0.3,2-0.8c0.5-0.6,0.7-1.3,0.7-2.4c0-0.3,0-0.6-0.1-0.9
				c-0.2,0.5-0.4,0.8-0.8,1.1c-0.4,0.3-0.9,0.4-1.5,0.4c-0.5,0-0.9-0.1-1.3-0.3c-0.4-0.2-0.6-0.4-0.8-0.8s-0.3-0.7-0.3-1.1
				c0-0.4,0.1-0.8,0.3-1.2s0.5-0.6,0.9-0.8c0.4-0.2,0.8-0.3,1.2-0.3C194.5,523,195.2,523.3,195.7,523.9z M194.7,526.6
				c0.3-0.2,0.6-0.4,0.7-0.6s0.2-0.6,0.2-0.9c0-0.3-0.1-0.6-0.2-0.8c-0.2-0.3-0.4-0.5-0.7-0.6c-0.3-0.2-0.7-0.2-1.1-0.2
				c-0.6,0-1,0.2-1.4,0.5c-0.4,0.3-0.5,0.7-0.5,1.2s0.2,0.9,0.5,1.2c0.4,0.3,0.8,0.5,1.4,0.5C194,526.9,194.4,526.8,194.7,526.6z"/>
		</g>
	</g>
	<g>
		<path class="st3" d="M158.5,459.2v10.3h-1.9v-8.7h-2.2v-1.6H158.5z"/>
		<path class="st3" d="M167.1,464.1c0.7,0.6,1,1.3,1,2.3c0,0.6-0.2,1.2-0.4,1.7s-0.8,0.9-1.4,1.2c-0.6,0.3-1.4,0.4-2.3,0.4
			c-0.8,0-1.4-0.1-2.2-0.3c-0.7-0.2-1.3-0.5-1.8-0.9l0.8-1.5c0.4,0.3,0.8,0.6,1.4,0.8c0.5,0.2,1.1,0.3,1.7,0.3
			c0.7,0,1.2-0.2,1.6-0.4c0.4-0.3,0.6-0.7,0.6-1.2c0-0.5-0.2-0.9-0.6-1.2c-0.4-0.3-1.1-0.4-2.2-0.4h-2.5l0.5-5.6h6.1v1.6H163
			l-0.2,2.4h1C165.3,463.3,166.4,463.5,167.1,464.1z"/>
		<path class="st3" d="M169.5,469.3c-0.2-0.2-0.4-0.5-0.4-0.9c0-0.4,0.1-0.7,0.4-0.9c0.2-0.2,0.5-0.4,0.9-0.4c0.4,0,0.6,0.1,0.9,0.4
			c0.2,0.2,0.4,0.5,0.4,0.9c0,0.4-0.1,0.6-0.4,0.9c-0.2,0.2-0.5,0.4-0.8,0.4C170,469.7,169.7,469.6,169.5,469.3z"/>
		<path class="st3" d="M174.7,469.1c-0.6-0.4-1.2-1-1.5-1.8c-0.4-0.8-0.6-1.8-0.6-2.9c0-1.1,0.2-2,0.6-2.9c0.4-0.8,0.9-1.4,1.5-1.8
			c0.6-0.4,1.4-0.6,2.2-0.6s1.6,0.2,2.2,0.6c0.6,0.4,1.2,1,1.6,1.8c0.4,0.8,0.6,1.8,0.6,2.9c0,1.1-0.2,2-0.6,2.9
			c-0.4,0.8-0.9,1.4-1.6,1.8c-0.6,0.4-1.4,0.6-2.2,0.6C176.1,469.7,175.4,469.5,174.7,469.1z M178.7,467.1c0.4-0.6,0.6-1.5,0.6-2.7
			s-0.2-2.1-0.6-2.7c-0.4-0.6-1-0.9-1.8-0.9c-0.7,0-1.3,0.3-1.7,0.9c-0.4,0.6-0.6,1.5-0.6,2.7s0.2,2.1,0.6,2.7
			c0.4,0.6,1,0.9,1.7,0.9S178.3,467.8,178.7,467.1z"/>
		<path class="st3" d="M189.4,460.4c0.8,0.9,1.2,2.2,1.2,3.8c0,1.2-0.2,2.2-0.6,3c-0.4,0.8-1,1.4-1.8,1.9c-0.8,0.4-1.6,0.6-2.6,0.6
			c-0.5,0-1,0-1.5-0.2s-0.9-0.3-1.2-0.5l0.7-1.4c0.5,0.3,1.2,0.5,2,0.5c1,0,1.8-0.3,2.3-0.9s0.8-1.5,0.8-2.6l0,0
			c-0.3,0.4-0.7,0.6-1.2,0.8c-0.5,0.2-1,0.3-1.6,0.3c-0.7,0-1.3-0.1-1.8-0.4c-0.6-0.3-1-0.6-1.3-1.1c-0.3-0.5-0.4-1-0.4-1.7
			c0-0.7,0.2-1.3,0.5-1.8c0.3-0.5,0.8-0.9,1.4-1.2c0.6-0.3,1.2-0.4,1.9-0.4C187.5,459.1,188.6,459.6,189.4,460.4z M187.7,463.6
			c0.4-0.3,0.6-0.8,0.6-1.3c0-0.5-0.2-0.9-0.6-1.2c-0.4-0.3-0.9-0.5-1.6-0.5c-0.6,0-1.1,0.2-1.5,0.5c-0.4,0.3-0.6,0.8-0.6,1.3
			c0,0.6,0.2,1,0.6,1.3c0.4,0.3,0.9,0.5,1.5,0.5C186.8,464.1,187.3,463.9,187.7,463.6z"/>
		<path class="st3" d="M192.1,464.7h4.1v1.5h-4.1V464.7z"/>
		<path class="st3" d="M200.8,459.2v10.3h-1.9v-8.7h-2.2v-1.6H200.8z"/>
		<path class="st3" d="M210.7,459.2v1.3l-4,9.1h-2l3.9-8.7h-4.1v1.8h-1.8v-3.4H210.7z"/>
		<path class="st3" d="M211.4,469.3c-0.2-0.2-0.4-0.5-0.4-0.9c0-0.4,0.1-0.7,0.4-0.9c0.2-0.2,0.5-0.4,0.9-0.4c0.4,0,0.6,0.1,0.9,0.4
			c0.2,0.2,0.4,0.5,0.4,0.9c0,0.4-0.1,0.6-0.4,0.9c-0.2,0.2-0.5,0.4-0.8,0.4C212,469.7,211.7,469.6,211.4,469.3z"/>
		<path class="st3" d="M216.6,469.1c-0.6-0.4-1.2-1-1.5-1.8c-0.4-0.8-0.6-1.8-0.6-2.9c0-1.1,0.2-2,0.6-2.9c0.4-0.8,0.9-1.4,1.5-1.8
			c0.6-0.4,1.4-0.6,2.2-0.6s1.6,0.2,2.2,0.6c0.6,0.4,1.2,1,1.6,1.8c0.4,0.8,0.6,1.8,0.6,2.9c0,1.1-0.2,2-0.6,2.9
			c-0.4,0.8-0.9,1.4-1.6,1.8c-0.6,0.4-1.4,0.6-2.2,0.6C218,469.7,217.3,469.5,216.6,469.1z M220.6,467.1c0.4-0.6,0.6-1.5,0.6-2.7
			s-0.2-2.1-0.6-2.7c-0.4-0.6-1-0.9-1.8-0.9c-0.7,0-1.3,0.3-1.7,0.9c-0.4,0.6-0.6,1.5-0.6,2.7s0.2,2.1,0.6,2.7
			c0.4,0.6,1,0.9,1.7,0.9C219.6,468.1,220.2,467.8,220.6,467.1z"/>
		<path class="st3" d="M231.3,460.4c0.8,0.9,1.2,2.2,1.2,3.8c0,1.2-0.2,2.2-0.6,3c-0.4,0.8-1,1.4-1.8,1.9c-0.8,0.4-1.6,0.6-2.6,0.6
			c-0.5,0-1,0-1.5-0.2s-0.9-0.3-1.2-0.5l0.7-1.4c0.5,0.3,1.2,0.5,2,0.5c1,0,1.8-0.3,2.3-0.9s0.8-1.5,0.8-2.6l0,0
			c-0.3,0.4-0.7,0.6-1.2,0.8c-0.5,0.2-1,0.3-1.6,0.3c-0.7,0-1.3-0.1-1.8-0.4c-0.6-0.3-1-0.6-1.3-1.1c-0.3-0.5-0.4-1-0.4-1.7
			c0-0.7,0.2-1.3,0.5-1.8c0.3-0.5,0.8-0.9,1.4-1.2c0.6-0.3,1.2-0.4,1.9-0.4C229.4,459.1,230.5,459.6,231.3,460.4z M229.6,463.6
			c0.4-0.3,0.6-0.8,0.6-1.3c0-0.5-0.2-0.9-0.6-1.2c-0.4-0.3-0.9-0.5-1.6-0.5c-0.6,0-1.1,0.2-1.5,0.5c-0.4,0.3-0.6,0.8-0.6,1.3
			c0,0.6,0.2,1,0.6,1.3c0.4,0.3,0.9,0.5,1.5,0.5C228.8,464.1,229.2,463.9,229.6,463.6z"/>
	</g>
	<circle class="st3" cx="140.3" cy="486.9" r="2.4"/>
	<circle class="st3" cx="140.3" cy="514.7" r="2.4"/>
</g>
<g>
	<g>
		<g>
			<path class="st3" d="M123.8,747.5c0,0.5-0.2,0.8-0.5,1.1c-0.4,0.2-0.8,0.4-1.6,0.4h-2.4v-5.4h2.3c0.6,0,1.1,0.1,1.4,0.4
				c0.4,0.2,0.5,0.6,0.5,1c0,0.3-0.1,0.6-0.3,0.8c-0.2,0.2-0.4,0.4-0.8,0.4C123.4,746.3,123.8,746.7,123.8,747.5z M119.9,746h1.8
				c0.5,0,0.8-0.1,1.1-0.3c0.2-0.2,0.4-0.4,0.4-0.8s-0.1-0.6-0.4-0.8c-0.2-0.2-0.6-0.2-1.1-0.2h-1.8V746z M123.3,747.5
				c0-0.4-0.1-0.6-0.4-0.8c-0.2-0.2-0.6-0.3-1.1-0.3h-1.9v2.1h1.8C122.8,748.5,123.3,748.2,123.3,747.5z"/>
			<path class="st3" d="M129.3,744h-2.1v4.9h-0.5V744h-2.1v-0.5h4.7V744L129.3,744z"/>
			<path class="st3" d="M130.9,748.7c-0.4-0.2-0.7-0.6-1-1c-0.2-0.4-0.4-0.9-0.4-1.4c0-0.5,0.1-1,0.4-1.4c0.2-0.4,0.6-0.8,1-1
				c0.4-0.2,0.9-0.4,1.4-0.4c0.5,0,1,0.1,1.4,0.4c0.4,0.2,0.7,0.6,1,1c0.2,0.4,0.4,0.9,0.4,1.4c0,0.5-0.1,1-0.4,1.4
				c-0.2,0.4-0.6,0.8-1,1c-0.4,0.2-0.9,0.4-1.4,0.4C131.8,749,131.4,748.9,130.9,748.7z M133.4,748.3c0.3-0.2,0.6-0.5,0.8-0.8
				c0.2-0.4,0.3-0.8,0.3-1.2c0-0.4-0.1-0.8-0.3-1.2s-0.4-0.6-0.8-0.8c-0.3-0.2-0.7-0.3-1.1-0.3c-0.4,0-0.8,0.1-1.1,0.3
				c-0.3,0.2-0.6,0.5-0.8,0.8c-0.2,0.4-0.3,0.8-0.3,1.2c0,0.4,0.1,0.8,0.3,1.2s0.4,0.6,0.8,0.8c0.3,0.2,0.7,0.3,1.1,0.3
				C132.7,748.5,133.1,748.5,133.4,748.3z"/>
			<path class="st3" d="M140.8,743.9c0.4,0.2,0.7,0.6,1,1c0.2,0.4,0.4,0.9,0.4,1.4c0,0.5-0.1,1-0.4,1.4c-0.2,0.4-0.6,0.8-1,1
				c-0.4,0.2-0.9,0.4-1.4,0.4s-0.9-0.1-1.3-0.3c-0.4-0.2-0.7-0.5-0.9-1v3.2h-0.5v-7.4h0.5v1.3c0.2-0.4,0.5-0.7,0.9-1
				c0.4-0.2,0.8-0.4,1.3-0.4C139.9,743.5,140.4,743.6,140.8,743.9z M140.5,748.3c0.3-0.2,0.6-0.5,0.8-0.8c0.2-0.4,0.3-0.8,0.3-1.2
				c0-0.4-0.1-0.8-0.3-1.2s-0.4-0.6-0.8-0.8c-0.3-0.2-0.7-0.3-1.1-0.3c-0.4,0-0.8,0.1-1.1,0.3c-0.3,0.2-0.6,0.5-0.8,0.8
				c-0.2,0.4-0.3,0.8-0.3,1.2c0,0.4,0.1,0.8,0.3,1.2s0.4,0.6,0.8,0.8c0.3,0.2,0.7,0.3,1.1,0.3C139.8,748.5,140.2,748.5,140.5,748.3z
				"/>
			<path class="st3" d="M144.6,748.7c-0.4-0.2-0.7-0.6-1-1c-0.2-0.4-0.4-0.9-0.4-1.4c0-0.5,0.1-1,0.4-1.4c0.2-0.4,0.6-0.8,1-1
				c0.4-0.2,0.9-0.4,1.4-0.4c0.5,0,1,0.1,1.4,0.4c0.4,0.2,0.7,0.6,1,1c0.2,0.4,0.4,0.9,0.4,1.4c0,0.5-0.1,1-0.4,1.4
				c-0.2,0.4-0.6,0.8-1,1c-0.4,0.2-0.9,0.4-1.4,0.4C145.5,749,145,748.9,144.6,748.7z M147.1,748.3c0.3-0.2,0.6-0.5,0.8-0.8
				c0.2-0.4,0.3-0.8,0.3-1.2c0-0.4-0.1-0.8-0.3-1.2s-0.4-0.6-0.8-0.8c-0.3-0.2-0.7-0.3-1.1-0.3s-0.8,0.1-1.1,0.3
				c-0.3,0.2-0.6,0.5-0.8,0.8c-0.2,0.4-0.3,0.8-0.3,1.2c0,0.4,0.1,0.8,0.3,1.2s0.4,0.6,0.8,0.8c0.3,0.2,0.7,0.3,1.1,0.3
				S146.7,748.5,147.1,748.3z"/>
			<path class="st3" d="M154,744h-3.2v4.9h-0.5v-5.4h3.7V744z"/>
			<path class="st3" d="M155.7,748.7c-0.4-0.2-0.7-0.6-1-1c-0.2-0.4-0.4-0.9-0.4-1.4c0-0.5,0.1-1,0.4-1.4c0.2-0.4,0.6-0.8,1-1
				c0.4-0.2,0.9-0.4,1.4-0.4c0.5,0,1,0.1,1.4,0.4c0.4,0.2,0.7,0.6,1,1c0.2,0.4,0.4,0.9,0.4,1.4c0,0.5-0.1,1-0.4,1.4
				c-0.2,0.4-0.6,0.8-1,1c-0.4,0.2-0.9,0.4-1.4,0.4C156.6,749,156.1,748.9,155.7,748.7z M158.2,748.3c0.3-0.2,0.6-0.5,0.8-0.8
				c0.2-0.4,0.3-0.8,0.3-1.2c0-0.4-0.1-0.8-0.3-1.2c-0.2-0.4-0.4-0.6-0.8-0.8c-0.3-0.2-0.7-0.3-1.1-0.3c-0.4,0-0.8,0.1-1.1,0.3
				c-0.3,0.2-0.6,0.5-0.8,0.8c-0.2,0.4-0.3,0.8-0.3,1.2c0,0.4,0.1,0.8,0.3,1.2c0.2,0.4,0.4,0.6,0.8,0.8c0.3,0.2,0.7,0.3,1.1,0.3
				C157.5,748.5,157.9,748.5,158.2,748.3z"/>
			<path class="st3" d="M167,743.9c0.4,0.2,0.8,0.6,1,1c0.2,0.4,0.4,0.9,0.4,1.4c0,0.5-0.1,1-0.4,1.4c-0.2,0.4-0.6,0.8-1,1
				c-0.4,0.2-0.9,0.4-1.4,0.4c-0.4,0-0.8-0.1-1.2-0.2c-0.4-0.1-0.7-0.3-0.9-0.6l0.3-0.3c0.5,0.4,1.1,0.6,1.8,0.6
				c0.4,0,0.8-0.1,1.2-0.3c0.4-0.2,0.6-0.4,0.8-0.8s0.3-0.7,0.4-1.1h-3.1V746h3c0-0.4-0.2-0.8-0.4-1.1c-0.2-0.3-0.5-0.6-0.8-0.7
				c-0.4-0.2-0.7-0.3-1.1-0.3c-0.7,0-1.4,0.2-1.8,0.6l-0.3-0.3c0.2-0.2,0.6-0.4,0.9-0.6c0.4-0.1,0.8-0.2,1.2-0.2
				C166.1,743.5,166.5,743.6,167,743.9z"/>
			<path class="st3" d="M173.4,744h-2.1v4.9h-0.5V744h-2.1v-0.5h4.7L173.4,744L173.4,744z"/>
			<path class="st3" d="M177.9,744c0.4,0.4,0.6,0.8,0.6,1.5v3.4H178v-1c-0.2,0.3-0.4,0.6-0.8,0.8c-0.3,0.2-0.7,0.3-1.2,0.3
				c-0.6,0-1.1-0.2-1.4-0.4c-0.4-0.3-0.5-0.6-0.5-1.1c0-0.4,0.2-0.8,0.5-1.1c0.3-0.3,0.8-0.4,1.6-0.4h1.9v-0.4
				c0-0.5-0.1-0.9-0.4-1.2c-0.3-0.3-0.7-0.4-1.2-0.4c-0.4,0-0.7,0.1-1,0.2c-0.3,0.1-0.6,0.3-0.8,0.5l-0.2-0.4c0.3-0.2,0.6-0.4,1-0.6
				c0.4-0.1,0.8-0.2,1.2-0.2C177,743.5,177.5,743.7,177.9,744z M177.2,748.3c0.3-0.2,0.6-0.5,0.7-0.9v-1h-1.8
				c-0.5,0-0.9,0.1-1.2,0.3s-0.4,0.5-0.4,0.8c0,0.4,0.1,0.6,0.4,0.8c0.3,0.2,0.6,0.3,1.1,0.3C176.5,748.6,176.9,748.5,177.2,748.3z"
				/>
			<path class="st3" d="M185.3,743.6v5.4h-0.5V744H181v4.9h-0.5v-5.4H185.3z"/>
			<path class="st3" d="M190.9,744c0.4,0.4,0.6,0.8,0.6,1.5v3.4h-0.5v-1c-0.2,0.3-0.4,0.6-0.8,0.8c-0.3,0.2-0.7,0.3-1.2,0.3
				c-0.6,0-1.1-0.2-1.4-0.4c-0.4-0.3-0.5-0.6-0.5-1.1c0-0.4,0.2-0.8,0.5-1.1c0.3-0.3,0.8-0.4,1.6-0.4h1.9v-0.4
				c0-0.5-0.1-0.9-0.4-1.2c-0.3-0.3-0.7-0.4-1.2-0.4c-0.4,0-0.7,0.1-1,0.2s-0.6,0.3-0.8,0.5l-0.3-0.4c0.3-0.2,0.6-0.4,1-0.6
				c0.4-0.1,0.8-0.2,1.2-0.2C190,743.5,190.5,743.7,190.9,744z M190.1,748.3c0.3-0.2,0.6-0.5,0.7-0.9v-1H189c-0.5,0-0.9,0.1-1.2,0.3
				c-0.2,0.2-0.4,0.5-0.4,0.8c0,0.4,0.1,0.6,0.4,0.8c0.3,0.2,0.6,0.3,1.1,0.3C189.5,748.6,189.8,748.5,190.1,748.3z"/>
		</g>
		<g>
			<g>
				<path class="st3" d="M90.1,726.2v1.6h-7.6v-1.3l4.1-3.9c0.5-0.4,0.8-0.8,0.9-1.2c0.2-0.3,0.2-0.6,0.2-1c0-0.5-0.2-0.8-0.5-1.1
					c-0.3-0.2-0.8-0.4-1.4-0.4c-1,0-1.9,0.4-2.4,1.1l-1.4-1c0.4-0.6,1-1,1.6-1.3c0.7-0.3,1.4-0.4,2.3-0.4c1.1,0,2,0.3,2.7,0.8
					c0.7,0.5,1,1.2,1,2.2c0,0.6-0.1,1.1-0.4,1.6c-0.2,0.5-0.7,1-1.4,1.7l-2.8,2.6L90.1,726.2L90.1,726.2L90.1,726.2z"/>
				<path class="st3" d="M100.2,725.5h-1.8v2.4h-1.9v-2.4h-5.7v-1.3l5.1-6.7h2l-4.8,6.3h3.4v-2.1h1.8v2.1h1.8L100.2,725.5
					L100.2,725.5z"/>
				<path class="st3" d="M101.6,727.6c-0.2-0.2-0.4-0.5-0.4-0.9s0.1-0.7,0.4-0.9c0.2-0.2,0.5-0.4,0.9-0.4s0.6,0.1,0.9,0.4
					c0.2,0.2,0.4,0.5,0.4,0.9c0,0.4-0.1,0.6-0.4,0.9c-0.2,0.2-0.5,0.4-0.8,0.4C102.1,728,101.8,727.8,101.6,727.6z"/>
				<path class="st3" d="M106.8,727.4c-0.6-0.4-1.2-1-1.5-1.8c-0.4-0.8-0.6-1.8-0.6-2.9c0-1.1,0.2-2,0.6-2.9
					c0.4-0.8,0.9-1.4,1.5-1.8c0.6-0.4,1.4-0.6,2.2-0.6s1.6,0.2,2.2,0.6c0.6,0.4,1.2,1,1.6,1.8c0.4,0.8,0.6,1.8,0.6,2.9
					c0,1.1-0.2,2-0.6,2.9c-0.4,0.8-0.9,1.4-1.6,1.8c-0.6,0.4-1.4,0.6-2.2,0.6C108.2,728,107.4,727.8,106.8,727.4z M110.7,725.4
					c0.4-0.6,0.6-1.5,0.6-2.7s-0.2-2.1-0.6-2.7c-0.4-0.6-1-0.9-1.8-0.9c-0.7,0-1.3,0.3-1.7,0.9c-0.4,0.6-0.6,1.5-0.6,2.7
					s0.2,2.1,0.6,2.7c0.4,0.6,1,0.9,1.7,0.9C109.7,726.3,110.3,726,110.7,725.4z"/>
				<path class="st3" d="M121.4,718.7c0.8,0.9,1.2,2.2,1.2,3.8c0,1.2-0.2,2.2-0.6,3s-1,1.4-1.8,1.9c-0.8,0.4-1.6,0.6-2.6,0.6
					c-0.5,0-1,0-1.5-0.2c-0.5-0.1-0.9-0.3-1.2-0.5l0.7-1.4c0.5,0.3,1.2,0.5,2,0.5c1,0,1.8-0.3,2.3-0.9c0.6-0.6,0.8-1.5,0.8-2.6l0,0
					c-0.3,0.4-0.7,0.6-1.2,0.8c-0.5,0.2-1,0.3-1.6,0.3c-0.7,0-1.3-0.1-1.8-0.4c-0.6-0.3-1-0.6-1.3-1.1c-0.3-0.5-0.4-1-0.4-1.7
					c0-0.7,0.2-1.3,0.5-1.8c0.3-0.5,0.8-0.9,1.4-1.2c0.6-0.2,1.2-0.4,1.9-0.4C119.5,717.4,120.6,717.8,121.4,718.7z M119.7,721.9
					c0.4-0.3,0.6-0.8,0.6-1.3c0-0.5-0.2-0.9-0.6-1.2c-0.4-0.3-0.9-0.5-1.6-0.5c-0.6,0-1.1,0.2-1.5,0.5c-0.4,0.3-0.6,0.8-0.6,1.3
					c0,0.6,0.2,1,0.6,1.3c0.4,0.3,0.9,0.5,1.5,0.5C118.9,722.4,119.4,722.2,119.7,721.9z"/>
				<path class="st3" d="M124.1,723h4.1v1.5h-4.1V723z"/>
				<path class="st3" d="M136.9,726.2v1.6h-7.6v-1.3l4.1-3.9c0.5-0.4,0.8-0.8,0.9-1.2c0.2-0.3,0.2-0.6,0.2-1c0-0.5-0.2-0.8-0.5-1.1
					c-0.3-0.2-0.8-0.4-1.4-0.4c-1,0-1.9,0.4-2.4,1.1l-1.4-1c0.4-0.6,1-1,1.6-1.3c0.7-0.3,1.4-0.4,2.3-0.4c1.1,0,2,0.3,2.7,0.8
					c0.7,0.5,1,1.2,1,2.2c0,0.6-0.1,1.1-0.4,1.6c-0.2,0.5-0.7,1-1.4,1.7l-2.8,2.6L136.9,726.2L136.9,726.2L136.9,726.2z"/>
				<path class="st3" d="M144.5,722.4c0.7,0.6,1,1.3,1,2.3c0,0.6-0.2,1.2-0.4,1.7c-0.3,0.5-0.8,0.9-1.4,1.2
					c-0.6,0.3-1.4,0.4-2.3,0.4c-0.8,0-1.4-0.1-2.2-0.3c-0.7-0.2-1.3-0.5-1.8-0.9l0.8-1.5c0.4,0.3,0.8,0.6,1.4,0.8
					c0.5,0.2,1.1,0.3,1.7,0.3c0.7,0,1.2-0.2,1.6-0.4c0.4-0.3,0.6-0.7,0.6-1.2c0-0.5-0.2-0.9-0.6-1.2c-0.4-0.3-1.1-0.4-2.2-0.4h-2.5
					l0.5-5.6h6.1v1.6h-4.4l-0.2,2.4h1C142.7,721.5,143.8,721.8,144.5,722.4z"/>
				<path class="st3" d="M146.9,727.6c-0.2-0.2-0.4-0.5-0.4-0.9s0.1-0.7,0.4-0.9c0.2-0.2,0.5-0.4,0.9-0.4c0.4,0,0.6,0.1,0.9,0.4
					c0.2,0.2,0.4,0.5,0.4,0.9c0,0.4-0.1,0.6-0.4,0.9c-0.2,0.2-0.5,0.4-0.8,0.4C147.4,728,147.1,727.8,146.9,727.6z"/>
				<path class="st3" d="M152.1,727.4c-0.6-0.4-1.2-1-1.5-1.8c-0.4-0.8-0.6-1.8-0.6-2.9c0-1.1,0.2-2,0.6-2.9
					c0.4-0.8,0.9-1.4,1.5-1.8c0.6-0.4,1.4-0.6,2.2-0.6s1.6,0.2,2.2,0.6c0.6,0.4,1.2,1,1.6,1.8c0.4,0.8,0.6,1.8,0.6,2.9
					c0,1.1-0.2,2-0.6,2.9c-0.4,0.8-0.9,1.4-1.6,1.8c-0.6,0.4-1.4,0.6-2.2,0.6C153.5,728,152.8,727.8,152.1,727.4z M156.1,725.4
					c0.4-0.6,0.6-1.5,0.6-2.7s-0.2-2.1-0.6-2.7c-0.4-0.6-1-0.9-1.8-0.9c-0.7,0-1.3,0.3-1.7,0.9c-0.4,0.6-0.6,1.5-0.6,2.7
					s0.2,2.1,0.6,2.7c0.4,0.6,1,0.9,1.7,0.9C155.1,726.3,155.7,726,156.1,725.4z"/>
				<path class="st3" d="M166.8,718.7c0.8,0.9,1.2,2.2,1.2,3.8c0,1.2-0.2,2.2-0.6,3c-0.4,0.8-1,1.4-1.8,1.9
					c-0.8,0.4-1.6,0.6-2.6,0.6c-0.5,0-1,0-1.5-0.2c-0.5-0.1-0.9-0.3-1.2-0.5l0.7-1.4c0.5,0.3,1.2,0.5,2,0.5c1,0,1.8-0.3,2.3-0.9
					c0.6-0.6,0.8-1.5,0.8-2.6l0,0c-0.3,0.4-0.7,0.6-1.2,0.8c-0.5,0.2-1,0.3-1.6,0.3c-0.7,0-1.3-0.1-1.8-0.4c-0.6-0.3-1-0.6-1.3-1.1
					c-0.3-0.5-0.4-1-0.4-1.7c0-0.7,0.2-1.3,0.5-1.8c0.3-0.5,0.8-0.9,1.4-1.2c0.6-0.2,1.2-0.4,1.9-0.4
					C164.9,717.4,166,717.8,166.8,718.7z M165.1,721.9c0.4-0.3,0.6-0.8,0.6-1.3c0-0.5-0.2-0.9-0.6-1.2c-0.4-0.3-0.9-0.5-1.6-0.5
					c-0.6,0-1.1,0.2-1.5,0.5c-0.4,0.3-0.6,0.8-0.6,1.3c0,0.6,0.2,1,0.6,1.3c0.4,0.3,0.9,0.5,1.5,0.5
					C164.2,722.4,164.7,722.2,165.1,721.9z"/>
			</g>
			<g>
				<g>
					<path class="st3" d="M74.9,748.2v2.2h-0.5v-1.7h-6.7v1.7h-0.5v-2.2h0.4c0.5,0,0.8-0.4,1-1.2c0.2-0.8,0.3-1.9,0.4-3.2l0.1-2.4
						h4.8v6.9H74.9z M69.2,746.7c-0.2,0.8-0.4,1.3-0.7,1.5h4.8v-6.4h-3.8l-0.1,2C69.4,745,69.3,745.9,69.2,746.7z"/>
					<path class="st3" d="M80.9,746h-4.7c0,0.4,0.1,0.8,0.3,1.1c0.2,0.3,0.5,0.6,0.8,0.8c0.4,0.2,0.7,0.3,1.2,0.3
						c0.4,0,0.7-0.1,1-0.2c0.3-0.1,0.6-0.3,0.8-0.6l0.3,0.4c-0.2,0.3-0.5,0.5-0.9,0.6c-0.4,0.2-0.8,0.2-1.2,0.2
						c-0.6,0-1-0.1-1.5-0.4c-0.4-0.2-0.8-0.6-1-1s-0.4-0.9-0.4-1.5c0-0.5,0.1-1,0.3-1.4c0.2-0.4,0.5-0.8,0.9-1s0.8-0.4,1.3-0.4
						s0.9,0.1,1.3,0.4c0.4,0.2,0.7,0.6,0.9,1c0.2,0.4,0.3,0.9,0.3,1.4L80.9,746z M77.3,743.9c-0.3,0.2-0.6,0.4-0.7,0.7
						c-0.2,0.3-0.3,0.6-0.3,1h4.2c0-0.4-0.1-0.7-0.3-1c-0.2-0.3-0.4-0.6-0.7-0.7c-0.3-0.2-0.6-0.3-1-0.3
						C78,743.6,77.6,743.7,77.3,743.9z"/>
					<path class="st3" d="M87.7,748.2v1.8h-0.5v-1.4H82v1.4h-0.5v-1.8h0.3c0.4,0,0.6-0.3,0.8-0.8c0.1-0.6,0.2-1.3,0.3-2.3l0.1-1.8
						h3.8v5H87.7z M83.2,747.1c-0.1,0.6-0.3,0.9-0.6,1.1h3.7v-4.6h-2.9l-0.1,1.4C83.3,745.8,83.2,746.5,83.2,747.1z"/>
					<path class="st3" d="M93.5,743.2v5.5H93v-5h-2.9l-0.1,1.5c0,0.8-0.1,1.4-0.2,1.9c-0.1,0.5-0.2,0.9-0.4,1.3s-0.5,0.5-0.8,0.5
						c-0.1,0-0.2,0-0.4-0.1l0-0.4c0.1,0,0.2,0,0.2,0c0.3,0,0.5-0.2,0.7-0.4c0.2-0.3,0.2-0.6,0.3-1.1c0-0.4,0.1-1,0.1-1.7l0.1-1.9
						H93.5z"/>
					<path class="st3" d="M99.2,743.7c0.4,0.4,0.6,0.8,0.6,1.5v3.5h-0.5v-1c-0.2,0.3-0.4,0.6-0.8,0.8c-0.3,0.2-0.7,0.3-1.2,0.3
						c-0.6,0-1.1-0.2-1.5-0.4c-0.4-0.3-0.5-0.6-0.5-1.1c0-0.4,0.2-0.8,0.5-1.1c0.3-0.3,0.8-0.4,1.6-0.4h1.9v-0.4
						c0-0.5-0.1-0.9-0.4-1.2c-0.3-0.3-0.7-0.4-1.2-0.4c-0.4,0-0.7,0.1-1,0.2s-0.6,0.3-0.8,0.5l-0.2-0.4c0.3-0.2,0.6-0.4,1-0.6
						c0.4-0.1,0.8-0.2,1.2-0.2C98.3,743.1,98.8,743.3,99.2,743.7z M98.4,747.9c0.3-0.2,0.6-0.5,0.7-0.9v-1h-1.9
						c-0.5,0-0.9,0.1-1.2,0.3c-0.2,0.2-0.4,0.5-0.4,0.8c0,0.4,0.1,0.6,0.4,0.8c0.3,0.2,0.6,0.3,1.1,0.3
						C97.8,748.3,98.1,748.1,98.4,747.9z"/>
					<path class="st3" d="M101.8,743.2h0.5v4.7l3.9-4.7h0.4v5.5h-0.5V744l-3.9,4.7h-0.4V743.2z M103.2,742c-0.3-0.2-0.4-0.5-0.4-1
						h0.4c0,0.3,0.1,0.5,0.3,0.7c0.2,0.2,0.5,0.2,0.8,0.2c0.3,0,0.6-0.1,0.8-0.2c0.2-0.2,0.3-0.4,0.3-0.7h0.4c0,0.4-0.2,0.7-0.4,1
						c-0.3,0.2-0.6,0.3-1.1,0.3S103.4,742.2,103.2,742z"/>
					<path class="st3" d="M109,743.2h0.5v2.5h3.7v-2.5h0.5v5.5h-0.5v-2.5h-3.7v2.5H109V743.2z"/>
					<path class="st3" d="M69.4,760.8v1.8h-0.5v-1.4h-5.2v1.4h-0.5v-1.8h0.3c0.4,0,0.6-0.3,0.8-0.8c0.1-0.6,0.2-1.3,0.3-2.3l0.1-1.8
						h3.8v5H69.4z M64.9,759.7c-0.1,0.6-0.3,0.9-0.6,1.1H68v-4.6h-2.9l-0.1,1.4C65.1,758.4,65,759.1,64.9,759.7z"/>
					<path class="st3" d="M75.3,755.8v5.5h-0.5v-5h-2.9l-0.1,1.5c0,0.8-0.1,1.4-0.2,1.9c-0.1,0.5-0.2,0.9-0.4,1.3
						c-0.2,0.3-0.5,0.5-0.8,0.5c-0.1,0-0.2,0-0.4-0.1l0-0.4c0.1,0,0.2,0,0.2,0c0.3,0,0.5-0.2,0.7-0.4c0.2-0.3,0.2-0.6,0.3-1.1
						c0-0.4,0.1-1,0.1-1.7l0.1-1.9H75.3z"/>
					<path class="st3" d="M81.5,755.8v5.5h-0.5v-1.9h-1.8c-0.1,0-0.2,0-0.3,0l-1.4,1.9H77l1.4-2c-0.4-0.1-0.8-0.3-1-0.6
						c-0.2-0.3-0.4-0.6-0.4-1.1c0-0.6,0.2-1,0.6-1.4s1-0.4,1.7-0.4L81.5,755.8L81.5,755.8z M79.3,759h1.8v-2.7h-1.7
						c-1.2,0-1.8,0.4-1.8,1.4C77.6,758.5,78.2,759,79.3,759z"/>
					<path class="st3" d="M87.3,760.9c-0.4-0.2-0.7-0.6-1-1c-0.2-0.4-0.4-0.9-0.4-1.4c0-0.5,0.1-1,0.4-1.4c0.2-0.4,0.6-0.8,1-1
						s0.9-0.4,1.4-0.4c0.5,0,1,0.1,1.4,0.4c0.4,0.2,0.7,0.6,1,1c0.2,0.4,0.4,0.9,0.4,1.4c0,0.5-0.1,1-0.4,1.4c-0.2,0.4-0.6,0.8-1,1
						s-0.9,0.4-1.4,0.4C88.2,761.3,87.7,761.2,87.3,760.9z M89.8,760.5c0.3-0.2,0.6-0.5,0.8-0.8c0.2-0.4,0.3-0.8,0.3-1.2
						s-0.1-0.8-0.3-1.2c-0.2-0.4-0.4-0.6-0.8-0.8c-0.3-0.2-0.7-0.3-1.1-0.3c-0.4,0-0.8,0.1-1.1,0.3c-0.3,0.2-0.6,0.5-0.8,0.8
						c-0.2,0.4-0.3,0.8-0.3,1.2s0.1,0.8,0.3,1.2s0.4,0.6,0.8,0.8c0.3,0.2,0.7,0.3,1.1,0.3C89.1,760.8,89.5,760.7,89.8,760.5z"/>
					<path class="st3" d="M96.6,756.2h-2.1v5h-0.5v-5h-2.1v-0.5h4.8L96.6,756.2L96.6,756.2z"/>
					<path class="st3" d="M102.5,755.8v5.5H102v-5h-3.8v5h-0.5v-5.5H102.5z"/>
					<path class="st3" d="M108.9,756.1c0.4,0.2,0.7,0.6,1,1c0.2,0.4,0.4,0.9,0.4,1.5c0,0.5-0.1,1-0.4,1.5c-0.2,0.4-0.6,0.8-1,1
						c-0.4,0.2-0.9,0.4-1.4,0.4c-0.5,0-0.9-0.1-1.3-0.3c-0.4-0.2-0.7-0.5-0.9-1v3.3h-0.5v-7.5h0.5v1.3c0.2-0.4,0.5-0.7,0.9-1
						c0.4-0.2,0.8-0.4,1.3-0.4C108,755.7,108.5,755.8,108.9,756.1z M108.6,760.5c0.3-0.2,0.6-0.5,0.8-0.8c0.2-0.4,0.3-0.8,0.3-1.2
						s-0.1-0.8-0.3-1.2c-0.2-0.4-0.4-0.6-0.8-0.8c-0.4-0.2-0.7-0.3-1.1-0.3c-0.4,0-0.8,0.1-1.1,0.3c-0.3,0.2-0.6,0.5-0.8,0.8
						c-0.2,0.4-0.3,0.8-0.3,1.2s0.1,0.8,0.3,1.2s0.4,0.6,0.8,0.8c0.3,0.2,0.7,0.3,1.1,0.3C107.9,760.8,108.3,760.7,108.6,760.5z"/>
					<path class="st3" d="M115.3,756.2c0.4,0.4,0.6,0.8,0.6,1.5v3.5h-0.5v-1c-0.2,0.3-0.4,0.6-0.8,0.8c-0.3,0.2-0.7,0.3-1.2,0.3
						c-0.6,0-1.1-0.2-1.5-0.4c-0.4-0.3-0.5-0.6-0.5-1.1c0-0.4,0.2-0.8,0.5-1.1c0.3-0.3,0.8-0.4,1.6-0.4h1.9v-0.4
						c0-0.5-0.1-0.9-0.4-1.2c-0.3-0.3-0.7-0.4-1.2-0.4c-0.4,0-0.7,0.1-1,0.2c-0.3,0.1-0.6,0.3-0.8,0.5l-0.2-0.4
						c0.3-0.2,0.6-0.4,1-0.6c0.4-0.1,0.8-0.2,1.2-0.2C114.4,755.7,114.9,755.9,115.3,756.2z M114.6,760.5c0.3-0.2,0.6-0.5,0.7-0.9
						v-1h-1.9c-0.5,0-0.9,0.1-1.2,0.3s-0.4,0.5-0.4,0.8c0,0.4,0.1,0.6,0.4,0.8c0.3,0.2,0.6,0.3,1.1,0.3
						C113.9,760.8,114.3,760.7,114.6,760.5z"/>
					<path class="st3" d="M122.4,759.8c0,0.5-0.2,0.8-0.5,1.1c-0.4,0.2-0.8,0.4-1.6,0.4h-2.4v-5.5h2.3c0.6,0,1.1,0.1,1.4,0.4
						s0.5,0.6,0.5,1c0,0.3-0.1,0.6-0.3,0.8c-0.2,0.2-0.4,0.4-0.8,0.4C122,758.5,122.4,759,122.4,759.8z M118.5,758.3h1.8
						c0.5,0,0.8-0.1,1.1-0.3c0.2-0.2,0.4-0.4,0.4-0.8s-0.1-0.6-0.4-0.8c-0.2-0.2-0.6-0.2-1.1-0.2h-1.8V758.3z M121.9,759.8
						c0-0.4-0.1-0.6-0.4-0.8c-0.2-0.2-0.6-0.3-1.1-0.3h-1.9v2.1h1.9C121.4,760.8,121.9,760.4,121.9,759.8z"/>
					<path class="st3" d="M126.2,758.7h-1.3v2.5h-0.5v-5.5h0.5v2.5h1.3l2.1-2.5h0.6l-2.2,2.7l2.4,2.8h-0.6L126.2,758.7z"/>
					<path class="st3" d="M130.2,755.8h0.5v4.7l3.9-4.7h0.4v5.5h-0.5v-4.7l-3.9,4.7h-0.4V755.8z"/>
					<path class="st3" d="M144.2,756.1c0.4,0.2,0.7,0.6,1,1c0.2,0.4,0.4,0.9,0.4,1.5c0,0.5-0.1,1-0.4,1.5c-0.2,0.4-0.6,0.8-1,1
						c-0.4,0.2-0.9,0.4-1.4,0.4c-0.5,0-0.9-0.1-1.3-0.3c-0.4-0.2-0.7-0.5-0.9-1v3.3h-0.5v-7.5h0.5v1.3c0.2-0.4,0.5-0.7,0.9-1
						s0.8-0.4,1.3-0.4C143.3,755.7,143.8,755.8,144.2,756.1z M143.9,760.5c0.3-0.2,0.6-0.5,0.8-0.8c0.2-0.4,0.3-0.8,0.3-1.2
						s-0.1-0.8-0.3-1.2c-0.2-0.4-0.4-0.6-0.8-0.8c-0.4-0.2-0.7-0.3-1.1-0.3c-0.4,0-0.8,0.1-1.1,0.3c-0.3,0.2-0.6,0.5-0.8,0.8
						c-0.2,0.4-0.3,0.8-0.3,1.2s0.1,0.8,0.3,1.2s0.4,0.6,0.8,0.8s0.7,0.3,1.1,0.3C143.2,760.8,143.6,760.7,143.9,760.5z"/>
					<path class="st3" d="M151.9,758.6h-4.7c0,0.4,0.1,0.8,0.3,1.1s0.5,0.6,0.8,0.8c0.4,0.2,0.7,0.3,1.2,0.3c0.4,0,0.7-0.1,1-0.2
						c0.3-0.1,0.6-0.3,0.8-0.6l0.3,0.4c-0.2,0.3-0.5,0.5-0.9,0.6c-0.4,0.2-0.8,0.2-1.2,0.2c-0.6,0-1-0.1-1.5-0.4
						c-0.4-0.2-0.8-0.6-1-1c-0.2-0.4-0.4-0.9-0.4-1.5c0-0.5,0.1-1,0.3-1.4c0.2-0.4,0.5-0.8,0.9-1s0.8-0.4,1.3-0.4
						c0.5,0,0.9,0.1,1.3,0.4s0.7,0.6,0.9,1c0.2,0.4,0.3,0.9,0.3,1.4L151.9,758.6z M148.3,756.5c-0.3,0.2-0.6,0.4-0.7,0.7
						c-0.2,0.3-0.3,0.6-0.3,1h4.2c0-0.4-0.1-0.7-0.3-1s-0.4-0.6-0.7-0.7c-0.3-0.2-0.6-0.3-1-0.3
						C148.9,756.2,148.6,756.2,148.3,756.5z"/>
					<path class="st3" d="M161,755.8v5.5h-7.4v-5.5h0.5v5h2.9v-5h0.5v5h2.9v-5H161z"/>
					<path class="st3" d="M167.9,758.6h-4.7c0,0.4,0.1,0.8,0.3,1.1s0.5,0.6,0.8,0.8c0.4,0.2,0.7,0.3,1.2,0.3c0.4,0,0.7-0.1,1-0.2
						s0.6-0.3,0.8-0.6l0.3,0.4c-0.2,0.3-0.5,0.5-0.9,0.6c-0.4,0.2-0.8,0.2-1.2,0.2c-0.6,0-1-0.1-1.5-0.4c-0.4-0.2-0.8-0.6-1-1
						c-0.2-0.4-0.4-0.9-0.4-1.5c0-0.5,0.1-1,0.3-1.4c0.2-0.4,0.5-0.8,0.9-1s0.8-0.4,1.3-0.4c0.5,0,0.9,0.1,1.3,0.4s0.7,0.6,0.9,1
						c0.2,0.4,0.3,0.9,0.3,1.4L167.9,758.6z M164.3,756.5c-0.3,0.2-0.6,0.4-0.7,0.7c-0.2,0.3-0.3,0.6-0.3,1h4.2c0-0.4-0.1-0.7-0.3-1
						s-0.4-0.6-0.7-0.7c-0.3-0.2-0.6-0.3-1-0.3S164.6,756.2,164.3,756.5z"/>
					<path class="st3" d="M169.7,755.8h0.5v2.5h3.7v-2.5h0.5v5.5h-0.5v-2.5h-3.7v2.5h-0.5V755.8z"/>
					<path class="st3" d="M176.7,755.8h0.5v4.7l3.9-4.7h0.4v5.5h-0.5v-4.7l-3.9,4.7h-0.4L176.7,755.8L176.7,755.8z"/>
					<path class="st3" d="M183.8,755.8h0.5v4.7l3.9-4.7h0.4v5.5h-0.5v-4.7l-3.9,4.7h-0.4V755.8z M185.2,754.6
						c-0.3-0.2-0.4-0.5-0.4-1h0.4c0,0.3,0.1,0.5,0.3,0.7c0.2,0.2,0.5,0.2,0.8,0.2c0.3,0,0.6-0.1,0.8-0.2c0.2-0.2,0.3-0.4,0.3-0.7
						h0.4c0,0.4-0.2,0.7-0.4,1c-0.3,0.2-0.6,0.3-1.1,0.3C185.9,754.9,185.4,754.8,185.2,754.6z"/>
					<path class="st6" d="M198,760.8v0.5h-5v-0.4l3.1-3.1c0.4-0.4,0.7-0.8,0.8-1c0.2-0.3,0.2-0.6,0.2-0.9c0-0.5-0.2-0.8-0.5-1.1
						c-0.3-0.3-0.8-0.4-1.4-0.4c-0.4,0-0.8,0.1-1.2,0.2s-0.6,0.4-0.9,0.6l-0.4-0.3c0.3-0.3,0.6-0.6,1-0.7c0.4-0.2,0.9-0.3,1.5-0.3
						c0.7,0,1.3,0.2,1.7,0.5s0.6,0.8,0.6,1.4c0,0.4-0.1,0.7-0.2,1.1c-0.2,0.3-0.5,0.7-0.9,1.2l-2.7,2.7L198,760.8L198,760.8z"/>
					<path class="st6" d="M204.9,759.2h-1.5v2h-0.5v-2h-4.2v-0.4l4-4.9h0.6l-3.9,4.8h3.5v-1.8h0.5v1.8h1.5L204.9,759.2L204.9,759.2z
						"/>
					<path class="st6" d="M206,761.1c-0.1-0.1-0.1-0.2-0.1-0.3s0-0.2,0.1-0.3c0.1-0.1,0.2-0.1,0.3-0.1c0.1,0,0.2,0,0.3,0.1
						c0.1,0.1,0.1,0.2,0.1,0.3s0,0.2-0.1,0.3c-0.1,0.1-0.2,0.1-0.3,0.1C206.2,761.3,206.1,761.2,206,761.1z"/>
					<path class="st6" d="M209.2,760.8c-0.4-0.3-0.8-0.7-1-1.3c-0.2-0.6-0.4-1.2-0.4-2c0-0.8,0.1-1.4,0.4-2c0.2-0.6,0.6-1,1-1.3
						c0.4-0.3,0.9-0.4,1.5-0.4c0.6,0,1,0.2,1.5,0.4c0.4,0.3,0.8,0.7,1,1.3c0.2,0.6,0.4,1.2,0.4,2c0,0.8-0.1,1.4-0.4,2
						c-0.2,0.6-0.6,1-1,1.3c-0.4,0.3-0.9,0.4-1.5,0.4C210.1,761.3,209.6,761.1,209.2,760.8z M211.9,760.4c0.4-0.2,0.6-0.6,0.8-1.1
						c0.2-0.5,0.3-1,0.3-1.7s-0.1-1.3-0.3-1.7s-0.5-0.8-0.8-1.1c-0.4-0.2-0.8-0.4-1.2-0.4c-0.4,0-0.9,0.1-1.2,0.4
						c-0.4,0.2-0.6,0.6-0.8,1.1c-0.2,0.5-0.3,1-0.3,1.7s0.1,1.3,0.3,1.7c0.2,0.5,0.5,0.8,0.8,1.1c0.4,0.2,0.8,0.4,1.2,0.4
						C211.1,760.8,211.5,760.6,211.9,760.4z"/>
					<path class="st6" d="M219.1,754.8c0.5,0.6,0.8,1.5,0.8,2.7c0,0.8-0.1,1.5-0.4,2.1s-0.6,1-1.1,1.3c-0.5,0.3-1,0.4-1.7,0.4
						s-1.3-0.1-1.7-0.4l0.2-0.4c0.4,0.2,0.8,0.3,1.5,0.3c0.8,0,1.5-0.3,2-0.8c0.5-0.6,0.7-1.3,0.7-2.4c0-0.3,0-0.6-0.1-0.9
						c-0.2,0.5-0.4,0.8-0.8,1.1s-0.9,0.4-1.5,0.4c-0.5,0-0.9-0.1-1.3-0.3c-0.4-0.2-0.6-0.4-0.8-0.8c-0.2-0.3-0.3-0.7-0.3-1.1
						c0-0.4,0.1-0.8,0.3-1.2c0.2-0.3,0.5-0.6,0.9-0.8c0.4-0.2,0.8-0.3,1.3-0.3C217.9,753.8,218.6,754.2,219.1,754.8z M218.1,757.5
						c0.3-0.2,0.6-0.4,0.7-0.6c0.2-0.3,0.2-0.6,0.2-0.9c0-0.3-0.1-0.6-0.2-0.8c-0.2-0.3-0.4-0.5-0.7-0.6c-0.3-0.2-0.7-0.2-1.1-0.2
						c-0.6,0-1,0.2-1.4,0.5c-0.4,0.3-0.5,0.7-0.5,1.3c0,0.5,0.2,0.9,0.5,1.3c0.4,0.3,0.8,0.5,1.5,0.5
						C217.4,757.8,217.8,757.7,218.1,757.5z"/>
				</g>
				<g>
					<path class="st6" d="M72.5,778v0.5h-5v-0.4l3.1-3.1c0.4-0.4,0.7-0.8,0.8-1c0.2-0.3,0.2-0.6,0.2-0.9c0-0.5-0.2-0.8-0.5-1.1
						c-0.3-0.3-0.8-0.4-1.4-0.4c-0.4,0-0.8,0.1-1.2,0.2s-0.6,0.4-0.9,0.6l-0.4-0.3c0.3-0.3,0.6-0.6,1-0.7c0.4-0.2,0.9-0.2,1.5-0.2
						c0.7,0,1.3,0.2,1.7,0.5s0.6,0.8,0.6,1.4c0,0.4-0.1,0.7-0.2,1.1c-0.2,0.3-0.5,0.7-0.9,1.2l-2.7,2.7h4.2L72.5,778L72.5,778z"/>
					<path class="st6" d="M77.6,774.8c0.5,0.4,0.7,0.9,0.7,1.6c0,0.4-0.1,0.8-0.3,1.1s-0.5,0.6-0.8,0.8c-0.4,0.2-0.8,0.3-1.4,0.3
						c-0.5,0-1-0.1-1.5-0.3c-0.5-0.2-0.8-0.4-1.1-0.7l0.3-0.4c0.2,0.3,0.6,0.5,1,0.6c0.4,0.2,0.8,0.2,1.3,0.2c0.6,0,1.2-0.2,1.5-0.4
						c0.4-0.3,0.5-0.7,0.5-1.2c0-0.6-0.2-1-0.6-1.3c-0.4-0.3-1.1-0.4-2-0.4h-1.5l0.4-3.5H78v0.5h-3.4l-0.3,2.6h1
						C76.4,774.2,77.1,774.4,77.6,774.8z"/>
					<path class="st6" d="M79.5,778.4c-0.1-0.1-0.1-0.2-0.1-0.3c0-0.1,0-0.2,0.1-0.3c0.1-0.1,0.2-0.1,0.3-0.1c0.1,0,0.2,0,0.3,0.1
						c0.1,0.1,0.1,0.2,0.1,0.3c0,0.1,0,0.2-0.1,0.3c-0.1,0.1-0.2,0.1-0.3,0.1C79.7,778.6,79.6,778.5,79.5,778.4z"/>
					<path class="st6" d="M82.7,778.1c-0.4-0.3-0.8-0.7-1-1.3c-0.2-0.6-0.4-1.2-0.4-2s0.1-1.4,0.4-2c0.2-0.6,0.6-1,1-1.3
						c0.4-0.3,0.9-0.4,1.5-0.4c0.6,0,1,0.2,1.5,0.4c0.4,0.3,0.8,0.7,1,1.3c0.2,0.6,0.4,1.2,0.4,2s-0.1,1.4-0.4,2
						c-0.2,0.6-0.6,1-1,1.3c-0.4,0.3-0.9,0.4-1.5,0.4C83.6,778.6,83.2,778.4,82.7,778.1z M85.4,777.7c0.4-0.2,0.6-0.6,0.8-1.1
						c0.2-0.5,0.3-1,0.3-1.7c0-0.7-0.1-1.3-0.3-1.7s-0.5-0.8-0.8-1.1c-0.4-0.2-0.8-0.4-1.2-0.4s-0.9,0.1-1.2,0.4
						c-0.4,0.2-0.6,0.6-0.8,1.1c-0.2,0.5-0.3,1-0.3,1.7c0,0.7,0.1,1.3,0.3,1.7s0.5,0.8,0.8,1.1c0.4,0.2,0.8,0.4,1.2,0.4
						S85.1,778,85.4,777.7z"/>
					<path class="st6" d="M92.6,772.1c0.5,0.6,0.8,1.5,0.8,2.7c0,0.8-0.1,1.5-0.4,2.1c-0.3,0.6-0.6,1-1.1,1.3
						c-0.5,0.3-1,0.4-1.7,0.4s-1.3-0.1-1.7-0.4l0.2-0.4c0.4,0.2,0.8,0.3,1.5,0.3c0.8,0,1.5-0.3,2-0.8c0.5-0.5,0.7-1.3,0.7-2.4
						c0-0.3,0-0.6-0.1-0.9c-0.2,0.5-0.4,0.8-0.8,1.1s-0.9,0.4-1.5,0.4c-0.5,0-0.9-0.1-1.3-0.3c-0.4-0.2-0.6-0.4-0.8-0.8
						s-0.3-0.7-0.3-1.1c0-0.4,0.1-0.8,0.3-1.2s0.5-0.6,0.9-0.8c0.4-0.2,0.8-0.3,1.3-0.3C91.4,771.1,92.1,771.4,92.6,772.1z
						 M91.6,774.8c0.3-0.2,0.6-0.4,0.7-0.6c0.2-0.3,0.2-0.6,0.2-0.9c0-0.3-0.1-0.6-0.2-0.8s-0.4-0.5-0.7-0.6
						c-0.3-0.2-0.7-0.2-1.1-0.2c-0.6,0-1,0.2-1.4,0.5s-0.5,0.7-0.5,1.3c0,0.5,0.2,0.9,0.5,1.3s0.8,0.5,1.5,0.5
						C90.9,775,91.3,775,91.6,774.8z"/>
					<path class="st3" d="M98.6,778.2c-0.4-0.2-0.7-0.6-1-1c-0.2-0.4-0.4-0.9-0.4-1.4c0-0.5,0.1-1,0.4-1.4c0.2-0.4,0.6-0.8,1-1
						c0.4-0.2,0.9-0.4,1.4-0.4c0.5,0,1,0.1,1.4,0.4s0.7,0.6,1,1c0.2,0.4,0.4,0.9,0.4,1.4c0,0.5-0.1,1-0.4,1.4c-0.2,0.4-0.6,0.8-1,1
						s-0.9,0.4-1.4,0.4C99.5,778.6,99,778.4,98.6,778.2z M101.1,777.8c0.3-0.2,0.6-0.5,0.8-0.8c0.2-0.4,0.3-0.8,0.3-1.2
						s-0.1-0.8-0.3-1.2c-0.2-0.4-0.4-0.6-0.8-0.8c-0.3-0.2-0.7-0.3-1.1-0.3s-0.8,0.1-1.1,0.3c-0.3,0.2-0.6,0.5-0.8,0.8
						c-0.2,0.4-0.3,0.8-0.3,1.2s0.1,0.8,0.3,1.2s0.4,0.6,0.8,0.8c0.3,0.2,0.7,0.3,1.1,0.3S100.8,778,101.1,777.8z"/>
					<path class="st3" d="M109.9,777.8c-0.6,0.5-1.3,0.8-2.4,0.8v2H107v-2c-1,0-1.8-0.3-2.4-0.8c-0.6-0.5-0.8-1.2-0.8-2
						c0-0.8,0.3-1.5,0.8-2c0.6-0.5,1.3-0.7,2.4-0.8v-2.3h0.5v2.3c1,0,1.8,0.3,2.4,0.8c0.6,0.5,0.8,1.1,0.8,2
						C110.8,776.6,110.5,777.3,109.9,777.8z M105.1,777.4c0.4,0.4,1.1,0.6,2,0.6v-4.6c-0.8,0-1.5,0.2-2,0.6
						c-0.4,0.4-0.7,0.9-0.7,1.7C104.4,776.5,104.6,777,105.1,777.4z M109.6,777.4c0.5-0.4,0.7-1,0.7-1.7s-0.2-1.3-0.7-1.7
						c-0.5-0.4-1.1-0.6-2-0.6v4.6C108.4,778.1,109.1,777.8,109.6,777.4z"/>
					<path class="st3" d="M118,777.8c-0.6,0.5-1.3,0.8-2.4,0.8v2h-0.5v-2c-1,0-1.8-0.3-2.4-0.8c-0.6-0.5-0.8-1.2-0.8-2
						c0-0.8,0.3-1.5,0.8-2c0.6-0.5,1.3-0.7,2.4-0.8v-2.3h0.5v2.3c1,0,1.8,0.3,2.4,0.8c0.6,0.5,0.8,1.1,0.8,2
						C118.9,776.6,118.6,777.3,118,777.8z M113.1,777.4c0.4,0.4,1.1,0.6,2,0.6v-4.6c-0.8,0-1.5,0.2-2,0.6c-0.4,0.4-0.7,0.9-0.7,1.7
						C112.4,776.5,112.6,777,113.1,777.4z M117.6,777.4c0.5-0.4,0.7-1,0.7-1.7s-0.2-1.3-0.7-1.7c-0.5-0.4-1.1-0.6-2-0.6v4.6
						C116.5,778.1,117.2,777.8,117.6,777.4z"/>
					<path class="st3" d="M124.8,773v5.5h-0.5v-5h-2.9l-0.1,1.5c0,0.8-0.1,1.4-0.2,1.9c-0.1,0.5-0.2,0.9-0.4,1.3
						c-0.2,0.3-0.5,0.5-0.8,0.5c-0.1,0-0.2,0-0.4-0.1l0-0.4c0.1,0,0.2,0,0.2,0c0.3,0,0.5-0.2,0.7-0.4c0.2-0.3,0.2-0.6,0.3-1.1
						c0-0.4,0.1-1,0.1-1.7l0.1-1.9H124.8z"/>
					<path class="st3" d="M130.4,773.5c0.4,0.4,0.6,0.8,0.6,1.5v3.5h-0.5v-1c-0.2,0.3-0.4,0.6-0.8,0.8c-0.3,0.2-0.7,0.3-1.2,0.3
						c-0.6,0-1.1-0.2-1.5-0.4s-0.5-0.6-0.5-1.1c0-0.4,0.2-0.8,0.5-1.1c0.3-0.3,0.8-0.4,1.6-0.4h1.9V775c0-0.5-0.1-0.9-0.4-1.2
						c-0.3-0.3-0.7-0.4-1.2-0.4c-0.4,0-0.7,0.1-1,0.2c-0.3,0.1-0.6,0.3-0.8,0.5l-0.2-0.4c0.3-0.2,0.6-0.4,1-0.6
						c0.4-0.1,0.8-0.2,1.2-0.2C129.5,773,130.1,773.2,130.4,773.5z M129.7,777.8c0.3-0.2,0.6-0.5,0.7-0.9v-1h-1.9
						c-0.5,0-0.9,0.1-1.2,0.3s-0.4,0.5-0.4,0.8c0,0.4,0.1,0.6,0.4,0.8c0.3,0.2,0.6,0.3,1.1,0.3C129,778.1,129.4,778,129.7,777.8z"/>
					<path class="st3" d="M133.1,773h0.5v4.7l3.9-4.7h0.4v5.5h-0.5v-4.7l-3.9,4.7h-0.4L133.1,773L133.1,773z M134.5,771.9
						c-0.3-0.2-0.4-0.5-0.4-1h0.4c0,0.3,0.1,0.5,0.3,0.7c0.2,0.2,0.5,0.2,0.8,0.2c0.3,0,0.6-0.1,0.8-0.2c0.2-0.2,0.3-0.4,0.3-0.7
						h0.4c0,0.4-0.2,0.7-0.4,1c-0.3,0.2-0.6,0.3-1.1,0.3C135.1,772.2,134.7,772.1,134.5,771.9z"/>
					<path class="st3" d="M140.3,773h0.5v2.5h3.7V773h0.5v5.5h-0.5V776h-3.7v2.5h-0.5V773z"/>
					<path class="st3" d="M150.4,778.3c-0.2-0.8-0.3-1.7-0.3-2.7s0.1-1.9,0.3-2.7c0.2-0.8,0.5-1.6,0.9-2.2h0.5
						c-0.8,1.3-1.2,3-1.2,4.9s0.4,3.5,1.2,4.9h-0.5C150.8,779.9,150.6,779.2,150.4,778.3z"/>
					<path class="st3" d="M154.1,778.2c-0.4-0.2-0.7-0.6-1-1c-0.2-0.4-0.4-0.9-0.4-1.4c0-0.5,0.1-1,0.4-1.4c0.2-0.4,0.6-0.8,1-1
						s0.9-0.4,1.4-0.4c0.5,0,1,0.1,1.4,0.4c0.4,0.2,0.7,0.6,1,1c0.2,0.4,0.4,0.9,0.4,1.4c0,0.5-0.1,1-0.4,1.4c-0.2,0.4-0.6,0.8-1,1
						s-0.9,0.4-1.4,0.4C155,778.6,154.6,778.4,154.1,778.2z M156.6,777.8c0.3-0.2,0.6-0.5,0.8-0.8c0.2-0.4,0.3-0.8,0.3-1.2
						s-0.1-0.8-0.3-1.2c-0.2-0.4-0.4-0.6-0.8-0.8c-0.3-0.2-0.7-0.3-1.1-0.3c-0.4,0-0.8,0.1-1.1,0.3c-0.3,0.2-0.6,0.5-0.8,0.8
						c-0.2,0.4-0.3,0.8-0.3,1.2s0.1,0.8,0.3,1.2s0.4,0.6,0.8,0.8s0.7,0.3,1.1,0.3C155.9,778.1,156.3,778,156.6,777.8z"/>
					<path class="st3" d="M160,773h0.5v2.5h3.7V773h0.5v5.5h-0.5V776h-3.7v2.5H160V773z"/>
					<path class="st3" d="M171.3,773v5.5h-0.5v-5h-2.9l-0.1,1.5c0,0.8-0.1,1.4-0.2,1.9c-0.1,0.5-0.2,0.9-0.4,1.3s-0.5,0.5-0.8,0.5
						c-0.1,0-0.2,0-0.4-0.1l0-0.4c0.1,0,0.2,0,0.2,0c0.3,0,0.5-0.2,0.7-0.4c0.2-0.3,0.2-0.6,0.3-1.1c0-0.4,0.1-1,0.1-1.7l0.1-1.9
						H171.3z"/>
					<path class="st3" d="M176.9,773.5c0.4,0.4,0.6,0.8,0.6,1.5v3.5H177v-1c-0.2,0.3-0.4,0.6-0.8,0.8c-0.3,0.2-0.7,0.3-1.2,0.3
						c-0.6,0-1.1-0.2-1.5-0.4c-0.4-0.3-0.5-0.6-0.5-1.1c0-0.4,0.2-0.8,0.5-1.1c0.3-0.3,0.8-0.4,1.6-0.4h1.9V775
						c0-0.5-0.1-0.9-0.4-1.2c-0.3-0.3-0.7-0.4-1.2-0.4c-0.4,0-0.7,0.1-1,0.2c-0.3,0.1-0.6,0.3-0.8,0.5l-0.2-0.4
						c0.3-0.2,0.6-0.4,1-0.6c0.4-0.1,0.8-0.2,1.2-0.2C176.1,773,176.5,773.2,176.9,773.5z M176.2,777.8c0.3-0.2,0.6-0.5,0.7-0.9v-1
						h-1.9c-0.5,0-0.9,0.1-1.2,0.3c-0.2,0.2-0.4,0.5-0.4,0.8c0,0.4,0.1,0.6,0.4,0.8c0.3,0.2,0.6,0.3,1.1,0.3
						C175.5,778.1,175.9,778,176.2,777.8z"/>
					<path class="st3" d="M179.6,773h0.5v4.7l3.9-4.7h0.4v5.5H184v-4.7l-3.9,4.7h-0.4V773z M180.9,771.9c-0.3-0.2-0.4-0.5-0.4-1h0.4
						c0,0.3,0.1,0.5,0.3,0.7c0.2,0.2,0.5,0.2,0.8,0.2c0.3,0,0.6-0.1,0.8-0.2c0.2-0.2,0.3-0.4,0.3-0.7h0.4c0,0.4-0.2,0.7-0.4,1
						c-0.3,0.2-0.6,0.3-1.1,0.3C181.6,772.2,181.2,772.1,180.9,771.9z"/>
					<path class="st3" d="M186.7,773h0.5v2.5h3.7V773h0.5v5.5H191V776h-3.7v2.5h-0.5V773z"/>
					<path class="st3" d="M193.2,780.5c0.4-0.7,0.7-1.5,0.9-2.3s0.3-1.7,0.3-2.7c0-1-0.1-1.9-0.3-2.7s-0.5-1.6-0.9-2.3h0.5
						c0.4,0.6,0.7,1.4,0.9,2.2c0.2,0.8,0.3,1.7,0.3,2.7c0,1-0.1,1.9-0.3,2.7s-0.5,1.6-0.9,2.2L193.2,780.5L193.2,780.5z"/>
					<path class="st3" d="M67.6,788.7c0.2,0.2,0.3,0.5,0.3,0.8s-0.1,0.6-0.3,0.8s-0.5,0.4-0.8,0.6c-0.4,0.1-0.8,0.2-1.2,0.2
						s-0.8-0.1-1.1-0.2c-0.4-0.1-0.7-0.3-1-0.5l0.2-0.4c0.2,0.2,0.5,0.4,0.9,0.5c0.3,0.1,0.7,0.2,1,0.2c0.5,0,1-0.1,1.3-0.3
						s0.5-0.5,0.5-0.9c0-0.3-0.2-0.6-0.4-0.8s-0.7-0.3-1.2-0.3h-1V788h0.8c0.4,0,0.8-0.1,1.1-0.3c0.3-0.2,0.4-0.4,0.4-0.7
						c0-0.3-0.2-0.6-0.5-0.8c-0.3-0.2-0.7-0.3-1.2-0.3c-0.6,0-1.2,0.2-1.7,0.5l-0.2-0.4c0.6-0.3,1.3-0.5,2-0.5
						c0.6,0,1.1,0.1,1.5,0.4c0.4,0.2,0.6,0.6,0.6,1c0,0.3-0.1,0.5-0.3,0.8c-0.2,0.2-0.5,0.4-0.8,0.5
						C67.1,788.3,67.4,788.5,67.6,788.7z"/>
					<path class="st3" d="M73.2,786.1c0.4,0.4,0.6,0.8,0.6,1.5v3.5h-0.5v-1c-0.2,0.3-0.4,0.6-0.8,0.8c-0.3,0.2-0.7,0.3-1.2,0.3
						c-0.6,0-1.1-0.2-1.5-0.4c-0.4-0.3-0.5-0.6-0.5-1.1c0-0.4,0.2-0.8,0.5-1.1c0.3-0.3,0.8-0.4,1.6-0.4h1.9v-0.4
						c0-0.5-0.1-0.9-0.4-1.2c-0.3-0.3-0.7-0.4-1.2-0.4c-0.4,0-0.7,0.1-1,0.2c-0.3,0.1-0.6,0.3-0.8,0.5l-0.2-0.4
						c0.3-0.2,0.6-0.4,1-0.6c0.4-0.1,0.8-0.2,1.2-0.2C72.3,785.6,72.8,785.7,73.2,786.1z M72.5,790.4c0.3-0.2,0.6-0.5,0.7-0.9v-1
						h-1.9c-0.5,0-0.9,0.1-1.2,0.3c-0.2,0.2-0.4,0.5-0.4,0.8c0,0.4,0.1,0.6,0.4,0.8c0.3,0.2,0.6,0.3,1.1,0.3
						C71.8,790.7,72.1,790.6,72.5,790.4z"/>
					<path class="st3" d="M83.2,785.6v5.5h-7.4v-5.5h0.5v5h2.9v-5h0.5v5h2.9v-5H83.2z M84,790.6v1.7h-0.5v-1.3h-0.9v-0.4H84z"/>
					<path class="st3" d="M85.5,785.6H86v4.7l3.9-4.7h0.4v5.5h-0.5v-4.7l-3.9,4.7h-0.4V785.6z"/>
					<path class="st3" d="M96.3,786.1h-2.1v5h-0.5v-5h-2.1v-0.5h4.8L96.3,786.1L96.3,786.1z"/>
					<path class="st3" d="M100.8,786.1c0.4,0.4,0.6,0.8,0.6,1.5v3.5h-0.5v-1c-0.2,0.3-0.4,0.6-0.8,0.8c-0.3,0.2-0.7,0.3-1.2,0.3
						c-0.6,0-1.1-0.2-1.5-0.4c-0.4-0.3-0.5-0.6-0.5-1.1c0-0.4,0.2-0.8,0.5-1.1c0.3-0.3,0.8-0.4,1.6-0.4h1.9v-0.4
						c0-0.5-0.1-0.9-0.4-1.2c-0.3-0.3-0.7-0.4-1.2-0.4c-0.4,0-0.7,0.1-1,0.2c-0.3,0.1-0.6,0.3-0.8,0.5l-0.2-0.4
						c0.3-0.2,0.6-0.4,1-0.6c0.4-0.1,0.8-0.2,1.2-0.2C99.9,785.6,100.4,785.7,100.8,786.1z M100.1,790.4c0.3-0.2,0.6-0.5,0.7-0.9v-1
						H99c-0.5,0-0.9,0.1-1.2,0.3s-0.4,0.5-0.4,0.8c0,0.4,0.1,0.6,0.4,0.8c0.3,0.2,0.6,0.3,1.1,0.3
						C99.4,790.7,99.8,790.6,100.1,790.4z"/>
					<path class="st3" d="M110.3,785.9c0.4,0.2,0.7,0.6,1,1c0.2,0.4,0.4,0.9,0.4,1.5s-0.1,1-0.4,1.5c-0.2,0.4-0.6,0.8-1,1
						c-0.4,0.2-0.9,0.4-1.4,0.4c-0.5,0-0.9-0.1-1.3-0.3c-0.4-0.2-0.7-0.5-0.9-1v3.3h-0.5v-7.5h0.5v1.3c0.2-0.4,0.5-0.8,0.9-1
						c0.4-0.2,0.8-0.4,1.3-0.4C109.4,785.6,109.9,785.7,110.3,785.9z M110,790.4c0.3-0.2,0.6-0.5,0.8-0.8c0.2-0.4,0.3-0.8,0.3-1.2
						s-0.1-0.8-0.3-1.2c-0.2-0.4-0.4-0.6-0.8-0.8c-0.4-0.2-0.7-0.3-1.1-0.3c-0.4,0-0.8,0.1-1.1,0.3c-0.3,0.2-0.6,0.5-0.8,0.8
						c-0.2,0.4-0.3,0.8-0.3,1.2s0.1,0.8,0.3,1.2c0.2,0.4,0.4,0.6,0.8,0.8c0.3,0.2,0.7,0.3,1.1,0.3
						C109.3,790.7,109.7,790.6,110,790.4z"/>
					<path class="st3" d="M118,788.5h-4.7c0,0.4,0.1,0.8,0.3,1.1s0.5,0.6,0.8,0.8c0.4,0.2,0.7,0.3,1.2,0.3c0.4,0,0.7-0.1,1-0.2
						c0.3-0.1,0.6-0.3,0.8-0.6l0.3,0.4c-0.2,0.3-0.5,0.5-0.9,0.6c-0.4,0.2-0.8,0.2-1.2,0.2c-0.6,0-1-0.1-1.5-0.4
						c-0.4-0.2-0.8-0.6-1-1c-0.2-0.4-0.4-0.9-0.4-1.5c0-0.5,0.1-1,0.3-1.4c0.2-0.4,0.5-0.8,0.9-1c0.4-0.2,0.8-0.4,1.3-0.4
						c0.5,0,0.9,0.1,1.3,0.4s0.7,0.6,0.9,1c0.2,0.4,0.3,0.9,0.3,1.4L118,788.5z M114.3,786.3c-0.3,0.2-0.6,0.4-0.7,0.7
						c-0.2,0.3-0.3,0.6-0.3,1h4.2c0-0.4-0.1-0.7-0.3-1s-0.4-0.6-0.7-0.7c-0.3-0.2-0.6-0.3-1-0.3C115,786,114.7,786.1,114.3,786.3z"
						/>
					<path class="st3" d="M127.1,785.6v5.5h-7.4v-5.5h0.5v5h2.9v-5h0.5v5h2.9v-5H127.1z"/>
					<path class="st3" d="M134,788.5h-4.7c0,0.4,0.1,0.8,0.3,1.1s0.5,0.6,0.8,0.8c0.4,0.2,0.7,0.3,1.2,0.3c0.4,0,0.7-0.1,1-0.2
						c0.3-0.1,0.6-0.3,0.8-0.6l0.3,0.4c-0.2,0.3-0.5,0.5-0.9,0.6c-0.4,0.2-0.8,0.2-1.2,0.2c-0.6,0-1-0.1-1.5-0.4
						c-0.4-0.2-0.8-0.6-1-1c-0.2-0.4-0.4-0.9-0.4-1.5c0-0.5,0.1-1,0.3-1.4c0.2-0.4,0.5-0.8,0.9-1s0.8-0.4,1.3-0.4
						c0.5,0,0.9,0.1,1.3,0.4s0.7,0.6,0.9,1c0.2,0.4,0.3,0.9,0.3,1.4L134,788.5z M130.4,786.3c-0.3,0.2-0.6,0.4-0.7,0.7
						c-0.2,0.3-0.3,0.6-0.3,1h4.2c0-0.4-0.1-0.7-0.3-1c-0.2-0.3-0.4-0.6-0.7-0.7c-0.3-0.2-0.6-0.3-1-0.3
						C131,786,130.7,786.1,130.4,786.3z"/>
					<path class="st3" d="M135.7,785.6h0.5v2.5h3.7v-2.5h0.5v5.5H140v-2.5h-3.7v2.5h-0.5V785.6z"/>
					<path class="st3" d="M142.7,785.6h0.5v4.7l3.9-4.7h0.4v5.5h-0.5v-4.7l-3.9,4.7h-0.4V785.6z"/>
					<path class="st3" d="M149.9,785.6h0.5v4.7l3.9-4.7h0.4v5.5h-0.5v-4.7l-3.9,4.7h-0.4V785.6z M151.2,784.4
						c-0.3-0.2-0.4-0.5-0.4-1h0.4c0,0.3,0.1,0.5,0.3,0.7c0.2,0.2,0.5,0.2,0.8,0.2c0.3,0,0.6-0.1,0.8-0.2c0.2-0.2,0.3-0.4,0.3-0.7
						h0.4c0,0.4-0.2,0.7-0.4,1c-0.3,0.2-0.6,0.3-1.1,0.3C151.9,784.8,151.5,784.6,151.2,784.4z"/>
					<path class="st3" d="M159.8,785.6h0.5v4.7l3.9-4.7h0.4v5.5h-0.5v-4.7l-3.9,4.7h-0.4V785.6L159.8,785.6z"/>
					<path class="st3" d="M169.6,785.6h0.5v2.5h3.7v-2.5h0.5v5.5h-0.5v-2.5h-3.7v2.5h-0.5V785.6z"/>
					<path class="st3" d="M180,786.1c0.4,0.4,0.6,0.8,0.6,1.5v3.5h-0.5v-1c-0.2,0.3-0.4,0.6-0.8,0.8c-0.3,0.2-0.7,0.3-1.2,0.3
						c-0.6,0-1.1-0.2-1.5-0.4c-0.4-0.3-0.5-0.6-0.5-1.1c0-0.4,0.2-0.8,0.5-1.1c0.3-0.3,0.8-0.4,1.6-0.4h1.9v-0.4
						c0-0.5-0.1-0.9-0.4-1.2c-0.3-0.3-0.7-0.4-1.2-0.4c-0.4,0-0.7,0.1-1,0.2c-0.3,0.1-0.6,0.3-0.8,0.5l-0.2-0.4
						c0.3-0.2,0.6-0.4,1-0.6c0.4-0.1,0.8-0.2,1.2-0.2C179.1,785.6,179.6,785.7,180,786.1z M179.3,790.4c0.3-0.2,0.6-0.5,0.7-0.9v-1
						h-1.9c-0.5,0-0.9,0.1-1.2,0.3c-0.2,0.2-0.4,0.5-0.4,0.8c0,0.4,0.1,0.6,0.4,0.8c0.3,0.2,0.6,0.3,1.1,0.3
						C178.6,790.7,179,790.6,179.3,790.4z"/>
					<path class="st3" d="M186.4,786.1h-3.2v5h-0.5v-5.5h3.8V786.1z"/>
					<path class="st3" d="M191.7,785.9c0.4,0.2,0.7,0.6,1,1c0.2,0.4,0.4,0.9,0.4,1.5s-0.1,1-0.4,1.5c-0.2,0.4-0.6,0.8-1,1
						c-0.4,0.2-0.9,0.4-1.4,0.4c-0.5,0-0.9-0.1-1.3-0.3c-0.4-0.2-0.7-0.5-0.9-1v3.3h-0.5v-7.5h0.5v1.3c0.2-0.4,0.5-0.8,0.9-1
						c0.4-0.2,0.8-0.4,1.3-0.4C190.8,785.6,191.3,785.7,191.7,785.9z M191.4,790.4c0.3-0.2,0.6-0.5,0.8-0.8c0.2-0.4,0.3-0.8,0.3-1.2
						s-0.1-0.8-0.3-1.2c-0.2-0.4-0.4-0.6-0.8-0.8c-0.4-0.2-0.7-0.3-1.1-0.3s-0.8,0.1-1.1,0.3c-0.3,0.2-0.6,0.5-0.8,0.8
						c-0.2,0.4-0.3,0.8-0.3,1.2s0.1,0.8,0.3,1.2c0.2,0.4,0.4,0.6,0.8,0.8c0.3,0.2,0.7,0.3,1.1,0.3S191.1,790.6,191.4,790.4z"/>
					<path class="st3" d="M198.1,786.1c0.4,0.4,0.6,0.8,0.6,1.5v3.5h-0.5v-1c-0.2,0.3-0.4,0.6-0.8,0.8c-0.3,0.2-0.7,0.3-1.2,0.3
						c-0.6,0-1.1-0.2-1.5-0.4c-0.4-0.3-0.5-0.6-0.5-1.1c0-0.4,0.2-0.8,0.5-1.1c0.3-0.3,0.8-0.4,1.6-0.4h1.9v-0.4
						c0-0.5-0.1-0.9-0.4-1.2c-0.3-0.3-0.7-0.4-1.2-0.4c-0.4,0-0.7,0.1-1,0.2c-0.3,0.1-0.6,0.3-0.8,0.5l-0.2-0.4
						c0.3-0.2,0.6-0.4,1-0.6c0.4-0.1,0.8-0.2,1.2-0.2C197.2,785.6,197.7,785.7,198.1,786.1z M197.4,790.4c0.3-0.2,0.6-0.5,0.7-0.9
						v-1h-1.9c-0.5,0-0.9,0.1-1.2,0.3c-0.2,0.2-0.4,0.5-0.4,0.8c0,0.4,0.1,0.6,0.4,0.8c0.3,0.2,0.6,0.3,1.1,0.3
						C196.7,790.7,197.1,790.6,197.4,790.4z"/>
					<path class="st3" d="M205.4,788.6h-1.3v2.5h-0.5v-2.5h-1.3l-1.8,2.5h-0.6l2.1-2.8l-1.9-2.7h0.6l1.7,2.5h1.3v-2.5h0.5v2.5h1.3
						l1.7-2.5h0.6l-1.9,2.7l2,2.8h-0.6L205.4,788.6z"/>
					<path class="st3" d="M214.4,790.6v1.8h-0.5v-1.4h-5.2v1.4h-0.5v-1.8h0.3c0.4,0,0.6-0.3,0.8-0.8c0.1-0.6,0.2-1.3,0.3-2.3
						l0.1-1.8h3.8v5H214.4z M209.8,789.5c-0.1,0.6-0.3,0.9-0.6,1.1h3.7v-4.6h-2.9l-0.1,1.4C210,788.3,209.9,789,209.8,789.5z"/>
					<path class="st3" d="M220.6,788.5h-4.7c0,0.4,0.1,0.8,0.3,1.1s0.5,0.6,0.8,0.8c0.4,0.2,0.7,0.3,1.2,0.3c0.4,0,0.7-0.1,1-0.2
						c0.3-0.1,0.6-0.3,0.8-0.6l0.3,0.4c-0.2,0.3-0.5,0.5-0.9,0.6c-0.4,0.2-0.8,0.2-1.2,0.2c-0.6,0-1-0.1-1.5-0.4
						c-0.4-0.2-0.8-0.6-1-1c-0.2-0.4-0.4-0.9-0.4-1.5c0-0.5,0.1-1,0.3-1.4c0.2-0.4,0.5-0.8,0.9-1s0.8-0.4,1.3-0.4s0.9,0.1,1.3,0.4
						s0.7,0.6,0.9,1c0.2,0.4,0.3,0.9,0.3,1.4L220.6,788.5z M217,786.3c-0.3,0.2-0.6,0.4-0.7,0.7c-0.2,0.3-0.3,0.6-0.3,1h4.2
						c0-0.4-0.1-0.7-0.3-1s-0.4-0.6-0.7-0.7c-0.3-0.2-0.6-0.3-1-0.3C217.6,786,217.2,786.1,217,786.3z"/>
					<path class="st3" d="M222.3,785.6h0.5v2.5h3.7v-2.5h0.5v5.5h-0.5v-2.5h-3.7v2.5h-0.5V785.6z"/>
					<path class="st3" d="M229.3,785.6h0.5v4.7l3.9-4.7h0.4v5.5h-0.5v-4.7l-3.9,4.7h-0.4V785.6z"/>
					<path class="st3" d="M241.2,788.5h-4.7c0,0.4,0.1,0.8,0.3,1.1s0.5,0.6,0.8,0.8c0.4,0.2,0.7,0.3,1.2,0.3c0.4,0,0.7-0.1,1-0.2
						c0.3-0.1,0.6-0.3,0.8-0.6l0.3,0.4c-0.2,0.3-0.5,0.5-0.9,0.6c-0.4,0.2-0.8,0.2-1.2,0.2c-0.6,0-1-0.1-1.5-0.4
						c-0.4-0.2-0.8-0.6-1-1c-0.2-0.4-0.4-0.9-0.4-1.5c0-0.5,0.1-1,0.3-1.4c0.2-0.4,0.5-0.8,0.9-1s0.8-0.4,1.3-0.4s0.9,0.1,1.3,0.4
						s0.7,0.6,0.9,1c0.2,0.4,0.3,0.9,0.3,1.4L241.2,788.5z M237.5,786.3c-0.3,0.2-0.6,0.4-0.7,0.7c-0.2,0.3-0.3,0.6-0.3,1h4.2
						c0-0.4-0.1-0.7-0.3-1s-0.4-0.6-0.7-0.7c-0.3-0.2-0.6-0.3-1-0.3C238.2,786,237.8,786.1,237.5,786.3z"/>
					<path class="st3" d="M69,798.2v5.5h-0.5v-5h-3.8v5h-0.5v-5.5H69z"/>
					<path class="st3" d="M72.1,803.4c-0.4-0.2-0.7-0.6-1-1c-0.2-0.4-0.4-0.9-0.4-1.4s0.1-1,0.4-1.4c0.2-0.4,0.6-0.8,1-1
						c0.4-0.2,0.9-0.4,1.4-0.4c0.5,0,1,0.1,1.4,0.4s0.7,0.6,1,1c0.2,0.4,0.4,0.9,0.4,1.4s-0.1,1-0.4,1.4c-0.2,0.4-0.6,0.8-1,1
						s-0.9,0.4-1.4,0.4C73,803.7,72.5,803.6,72.1,803.4z M74.6,803c0.3-0.2,0.6-0.5,0.8-0.8c0.2-0.4,0.3-0.8,0.3-1.2
						s-0.1-0.8-0.3-1.2c-0.2-0.4-0.4-0.6-0.8-0.8c-0.3-0.2-0.7-0.3-1.1-0.3c-0.4,0-0.8,0.1-1.1,0.3c-0.3,0.2-0.6,0.5-0.8,0.8
						c-0.2,0.4-0.3,0.8-0.3,1.2s0.1,0.8,0.3,1.2s0.4,0.6,0.8,0.8c0.3,0.2,0.7,0.3,1.1,0.3C73.9,803.2,74.3,803.2,74.6,803z"/>
					<path class="st3" d="M81.8,798.6c0.4,0.2,0.7,0.5,0.9,1c0.2,0.4,0.3,0.9,0.3,1.4c0,0.5-0.1,1-0.3,1.4c-0.2,0.4-0.6,0.7-1,1
						c-0.4,0.2-0.9,0.4-1.4,0.4c-0.6,0-1.1-0.2-1.5-0.4s-0.7-0.7-1-1.3c-0.2-0.5-0.3-1.2-0.3-1.9c0-0.8,0.1-1.5,0.3-2s0.5-1,0.9-1.3
						s0.9-0.5,1.5-0.7l2.4-0.6l0.1,0.5l-2.3,0.6c-0.6,0.1-1,0.3-1.4,0.6c-0.4,0.2-0.6,0.6-0.8,1s-0.3,1-0.3,1.7
						c0.2-0.5,0.5-0.9,0.9-1.2c0.4-0.3,0.9-0.4,1.5-0.4C81,798.3,81.5,798.4,81.8,798.6z M81.5,803c0.3-0.2,0.6-0.5,0.8-0.8
						c0.2-0.4,0.3-0.7,0.3-1.2s-0.1-0.8-0.3-1.2c-0.2-0.3-0.4-0.6-0.8-0.8c-0.3-0.2-0.7-0.3-1.1-0.3s-0.8,0.1-1.1,0.3
						c-0.3,0.2-0.6,0.4-0.8,0.8c-0.2,0.3-0.3,0.7-0.3,1.2s0.1,0.8,0.3,1.2c0.2,0.4,0.4,0.6,0.8,0.8c0.3,0.2,0.7,0.3,1.1,0.3
						C80.8,803.3,81.2,803.2,81.5,803z"/>
					<path class="st3" d="M89.5,801.1h-4.7c0,0.4,0.1,0.8,0.3,1.1s0.5,0.6,0.8,0.8c0.4,0.2,0.7,0.3,1.2,0.3c0.4,0,0.7-0.1,1-0.2
						c0.3-0.1,0.6-0.3,0.8-0.6l0.3,0.4c-0.2,0.3-0.5,0.5-0.9,0.6c-0.4,0.2-0.8,0.2-1.2,0.2c-0.6,0-1-0.1-1.5-0.4
						c-0.4-0.2-0.8-0.6-1-1c-0.2-0.4-0.4-0.9-0.4-1.5c0-0.5,0.1-1,0.3-1.4c0.2-0.4,0.5-0.8,0.9-1s0.8-0.4,1.3-0.4s0.9,0.1,1.3,0.4
						s0.7,0.6,0.9,1c0.2,0.4,0.3,0.9,0.3,1.4L89.5,801.1z M85.9,798.9c-0.3,0.2-0.6,0.4-0.7,0.7c-0.2,0.3-0.3,0.6-0.3,1H89
						c0-0.4-0.1-0.7-0.3-1c-0.2-0.3-0.4-0.6-0.7-0.7c-0.3-0.2-0.6-0.3-1-0.3C86.5,798.6,86.2,798.7,85.9,798.9z"/>
					<path class="st3" d="M96.2,803.2v1.8h-0.5v-1.4h-5.2v1.4h-0.5v-1.8h0.3c0.4,0,0.6-0.3,0.8-0.8c0.1-0.6,0.2-1.3,0.3-2.3l0.1-1.8
						h3.8v5H96.2z M91.7,802.1c-0.1,0.6-0.3,0.9-0.6,1.1h3.7v-4.6H92l-0.1,1.4C91.9,800.9,91.8,801.5,91.7,802.1z"/>
					<path class="st3" d="M97.8,798.2h0.5v4.7l3.9-4.7h0.4v5.5h-0.5V799l-3.9,4.7h-0.4V798.2z"/>
					<path class="st3" d="M108.6,798.7h-2.1v5h-0.5v-5h-2.1v-0.5h4.8V798.7z"/>
					<path class="st3" d="M114.1,801.1h-4.7c0,0.4,0.1,0.8,0.3,1.1s0.5,0.6,0.8,0.8c0.4,0.2,0.7,0.3,1.2,0.3c0.4,0,0.7-0.1,1-0.2
						c0.3-0.1,0.6-0.3,0.8-0.6l0.3,0.4c-0.2,0.3-0.5,0.5-0.9,0.6c-0.4,0.2-0.8,0.2-1.2,0.2c-0.6,0-1-0.1-1.5-0.4
						c-0.4-0.2-0.8-0.6-1-1c-0.2-0.4-0.4-0.9-0.4-1.5c0-0.5,0.1-1,0.3-1.4c0.2-0.4,0.5-0.8,0.9-1c0.4-0.2,0.8-0.4,1.3-0.4
						c0.5,0,0.9,0.1,1.3,0.4c0.4,0.2,0.7,0.6,0.9,1c0.2,0.4,0.3,0.9,0.3,1.4L114.1,801.1z M110.5,798.9c-0.3,0.2-0.6,0.4-0.7,0.7
						c-0.2,0.3-0.3,0.6-0.3,1h4.2c0-0.4-0.1-0.7-0.3-1s-0.4-0.6-0.7-0.7c-0.3-0.2-0.6-0.3-1-0.3
						C111.2,798.6,110.8,798.7,110.5,798.9z"/>
					<path class="st3" d="M120,798.2v5.5h-0.5v-5h-2.9l-0.1,1.5c0,0.8-0.1,1.4-0.2,1.9c-0.1,0.5-0.2,0.9-0.4,1.3s-0.5,0.5-0.8,0.5
						c-0.1,0-0.2,0-0.4-0.1l0-0.4c0.1,0,0.2,0,0.2,0c0.3,0,0.5-0.2,0.7-0.4c0.2-0.3,0.2-0.6,0.3-1.1c0-0.4,0.1-1,0.1-1.7l0.1-1.9
						H120z"/>
					<path class="st3" d="M126.9,801.1h-4.7c0,0.4,0.1,0.8,0.3,1.1s0.5,0.6,0.8,0.8c0.4,0.2,0.7,0.3,1.2,0.3c0.4,0,0.7-0.1,1-0.2
						c0.3-0.1,0.6-0.3,0.8-0.6l0.3,0.4c-0.2,0.3-0.5,0.5-0.9,0.6c-0.4,0.2-0.8,0.2-1.2,0.2c-0.6,0-1-0.1-1.5-0.4
						c-0.4-0.2-0.8-0.6-1-1c-0.2-0.4-0.4-0.9-0.4-1.5c0-0.5,0.1-1,0.3-1.4c0.2-0.4,0.5-0.8,0.9-1s0.8-0.4,1.3-0.4
						c0.5,0,0.9,0.1,1.3,0.4s0.7,0.6,0.9,1c0.2,0.4,0.3,0.9,0.3,1.4L126.9,801.1z M123.3,798.9c-0.3,0.2-0.6,0.4-0.7,0.7
						c-0.2,0.3-0.3,0.6-0.3,1h4.2c0-0.4-0.1-0.7-0.3-1s-0.4-0.6-0.7-0.7c-0.3-0.2-0.6-0.3-1-0.3
						C123.9,798.6,123.6,798.7,123.3,798.9z"/>
					<path class="st3" d="M128.7,798.2h0.5v4.7l3.9-4.7h0.4v5.5H133V799l-3.9,4.7h-0.4V798.2z M130,797c-0.3-0.2-0.4-0.5-0.4-1h0.4
						c0,0.3,0.1,0.5,0.3,0.7c0.2,0.2,0.5,0.2,0.8,0.2c0.3,0,0.6-0.1,0.8-0.2c0.2-0.2,0.3-0.4,0.3-0.7h0.4c0,0.4-0.2,0.7-0.4,1
						c-0.3,0.2-0.6,0.3-1.1,0.3C130.6,797.4,130.3,797.2,130,797z"/>
				</g>
			</g>
			<circle class="st3" cx="63.3" cy="745.9" r="2.4"/>
		</g>
	</g>
	<circle class="st3" cx="63.8" cy="775.6" r="2.4"/>
</g>
</svg>
