<?xml version="1.0" encoding="utf-8"?>
<!-- Generator: Adobe Illustrator 24.1.1, SVG Export Plug-In . SVG Version: 6.00 Build 0)  -->
<svg version="1.1" id="Слой_1" xmlns="http://www.w3.org/2000/svg" xmlns:xlink="http://www.w3.org/1999/xlink" x="0px" y="0px"
	 viewBox="0 0 682.8 131.1" style="enable-background:new 0 0 682.8 131.1;" xml:space="preserve">
<style type="text/css">
	.st0{fill:#FFFFFF;}
</style>
<rect width="682.8" height="131.1"/>
<path class="st0" d="M448.4,3.3h12.7c2.8-0.1,5.5,0.5,8.1,1.7c2.2,1.1,4.1,2.8,5.4,4.9c1.3,2.2,2,4.8,1.9,7.4
	c0.1,2.6-0.6,5.1-1.9,7.4c-1.3,2.1-3.2,3.8-5.4,4.9c-2.5,1.2-5.3,1.8-8.1,1.7h-12.7V3.3z M460.8,26c2.5,0.1,4.9-0.7,6.7-2.3
	c1.7-1.7,2.6-4,2.5-6.3c0.1-2.4-0.8-4.7-2.5-6.3c-1.8-1.6-4.2-2.5-6.7-2.3h-5.9V26H460.8z"/>
<path class="st0" d="M482.5,3.3h6.5v28h-6.5L482.5,3.3z"/>
<path class="st0" d="M515.5,16.8h5.9v11.4c-1.6,1.2-3.4,2.1-5.3,2.6c-1.9,0.6-4,0.9-6,0.9c-2.7,0-5.4-0.6-7.8-1.9
	c-2.3-1.2-4.2-3-5.5-5.2c-1.3-2.3-2-4.8-2-7.5c0-2.6,0.7-5.2,2-7.5c1.3-2.2,3.2-4,5.5-5.2c2.4-1.3,5.2-1.9,7.9-1.9
	c2.3,0,4.5,0.4,6.6,1.2c1.9,0.8,3.6,2,5,3.6l-4.2,3.8c-1.8-2-4.5-3.2-7.2-3.2c-1.7,0-3.3,0.4-4.8,1.1c-1.4,0.7-2.5,1.8-3.2,3.2
	c-0.8,1.4-1.2,3-1.1,4.7c0,1.6,0.4,3.2,1.1,4.6c0.8,1.3,1.9,2.4,3.2,3.2c1.4,0.8,3.1,1.2,4.7,1.1c1.7,0,3.5-0.4,5-1.2L515.5,16.8z"
	/>
<path class="st0" d="M528.4,3.3h6.5v28h-6.5V3.3z"/>
<path class="st0" d="M548.3,8.6h-9V3.3h24.4v5.3h-9v22.7h-6.5L548.3,8.6z"/>
<path class="st0" d="M585.3,25.3h-13l-2.5,6h-6.6l12.5-28h6.4l12.5,28h-6.8L585.3,25.3z M583.3,20.4l-4.5-10.7l-4.4,10.7H583.3z"/>
<path class="st0" d="M598.5,3.3h6.5V26h14v5.3h-20.5V3.3z"/>
<path class="st0" d="M448.4,51.8h12.7c2.8-0.1,5.5,0.5,8.1,1.7c2.2,1.1,4.1,2.8,5.4,4.9c2.6,4.6,2.6,10.2,0,14.7
	c-1.3,2.1-3.2,3.8-5.4,4.9c-2.5,1.2-5.3,1.8-8.1,1.7h-12.7V51.8z M460.8,74.5c2.5,0.1,4.9-0.7,6.7-2.3c1.7-1.7,2.6-4,2.5-6.3
	c0.1-2.4-0.8-4.7-2.5-6.3c-1.8-1.6-4.2-2.5-6.7-2.3h-5.9v17.4H460.8z"/>
<path class="st0" d="M513.1,79.4c-1.8-0.5-3.5-1.3-5-2.3l2.2-4.9c1.3,0.9,2.8,1.7,4.3,2.1c1.6,0.5,3.3,0.8,5,0.8
	c1.4,0.1,2.8-0.2,4.1-0.8c0.8-0.4,1.3-1.3,1.3-2.2c0-0.6-0.3-1.3-0.8-1.7c-0.6-0.5-1.3-0.8-2-1.1c-0.8-0.3-1.9-0.6-3.3-0.9
	c-1.8-0.4-3.5-0.9-5.2-1.5c-1.4-0.5-2.6-1.3-3.5-2.4c-1-1.3-1.5-2.9-1.4-4.5c0-1.6,0.4-3.1,1.3-4.4c1-1.4,2.4-2.5,4-3.1
	c2.1-0.8,4.3-1.2,6.5-1.2c1.8,0,3.5,0.2,5.3,0.6c1.6,0.4,3.1,1,4.5,1.8l-2,4.9c-2.4-1.4-5-2.2-7.8-2.2c-1.4-0.1-2.8,0.2-4,0.9
	c-0.8,0.5-1.3,1.4-1.3,2.3c0,1,0.6,1.8,1.5,2.1c1.5,0.6,3,1.1,4.6,1.4c1.8,0.4,3.5,0.9,5.2,1.5c1.3,0.5,2.6,1.3,3.5,2.4
	c1,1.2,1.6,2.8,1.5,4.4c0,1.6-0.5,3.1-1.4,4.4c-1,1.4-2.4,2.5-4,3.1c-2.1,0.8-4.3,1.2-6.5,1.2C517.3,80.3,515.1,80,513.1,79.4z"/>
<path class="st0" d="M536.8,51.8h6.5v28h-6.5V51.8z"/>
<path class="st0" d="M569.8,65.3h5.9v11.4c-1.6,1.2-3.4,2.1-5.3,2.6c-1.9,0.6-4,0.9-6,0.9c-2.7,0-5.4-0.6-7.8-1.9
	c-2.3-1.2-4.2-3-5.5-5.2c-2.6-4.6-2.6-10.3,0-14.9c1.3-2.2,3.2-4,5.5-5.2c2.4-1.3,5.2-1.9,7.9-1.9c2.3,0,4.6,0.4,6.7,1.2
	c1.9,0.8,3.6,2,5,3.6l-4.2,3.9c-1.8-2-4.5-3.2-7.2-3.2c-1.7,0-3.3,0.4-4.8,1.1c-1.4,0.7-2.5,1.8-3.2,3.2c-1.5,2.9-1.5,6.4,0,9.3
	c0.8,1.3,1.9,2.4,3.2,3.2c1.4,0.8,3.1,1.2,4.7,1.1c1.7,0,3.5-0.4,5-1.2L569.8,65.3z"/>
<path class="st0" d="M608.4,51.8v28h-5.3l-14-17v17h-6.4v-28h5.4l13.9,17v-17H608.4z"/>
<path class="st0" d="M451.2,127.9c-1.8-0.5-3.5-1.3-5-2.3l2.2-4.9c1.3,0.9,2.7,1.7,4.3,2.1c1.6,0.5,3.3,0.8,5,0.8
	c1.4,0.1,2.8-0.2,4.1-0.8c0.8-0.4,1.3-1.3,1.3-2.2c0-0.6-0.3-1.3-0.8-1.7c-0.6-0.5-1.3-0.8-2-1.1c-0.8-0.3-1.9-0.6-3.3-0.9
	c-1.8-0.4-3.5-0.9-5.2-1.5c-1.4-0.5-2.6-1.3-3.5-2.4c-1-1.3-1.5-2.9-1.5-4.5c0-1.6,0.4-3.1,1.3-4.4c1-1.4,2.4-2.5,4-3.1
	c2.1-0.8,4.3-1.2,6.5-1.2c1.8,0,3.5,0.2,5.2,0.6c1.6,0.4,3.1,1,4.5,1.8l-2,4.9c-2.3-1.4-5-2.2-7.8-2.2c-1.4-0.1-2.8,0.2-4,0.9
	c-0.8,0.5-1.3,1.4-1.3,2.3c0,1,0.6,1.8,1.5,2.1c1.5,0.6,3,1.1,4.6,1.4c1.8,0.4,3.5,0.9,5.2,1.5c1.3,0.5,2.5,1.3,3.5,2.4
	c1,1.2,1.5,2.8,1.5,4.4c0,1.6-0.5,3.1-1.3,4.4c-1,1.4-2.4,2.5-4,3.1c-2.1,0.8-4.3,1.2-6.5,1.2C455.5,128.8,453.3,128.5,451.2,127.9z
	"/>
<path class="st0" d="M496.6,123.1v5.2H475v-28h21.2v5.2h-14.8v6.1h13v5h-13v6.5L496.6,123.1z"/>
<path class="st0" d="M502.3,74.8V80h-21.6V52h21.2v5.2h-14.8v6.1h13v5h-13v6.5L502.3,74.8z"/>
<path class="st0" d="M502.8,100.3h6.5V123h14v5.3h-20.5V100.3z"/>
<path class="st0" d="M549.6,123.1v5.2H528v-28h21.2v5.2h-14.8v6.1h13v5h-13v6.5L549.6,123.1z"/>
<path class="st0" d="M578.5,123v5.3H554v-4.2l15.4-18.5h-15v-5.3h23.6v4.2L562.5,123H578.5z"/>
<path class="st0" d="M609.3,100.3v28H604l-14-17v17h-6.4v-28h5.4l13.9,17v-17H609.3z"/>
<path class="st0" d="M638.6,123.1v5.2H617v-28h21.2v5.2h-14.8v6.1h13v5h-13v6.5L638.6,123.1z"/>
<path class="st0" d="M671.3,100.3l-12.1,28h-6.4l-12.1-28h7l8.5,20l8.6-20H671.3z"/>
<path class="st0" d="M101.6,106.8v24.4H0V0h99.1v24.4h-69v28.5H91v23.6H30.2v30.3H101.6z"/>
<path class="st0" d="M236.7,106.4v24.7H122v-19.7l72-86.8h-70.5V0h110.4v19.7l-71.8,86.8H236.7z"/>
<path class="st0" d="M347.2,103.1h-60.9l-11.6,28.1h-31.1L302.1,0h30l58.7,131.2h-31.9L347.2,103.1z M337.7,80.1l-20.8-50.3
	L296.1,80L337.7,80.1z"/>
</svg>
